<svg id="レイヤー_1" xmlns="http://www.w3.org/2000/svg" viewBox="0 0 400 400"><style>.st0{opacity:3e-2}.st0,.st1,.st2,.st3,.st4{enable-background:new}.st1{opacity:6e-2}.st2{opacity:2e-2}.st3{opacity:4e-2}.st4{opacity:5e-2}</style><path class="st0" d="M2.2 208c.1.7.8.5 1.4.3 1.7-.4 3.2-1.4 5.3-2.1-.8 1.5-1.9 2.1-3.1 3.4 2-1 4-.8 4.7 0 1.1 1.3 1.6.5 2.4 0 .8-.2 1.5-.4 2.3-.6.4.2.8.4 1.2.5.5.1.8-1.2 1.4-.2.4.6-.1 1.1-.7 1.5-.3.2-.4.5-.3.9.1.3.4.3.7.2 1.6-.6 3.4.3 4.9-.7.2-.1.9 0 .9.2.6 1.6 1.3.6 2.1.2.9-.4 2-1.3 2.7-.5 1.4 1.6 2.5.9 3.8 0 1.7-1.2 3.4-2.4 5.6-2.4.5 0 .8-.5 1.2-.6 1.7-.6 1.4-2.4 2.2-3.5 1.2-1.6 3.5-2.3 3.9-4.8.2-1 1.7-1.7 2.8-2.3.3-.2.8-.2.8-.8 0-1 .4-3.2.6-3.8-.2 0-.4.1-.6.1-.6.2-1.4 1-1.7.2-.4-.7.7-.9 1.2-1.3 2-1.2 3.7-2.8 5.6-4.1.9-.6-.1-2 1.2-2.4-.3-.4-1.7-.3-.5-1.3.6-.4 1-1 1.8-1.2 1.6-.4 2.3-1.9 3.7-2.8-1.7-.6-2.6 1.1-4 .8-.1-.8.8-1 .6-1.8-1.1.2-2.2.5-3.2.7-.1-.7.8-.8.8-1.5-2.9-.5-3.6 3.3-6.3 3.4.3-1.3 2.1-1.3 1.9-2.7-.9.1-1.8.6-2.5 1.2-1.1.9-2.5 1.1-3.9 1.5-.4.1-.9.2-.7-.5.3-1.3-.4-.7-.9-.5-1.2.5-2.2 2-3.3 1.6-1.6-.5-2.3.3-3.3 1.1-3.9 3.3-3.9 3.3-7.5 3.3.6-.5 1.5-.7 1.8-2-1.4.6-2.5.5-3.5-.4-.1-.1-.5 0-.7.1-2.3 1.1-5 .8-7.3 1.8-.3.1-.9.2-.9.1-.7-1.7-1.6-.4-2.4-.1-1.4.5-2.7 1.1-4 1.8-.4.2-.9.3-1 .8-.4 1.6-1.6 2.3-3.1 2.6-.5-1.3 1.2-1.5 1.4-2.5-2.4.1-4.5.8-6.4 2.1-.4.3-.5.7-1.5.4.2 5.2.2 10.3.2 15.4 1-.1 2-.3 2.2 1.2z"/><path class="st1" d="M20.7 398c-.6-1 1.2-1.6 1.8-2.6.2-.3.8-.6.3-.9-.4-.3-.3-1.3-1.2-1-.3.1-.8.3-1-.2.2-.5.7-.6 1-.9 1.7-1.2 1.6-1.9 0-3.2-1.5-1.3-3 .1-4.7-.4 1.8-1.2 1.8-2.8 1.5-4.5.9-.4 1.7-.9 2.1-1.9.2-.1.4-.2.4-.3-.1-.3-.4-.2-.6-.2-1.1-1.2.6-1.1.8-1.7.1-.3 1.5-.5.1-1.1l-.3-.3c.7-2.3-.8-1.9-2.1-1.6-.1-.9.7-1.1.9-1.6s.2-.8-.5-1c-1.5-.3-2-1.1-1.2-2.5.9-1.4-1.6-2.6-.2-3.9-.1 0-.1-.1-.2-.1-1.4 0-.7-.6-.3-1.2.3-.4.2-.9 0-1.3-.3-.5-.9-.3-1.3-.1l-3 1.2c-.7-1.5 1.3-1.8 1.3-3-.4.1-.7.2-1.1.3-.4.1-.7.5-1.1.1-.3-.5 0-.9.4-1.2.5-.4 1.1-.5 1.5-1 .2-.2.8-.4.3-1.3-.8-1.6-1.2-.6-1.9-.2s-1.4.6-2 .1c-.4-.3-.4-.8-.1-1 1.1-.7 1-2 2-3.3-1.1.5-1.8.7-2.4 1.1-1.5 1-2.5-.4-3.7-.7-.2-.1-.7-.4-.2-.7 1.4-.9.9-1.4-.1-2.6-1.4-1.7-2-2-4-.4 0 .1-.5.2-.9.2-.2-1.5 1.7-2.2 1.7-3.7-1 .1-1.8.1-2.8.5v49.6c6 0 11.5-.1 17.2-.1h3.2c2.5 0 3.7-.8 4.9-3.3-.7.2-1.3.3-2 .5-.8.6-2 2.2-2.5 1.4z"/><path class="st2" d="M2.9 176c.6.1.9-.2.9-.8.7-.4 1.7-.5 1.9-1.5.5-.1.8-.4.9-.9l.1.1h.1c.5 0 1.1-.1 1.8-.2-.6.6-1.2 1-1.5 1.5s-1.3.9-.7 1.6c.4.4 1.3 0 1.8-.4 2.1-1.6 4.6-1.5 7-2 .3-.1.6-.3.9.1.7 1 .7 1 1.8.3 3.4-2.1 3.4-2.1 5.8-1.5-.4.5-1.3.7-1.3 1.6 2.1.6 3.1-2.2 5.2-1.7-.1.3-.1.5-.2.6-.5.5-1 1-.2 1.6s.9-.3 1.4-.5c1.9-.7 2.1-4.2 5-3.3.1 0 .3-.2.5-.4 2.1-2.4 5.1-1.7 7.9-2.5-.6 1.2-2 1.4-2.2 2.7.8.4 1.3-.1 1.8-.5 1.5-1 3.1-1.5 4.9-1.4 2.4.1 4.4-1.2 6.8-1.1.7 0 1.8-.3 2-1.4 1.3-.6 2.7-1.8 3.9-1.7 1.8.3 2.7-.7 3.8-1.5 1.9-.4 2.5-1.7 2.5-3.4.1 0 .2 0 .3-.1 2.2-1-.2-1.9-.1-2.8.2-.1.3-.3.5-.4 1.9-.6 2.2-2.7 3.5-3.8.2-.2.1-.7-.3-.7-2.2-.3-1.3-2.2-1-2.8.6-1.2.7-1.9-.5-2.6-.2-.1-.4-.4-.2-.7.5-.8 2.7-1.2.6-2.5 0 0 .2-.5.3-.7.8-1 .8-1.7-.7-1.9.2-.9 1.6-.6 1.3-1.7-.2 0-.4-.2-.5-.1-2.2.4-2.2.4-1.7-1.8.1-.3.1-.4-.2-.6-2.7-.9-1.2-1.7.1-2.5.3-.2.5-.4.5-.7-.7.2-1.5.4-2.2.6.2-1.8.4-3.4 2-4.5.2-.1.3-.4.4-.7.2-.4.1-.5-.3-.7-1.5-.7-2.2-2.4-2.1-3.6 0-1.4-.6-2.6-.3-4 .5-2.2-1.6-3.6-2.2-5.5.3-.3.7-1 .1-1-2 .1-.6-1-.6-1.6 0-.2.4-.4.1-.6-.2-.3-.4-.1-.6.1-.6-.1-1 .1-1.4.5-1.7-1-2.4 1.4-4.4 1 .7-.5 1.1-.8 1.5-1.1.3-.3.8-.6.5-1.1-.2-.4-.7-.1-1.1-.1-1.7 0-3 .7-4.1 2-.7.9-1.8 1.6-2.7 1.2-1.7-.7-2.5.5-3.2 1.3-2 2.3-3.3 5.3-5.7 7.3-.2 0-.5.1-.7.1-.9-.3-1.7-1.5-2.9-.3-2.7.5-4.9 1.9-7.2 3.4-.8-.2-1.3 1.1-2 .6-1.5-1.1-2.4.1-3.4.8-.9.7-1.8 1.5-2.8 1.8-2.7.7-4.8 2.6-7.3 3.7-.9.4-2 .8-2.5 1.8-1.2.1-1.9 1.2-3 1.4-.5.1-1.1.5-1.5.3-.7-.3-.1-1.1 0-1.6-1.1 0-1.8.2-2.5.5-2 .9-3.3 2.4-5.3 3.4v40.8c1-.9 2.8-1.4 2.9-3.2zm59.3-33.9c-.5.3-1 .6-1.5.6.5-.1 1-.3 1.5-.6zM25.5 136c-.1-.1-.2-.1-.3-.2.1 0 .2.1.3.2zM0 283.9c1-1.2 3.2-1 3.6-3.1-1.3 0-2.6.7-3.6 1.1v2zm0-3.2c1-.3 1.8-1 3-1.8-1.3-.1-2-.2-3-.2v2z"/><path class="st3" d="M271 227.5c-.1.1-.2.1-.3.2.1-.1.2-.1.3-.2zM231.3 289c3.2-.9 5.9-2.2 7.1-5.7.3-.8 1.1-1.4 1.7-2.2l1.2-1.2c1.6-.5 3.1-1.1 3.8-2.7.7-1.8 2.3-2.8 3.6-4 .6-.5 1.2-.8 1.4-1.6 2.8-1.2 4.7-3.8 7.6-4.9.6-.2 1.2-.9 1.7-1.3.9-.5 1.9-.8 2.2-1.9 1.4-1 2.8-2.1 4.2-3.2 2.9-1.1 4.8-3.1 5.8-6.2-3 .8-3.1.6-2.7-2.3 0-.2-.2-.5-.2-.7.3 0 .6 0 .6-.5.1-.1.2-.2.2-.3.3-.1.6-.1.7-.2.5-.5 1.1-1 .8-1.7-.4-.9-1 .2-1.4 0-.9-.3-2.1.1-2.7-1 .3-.3.6-.5.9-.8.9-.3 1.7-.7.4-1.6.5-.2.7-.7 1-1.2.9.1 1.4-.3 1.4-1.2-.8 0-1.4-.1-1.1-1.3.1-.4.8-.8.3-1.2-2.4-1.5-.4-2.1.6-2.8.3-.2.6-.4.5-.8-.1-.6-.6-.3-1-.3-.3 0-.7.4-1-.1.8-1 1.9-1.2 2.9-2.4 0-.1.6-.3.3-.6s-.6-.1-.8.2c-1.9.5-3.2 2.3-5.3 2.5-.8.3-1.7.6-2.5.9.8-.3 1.6-.6 2.5-.9 0-.2-.1-.4-.1-.6 0-.1-.1-.1-.1-.2 0 0 .1.1.1.2.9-.1 1.5-.7 2.1-1.3.9-.9 1.2-1.7-.1-2.5.3-.6 1.1-.8 1.2-1.5 1.5.1.8-1.4 1.3-2.2-1.4 1.2-2-1.2-3.1-.9 0 0-.3-.7-.2-.9.7-1.1 0-2.2.5-3.2-1-.6-2 .6-2.5 0s-1.5-1.6-1.1-2.4c.6-1.3.2-1.7-.8-2.5-1.4-1.1-2.5-1.7-4.2-.8-.8.4-1.5.9-2.4 1-.3 0-.7.2-.9-.2s.1-.6.4-.8c.6-.5 1.4-.7 1.9-1.4-1.7-1.1-4.1-.8-5.2.8 1 .4 1.7-.5 2.8-.3-1.3 1.3-3.3 1.6-4.2 3.3.4.4.6.7.6.9-.1-.2-.2-.5-.6-.9-.2.1-.5.1-.7.2-.2-.7.9-.8.7-1.5-.6-.5-1.1.1-1.8.1-.1-.8.3-1.9-.8-2.2-.8-.2-1.6 0-1.8 1-.4 0-.7.1-1.1.1-.5-1-.3-2.8-1.6-2.9-1.2-.1-2.6.4-3.3 1.8-.2.1-.4.2-.6.4-1.2-.8-1.9 1.1-3.3.5 1.2-1.9 3.9-2.7 4-5.4-1.3.5-2.6 1-3.7 1.9-.8.7-1.7 1-2.7.7-.1-.9.9-.9 1.2-1.4.2-.4 1-.6.5-1.1-.4-.4-.9 0-1.2.4-1 1.1-2.9 2-3.7 1.6-2.1-1.1-3.2.6-4.7.9-.6.1-1.1.4-1.7.6-.5.2-1 .1-1-.5-.2-1.8-1.5-1.6-2.7-1.4-1 .2-1.9.7-2.8 1-.8.2-1.6.4-2.3 0-.7-.5.1-1.3.2-2.4-3.5 1.2-5.5 4.1-8.4 5.6.8.1 1.4-.1 2-.1.4 0 1 .2.6.6-.9 1.2.5 2.8-.8 4-.1.1-.2.6 0 .7.2.4.6.1.9 0 .7-.3 1.7-1.2 2.1-.6.6.9 1.5 1 2.3 1.5-.4.4-.9.6-1.1 1-.5.8-1.7 1.1-1.3 2.6.4 1.6 1.6 1.5 2.6 1.7.8.2 1.3.1 1.4 1.2.2 1.1-.6.8-.9 1.2-.7 1-2 1.5-2.8 2.7 1.1.1 1.8-.6 2.5-.9.6-.3.9-.1.9.5-2.9.8-2.5 2.6-1.3 4.7.8-.1 1.8-.7 2.8-.1-1 1.5-1.2 3.5-2.8 4.7.8.4 1.3-.4 1.7.2.4.5-.2.8-.5 1.1s-.4.7-.1.8c1.3.5 2 1.1 1.5 2.8-.1.4.2 1.3-.3 1.9-.3.3-.3.6.2.7 1.5.3.5 1 .3 1.5-.3.8-1.9 1.5-.4 2.7.3.2-.1.5-.2.7-1.1 2.2-3.1 3.5-5.1 4.7-.7.4-1.3.4-2.3-.3 2.3-.3 1.9-2.6 3.2-3.7-.8.1-1.6.3-2.5.4.1-.4 0-.6.1-.7.2-.5.9-1 .4-1.6-.5-.5-1.1-.1-1.7.1s-1.2.6-2 .2c1-1.1 1.1-3.3.6-3.5-1.9-.8-.6-1.5-.1-1.9 1-.8.8-1.9.8-2.7s-1.4 0-2.1-.2c-.2-.1-.5.1-.8.1-.3.1-.7.2-.9-.1-.3-.4 0-.8.4-1 1.1-.6.7-1.2.2-2.1-.4-.6-.9-.7-1.4-1-1.7-1-1.8-2-.3-3.1 1.7-1.2 3.4-2.4 3.4-5-.8 0-1.7.7-2.9-.2 2.4-.7.9-2.8 1.8-4-1 .2-1.9.5-2.7 1.1-.7.6-1.1.6-1.8-.4-.8-1-.4-2.2-1-3.1-.7-1.1-.4-1.7.3-2.4.8-.7.8-1.5-.1-1.9-2.1-1-2.1-2.5-1.3-4.4.8-1.8.2-2.5-1.7-2.5-1.2 0-3.3-1.8-2.8-2.3 1.3-1.2.1-3.3 2-4.4-2.7.7-1.8-.8-1.4-2-1.2 0-1.9 1.2-3.2.8.4-.8.8-1.4 1.2-2.1-.7-.4-1.1 0-1.5.4-.4.1-.9.1-1.3.3-1.5.5-2.6.4-2.4-1.6.1-.9-.6-.9-1.2-.7-.8.2-1.6.5-2.4.8.5-.3 1-.6 1.5-1 .7-.6 2.3-.7 2-1.5-.5-1.2-2.2-.9-3.4-.8-.5.1-1 .5-1.4.6-.7.2-1.2.9-2 .5.2-.3.3-.7.5-1 1.6-.3 2.8-1.1 3.3-2.7.1-.3.4-.6.1-.9-.3-.3-.6-.2-.9 0-.9.7-2.1 1.1-2.8 2.1v.3c-.8-.2-1.3.4-2 .5-.2-.2-.3-.4-.5-.5v-.5c.9-.4 1.4-1 1.8-1.8-2.1-.4-3.6.3-5 1.6-.4.4-.8.8-1.4.4-.8-.5.4-.9.1-1.6-1.2.8-2.4 1.2-3 2.7-.4 1.1-1.4 1.9-2.7 2.1-.4.1-1.1.3-1-.5.2-1.3-.5-.9-1-.5-2.3 1.8-5.3 2.5-7.8 4-.3.2-.7.5-.9.8-1.1 2.5-3.8 3.3-5.1 5.5 1.5-.2 2.7-1.5 4.1-2.1 1.5-.6 3-1.3 4.5-1.9-1.6 1.6-4.2 1.9-4.5 4.9-.1 1.5-.4 2.3 1.5 1.9-.8 1.5-.8 2.7-.1 3 1.4.6 1.4.6.2 1.8-.3.3-.7.6-.4.9.2.2.7.1 1.1.2.8.2 1.2-1.2 2.2-.4-1.5 1.5-3.7 2.2-4.8 4.2 1.6.2 2.6-1.7 4.3-1-.3 1.3-2 1.1-2.5 2.5 1.9-.3 2.1 1.3 2.1 2.3 0 1.3-2 1.3-2.5 2.5.9.2 1.4-.5 2.1-.7 1-.3 2.9 1.3 2.4 2-.8 1 0 2.1-.7 3-.2.2-.7.9 0 1.2.6.3.9-.2 1.2-.7l.1.1c.1 1.7-1.6 1.7-2.4 2.5-.4.5-1.4.6-1.1 1.4.4.7 1.2.9 2.1.9s1.5-.9 2.5-.6c-.4 2-1.3 3.7-2.7 5.3 1.3.4 2.3-.7 3.4-.3-.8 2-.7 1.9.2 2.4s1.7 1.1 2.3 1.2c.2 3 1.7 6-.4 8.7 1.4.4 2.3-1.2 3.1-.3.6.6-1 1.3-.8 2.3 2.9.7 3.8 2.8 1.9 5.6 1.5-.4 2.4-1.6 3.7-1.3-.4 1.5-.3 1.6 1.2 1.6.5 0 1.4-.1 1.2.4-.5 1.4.3.9.9.9.2 0 .7-.2.5.2-.8 1.5.5 1.1 1 1 2.1-.1 4 1.1 6.1.7.4-.1.4.4.4.7.5.1 1.1-.2 1.7.2-.7 1.2-2.2 1.2-3.2 1.9 1.3.7 1.3.7-1.8 3.3 2-.1 1.1.7.6 1.4.7 0 1.2-.5 1.7-.8 1.3-.8 2.6-1.9 4.4-1.7.6.1 1.4-.3 1.8.4.4.6-.6 1-.7 1.7 1.4-.9 2.7-1.6 3.9-2.4.4-.3.9-.3 1.3.1.3.4-.1.7-.4 1-.8.8-1.5 1.7-2.3 2.5 2.3-1 3.8 1 6.2 1.2-2.3 1.4-3.8 2.8-5.2 5.1 2.1-1.1 3.5-2.4 5.1-3.5.5-.3 1-.9 1.6-.4.6.6.3 1.4-.3 1.7-1.9 1.1-1.4 3.1-1.8 4.8 2.6-.5 4.1-2.8 6.9-3-.5.7-.8 1.4-.7 2.1 0 .4-.1.9.6 1.1 1.3.4 4.6-.8 5.4-2v-.1l.2-.1h.2v.1c0 .1.8.1.8-.2s-.8-.2-.8-.2c2-1.4 4.1-2.1 4.8-4.9-1.2.3-1.8-.4-2.3-1.2-.4-.9.6-1.1.8-1.6.5-1.4 1.4-2.4 2.7-3.1-1.9 0-3.1 1.8-5.1 1.7 1.1-1.7 2.1-3.3 3.1-5-1.2 0-1.2 0 0-2.8-1.6.3-2.9 1.1-4.5.6-1.2-.4-1-.7-.4-1.4.7-.9 2-1 2.3-2.2-.3-.5-1.2 0-1.3-.8 0-.5.5-.7.9-1 1.6-1 3.3-2 5-2.9.8-.4 2.3-.3 2.2.4-.3 1.3 0 2.5 0 3.7s-.1 2 1.3 2.1c.8.1 1.5.6.6 1.2-1.2.8-1.9 1.4-.4 2.6.1.1 0 .5 0 .8.3 1 .1 2.4.6 2.9 1.9 1.6.5 2.1-.6 2.9-1.2.8-.7 1.3.3 2 .7.5 1.3-.1 1.9 0l.4.4c-.5.6-.9 1.2-1.5 1.9.7-.1 1.4-.6 1.8 0 .5.7-.6.8-.8 1.3-.6 1.2.6.5.9.8.1.1.2.2.3.2 0 1.7-1.1 3.1-1.5 5 .6-.2 1-.3 1.3-.5 1.4-1.1 2.5.4 3.8.4 1.2.4 2.3 1.5 2.8 1.3zm-60.1-46.3c0-.2.1-.4.2-.5 0 .1-.1.3-.2.5zm15.8-32.2c.2-.1.4-.1.6-.1-.2 0-.4.1-.6.1zm4.3 40.9c0-.1.1-.2.1-.3 0 .1 0 .2-.1.3zm5.9 6.1c.2-.2.5-.3.7-.2-.2-.1-.5.1-.7.2zm.8-24.5c.1 0 .2 0 .3.1-.1 0-.2-.1-.3-.1zm3.4 22.9c.1.1.2.2.3.2-.1 0-.2 0-.3-.2zm26.2-33.7c.1-.1.1-.1.1 0h-.1z"/><path class="st2" d="M304.4 59.7c1.3-.6 2.6-1.3 3.9-2s2.7-1.2 4.2-.3c-2.1 1.1-3.4 2.8-4.1 5-.1.2-.3.4-.4.6-.9.2-1.8.5-2.7.7-.9 1.3-2.5 1.4-3.5 2.4-.8.7-2.4 1.3-1.9 2.4s1.6-.4 2.5-.4c-.5 1.2-1.6 1.9-2.5 2.7-.6.6-1.8 1.4-1.3 2 1.2 1.6-.2 2.3-.6 3.5-.4 1-1.5 1.4-1.6 2.4.6.5 1.3-.4 1.9.1-.5 1-1.8 1.1-2 2.4 1-.1 2-.2 2.9-.3-.2.6-.9.8-1.2 1.2-.8 1.1-1.4 2.4-1.3 3.8.1 1.2 1.4-.2 1.9.6-.4 1-1.9 1-2 2.1-.1 1.4-.9 2.1-1.9 2.6-1.5.7-1.9 1.9-2.5 3.2-.4 1-.1 1.2.8 1 1.6-.3 3.2-.2 5.3.2-2.1 1.3-3.4 2.7-4.8 4-1.4 1.4-3 2.5-4 4.3.8.1 1.5.1 2.6.2-1.6 1.2-1.1 2.3-.6 3.6.4 1.1-.4 2.8 1.5 2.5.7 2.3-3.7 3.2-1.2 6 0 0-.1.2-.2.3-1 1.3-.6 1.7.9 2 1.2.2 3 .7 1 2.6-.7.6-.6 2-.3 2.8.4.8 1.4.1 2.2-.1.3-.1.5-.2.7.1-.3.9-1.4 1.2-1.6 2.3 1-.2 1.8-.9 3.2-.5-2.9 1.1-.6 3.4-1.6 4.9-.2.3.7.4 1.1.4.8 0 .9.5.4 1-.3.4-.8.6-1.3.9 1.5.5 2.5 1.2 3.5 1.8.6.4 1.2.6 1.7-.2h1.5c.1 1.9.4 3.6 2.3 4.5-.6.5-1.3 1-1.9 1.5-.3.2-.5.5-.3.8.2.4.7.4 1.1.2 1.7-1.2 3.9-1.7 5.5-3.1l.1-.1c.4.3.8.2 1.2 0 .1 1.1.8.7 1.4.5.7-.2 1.4-1 2.3-.3-.2.1-.3.2-.2.4.1.1.3-.1.4-.1 2.9-1.2 5.9-2.5 9.4-3.9-.7.8-1 1.1-1.3 1.5-1.6.4-2.1 2-3.1 2.9-.6.6-2.4.7-1.7 1.7.6.9 1.6-.5 2.5-.8.1 0 .1-.1.2-.1.5-.2 1-1 1.6-.5.7.7-.8.8-.4 1.8 1.6-1.4 3.5-2.1 5.2-3.2.5-.3.9-.6.7-1.3.1-1 2.3-.6 1.4-2.2.4-.3 1-.6 1.2-1.1.8-.1 1.7-.2 1.8-1.3.5 0 1-.1 1.5-.1 0 .9-.5 1.4-1.2 1.9s-.2 1.1-.1 1.6.5.6.9.4c1.1-.8 2.6-.8 3.6-1.8.2 0 .4 0 .6-.1.4 2.2 2.2 0 3 .9-.4 1.1-1.5 1.3-2.3 2.1-.4.4-1 .5-.4 1.2.4.5.7.7 1.5.4 2.7-1.1 3.6-3.6 5.1-5.7 1.7-.4 2.9-1.6 4.4-2.3.7-.2 1.5-.6 1.4-1.2-.3-2.7 1.4-4.5 2.9-6.3-.6-.6-2 .1-1.7-.5.8-1.1.1-2.3.6-3 .8-1.2 1.2-2.8 2.8-3.4.4-.1.9-.3.6-1.1-1 .2-2 .5-3 .7.4-.7 1.3-1.1 1.5-2 .3-1.6 1.4-2.6 2.9-3.3.9-.4 1.6-1.2 2.3-1.8-1.4-1.1.4-1.5.6-2.4-1.2.1-2.3.1-3.5-.2-.3-.1-1 1-1.4.2-.4-.7.5-1.1 1-1.3 1.8-.8 2-2.7 3-4.1.7-1 0-1.2-.9-1.1 1-1 .2-2.3 1-3.6.9-1.5 2.3-2.5 3.3-3.9-1.6 0-2.7 1.5-4.3 1.5 1.6-2 3.5-3.6 5.8-4.7 1.2-.6 2.8-2 2.2-2.6-1.1-1.3.2-1.4.4-1.9.3-.7 1.2-1 1.3-1.8-.4-.3-1.1.1-1.3-.4-.6-1.9.3-6.4 2.1-7.5 1.3-.8 2.3-1.7 2.7-3.3-.4-.3-1.2.2-1.4-.4-.2-.6.5-.9.8-1.2.2-.2.5-.4.8-.6 1-1.1 0-.9-.6-1-.1-1.6.5-2.8 1.7-3.8.6-.5 1.2-1.8.9-2-1.2-.7-.9-1 .1-1.4 1.2-.5 2.1-1.8 2.2-2.7.3-1.6.8-3 1.6-4.3.3-.4 1.1-.6.7-1.2-.4-.6-1.1-.4-1.6-.2-1.3.4-2.6.9-3.9 1.3 2-1.5-.8-2.9.3-4.1-1.1-.2-1.9 1-2.7.1-.8-.9.3-1.6.6-2.5-.6-.3-1.1-.1-1.5.3h-.8c-.5-.2-.8.1-1.1.5-1.4-.3-2 .9-2.9 1.5-.7.2-1.5.4-1.9 1.1l-.3.3v-.1h-.1c-1.5.1-2.6 1.8-4.5 1.1-.8-.3-2 .9-3.1 1.4.1-.7.7-.9 1.2-1.3s1.4-.7 1.1-1.4c-.4-.7-1.2-.2-1.8.1-2 .7-3.9 1.9-6.6 2.5 3.1-2.2 5.8-4.1 8.7-6.2-1-.3-1.5 0-1.9.2-2.6 1-4.6 3-7.1 4.3-2 1-3.8 2.7-6.4 2.3l.3-.3c1.1-.5 1.2-1.8 1.9-2.6.4-.1.7-.3.4-.8-.3-.3-.7-.1-.9.2-1 .3-1.7.8-3 .6-1.5-.2-2.2 1.6-3.2 2.5-1.4.7-2.8 1.4-4.2 1.7-.2-.6 1.5-1.4 0-1.7-1.2-.3-2.9.2-3.4 1.5s-1.5 1.5-2.5 1.9c-1.4.6-2.8 1.1-4.2 1.7.1-.7.7-1.1 1.3-1.4 1.7-1 3.4-2 5.2-3 .8-.5 1.6-.9 1.8-2-1.6-.4-2.5.7-3.5 1.4-1.1.7-2 1.7-3.4 1.7-.1-1.2 1.9-.9 1.6-2.3-2.5.3-4.1 2-5.8 3.6-1.5 1.4-3.7 2.2-5.9 1.7 3-1.2 4.7-3.3 6.5-6.1-2.2 1.3-4.2 1.8-6.2 2.3-1.6.4-3.5-.3-5 1.1-1.4 1.3-3.8 1.6-5.2 3.6zm-4.8 42s.1 0 0 0c.1.1 0 .1 0 0zm62.8-48.3c0-.5-.3-1.1-.3-1.7 0 .5.3 1.1.3 1.7zm-9.1 3.7h-.2c.1-.1.1-.1.2 0zm-1.4 59.7c-.4.1-.9.2-1.1.4.2-.3.7-.4 1.1-.4zm-33 13.5c0-.1 0-.1-.1-.2.1 0 .1.1.1.2z"/><path class="st1" d="M135.8 384.5c1.5-2.2 4.1-2.9 5.7-4.8.3.4.7.5 1.2.2.1 0 .2-.2.1-.3-.2-.4-.6-.3-1-.3.3-.4.4-1 1-1.2 1.6-.6 2.4-2 2.7-3.8-1.8.4-2-1-1.1-1.5 1.6-.9 1.2-2 1.2-3.2-.7-.1-1.4.8-1.7.1-.5-1 .9-1 1.2-1.6-.4-.3-1 .1-1.7-1 .8-.6 1.7-1.2 2.5-1.8-1.3-.5-1.7 1-2.7.8.1-1.3.4-2.4 1.7-3.2.8-.4 1.3-1.5 1-2.6-1.5-.1-3.3-1.8-2.6-2.5 1.6-1.8.2-2-1.1-2.4.5-1 1.4-1.4 2.1-1.9.6-.5 1.4-.8 1.5-1.8.3-2 .8-3.8 3.1-5.4-2.1.4-3.5.1-4.9-.2-1.8-.3-1.3-.8-.5-1.7.9-1 1.2-2.2 2.2-3.9-2.2 1.1-4 1.6-5.5 0 .6-.7 1.2-1.4 1.7-2.2.3-.4.4-1.2-.1-.9-1.7.9-2.8-1.2-4.4-.6-.4.2-.8.1-1-.4s.1-.9.5-1.2c.7-.6 1.6-1 1.2-2.3-.7.5-1.3 1-2 1.1-1.5.3-3.1.5-4-.8-.9-1.5.8-2.1 1.6-2.9 0 0 0-.1.1-.2-1.2-.6-2.3.7-3.4 0-.9-.5-1.5-.4-2.1.2-1.3 1.1-3.2.3-3.5-.3-.9-1.5-1.5-.4-2.1-.1-1.3.7-2.3 2.6-4.3 1.3-.2-.1-.7.3-1 .5-.6.4-1 1-2 1.2.7-1.9-.3-1.5-1.3-1-.8.4-1.5.8-2.1 1.4-.9 1-2.1 1.5-3.6 1.4 1.2-.7 1.3-2.2 2.5-3-1.2-.2-2 .2-2.7.6-.9.5-1.6 1.6-2.9 1.5.1-.3.1-.6.2-.9.1-.5 1.1-.6.6-1.2s-1.2-.3-1.8.1c-.8.5-1.5 1.1-2.4 1.4-.8.3-1.8 1.4-2.6-.1-.9.4-1.8.7-2.7 1.1-.7.3-1.4.1-1.8-.4-.6-.7.3-.8.6-1.1.5-.4.1-.9.3-1.5-1.7.7-3.4 1.1-4.5 2.7-.6.8-1.7 1.5-2.9 1.4-1.3-.1-2.4.5-3.3 1.4-1.4-.1-2.4 1.1-3.7 1.4.4-1.6 2.1-2.1 2.7-3.3-2.5-1.1-4.2 0-5.6 1.9-1.2.7-2.3 1.5-3.5 2.2 0-1.5 1.6-2.1 2.3-4-2.1 1.3-3.8 2.2-5.7 2.6-.8.1-1.2 1.2-.8 2.1l-1.5 1.5c-1.1 0-1.4 1.1-2.1 1.7-1 .9-.8 2 .3 2.4 1.5.5 1.2 1.5 1.1 2.4s-.7 2-.3 2.6c.5.9-.9 2 1 2.8 2.4 1 2.3 2.7.3 4.6.6.3 1.9.3.9 1.6-.4.4-.3 1.6.1 2.1s1.2-.2 1.8-.4c.9-.3 1.8-.7 2.8-1.1.3-.1.7-.2.9.1.2.3 0 .6-.2.9-.4.6-1.3.8-1 1.7 2.3-.1 2.7.3 2.2 2.5.8.1 1.3-.8 2.2-.5-1 1.6-2.9 2.1-4 3.8.7-.2 1-.3 1.4-.4.6-.2 1.5-1 1.7-.3.3.6.8 1.6.7 2-.4 1.2-.6 2.8-2 3.5.7-.2 1.4-.4 2.1-.5 1.9-.3 2.3.1 2.3 1.9 0 .3.2.4.4.6.8.7 1.7 1 2.7.6.4-.1 1.3-.2 1 .4-.7 1.3.5 3.2-1.4 4.1-.3.1-.4.8-.7 1.2 1.6-.3 3.1 1.3 4.6.1.1 0 .3.2.5.3 1.3.6 1.1 1.6.5 2.8 1-.3 1.7-.7 2.4-.7 1.8 0-.5 1.2.4 1.4 4.2.7 7.5-1.9 11.3-3-.6.9-.3 1.8-.5 2.7.5.1 1-.1 1.5-.4 2.3-1.4 4.2-1 5.8 1.1 1.3 1.6 1.9.7 2.4-.6.9.1 1.5-.5 2.3-.9 1.3.9-1.4 1.7.1 3.1.9.7.2 1.5 1.7.8 1.2-.6 4.4.3 5.2 1.4 0 0-.1.2-.2.3 1.1-.7 2.3-1.6 3.4-1.4 1.8.5 2.8-.6 4.1-1.3.7-.4 1.3-1.2 2.3-1.1l.3.3c-.1.5-1 .8-.5 1.6 1.9-.5 3.7-1.8 4.8-3.4zM74 347.2c.2-.1.4-.3.6-.3l-.6.3zm2.5.2c.4-.1.7-.3 1.1-.5-.4.3-.7.5-1.1.5z"/><path class="st2" d="M184.1 277.1c-.1 0-.1.1 0 0z"/><path class="st4" d="M183.1 319.7c1.9-1.3 4.3-1.9 5.7-3.9.6-.8 2.4-2.1-.6-1.9-.4 0-.4-.5-.4-.8 1.1.1 1.8-.8 2.7-1.1.5-.1.9-.6.9-1.2 0-.8-.7-.9-1.3-1-.7-.2-1.4-.3-2.2-.4 1.7-1.8 4.1-2.5 5.4-4.4.3-.1.5-.2.8-.4 1.8 1.6 1.8 1.6 5.1-.6-1.9-1-.3-2.2.1-2.8.8-1.3.5-1.4-.7-1.4-.3 0-.8.3-1-.2.3-1.1 1.7-1.4 2-2.4-.4-.9-1.7.1-1.3-.4 1.2-1.2 1.4-2.1.5-3.4-.1-.1.6-.6.2-1-.4-.3-.9 0-1.3.3-1 .6-1.7 1.6-3 1.7.2-1.3 1.6-1.7 2-2.8-1.4.2-2.7-.4-4-.6.5-1.3 1.9-1.8 2.4-3.1-1.7-.2-3 1-4.5.9-.2-1.2-.1-2.4.1-3.6.1-.1.1-.3.2-.4-.1.1-.3.1-.4.2-.7-.2-1.1.6-1.8.6 1-1.7.1-1.5-.9-1.3 0-.8-.3-.8-1.7-.4-.5.2-1.4.7-1.7.2s-.2-1.2.3-1.8c.3-.3-.1-2.2-.5-2.5-1.1-.6-.8-1.5-.3-2.3-.9.4-1.9.8-2.7 1.6-.4.1-1.1.7-1.8.3-.6-.4-.4-1.2-.1-1.8.1-.2 0-.4.1-.6-1.5-.4-2.9-.1-4.5.2.5-1.2 1.5-1.8 2.4-2.4.4-.3 1.1-.6.8-1.2-.4-.7-.9-.1-1.4.1-.6.3-1.1.6-1.2-.4-1-.4-2.2 1.1-2.7.4-1.3-1.6-2-1.3-3 .1-.2.3-.8.4-1.3.5-1.9.4-3.5 1.1-4.9 2.5-.7.7-1.4 1.5-2.2 1.9-7 3-6.1 2.4-10.2 8.4l-.3.3c-2.1 1-3.2 3.3-5.5 4.1-1 .4-2.1 2-2.5 3.3 3.5-1.3 5.3-5.2 9.3-5.9-.5 3-2.4 4.7-4.8 5.9-1.1.5-2.5 1.3-2.5 2.4 0 1.8-.9 2.7-2.6 3.6 2 .3 1.7.9.6 1.5-1 .6-2.4 2-2.3 2.3 1.2 1.6-.5 2.4-.9 3.5 1.8.8 3.4.7 4.9-.6.4-.3 1.1-.6 1.4 0 .3.5-.3.8-.6 1.1-2.4 1.8-2.7 4.7-3.8 7.2-.1.1.1.5.2.5 1.6.6.5 1.2-.1 1.5-1 .5-.8 1.2-.8 2 0 1 .9 1 1.7 1.3-1.6.6-.2 1.4-.3 1.7-.3 1.5 1.1 3.8-1.5 4.5-.2.1-.7.4-.4 1 1.1.1 2.1 0 3.1-.3.4-.1.8-.1 1 .4.2.4-.2.6-.5.8-.4.3-1.1.4-.7 1.2.3.6.7 1 1.4.8 1.1-.3 2.2.5 2.4 1 .4 1 1.2.8 2 .9-.3 1.3-1.7 1.6-2 2.7.7-.2 1.2 0 2.1.7.1.1.2 0 .4 0 2.2-.5 1.4.7.8 1.8 2.2-.4 4.4-.2 6.5-.4 3.4-.2 6.2-2.7 9.2-4.1 2-1 3.7-2.7 5.8-3.3 2.4-.8 4.2-2.3 5.9-3.9-.9-.4-1.8 1.2-2.3 0-.4-1 1-1.1 1.8-1.5 1.5-.7 2.8-1.4 4.1-2.5.3-.2.9-.5.6-.9-1.2-1.6.4-1.6 1.1-2zm11.3-18.2c-.2-.1-.4-.1-.6-.3.1.1.4.2.6.3zm-24.5 11.2c0 .1-.1.2-.1.3 0-.2.1-.3.1-.3zm-.3 1.6c.2 0 .4.1.6.1-.1 0-.3 0-.6-.1zm1-2.3c0-.1.1-.2.1-.3 0 .1 0 .2-.1.3zm2.9-10.2c-.2.1-.4.1-.7.1.2 0 .5 0 .7-.1zm-.1 7.3c.9-.4 1.6-.9 2.7-.8-1-.1-1.8.4-2.7.8zm3.6-20.2c.2.2.4.1.6.1-.2.1-.5.1-.6-.1z"/><path class="st2" d="M175.6 273.1c0 .1.1.1 0 0z"/><path class="st4" d="M135.3 310.1c-1.4.6-2.9.4-2.8-.9.1-1.6-.9-.5-1.2-.8 0-2.1.3-4.1 2.1-5.5.2-.2.3-.5 0-.7-.3-.3-.8-.2-1.1-.1-1 .5-2 .9-3.5.9 2.2-.9 3.2-3 5.1-3.8 2.4-1.1 0-2.1.1-3.1s-.5-.6-.8-.6c-2.6-.5-2.8-1-1.5-3.2.1-.2.1-.4.2-.7-.7 0-1.4 1-1.8.2-.5-1 .4-1.9.6-3-1.8.7-3.6 1.5-5.6 1.3-.2-.6.2-.8.5-1.1.3-.4 1.2-.4.6-1.3-.4-.5-.2-1.6-1.4-1-.2.1-.6 0-.6-.3.2-1.7-.8-.7-1.4-.6-1 .1-2 1.5-2.8-.1.1 0 .2-.1.3-.2.4-.2.9-.4 1.2-.7.7-.7.4-1-.4-1 .2-.9-1.2-.6-1.2-1.4-.1-.1-.1-.1-.2-.1h-1.6c.9-2 .8-1.4-.6-1.6-1.6-.2-3 .3-4.6.5 1.1-1 1.2-2.4.8-3.5-.3-.8-1.3.5-2.2.2 1.1-.5.7-1.6.7-2.2 2-.4.5-1.3.4-2-.1-1-.8-.8-1.5-.7-1.2.2-2.1 1.3-3.5 1.3.2-.4.4-.6.5-.9.9-2 .3-2.7-1.8-2.6-.9.1-1.8 0-2.7 0 .3-1.3 2.4-1.2 2.2-2.9-2.1.1-.7-1.6-1.1-2.3-1 0-1.4.9-2 1.2-.4.2-.8.9-1.4.5s.3-.9.1-1.4c1.7-.7 1-2.2 1.1-3.4.1-.4-.3-.6-.7-.5-1.1.1-2.5 1-2.4-1.2 0 0-.4-.1-.5-.2-1.3-.7-2.5-.5-3.6.6-.1-.3-.2-.5-.1-.5 1.6-1.7 1.9-2.8-.5-4.3-1.1-.7-1.8-1.2-2.9-.8s-2 1.2-3.2 1.3c-.7.1-1.9.2-1.7 1 .3 1.1 1.3.1 1.9 0h.8c-1.8 3.3-5.1 4.6-8 6.5.4 1 1.5-.2 1.7.9-.7.5-1.5.6-1.8 1.6-.4-.1-.6.2-.8.5-.9 2.4-3.3 2.7-5.2 3.7.8-1.6 2.6-2.1 3.3-3.8-2.1 1.2-4.8.6-6.5 2.6-1.2 1.5-2.8 2.3-4.2 3.5-1 .9-2 1.8-3 2.6-.4.3-.6.7-.3 1.2s.8.5 1.2.4c.4-.1.7-.4 1-.6.4-.2.9-.9 1.3-.2.3.5-.3.9-.7 1-1.8.4-2.6 1.9-3.5 3.2-.1.1 0 .4 0 .5.5.6 1-.4 1.5 0-1.7 1.6-4.7 2.1-4.2 5.4h.6c.5-.2 1-.9 1.6-.2.6.8-.2 1.2-.7 1.6-.9.8-1.8 1.5-2.8 2.3-.3.3-.7.5-.5 1 .2.6.8.4 1.2.3.5-.1.9-.3 1.3-.4.8-.3 1.1 0 1 .9-.1 0-.2 0-.2.1-.9.4-1.8.7-2.3 1.9.8 0 1.4.1 1.9.1.5.1.9.3.5.9-.3.5-1 1-.3 1.5.6.6 1.2-.1 1.8-.3.4-.1.7-.2 1-.3 1.4 3-.3 5.5-1.3 8.3 1.9-1.1 1.9 1.9 3.5 1.3.2.9-2.2 1.9.1 2.4.5.9-2.7.7-.5 2.1 1.2.7 1.5 1.5 0 2.2-.1.1-.1.3-.2.7 1.4.1 2.4-1.2 4-1.2-1 .9-1.8 1.5-2.6 2.2-1.2 1.1-.6 1.4.6 1.4-.1.5-.8.9-.5 1.5.7.3 1.1-.4 1.7-.3s1.4-.8 1.8 0-.6 1.2-1.1 1.7c-.5.4-1 .8-1.6 1.1-1.1.5-1.4 1.3-1 2.6 1.4-.6 2.7-1.2 4.6-2-.8 1.5-2.3 1.6-2.8 2.8 1.4.4 2.6-1.3 4-.5-.2 1-2.3.8-1.3 2.2.9 1.4 2 .4 2.9-.1.3-.2.6-.5.9-.8.7-.5 1.7-.6 2.1-1.5.5.3 1.9-.8 1.5.9-.1.3-.9.6-.6 1.1s1 .2 1.5.1l1.8-.6c-.1.3-.1.6-.2.9-.1.4-.8.8-.4 1.2.5.5.9-.1 1.4-.3 1.1-.4 2.1-1.1 3.1-1.6 1.5-.7 3.1-1.2 5.1-1.9-.9 1.4-2.2 1.6-2.4 2.9 2.4-.5 4.4-2 6.8-2.1-.2 1.3-1.1 1.8-1.5 2.7 1.6.4 2.8-1.2 4.1-.9 1.9.4 3.2-.4 4.5-1.4.2-.2.5-.4.7-.3 2.3.7 4.1-.6 6-1.3.5-.2 1.4-.5 1.4-.2-.3 1.7 1 .7 1.4 1.1-.5 1.3-2.5 1.3-2.6 3.2 2.8-1.3 5.7-1.8 7.7-4.2.5-.6 1.7-1.2 2.1-.8 1.1 1.2 1.9 0 2.7-.2.7-.1 1.1-1 2.3-.4-1.8 1.5-3.4 2.9-5 4.3 5.7-1.7 9.2-6.3 13.9-9.3-.8-1-1.6.1-2.3-.7 2-1.3 2.1-3.2 3.5-4.5zM71 313.6c.2 0 .4-.1.7-.1-.2 0-.5.1-.7.1zm1.9-.5c-.2.2-.3.3-.6.4.2-.1.4-.2.6-.4.6.1 1 .6 1.4 1-.4-.4-.8-.8-1.4-1zm.3-6.3c.4 0 .9-.1 1.3-.1-.4 0-.8.1-1.3.1zm1.4-8.3c0-.1 0-.2.1-.3 0 .1-.1.2-.1.3zm10.7-14.2c1.1.2 1.1.2 2.4-.4-1.3.7-1.3.7-2.4.4zm3.1-11.4c.3-.2.7-.3.9-.1-.3-.2-.6 0-.9.1zm.8 18.4c.1 0 .1 0 .2.1-.1-.1-.2-.1-.2-.1zm5.1-8c.1-.2.3-.3.4-.5-.1.2-.2.3-.4.5zm5.2-5.7c.1.1.2.1.3.2-.2-.1-.3-.2-.3-.2zm11-1.4l.6-.6c-.2.3-.4.4-.6.6zm10.5 25.1c.1-.1.2-.3.4-.4-.2.1-.3.2-.4.4zm.6-.5c.2-.1.5-.1.9-.1-.3 0-.6 0-.9.1zm4.8 10.1c.1 0 .2.1.3.2-.1-.1-.2-.1-.3-.2z"/><path class="st0" d="M205.8 145.7c.6.4 1.5-.1 2.1.5-.7 1.5-2.3 1.8-3.4 2.6-.5.4-1.2.8-1.1 1.5.2 1.6-.6 2.6-1.8 3.5-.4.3-.9.8-.5 1.5 1.1.1 1.7-1.3 2.8-1.2l.3.3c-1.9 2.2-4.1 4.1-4.8 7.2-.6 2.6-3.2 4.1-4.5 6.5.8-.1 1.6-.2 2.3-.3.4.9-1.3 1.7-.3 2.4 1.1.9-.9 1.5 0 2.3-1.4.5-1.4 2.4-2.8 2.9-.3.1-.7.7-.5 1 1.2 1.7-.3 3.3-.9 4.2-1.7 2.7.2 5.2-.4 7.7-.8 0-1.5.2-2.1.9 1 .4 1.6-.2 2.2-.7 2.8-.5 2.9-.5 2.2 2.4-.3 1-.5 1.9.7 2s2 0 1.6 1.7c-.2.7.8.3 1.3.5l.2.2c.1.4-.4 1.2.6.9 1.4-.4 2.9-.3 4.2-1.3.9-.7 1.4-.7 1.8.6.3 1 1.1 2 2.6 1.1.8-.5 1.3-.1.8.9s-.3 1.7.9 1.2c1.8-.8 3.9.1 5.7-1 1-.6 2.3-.1 3 .9.8 1.1-.7 1.3-1 2v.9c2-1.6 3.9-1.6 5.9-.7 0 .7-.8.9-.5 1.5 1.8.3 3.5-.2 5.3-.1.6 0 1.4-.3 1.9.4.5.8-.7 1.1-.8 2 1.9-.7 3.9-1.5 4.9-3 1.7-2.7 4.5-2.2 6.7-3.3.5.9-1 1.3-.2 1.9.6.4 1.2-.4 1.7-.7.6-.4 1.2-.9 2.1-.6-.6.8-1.1 1.5-2.1 1.7-1.3.4-.2 1.4-.5 2.2-.2.5.8.2 1.3.3 1.8.1 3.3-1.1 5.2-1.3-.2.9-.7 1.5-.4 2.3.1.4.2.9.7.7 1.9-.6 3.8-.7 5.8-.8 0-.2 0-.4.1-.6 0 .2-.1.4-.1.6l2.4-.9c-.7 2.4-.6 2.4 1.8 2.5 2.1.2 3.4-1.3 4.9-2.2.7-.5.8-1-.4-1.2-1.3-.2-1.7-1.1-1.4-2.3.9-.7 1.8-1.3 2.7-2 1.3-.1 2.2-.7 3.1-1.6.3-.3.6-.6.3-1-.2-.2-.6-.2-.9-.1-1 .3-2 .4-3.1 0 .6-.9 2-1 2.1-2.4-1.1-.1-2.1.6-3.5.3 2-.9.1-2 .5-3.1.6-1.5-.4-1.5-1.3-1.1-1.2.5-2.3.5-4 .1 1.4-.8 1.9-1.7 2-3-.6.2-1.1.3-1.6.5-.6.3-1.3.1-1.6-.4-.4-.7.3-1.1.8-1.3 1.4-.6 1.7-1.9 2.4-3.2-.7.2-1.5.6-1.7.4-1.4-1.8-2.7-.3-4 0-.4.1-.9-.1-.7-.6.5-1-.2-2.2.7-3.1-1 .3-2 .7-2.9 1.2-.5.3-1 .7-1.1-.5-.1-.9-.4-1.7.4-2.4.5-.5.5-1.1-.5-1.5-1.1-.4-1.8-1.3-.9-2.6-1-.5-1.7.9-2.7.3 0-.9.8-1.1 1.3-1.7.2-.3.5-.9.5-.9-1.4.4-.8-2.7-2.6-1.5-.1.1-.5-.1-.5-.2-.2-1.9-1.3-.6-2-.5s-1.5.6-2-.2c-.5-.7 0-1.3.4-2 1.1-1.7.6-2.8-1.3-3-1-.1-1.8-.3-1.1-1.6 1-1.7 0-1.8-1.3-1.5-.7.1-1.6.8-2.1-.3-.4-.9.3-1.5 1-1.9 1.6-.9.1-1.7-.3-1.7-1.6 0 0-1-.4-1.2-1 0-1.7 1-2.6.2-.6-.6-.1-1.2.3-1.8-2.2.7-.7-.8-.8-1.3-1.2-.6-3 .7-3.7-1.7-.3-1-3.1-1.3-.7-3.1-.7-.4-1.4.4-2-.2-.1-.5.3-.7.5-1 .3-.4.7-.8.3-1.4-.4-.5-.9-.1-1.3 0-.5.1-.9.3-1.1.8h-1.2c-.1-.7 1.5-1.8-.5-2.1-.5-.1-.3-.7.1-1 .5-.5 1.1-.9 1.7-1.5-2-.1-1.6-.9-.7-1.9-2.3-.2-3.1-1.4-2.2-3-1.4.1-2.9.1-4.2.7-1 .4-1.5.1-1-1.3-4.3 3.5-9.5 4.9-10.5 10.7zm-2.3 12.9c-.4.1-.8.2-1.2.4.3-.2.7-.3 1.2-.4zm-.8 10.9c2.4.4 3.7-1.2 5.3-2.1-1.6 1-2.9 2.6-5.3 2.1zm43.3 5.9c-.1 0-.3-.1-.4-.1.2-.1.3 0 .4.1zm-18.5 3.3c0-.3-.1-.4-.2-.5.2.1.3.3.2.5zm-14.1-20.2c0-.1-.1-.2-.1-.3.1.1.1.2.1.3z"/><path class="st2" d="M309.9 294.6l.1-.1c-.1 0-.1.1-.1.1z"/><path class="st4" d="M314.9 327.7c.2-.3.1-.7-.1-.9-.3-.3-.8-.2-1.1 0-.9.7-1.9.6-2.9.6.8-1 1.8-1.9 2.7-2.7.7-.7 1.3-1.3-.3-1.7-1.4-.4-1.9-1.3-.5-2.4.3-.2.5-.5.7-.8-.7-.4-1.3.6-1.8-.2 0-1 1.2-2.1 1-2.5-1.2-2 .3-2.8 1.7-4-1.2.1-2 .2-2.9.3.2-.4.2-.7.4-.9 1.2-.9 1.9-1.5-.1-2.5-.9-.5-2.5-1.8-.6-3.4.6-.5 1.3-1.9-.1-2.8-.8-.5-.3-1 0-1.5.2-.4.8-.5.7-1.1-.1-.7.1-3.8.4-4 .7-.5.8-1.2.5-1.8-.4-.7-1.1-.1-1.6.1-1.1.6-1-.2-1.1-.9-.5-1.1-1.3-1.5-2.5-.9.2-.5.4-.8.5-1.1 2.8-.2 3.7-2 2.2-4.2-.1-.2-.5-.5-.3-.6 1.5-1.2-.3-1.6-.6-2.4.2-.2.4-.4.6-.7.3-.1.6-.2.5-.7-.1-.3-.4-.3-.6-.3-.5 0-1 .2-1.3.7-.3.1-.6.3-.9.4-.4-.4-1 .3-1.4-.3.7-1.8 2.5-2.7 3.3-4.3.5-.9 1.6-2.1.9-2.8-.7-.8-2 .2-3.1.5-.6.1-2.3 1.7-1.5-.9.2-.7-.6-.7-1-.7-1.7 0-1.6-.8-.7-2-3.1.6-5.8 2.4-9.1 1.1.7-.5 1.2-.8 1.6-1.3s.1-1.1-.4-.9c-1.3.6-2.6-.7-3.9 0-.2.1-.6 0-.7-.1-.2-.3.1-.6.2-.9.7-1.5 2.8-1.8 3.4-3.4-2.2.3-4.2.8-6.1 2-.5.3-1.2.5-1.6-.1s0-1.1.3-1.7c.3-.5 1.1-.6.9-1.5-2.8-.6-5.4-3.2-8.4-.2-.3.3-1.5.2-1.2-.7.4-1-.2-.8-.7-.7-1.6.4-2.9 1.5-4.6 1.7-.4 0-.7.3-.9.7-.1 0-.2.1-.3.2-.5 0-.7.2-.9.6-1.5.8-3.1 1.5-4.3 2.7-1.2.5-2.4 1.2-3 2.5-.9.3-1.5.8-1.9 1.6-2.2.3-3.3 2.4-5.2 3.2-2.5 1-4.8 2.4-6.9 4.1 1.4 1.8 2.8.7 4.3.1-2.2 1.7-4.6 3-7.1 4.1-.5.2-1.5.3-.9 1.2.2.3.9.5.4 1-.5.6-1.2 1.5-1.9 1.2-1.7-.7-2.7.4-3.9 1.1-.8.2-1.7.8-1.5 1.3.5 1.1-.5 1.3-.8 1.9-2.7.8-1 2.3-.5 3.6-.3.2-.5.4-.3.7-.3-.1-.5 0-.5.3h-.1c-.4-.1-.7.1-.6.5.1.3.5.2.8.2l.2.1s.1-.1.2-.1l-.6.9c-1.8.4-.9 2.6-2.3 3.2.9.7 1.8-.6 2.5.2-.4.3-.7.6-1.1.9-2.3 1.4-2.3 1.4-.4 2.5.2.1.3.3.4.4-1.7 1.1 1.3 1.9.1 3 1-.7 2.2-.4 2.8-1.5h.2l.1-.1c.3 2.1-2.3 2.1-2.8 3.6 1.1.9 2.1 1.7 2 3.2-.1.1-.3.2-.4.3-1.1.6-2.1 2.1-1.3 2.5 1.6.8.7 1.5.4 2.4 1.4-.4 2.7-1 2.6 1.1 1.1.2 3.1-.6 2.1 1.8 1.3.3 3.5-.8 2.4 2-.1.3.3.5.7.4 1.8-.5 3.5.8 5.4-.1-.7 1.6-2.1 2.5-3.2 3.6 1.2.5 2.4-.9 3.2.3.6.9-.6 1.4-.8 1.9.5.7 1.6-.6 1.8.8.7.3 1.4-.2 2.1-.2-.1.4-.3.8-.2 1.1.2.3.6.1.9-.1.7-.3 1.3-.7 1.9-1 .3-.2.7-.7 1-.3.4.4.2.9-.1 1.3-.8.8-1.1 1.8-1.7 2.7-.5.7-.3 1.5.5 1.4 1.1-.1 2.3.5 3 .2 1.8-.7 1.6.4 1.6 1.4 0 .8.4 1.5 1.2.9 1.4-1.1 2.9-.4 4.4-.9-.3 1-1.4.9-1.8 1.8 1.4.1 1.5.8.7 1.8-.4.4-.8.9-1.1 1.4-.3.4-.7.7-.4 1.2.3.4.7.3 1.1.2 1.7-.1 3.4-.2 5-.9-1.5 1-1.6 2.8-.9 3.5 1.7 1.9 3.4-.1 5.1-.7.2.9-.3 1.3-.7 1.7-.3.4-.5.9-.2 1.3.4.6 1 .1 1.4-.1.5-.3.9-1 1.8-.6-.2 1.2-.9 1.9-2 2.3-.3.1-.6.4-.4.8.2.3.6.4.9.2 1-.7 2.2-1 2.9-2.2 1.5-2.6 4.1-3.7 6.8-4.6.2.5 0 .7-.2.9-.2.2-.6.4-.2.7.8 0 1.5-.6 2.3-.3.3 1.1 1.1.8 1.7.4.9-.6 1.8-1.3 2.7-2 1.3-1 2.2-2.4 3.9-2.9l.3.3c1.2.9 2.2-1 3.5-.2.7.4 1.3 0 2-.4 2.7-1.6 5.4-3.1 8-5 1.6-1.2 3.3-2.2 5-3.7-1.8.2-3 1.1-4.3 1.9-2.3 1.6-4.4 3.6-7.5 3.6 0-.5.4-.6.7-.8 2.3-1.6 5.2-2.4 6.8-5 .2-.3.7-.5.4-.9-.3-.3-.7-.2-1.1 0-.7.3-1.3.9-2.5.9 1.4-.7 2.5-1.3 3.6-1.8 2.7-.7 4-2.9 5.1-5.3zm-75.9-9.8c.1.1.3.2.4.2-.1 0-.3 0-.4-.2z"/><path class="st2" d="M361.6 215.1s0-.1 0 0z"/><path class="st3" d="M320.4 265.7c1.7 1 2.8.2 3.8-.7 2.2-2.2 4.6-4.1 7.5-5.3.6-.2 1.6-.5 1.4-1.7-.1-1.3.7-2 1.8-2.5 1.4-.7 2.9-1.1 3.9-2.4.4-.4 2.2-1 .1-1.7-.4-.1-.1-.6.2-.8 3.2-1.4 2.9-5.7 5.9-7.3.4-.2.4-.8.1-1.1-.3-.4-.7 0-1 .2-.8.6-1.6 1.2-2.2 2-.3.4-1 1-1.5.3-.4-.5.3-1 .7-1.2 1.4-.7 2.1-2.1 2.6-3.4.3-.8.6-1.5 1-2.1 1.4-1.8 1.3-2.4-.8-3-2-.5-1.4-1.5-.8-2.6.4-.7 1-1.3 1.6-1.7.7-.5 1.4-1.3 1.1-2.2-.4-1-1.3 0-1.9-.3 0-.6.1-1.2.5-1.5 1.5-.7.5-2.6 1.7-3.3.1 0 0-.5-.1-.5-1.3-.4-1.8-2.6-3.8-1.8 1-.8 1.6-1.4-.2-1.7-.2 0-.4-.5-.6-.7l.1-.1c.6 0 .9-.5 1.3-.8.8-.5-.9-.8-.1-1.4.1-.1-.5-.3-.8-.1-1.5.8-3.2 1.2-4.1 2.9-.2 0-.4.1-.5.1-1.3-1.1-.1-1.7.6-2.2 1-.7 2.3-1.1 2.8-2.6-1 .2-2 .3-2.6-.6-.6-.8.7-1.2.7-1.9-1.2-.2-2 .7-3 1s-1.7 1.3-2.8 1.3c-.4-1.1 1.1-1.5.7-2.5-1.3.5-2.3-.8-3.2-.7-2.1.2-2.2-.6-1.6-2.2-1 .3-1.4 1.5-2.5 1.3-.2-.3-.1-.9-.7-.7-1.9.6-1-.8-.8-1.3.3-.7.9-1.4 1.4-2-2.1 0-3.2 2.5-5.6 2.4.8-1.4 1.9-2.3 2.3-3.8-1.4-.1-2.3 1-3.6.9.4-1.2.3-1.9-1.1-1.3-.8.3-1.6.7-2.3 1 .2-.4.3-.7.5-1l.1.1c.1-.1.2-.2 0-.4 0 0-.1.1-.2.1l-.1-.1c-.8-.1-1.4.5-2.1.7-.6.2-.8.1-.7-.1.5-2-.9-.7-1.2-.6-1.1.3-1.6.5-2-1.1-.3-1.3 0-1.8.9-2.5.4-.3 1.1-.6.9-1.5-1.1-.1-2.1 1.1-3 .5-1.4-1-2.6-.5-3.9 0-.9.3-2 2.2-2.6-.3-.1-.3-.6-.1-.9 0-.5.1-.9.7-1.5.1.7-1.4 2-2 3.2-2.9.8-.6.7-.9-.2-1.3-1.5-.6-2.7-.1-4 .5-1.2.5-2.3 1.7-3.9 1 1.4-.5 2.1-1.7 3-2.6 1-.1 1.2-.7 1.4-1.8-.9.4-1.8.1-2.3 1-.4 0-.7.1-1.1.1-.6-1.1-1.4-1.2-2.4-.4-2.1.7-3.9 1.8-5.4 3.5-.3.3-.8.7-.4 1 1.6 1.1.2 1.6-.4 2.2-2.3 2.2-4.5 4.3-5.6 7.7-.9 2.7-2.2 5.5-4.6 7.4.9.6 1.4-.4 2.2 0 .1 1.1-1.1 1.1-1.2 3.1h1.8c.2 1-1.4 2-1.3 3.4-.7.6-1.5.9-1.8 1.8-.4.1-.8.5-.4.8.5.4 1.2.4 1.7-.2h.4c-.4.3-1 .5-1 1.3 1.2-.4 2.3-.8 3.8-1.4-.8 1.3-1.4 2.2-2 3.1l-.1.1c-.6 1-.6 1.1.4 1.5.4.2 1.1 0 .8.8-.3.9.3 2.1-1.3 2.6-.9.3-.2 1.8-1.1 2.4.6.7 1.3.5 2 .4.2 0 .6 0 .7.2.9 1 .3 3.4-.9 4.2-.9.5-2 .8-2.1 2.1.8.4 1.7-.3 2.4.7-.8.2-.8 1.4-2 1.1-.5-.1-1.4.9-.6 1.5 1 .7.3 1.4.3 2.1 0 0 0 .1.1.1-.1 0-.3 0-.4.1.1 0 .1.1.1.1.1-.1.2-.1.3-.2.5.8 1.8 1.2.8 2.6-.2.3-.1.8.5.8 1.4-.2.9.5.4.9-1.3 1-.4 1.7.1 2.6.6 1.1 1.6.7 2.5.6.5-.1.8-.8 1.5-.3 0 1.7-1.8 2.3-2.5 3.8 1.3-.3 2.3 0 3.4.1.5.1 1 .2.9.8-.4 1.6.5.8 1.3.9 1.1.1 2.2-1 3.3 0 .8.7 1.7 1.3 2.9.8.3-.1.8-.2.9.4.2 1 .2 1 1.3.3.1 0 .3-.1.4-.1.4 1.8 1.7 2.6 3.3 2.6 2 0 1.8.7.9 2 1.4-.6 2.8-.8 3.9-1.9 1.3-1.3 2.9-.7 3.4 1.1.2.6.3 1.2.3 1.7.1.9.7 1.2 1.4.9 2.2-1 4.6-1.1 6.9-1.6 1.4-.1 3.2-.3 4.3.3zm-40-43.4c.2-.1.5-.2.8-.3-.3.2-.5.2-.8.3zm2 .9c0-.9.3-1.5.7-1.9-.4.4-.6 1-.7 1.9z"/><path class="st0" d="M189.7 161.9c.6-.4 1.2-1 1.5-1.7-.5-.3-1.2.6-1.5 0-.4-.7.5-.9.8-1.4.3-.4 1-.4 1-1.1-1.1-.1-1.9.6-2.8 1-.7.3-1.4.6-1.8-.4.6-.7 1.6-1 1.8-1.9 1.5-.4 2.8-1.3 3-2.6.3-2.2 2.2-3.6 2.6-5.8.3-1.6 2.4-1.8 3.7-3-1.6.4-2.8 1.7-4.5 1.5 1.3-3 1-3.7-1.8-4-.1-.8 1-.8 1.1-1.8-1 .4-1.9.8-2.8 1.3-.8.4-1.6.4-1.9-.4-.4-1.2-.9-.9-1.7-.6-1.4.7-2.9 1.1-4.4.2.2-.7 1.3-1.2.8-1.9s-1.5-.2-2.2 0c-.8.2-1.6.7-2.2 1.3-.5.5-1 1.1-1.8 1-.2-.7.8-1.1.3-1.8-.4-.5 1.1-1 .1-1.5-.6-.3-1.4-.1-1.9.3-1.9 1.5-3.8 2.6-6.3 1.7 0-.4 1-.5.7-1.3-1.3.2-2.2 1.2-3.3 1.6-.5.1-1 .7-1.5.3-.7-.5.1-1 .2-1.6-.4.2-.7.4-1.1.6-.6.2-1.3.4-1.7-.1-.3-.5.3-1.1.6-1.5s1.1-.6.9-1.5c-1.3.7-2.6 1.3-3.8 1.9-.4-.7-.5-2-1.9-1.2-.1.1-.3-.1-.3-.4.1-1.2-.6-.8-1-.4-.5.5-.9.8-1.5.2-.4-.4-.8-.1-1.3-.1-1.9.4-3.7 2.3-5.6.2-.1-.1-.3-.1-.4 0-1.3 1-3.2.2-4.4 1.3-.1.1-.3 0-.5 0 0-.6.9-.7.7-1.5-1.2.7-2.6.7-3.3 2.1-1.7-.2-3 .8-4.4 1.6-1-.5 0-.7.2-.9.4-.5.7-1.1.2-1.6s-1.1-.4-1.7-.1c-2.3 1.5-4.9 2.4-6.7 4.6-1.9 2.3-3.3 5-6.3 6.2-.3.1-1 .7-.3 1 1.9.6.4 1.1 0 1.5-.7.7-1.5 1.3-2.3 1.9-.8.7-1 1.7-1 2.7 0 1.3 1.3 0 1.6.6 0 .9-2.1 1.2-1 1.8.9.5.9 1.6 1.8 2 1.1.4.9 1.6.2 2.3-.5.5-.9 1.3-1.8 1.4-.7.1-.7 1-.5 1 1.5.2 2.2 1.1 2.2 2.6 0 .1.3.2.5.2 1.3.1 1.4.8.7 1.7-.4.6-.7 1.2.3 1.3s1 .3.4 1c-.4.5 1.1 2.7 1.7 2.5 1.8-.6 2.1.2 1.9 1.7-.1.1-.1.3-.2.4-.3.2-.4.5 0 .8s.8.2 1.2-.2c-.1-.1-.1-.2-.2-.3.1.1.2.2.2.3.4-.1.7-.3 1.1-.4 0 .2-.1.4-.1.6-.3.1-.5.3-.4.6-.3-.2-.5 0-.7.1-.9.4-1.4.9-1 2 .2.4.2 1 .8.9 1.2-.3 2.5.2 3.5-.8.2-.1.5-.1.7-.2.5 2.3-.8 3.5-2.6 4.5-.6.4-.5 1-.2 1.6.5.8.9.2 1.3 0 .8-.3 1.7-1.1 2.3-.1s-.8 1.2-1.3 1.8c-.3.4-1.1.5-1 1.2.2.9 2.6 1.9 3.6 1.4.6-.3 1.1-.7 1.7-1 1.1-.5 2.7.2 2.3 1-.9 1.8.2 1.7 1.4 1.7.4 0 .9-.2 1.1.2.6 1.5 1.4.8 2.1.3s1.3-.2 1.7.4c.5.8-.5.7-.7 1.1-.3.4-1.1.2-1 1.2 2.9-1.3 6.2-1.5 9.1-3.3-.3.9-1.1 1-1 1.7 1 .2 1.7-.5 2.5-.6.5 1.4 1.3 2.7-.1 4.3 1.5-.3 2.2-1 2.9-1.6.6-.4 1.3-1.4 2.1-.2.2.3.5.2.7 0 2.4-1.9 5.3-2.8 7.9-4.1.7-.4 1.6-1.5 2.2-.6.7 1-1 1.1-1.4 1.7-.1.1 0 .2-.1.7 3.4-2.2 6.6-4.3 10.1-5.8 1.8-.8 2.7-2.4 3.9-3.8-1.3 0-2.3.9-3.4 1.5-1.7 1-1.5-.1-1.5-1.2l.1-.1c.8.1 1.1-.5 1.4-1h.1l.1-.1c1.2 0 2-.7 3-1.4-1.9-.4-1.7-1.3-.8-2.3l3-3.3c-.9-.4-1.6.9-2.6.3l.6-.6c2.5-1.5 6-1.5 7.6-4.8-.9-.1-2.1 0-1.2-1.5.3-.5 0-1.3 0-1.9.6-2 .9-3.9 2.9-5.1zm-36.4 12.4c.1-.1.4-.2.6-.2-.2.1-.4.1-.6.2zm.3-.8c.1-.1.3-.2.5-.2-.2.1-.4.1-.5.2zm4.2-23.8c0-.1.1-.2.2-.3 0 .1-.1.2-.2.3zm9.6 34.4c0-.1.1-.2.1-.3 0 .1 0 .2-.1.3zm5.8-32.5c.1.3 0 .6-.1.9.1-.3.1-.6.1-.9zm-.7 11.6c.5-.2 1-.3 1.5-.4-.5.1-1 .2-1.5.4zm3.5 6.4c.2-.7.6-.8 1.1-.8-.4 0-.8.1-1.1.8z"/><path class="st1" d="M210.1 370.7c.9-.6 1.9-1.2 2.8-1.8-.4-.8-2.5.4-1.3-1.1 1.1-1.4.7-3.2 2-4.4.3-.2.1-1.1-.3-.9-1.4.6-2.2-.9-3.6-.7 1.4-.9 2.1-2.3 3.1-3.4.8-.9 1.4-2.4.9-3.4-.4-.9-1.6 0-2.5.3-.1 0-.2-.1-.3-.1 0-1.3.7-2.2 1.4-3.3-1.4-.6-2.1.8-3.2.9-.5-1-.6-2 0-3-2-.1-2.1-.1-3.4.8-.5.1-.9.1-1.4.2.4-.7.8-1.5 0-2.2-.6-.6-1.2.1-1.8.3-1 .4-1.9.8-3 .9 0-1.4 1.3-1.8 1.8-2.9-1.4-.2-2.2-1.7-3.8-1 .3-.5.8-.7.6-1.2s-.7-.3-1-.2c-.8.5-1.9.8-2.1 1.9-.8-.1-1.3.5-1.9.7-.6-.5-2.2-.4-1-1.8 0-.1.1-.3.1-.4-.2 0-.3.1-.5.1-1.3.1-2.3.9-3.1 1.9-.5.1-1 .1-1.5.2.2-.7 1.2-1.1.9-1.7s-1.1-.2-1.7-.1c-.9-2.1-1.7.6-2.7 0 0-.1-.2-.3-.2-.5 0-1.4-1.7-1.6-2-2.9-.1-.5-1.5.2-2.3.6-.4.2-1.3.2-1.3 0 .4-2.2-1.5-.1-1.8-1-.1-.6.9-.6.4-1.7-2.6 1.6-5.4 2.7-7.6 4.8-.5.5-.7 1.4-1.5.8-.7-.5 0-1.2.4-1.7.2-.2.6-.4.3-.8-.2-.3-.5-.4-.8-.2-1.6.8-3.1 1.6-4.5 2.8.6.7 1.4-.4 1.9.6-.9.8-1.8 1.6-2.6 2.5-2.6 2.7-5.5 5.2-7.5 8.5-.3.5-1.5 1.3 0 1.8 1.6.5 2.2.9.5 2.1-.3.2-.5.5-.4.8.2.5.7.3 1 .2.4 0 .5-.7 1.3-.2-1.8.6.3 2-.8 2.8-1.5 1.1-.1 1.1.4 1.4.5 0 .9-.2 1.3-.5.2-.1.3-.2.6-.3l-.6.3c-.4.3-.8.6-1.3.5-.9 1.1-1.7 2.1-2.6 3.2-.9 0-.8.6-.8 1.2-.3.4-1 .7-.7 1.2-.2 0-.3 0-.3.1l.1.1c.1 0 .2-.1.3-.1.4.6 1.1 0 1.6.1l-.5.5c-.1.1-.2.3-.2.4.2.3.4.1.5 0 .8.2 1.1.4.8.6-1.9 1.4-1.7 3.3-1.3 5.3-.2.2-.5.4-.4.5.3.4.6.2.9 0 1.8-.7 3.7-.8 5.3-1.8-.2.3-.5.5-.7.7-1.1 1.2-.5 3.5-2.7 4.2-.5.1.1.9.6.7.8-.2 1.5-.6 2.2-.9.6-.2 1.1-.3 1.7-.5.6 2.2 1.9 0 2.8.5-.9 1 0 1.7.3 2.6.5 1.1-1.5 1.1-1.4 2.3.6.2 1.3-.7 1.7-.1.6.8-.7 1-.8 1.6 1-.1 1.8-1 2.9-.6.1.1.3.2.4.4 0 1-1.1 1.5-1.7 2.8 2.5-1.6 4.6-2.5 7.1-2.1.2.7-.5 1-.7 1.5.1 0 .1-.1.2-.1l-.1.1c.1 0 .2-.1.2-.1h-.1c.7-.4 1.4-1 2-.5.7.6-.7.8-.6 1.4 1.1.1 1.1.1 1.1 1.2 1.7-.5 3.6-.4 4.8-2l.4-.4h.6c.2-.1.4-.3.7-.4.9 1.9-1.3 2.4-1.8 3.7 1.9.5 1.9.5.8 1.8 1.6 0 2.7-1 3.8-1.9.4-.3.9-.8 1.4-.4s0 1-.2 1.4c-.2.3-.5.5-.6.8-.3.6.1 1 .6 1.3.4.3.9.8 1.3.1 1-1.5 2-1 3.1-.3-.1.9 0 1.4 1.1 1 .5-.2 1.1-.8 1.7-.4 1.3 1 1.2.9 2.8.5 1.4-.4 3-2.5 4.3.2 0 .1.4.1.5.1 1.4-.5 3.1-.4 4.1-2 .7-1.2 1.9-2 3.1-2.7.7-.4 1.6-.6 1.9-1.6-1.3-.3-2 1.1-3.3.9 1.4-2.8 4.1-3.9 6.3-5.6-.6 0-1.2.2-1.8.4-.5.1-1.1.5-1.4-.1-.3-.5.4-.8.7-1.1 1.5-1.6 3.6-2.6 4.2-4.9-.7-.2-2.4.7-2.4-.4s-1.2-2.5.2-3.7c.8-.7 1.2-2.1 1.3-3.2 0-.7-1-1.3-1.9-1.7-.9-.3-.2-.8.2-1.1zm-43.4-6.6c.2-.1.3 0 .4.3-.1-.3-.2-.3-.4-.3zm1.5-13.7c.1-.1.2-.3.3-.5-.1.2-.1.4-.3.5zm2.4-1.5c.8-.4 1.6-.7 2.5-1.2-.9.5-1.7.9-2.5 1.2zm5 3.2s.1 0 .1.1c0 0-.1 0-.1-.1zm.9 28.9c.4-.4.9-.8 1.3-1.2-.4.4-.8.8-1.3 1.2zm1.8 9.3c0-.1.1-.2.1-.3 0 .1 0 .2-.1.3zm9.4-39.4c.1.1.1.2.1.3 0-.1-.1-.2-.1-.3zm.8 19.2c.1 0 .2-.2.3-.4 0 .2-.2.4-.3.4zm1.9 17c0-.1.1-.3.2-.4 0 .1-.1.2-.2.4zm9.4-31.6c.1-.1.2-.2.4-.2-.1.1-.3.1-.4.2z"/><path class="st2" d="M10.2 266c0-.1.1-.2.1-.3-.2 0-.4.1-.1.3z"/><path class="st3" d="M38.7 269.9c.6-.4 1.2-.9 1.8-1.1 1.1-.4 1.2-1.4 1.3-2.1 0-.5-1.1-.3-1.8-.3-.2 0-.4-.1-.6-.1.6-.8 1-1.6 1.6-2.3.7-.7.9-.9-.2-1.7-1.8-1.2-1.9-2.7-.6-4.5.2-.2.5-.4.3-.8-.7-.3-1.4.6-2 .1 0-2.1 1.3-3.4 2.7-4.7-2.5 0-2.9-.2-2.1-1.9H39c0-.1.3-.1.4-.2-.1-.1-.4-.1-.4-.2h.1c0-.3 0-.6.1-.8.9-2-.4-2-1.7-1.9-.3 0-.6.2-1 .2-.9 0-1-.4-.7-1.1.9-2.1.7-2.6-1.9-3.1 2.1-1 1.8-3.5 3.8-4.4.6-.3.8-1.7.1-1.4-2.7 1-2.1-.7-2.1-2.1 0-.3 0-.6-.1-.8-.9-1-.4-2 .1-3-2.3.5-2.3-1.9-3.7-2.5-.9-.4 1-.9.7-1.7-.8 0-1.4 1-2.3.3 1.5-1.3 1.8-3.4 3.4-4.7-2.6-.4-4.2 1.8-6.4 2.1.4-1.9.1-2.3-1.6-1.9-.6.1-1.3.3-1.9.4-.7 0-1.7.7-1.9.2-.7-1.9-1.6-.3-2.2-.1-.7.2-1.3.7-2.2 1.2 1-1.5 1-1.9-.7-1.8-2.1.1-3.1-1.7-2.1-3.7-.9.1-1.4-1.1-2.3-.7-1.1.5-2.4 1-3.2 1.9-.6.7-3.2.2-1.6 2.4l-.3.3c-2.1.8-2.1 3.3-3.7 4.7 1-.3 1.9-.5 2.9-.8-1.8 1.7-1.9 3.8-2.1 5.9-.1.2-.3.4-.2.5.2.3.4.2.6 0 .8-.1 1.6-.2 2.3-.3-.5.8-1.7 1.3-1.3 2.4.3.7 1 .1 1.7-.1-.5.6-.9 1.1-1.2 1.7-1 2.1-1 2.1 1.3 2.3.6.1 1 .4.4 1-1 1.1-1.8 2.5-3.1 3.3-.4.3-.7.7-.4 1.2.3.5.8.3 1.2.1.9-.5 1.8-1 2.8-1.5-.7 1.2-2.3 1.4-3.1 2.6.7 1 1.6-.1 2.5.3-1.1 1.1-1.8 2.2.1 2.8.1.8-3.6 1-.1 2.3.6.2.8 1.2.9 2 0 .5 0 1.2.2 1.3 1 .6.4.8-.1 1.3-.4.4-1.4.9-.8 1.3 1 .7 0 2.2 1.2 2.6.7.2 1.5.3 1.2 1.4.3.1.5.2.8.2.6.1 1.2.3 1.6.6-.3.2-.5.4-.8.6-1 .6-2 1.2-1.9 2.6.6.4 2.7-.1 1.5 1.2-1.1 1.2.5 1.4.2 2.3-.7 1.9 1.4.2 1.7 1.1-.2 1.8-1.9 2.6-3.3 4.1 2.8-.3 2.9 1.3 2.8 3-.1.8.2 1.2 1 .9.6-.2 1.1-.4 1.7-.2-.1.8-.5 1.4.9 1.7 2 .4 3.6-.5 5.3-.9 1.4-.3 2.3-1.3 2.9-2.8.8-2 3.2-3.4 3.8-2.6.8 1.1 1.1.4 1.6.1.6-.3 1.1-1 1.8-.7.7.4 0 1.2.1 1.8.1.5-.5 1.7.8 1.1 2.1-.9 4.3-1.9 6-3.6-.4-.8-1.6.1-1.6-.9-.2-.9.6-1.1 1.2-1.4zm-21 .5c.1 0 .1.1.1.1l-.1-.1zm6.1-6.7c.1.1.1.2.1.3 0-.1-.1-.3-.1-.3zm13.4-8.7c0-.1.1-.1.2 0h-.2z"/><path class="st1" d="M331 383.5c1.3-1.4 1.9-3.2 3.3-4.5.4-.4 1.3-.9 1.1-1.7-.6-2.5 1.4-3.1 3-4 .7-.4 1.1-.7 1.1-1.8.1-1.5-.4-3.3 1.5-4.4.4-.2.8-1 .4-1.8-.5-1-1-1.5-2.1-.9-.5.3-1.3.8-1.7 0-.3-.7.6-.9 1-1.3 1-.9 1.6-2 2.1-3.3.2-.7.1-1.1-.6-1-1.4 0-2.4-.9-3.8-1.1 1-1.4 2.5-2.1 3.1-3.6h-.7c-1.9.4-2.3.2-2.8-1.6-.1-.3-.3-.4-.6-.4-.7 0-1.4-.1-2.1.3s-1.6.6-2.2 0c-.8-.8.4-1.3.6-2-.7.1-1.2.6-1.8.3l-.1-.1c.1-1.3-.7-.4-1.1-.4s-1 .3-1.1-.3c-.1-.5.3-.7.7-.9.7-.5 1.5-.9 2.2-1.4-1.1-.1-2 0-2.9.2s-1.8.4-1-1.1c.4-.7.1-1.5-.6-1.4-1.3 0-.7-1-.9-1.6-1.7.9-3.3 1.6-5.1.8-.2-.1-.6 0-.7.1-1.3 1.1-3.1 1.7-4.4 3.1.6.2 1.1.4 1.6.6-.4.2-.8.4-1.2.5-.6-.2-1.2-.3-1.1.7-1.1 1-2.2 1.9-3.3 2.9-.5-.2-1.1-.4-1.7-.7.7-.5 1.6-.7 1.9-1.8-1.5.5-2.7.7-3.6 2.3-.5.8-2 1.9-3.4 1.5-1-.3-1.6.1-2.5.3-3.7 1.2-6 4.5-9.4 6.1-.7.3-1.4.6-1.4 1.6-1 0-1.7.7-2.5 1-.3-.3-.6-.6-1-.5-1.9.1-6.5 4.1-6.6 6-.1 2.1-.9 3.4-2.9 4-.3.1-.5.3-.8.5 1.4-.3 2.6.3 3.2 1.2.6.9-.1 2.1-1 3s-.9 1.6.7 1.3c.6-.1.7.2.6.7-.1 1.9-.2 3.9-1.8 5.4 1.2.3 2.2.5 3.2.7-.8 1.5-3 1.3-3.6 3.1 1.3.3 2.1-.9 3.2-.8.4.7-1.2 1-.2 1.7-.2.1-.3.3-.1.4.1.1.3-.1.5-.1.7 0 1.2-.4 1.7-.8 1.2-.8 2.3-1.9 3.9-1.9-.6.5-1.3.9-1.9 1.4-.4.4-1.2.7-.8 1.3.5.6 1.1-.1 1.6-.3-.1.6-.4.9-.9 1.2-.9.5-1.3 1.6-.9 2.1.6.8 1.4-.1 2-.5.7-.4 2-1.4 2.2-1 .8 1.5 2.2.9 3.1.9 1.6 0 1.2.7.9 1.5 2.4-.7 4.3 1 6.9 1-.4.5-.5.7-.7.8-.4.3-1.1.5-.9 1.2.2.6.8.5 1.3.6 1.6.3 3 .2 4.2-1.1.6 0 1-.2 1.3-.7 1.2.1 2.4.2 3.4-.7 1-.9 1.8.7 2.3.4 1.9-1.2 3.5-.3 5.3.3.5.2 1.1.6 1.8-.1 4-4.2 9.5-6.9 13.6-11.4zm-43.4 3.1c.9 0 1.6-.8 2.4-1.3-.7.5-1.4 1.3-2.4 1.3zm8.6-27.1c.1.2.2.4.3.5-.1-.1-.2-.3-.3-.5z"/><path class="st0" d="M120.5 182.8c-.6.3-1.5.7-1.8.1-.3-.6-.6-1.6.2-2.3.6-.5 1.2-1.2 1.9-1.9-3.5-.6-.2-1.9-.5-2.8-1.2-.3-1.8 1.1-3.2.8.8-.9-.4-2.1 0-2.4 1.6-1.4-.1-1.9-.6-2.4-1.3-1.1-2.9-1.7-4.2-2.9-.7-.6-.7-.8-.4-1.4.2-.5.6-1 .6-1.4 0-.8.5-2.1-.1-2.2-1.6-.1-.9-.6-.4-1.3.4-.5.7-1 .4-2-2 2.3-4.2.5-6.3.7-1 .1-.9-.7-1-1.5-.1-1.1-.7-2.1-1.8-1.1-1.5 1.3-1.8-.4-2.5-.8-.9-.5.6-.7.5-1.2-.2-1.4.8-2.3 1.7-3.5-1.6.2-2.6.9-3.7 1.6-1.5 1-3 2.3-4.8 1.8-.9-.2-1.6-.3-2.5 0 0-1 .7-1.9-.1-2.4-.7-.5-1.5.2-2.1.7-.5-.1-.9-.1-1.2.3-1.1-1.6-2.7-.1-4-.7-.6-.3-1 .1-.6-1.1.5-1.5 1.7-2.2 2.6-3.4-.4 0-.6-.1-.7 0-2.9 1.1-5.4 2.9-8.5 3.7-.5.1-1.1.6-1.2 1-.5 1.7-1.8 2.5-3.1 3.5-1.4 1.1-1.4 2.4-.2 3.3 2.1 1.5 2.2 2 .8 4.3-.2.3-.6.6-.7 1-.1.6-.9 1.3-.4 1.5.7.3 1.2 1.3 2.3.9.8-.3 1.8-.7 2.1.2.3.9.7 2.1-.4 3.1-1 .8-.2 2-.1 2.9.1.5 1.2-.2 1.9-.5.4-.2.8-.4 1.2-.7 1.3-1 1.9.3 2.5.8.8.8-.5.9-.8 1.3-.3.3-.8.5-.5 1.4 2-1.5 4.3.1 6.6-.6-2 .6.8 1.7-.4 2.6-1 .7-1.8 1.7-1.9 3.1 1 .1 1.7-.3 2.4-.7.5-.2.9-.5 1.5-.1.6.5 0 .8 0 1.2-.1.6-.1 1.7.2 1.5 1.5-.9 3.5.4 4.7-1.3.4 0 .8 0 .9-.6v.1h.1c.2 0 .3-.1.5-.1-.1.2-.1.4-.2.5-.7.6-1.6 1.4-1.2 2.3.4.8 1.4 0 2.2-.2.6-.2.9.3 1.2.5.6.4 0 .9-.2 1.2-.5 1-1.4 1.7-2.4 2.3-1.2.7-2.2 1.6-3.3 2.7 1.7.4 3.1 0 4.2-.9 1.5-1.4 1.8 1.3 3.1.8.1 0-.1 1-.3 1.6-.2.4-.7.8-.2 1.2.4.3.9.1 1.3-.1.7-.3 1.2-1.1 2.1-.6 0 .7-1 .7-1 1.5 1 .7 2.1.9 3.3.2.4-.2 1.2-.5 1.1.4-.1 1.8.8.7 1.3.5s1-.7 1.5-1c4.8-2.4 9.3-5.2 13-9.2.6-.6.6-.6.2-1.3.5-1 1.2-2 1.2-3.2-.7-.1-1.2.4-1.8.7zm-31.6-10.4c-.4 0-.9 0-1.3.3.4-.3.8-.3 1.3-.3 0-.1.1-.3.2-.4-.1.1-.1.2-.2.4z"/><path class="st2" d="M254.1 345.3c.2-.1.4-.3.6-.5-.2.2-.4.3-.6.5z"/><path class="st1" d="M271.3 373.2c-.6-.3-1-.2-1.3-.2-.4 0-.8 0-1.2.1.3-.9.6-1.7.2-2.6-.4-.8 0-1.5.5-2.4 1-1.9 2.6-3.3 4.4-5.1-2.4-.1-3.9 1.4-5.8 1.3.5-.9 2-2.1-.7-2.2.2-.9 1.3-1.6.8-2-1.8-1.3-.4-2.2.7-3.4-1.3.4-2.2.6-3.1.8-.1 0-.2-.1-.3-.1-.3-.6.9-.7.4-1.4-.4.1-.9.1-1.4.2-.8.1-1.8.9-2.4.3-.5-.6.7-1.3.6-2.1 0-.3.5-.5.2-1-.4.1-.8.2-1.3.3-.7.2-1.7 1.2-2.1.5-.7-1.1 1.1-1 1.3-1.8v-.2c-.6-.6-1.4.7-2-.2-.6-.8.5-1.4.3-2.3-1 .5-1.8 1.1-2.7 1.5-.5.2-1.4.1-.9-.6 1.3-1.8-.5-1.2-1.1-1.5-.7-.5-1.5.4-2.3 0 1.1-.9 1-2.5 2-3.5-1.4.6-2.7-1.4-3.9-.3-.2.1-.2-.3-.2-.5-.4-1.9-3-1.9-3.4-4-.1-.7-1.4.4-2.2-.1 0-.8 1.3-1 .9-2.1-.6.3-1.2.6-1.8.8-.4.1-1.2 0-.8-.6.9-1.7-.5-1-1-1.1-.7-.1-1.5 0-2.1 0-.5-.4 1.3-1.4-.3-1.3-1.5.2-3-.9-4.5-.2-.2.1-.5 0-.6-.3-.1-.7 1.4-1.1.6-1.8-.7-.6-1.2.5-1.8.8-2.4 1.1-3.3 3.7-5.5 5-.6.4-.8 1.1-1.1 1.7-.9 1.5-.5 3.7-2.2 4.8-.7.4-1.2 1-1.8 1.5-.3.3-1 .5-.5 1.1.4.5.8.1 1.3 0 .8-.3 1.2-1.3 2.3-1.4.3 2-1 3.2-2.3 4.1-1.6 1-2.1 2.6-3.1 4 1 .6 1.8-.5 2.7-.2.2 1-1.6 1.8-.5 2.5 1.8 1 .3 1.4 0 2.1-1.1.4-1.7 1.1-1.5 2.2.2.8 1 .6 1.6.3.6 0 1.3 0 1.9-.1-.2.6-.3 1.1-.5 1.7-.2.2-.5.4-.7.6-.6.3-1.5.6-1.2 1.3.4 1.1-.4 1.7-.7 2.6-.2.6-1.2 1-.8 1.7.5.8 1.3-.3 2 .1-.4.6-.7 1.2-1.1 1.8-.3.4-1.2.5-.8 1.2.3.6 1.1.3 1.7.2.3 0 .6-.1.9-.2-.7.6 0 1.6-.7 2.1-1.9 1.3-.9 2.2.6 3.1-1.8.6-3.2 1.5-3 3.4.1 1.1 1.2-.1 1.6.4-.3.5-.4 1.1-.5 1.6-.3 1.8 0 2.1 1.8 1.6.8-.2 1.5-.6 2.3-.8.5-.1 1.1-.1 1.4.5.3.7-.2.9-.6 1.3-.6.5-1.5.7-1.7 1.4 1.2 2.1 2.7 1.7 4.3.6.6-.4 1.3-.8 2.2-.5-.2.4-.7 1-.6 1.2.6 1 1.3-.8 2-.1.1 1-1.2 1.2-1.3 2.2 1.4.3 2.3-.7 3.3-1.3.5-.1.9-.1 1.3-.2-.3.4-.6.9-.9 1.3-.3.4-.9.8-.4 1.3.4.5 1 0 1.5-.1.8-.2 1.9-1.2 2.1-.8 1.2 1.9 2.5.2 3.6.3-.1.1-.2.1-.3.2-.9.3-1.2 1-.7 1.7.5.8 1.3.6 2 0 .7-.3 1.4-.5 2-.8.4 2.3-2.2 2.7-3.1 4.4 2.9-.7 2.9-.7 4.7-2.5.3-.3.5-.7 1-.6.7.1.3.5.2.9-.1.2-.1.5.1.5 1.7 0 1 1.5 1.4 2.5 3.6-2.6 8.3-2.9 11.8-6.3-2.1-.1-3.1 1.8-5 1.7.3-1.2 1.3-1.5 2-2 .6-.4.3-.7.1-1.1 1-.7 2.4-.9 3.3-1.9 2.6-.5 4.3-2.4 6.3-3.7.4-.2.7-1.4.5-1.6-1-1.2.2-1.3.7-1.8 1.1-1 1-2.6 1.8-3.8.3-.5-.7-.7-1.2-.5-.8.3-1.7.7-2.3.9.4-2.1 2.3-2.8 3.9-3.7l.3-.3c.3-.3.6-.6.4-1zm-12.1-13.7c.4-.1.7-.1 1-.1-.3 0-.7.1-1 .1z"/><path class="st2" d="M222.1 360c0-.1-.1-.1-.1-.2 0 0 0 .1.1.2z"/><path class="st3" d="M56.7 269.8c1.2-1.4 2.5-1.1 3.4-1.9 2-1.8 4.3-3.4 6.4-5.2 2.3-2 4.5-4.2 6.9-6.2-.4-.1-1-.2-1-.3-.1-1.4 1-2.3 1.7-3.4.2-.4 1.2-1.7 2.2-.3.4.6.9.1 1.2-.1.8-.4 1.7-.5 2.4-.9 2.2-1 4.5-1.9 6.2-3.8.3-.3.8-.6.6-1.1-.5-1.1-.4-1 .3-1.9.7-.8 3.3-1.3.8-3.1-.3-.2 0-.6.1-.9.5-1.3 1.4-2.5 2.8-2.9 1.1-.4 1.9-1.1 2.6-2.1-1.7.9-3.4 2-5.1 0 1.5-1.4 3.5-2.2 4.9-3.9-1.2-.2-1.8.8-2.9.5 1.7-.9.9-3 2.3-4 1.4-.9 2.7-1.9 3.5-3.4-1.8.3-3.1 1.6-4.9 1.7 2-1.7 4-3.2 5.7-5.3-1.1-.4-1.9.5-2.9.2 1.2-4.8 4.2-8.5 7.3-12.2-2 .3-3 .9-6.1 3.9-.5.2-1.1.4-1.6.6-.2 0-.5 0-.7.1.1-.2.3-.5.4-.7 1.9-.5 1.6-2.3 2.2-3.7-.2 0-.3-.1-.5-.1-.1-.5.2-.9.6-1.1 1.3-.8 1.4-1 1.1-1.1-1.6-.7-.5-1 .2-1.4.9-.4 1.3-1 1.2-2.2-1.4 1.5-2.5-1-4-.2-.2.1-.3-.3-.1-.6.5-.8 0-.9-.6-.9-.4 0-.7 0-.8-.6-.4-2.3-.9-2.5-2.9-1.4-.4.2-.8.8-1.4.6-.3-.7-.1-1.4-.1-2.1.8-.7 3.2-.8.8-2.5-.5-.3-.1-.8.2-1.2.3-.3.7-.6.3-1-.3-.3-.7 0-1.1.1-.5.2-.9.6-1.6.3 1.4-1.6-1.3-1.9-1-3.2-1.5-.4-2.4 1.4-3.8 1.2-.2-2.2.9-2.9 2.9-2.7 1.5.1 2.1-1 3.4-2.3-2.9.8-5.2 1.5-7.6 2.1-.3-1 .9-1.1.6-2.2-1.5 1.1-2.9 1.3-3.5-.9-.1-.2-.4-.4-.6-.4-2.6.6-1-.9-.7-1.8-1.3.1-2.5 1.4-3.7.1.9-1 2-1.9 2.5-3.3-1.4.1-1.4.2-2.3.5-4.5 1.6-6.8 6-10.6 8.5-2.6 1.7-3 5-5.2 7-.9 1.5-1.6 3.1-2.6 4.4-.8 1-.7 1.5.2 2.2-.3.1-.6.3-.9.4-2.6 2.1-6.5 1.4-8.8 4.5 2.2-.3 4-1.4 6.3-2-.8 1.6-2.1 2.1-2.7 3.2-.2.2-.4.3-.7.5-.3-.1-.6 0-.7.4-.1 0-.2.1-.2.2-.8.2-1.4.7-2 1.2-.3.3-.9.9-.9 1 1.2 1.8-.8 2.2-1.5 3-.6.6-1.6.9-2 2 1.4.1 2.7-.5 3.8.5-.7.7-1.3 1.3-1.9 1.8.2.6 2.2.1 1 1.6-.1.1.2.5.3.6 1.1.7.9 1.4 0 2.2-.4.4-.4.8-.2 1.3.3.6.7.4 1.2.2.4-.2.9-.7 1.4 0-.2.3-.3.5-.5.8-.5.7-2.2 1.1-1.2 2.3s.1 1.6-.6 2c-1 .7-1.5 1.8-2.3 2.6.4.5 1.2 0 1.6 1-.5.4-1.2.8-1.9 1.3.9.6 1.4.1 1.9-.1s1.2-1 1.5-.2c.3.7 1 1.8.2 2.4-1.3 1-.6 1.6 0 2.4-1.3.3-2.1 1.1-2.6 2.4 1.2.1 2-1.1 3.2-.7-.2.4-.4.7-.6 1 .4.1.9.1 1.3.2 0 .6-.6.8-.9 1-.9.4-1.3 1.2-1.2 2.1.1.9 1.1 1 1.7 1.5.4.3 1.3.1 1.9.1-.7 1.5.1 2 1.4 1.9.7-.1 1.5-.3 2.5-.1-.7.5-1.1 1.1-1.6 1.2-1.7.4-1.2 1.2-.6 2.2.3.5.9.9.2 1.5-.8.6-1.8 1.4-1.7 2.3.2 1.1 1.8.8 2.5 1.5l.5.5c.6.3-3.2 1.6-.1 1.9-.2 1.5.5 1.9 1.8 1.4.5-.2.9-.8 1.7-.2-.5 1.1-1.6 1.5-2.5 2.1-.6.4-.8 1-.6 1.6.2.7.8.3 1.3.3.8 0 1.5-.5 2.3-.3.2 1.5 1.6.1 2.2.9-1 .8-1.9 1.6-2.1 2.9.6.3 1.2.1 1.8.2zM94 209.7c-.1 0-.3-.1-.4-.1.1 0 .2 0 .4.1zm-30.9-15.4z"/><path class="st4" d="M230.9 307.2c-1.6.2-2.2 2-3.8 2 .1-.9.7-1.2 1.2-1.7.5-.4 1.2-.9 1-1.6-.3-.9-1.2-.4-1.9-.5 0-.2.1-.5.1-.7.7.1 1.3-.3 1.3-.9 0-.8-.8-.4-1.2-.6-.8-.3-1.5-.3-2.3-.2-.4 0-1 .3-1.3-.3-.2-.5.4-.8.6-1.2.5-1.1 2.5-2.3-.1-3.4-.7-.3.6-.9.3-1.1-1.3-.4-2 1.1-3 .4-1.4-1-2.5-.3-3.5.5-.7.5-1.3.8-2.1.8.1-1 1.1-1.4 1.7-2 .3-.4 1-.7.5-1.3-.4-.5-.9-.1-1.2.2-2.3 1.8-4.6 3.7-7.9 4.2.6.4.7.5.8.5h1.4c-1.9 1.2-3.7 2.8-5.8 3.6-1.4.6-.8 1.5-.6 1.9.3.9 1.1.1 1.6 0s.9-.7 1.3-.1c.8 1.1-2.5.3-.7 1.8-1.6 1.2-3.6 1.8-4.6 3.7-.6.1-1 .4-1.4.8-1.9 2.4-4.5 3.8-7.3 4.9-.6.2-1.6.2-1.8 1.3.6 0 1.1.1 1.6.1l.1.1c-.1.4-.2.8-.4 1.2 1.6-.7 2.9-2 4.7-2.4 0 .2 0 .5-.1.7-2.5 3.2-4.5 6.8-8.4 8.7-2.2 1.1-2.3 1.7-1.2 3.5.1.2.4.6.3.7-1.5 3.1.8.8 1.3.9.3 0 .7-.5 1.1-.1.1.6-1 1-.3 1.6.5.4 1 0 1.5-.2.5-.3 1.1-.5 1.6-.8 1.4-.7 2.8-2.2 4.3-.3.7.9 2.2 1.2 2.2 2.4 0 .7-1 1.4.2 1.9 1 .4 1.7 0 2.4-.8.3-.4 1-1.3 1.7-.3-.5.1-1.2.4-.8.9.3.5.9.1 1.2-.5.9.3 2-1 2.2-.4.5 1.9 1.3.4 2 .4.6-.1 1.2-.8 2-.3-.4.7-1 1.1-1.6 1.4-.5.2-1 .8-.6 1.2.7.6 1.6 1.1 2.4 1.4 1.7.5 5.8-2.2 6.4-3.9.1 0 .2 0 .2-.1.6-.1.9-.5 1.2-1.1l.1-.1c.1-.1.2-.2.4-.3 2-.9 4-1.7 5.6-3.3.6-.2 1.4-.6.9-1.4-.8-1.3.2-1.9.9-2.6l2.1-1.8c.2-.2.8-.8 0-.8-1.9-.2.3-1.1-.5-1.6-.3-.2-.9.6-1.3-.1 1.4-.8 1.7-2.2 2.2-3.5-.8.1-1.7.1-2.5.2.7-1.8 1.3-3.5 2-5.2.1-.3.4-.6 0-.9-.5-.3-.9-.1-1.1.4-.6 0-1.1.2-1.6.6-.1-.1-.3-.4-.3-.4.8-1.2 1.6-2.4 2.8-3.1 1.2-.6 2.1-1.5 1.8-3zm-10 13.9c.6 0 1.2 0 1.8.1-.7 0-1.3 0-1.8-.1zm153.7-13.7c2.2-1.4 4.4-2.7 4.9-5.9-.6.3-1 .5-1.3.6-1.1.3-2.4 1.4-3.3.3-1-1 .4-2.2.8-3.2.8-1.7.6-2.1-1.2-2.2-.4 0-.9.4-1.3 0 .2-.7 1.6-1.1 1-1.7-.8-.8-.3-1 .1-1.5.6-.8 1.6-1.5.3-2.5-.5-.4-.2-.6.2-.9 1.3-1.1.9-1.6-.7-1.6-.7 0-.9-.3-.9-1 0-1.4.2-2.6 1.4-3.5 1.1-.9 2.2-2 3-3.3-1.9 0-2.8 2.1-4.8 1.6 1-3.1 1-6.3 1.4-9.5-.2 0-.4-.1-.7-.1-.6-.2-1.4.8-1.8 0-.5-.9.6-1.1 1.1-1.6.3-.3.8-.8.1-1.1-2.1-.7-2.8-1.8-1.5-3.9-1.1-.2-2 .9-2.8.4-1.2-.7.6-1.6.1-2.5-1.2.3-1.9 1.9-3.4 1.6.2-.6 1-1.6-.6-1.2-2.9.7-5.8-.8-8.6.2-.6.2-.7-.5-1.1-.8-.5-.4.1-.6.3-.9.3-.3.5-.5.4-.8.1 0 .2-.1.4-.1 0-.1-.1-.2-.1-.2-.1.1-.2.1-.3.2v-.1c-3.2-.1-6.3.2-9.2 1.6-.1-1 1.5-1 1.3-2.4-.8.4-1.5.7-2.2 1.2-1 .7-1.9 1.5-2.8 2.2-.3.2-.6.4-.9.1-.1-.1-.2-.5-.2-.5.9-.7-.1-2.3 1.5-2.8.4-.1 1.1-.7.9-1.9-3 1.3-5.7 3-8 5.2.4-.2.8-.3 1.3-.5s1-.7 1.4-.1c.4.5 0 1.1-.4 1.4-.8.8-1.6 1.9-3 1.4-.7-.2-1.3.2-1.8.6-2.8 2-5.1 4.6-7.2 7.1s-4.3 4.8-6.9 6.9c-.2.2-.4.3-.6.5-.4.5-.9.8-.1 1.8.5.6 1.7 1.7.9 3.2-.1.3-1.2.9-.6 1.6.5.5 1.3-.5 1.6.3.3.7-.5 1-.8 1.4s-.7.8-.5 1.5c1.2.4 2.2-.8 3.4-.6-.1.6-.8.8-.8 1.4 1.5.2 2.4-1.3 3.8-1.4-1.4.2-2.3 1.7-3.8 1.4-.7.6-1.5 1.2-2 2.1-1.2.5-2.3 1.2-3.5 2.4 1.5-.3 2.5-.5 3.4-.8l.3.3c.3.9-.1 1.6-.6 2.4-.3.5-.5 1.7.4 1.4 1.3-.3 2 .2 3 .7 1.2.6 1 1.1.4 1.7-1.4 1.4-1.8 3.2-2.5 4.9.9.2 2-.8 2.3.2.3.7-.1 1.8-1 2.4-.1 0-.1.1-.2.1-.2.5-1.2.8-.7 1.4.4.5 1.2.3 1.7 0 1-.6 2.1-1 4-.6-4.3 1.2-3.8 4.9-5.4 7.4 1 .6 1.5-.9 2.5-.3-.6 1.1-1.6 1.9-2.7 2.6-.3.2-.6.6-.5.7 1.5.2 1.3 2.3 2.6 2.3 2.5.1 1.2 1.5.8 2.3-.3.6-.9 1-1.3 1.4s-.8.9.2 1.1c2 .4 1.2 1.3.4 2.4 1.5-1.1 2.6.8 4 .3.4-.1 1.1 1.1.3 1.7-1.1.7-1.4 1.7-1.6 3 .4-.2.7-.4 1-.4.6-.1 2.4 1.8 2.8 2.3.4.4.3 2.2 1.8 1.1.4-.3.9-.6 1.4 0-.4.6-1.4 1.1-1 1.8.5.9 1.1-.2 1.6-.3 1.2-.3 1.9.3 2.2 1.4.2.7-.1 1.5-.2 2.2 1.2.1 1.8-1.6 2.8-.7.8.7 1.4.4 1.9.2.8-.4 1.6-.3 2.1.2 1 1 1.9.6 3 .3.8-.2 1.6-.5 2.3-.9.4-.3 1.1-.5 1 .5-.2 1.5.7.8 1.1.5 2.4-1.6 4.9-2.9 7.7-3.6.5-.1.7-.5.9-1 .9-1.8 2.6-2.7 4.4-3.5.4-.2 2-1.1 1.7.9-.1.4.5.5.7.4 2.1-1.6 5.7 0 6.9-3.5.4-1.2 1.7-2 2.6-3 .7-.8.8-1.4-.5-1.6.3-.8 1.3-.7 1.6-1.4 1.8-.9 2.3-2.3 1.4-4.2-.1-.3-.4-.3-.3-.9.3-1.5.7-3.3-2-3.4 1.4-1.2 2.4-2.4 2.7-4 .5-2.2.4-2.3-1.8-1.7.3-.2.5-.4.7-.5.5-.5 1.6-.9 1-1.9-.6-1.1-1.3.1-2 .2-.7.2-1.4 1.1-1.9-.2.2-.2.4-.3.5-.5.6-.1 1-.4 1-1 .4-.5 1.6-.7 1-1.6-.4-.6-1.3-.2-2 .2-.2.1-.3.2-.5.4-.5.1-1 .1-1.4.2.7-.7 1.6-1.1 2.1-1.9zm-24.3-20.1l.1.1s-.1 0-.1-.1zm1.1 11.1c0-.1.1-.2.2-.3-.1.1-.2.2-.2.3zm22.6 31.5c-.1.1-.2.1-.3.1.1 0 .2-.1.3-.1zm25.9-.8v-34c0-1.9-.7-2.3-2.3-2.1h-.8c-.6-.5-1.1-.3-1.5.3-2.9.8-4.8 2.9-6.8 5-1.2-.2-2.2.3-3.2.8s-1.7 1.8-1.4 2.8c.3 1.1 1.5 1.2 2.7.8 1.3-.5 1.5.4 1.1 1.2-.3.9-.3 2-1.4 2.4-.5.2-.9.4-.7 1 .3.7.8.2 1.2.2.3 0 .7 0 1 .3-.4.7-.5 1.6-1.2 2.1-1.4 1.1-.7 1.4.5 1.6-.8 1.4-.5 1.7 2 1.9 0 .5-.3.7-.6 1-1.8 1.2-3 2.7-3.1 5-.1.9-.9 1.2-1.4 1.8 1.3-.5 2.7-1.1 4-1.6.5 1.7.4 3.3.7 4.9.2 1.3 2.8 2.2.6 3.7 1 .7 1.7-.4 2.6-.1-1.4 1.8-4.5 1.6-4.5 4.5.5-.1 1.1-.3 1.6-.4.1.2.2.3.4.5 0 .1 0 .2.1.3.1 0 .1-.1.2-.1 1.5-.4 2.8-1.8 4.6-1 .4.2 1 .1 1.1.7 0 .5-.3.9-.7 1.1-1.1.7-2.2 1.3-3.3 2.7 1.2-.4 2.1-.8 2.9-.9.9-.2 1.9 0 2.8-.1 1.8-.3 3.1-1.8 3.1-3.6-.2-1.1-.3-1.9-.3-2.7zm-10.1 2.7c.1 0 .2.1.2.2l-.2-.2zm4-23.8c.1 0 .2.1.3.1-.1.1-.2 0-.3-.1z"/><path class="st1" d="M82.1 386.4c-.6.2-1.1.4-1.6.6-1.6.5-1.8.2-.7-1.1-1.2 0-1.1 0-1.2-1-.1-1.5-1.8.3-1.9-.9-.1-1-1.3.3-1.4-.8-.1-1.7-1.3-2.3-3.1-1.9 1.1-1.2.7-3 2.1-4-1.1-.2-2-.3-2.8-.4-.3 0-.9.2-.7-.2.6-1.8-.6-.7-.9-.5-.5.2-1.3 1-1.5.3-.3-1.1-1.2-1.2-2-1.7 1.7-1.7 1.7-1.7 1.4-3.5 1.1-.2 1.6-.9 2.2-1.9-1.7.1-3.3-.6-4.4.9-.5 0-1 .2-1.4.5-.3 0-.5 0-.7.3H63c1.4-1.4.5-3.7 2-5.1.6-.6-.5-.6-.9-.7 0-.5-.1-1.1.2-1.5 1.1-1.7.4-1.8-1.1-1.3-1.2.4-2-.6-2.7-1.2s.5-1.1.6-1.8c.1-.8 1.2-1.1 1.7-2.1-1.2.2-2 1-3 .8.7-.6.3-1.7.7-2.3.8-1.1.3-1.3-.6-1.5-1.1-.3-1.9.1-2.8.6-1.5.8-2.9 1.6-4.4 2.3-.6.3-1.4.8-2.1.3-.9-.6.3-1.3.1-2.2-.7.6-1.5.1-2.4.4-2.3.7-3.9 2.4-5.7 3.8-1.7 1.3-3 3.3-5.8 2.5-1.3-.4-2.9 1.1-3.2 2.2-.5 1.9-1.4 3.6-2.1 5.3-.2.6-.3 1.2-.9 1.5-1.5.7-1.9 1.7-.9 3-.9.2-2.2.9-1.9 1.6.5.9.8 1.9 1.4 2.7 1.4 1.7 2.3 3.4 1 5.6 1.7 0 2.4 1.3 1.3 2.5s-.3 1.4.5 1.8c-.7.7-2.2 1.1-1.9 1.8 1.1 2.5-1.1 2.7-2.4 4 1.3-.4 1.8-.3 2.5.8.8 1.2-.1 2 0 3.1.8-.1 1.2-.9 2-.3-.2.8-.8 1.6-1.4 2.6h10.4c4.7 0 9.3-.1 14-.1h8.2c1.4 0 2.5-.5 3.3-1.7 1.2-1.8 3.2-2.9 4.6-4.7.5-.6 1-1.4 2-1.3.4.5-.6.8-.1 1.2 4.1-2.3 6.8-3.8 8.9-7.3zm-37 4.7c.1-.2.1-.5.2-.8 0 .3-.1.6-.2.8z"/><path class="st3" d="M381.9 281.8c1.1.2.9 1 1.2 1.7.4.8.9 1.5 2.1 1 1.3-.6 2.9-.5 4.2-1.2.6-.3.9-.2 1.5.3 1.4 1.1 3 2.3 4.7.3.3-.3.9-.3 1.2-.7.9-1.2 3.3-1 3.2-3.4-.2-2.5 0-5 0-7.5 0-5.3-.1-10.6-.1-15.9 0-.8-.2-1.3-1.2-1-.7.2-1.8.7-2.2-.1-.5-1 .9-1.3 1.3-1.9.1-.1 0-.2 0-.4-4.1 1.6-7.5 4.1-10.6 7-.3.3-1.5.6-.3 1.3.4.2.2.4 0 .5-1.9.7-1.5 2.7-2.3 4-.8.2-1.3.6-1.5 1.3-.4.4-.8.7-1.3 1.1-1.4 1.5-1.5 1.9-.2 2.6.1.6.6.7 1.1.6.2.6-1.8 2.1.7 1.7-.1.6-1.5 1-.4 1.7.8.5.5 1.3.4 1.8-.3 1.1-.1 2.2.2 3.2-.5.3-1 .6-1.1 1.2-.3.1-.8.7-.6.8zm4.1-15.7c-.1 0-.1-.1-.2-.1.1 0 .2 0 .2.1z"/><path class="st2" d="M217.3 75.2c-2.6 1.3-4.1 3.9-6.4 5.6-.1.1-.2.3-.2.5.5.6 1.2-.4 1.6.4-.2.8-1.6 1.2-1.3 1.8.5.9 2.7-.5 2.8 1.7.2-.1.4-.2.6-.4.4.1.9 0 1.3-.2-.7 1.5-1.3 3.2-2.7 4.2.5.8 1.2-.2 1.8.6-2.1 1.4-1.2 4.2-2.9 6.2 2.1-1.1 2.8.4 3.7 1.6-.1.1-.1.2-.1.3.3.2.6.3.7.5-.2-.2-.4-.3-.7-.5-2.4 1.4-2.6 2.8-.6 4.7.4.4.3.7.1 1-1.2 1.6-.8 2.4 1.4 2.5-.9 1-1.6 1.9-2.4 2.7-.4.4-.7.7-.4 1.4.4.7.9.3 1.4.2.6 0 1.3-.9 1.8-.1s-.3 1.3-.9 1.7c-.2.2-.4.5-.6.7.6.2 1.9-.2 1.7.2-.4 1.1 1.3 2 0 3-.9.6-.2.9.4 1.2 1.1.7 2.3-.4 3.5.1-1.1 1.2-2.1 2.3-3.2 3.3-.6.6.1 1.2 0 1.8 0 .3.8.1 1.2-.1 1.8-.8 3.6.6 5.3-.5.2 1-.9 1.1-.6 1.9 1-.2 2.1-.9 2.8-.6 2.4 1 3.6-.6 5-1.9 1.7-.2 3.1-1.3 4.8-1.7-1.5 1.8.3 1.1 1 1.1-.2.9-1.3.7-1.3 1.9 2.3-1.3 5 .1 7.1-1.8 1.1-1 2.3-1.8 3.6-2.5.6-.4 1.5-1.1 2.2-.4.9.8-.7 1.2-.6 2.3 3.8-2.2 6.4-6.4 11.6-6.6-1.9 1.2-2.3 3.1-3.6 4.9 1.7-.5 3.1-1.1 4.1-2.1.6-.6 1.2-1 2.1-.8 2.4.4 4.4-.3 6.1-2.1.5-.6 1.7-1.8 2.3.3.2.7 1 .5 1.5.1 2.2-1.9 5-2.7 7.4-4.2.6-.4 1.7-.7 1.2-1.7-.4-.8-1.3-.3-2-.1 1-.5 2.3-.8 2.7-2.2.2-.2.3-.4 0-.6-.1 0-.3.1-.4.2-.6-.2-.1-.4 0-.6.2-.3.6-.8.3-1.1-2.3-1.8.2-2 .9-2.6 1.1-1 2.6-1.6 3.9-2.9-1.3-.2-1.9.8-2.8.6l-.1-.1c.6-1.5 2.2-2.1 3.2-3.3-.7-.1-1.3.5-1.8 0-.2-.8 1-.9.8-1.6-.4-.6-1.2 0-1.7-.7.5-1.1 1.2-2 2.2-2.7.4-.3 1-.7.7-1-.9-.8-.2-1.5-.3-2.2-.2-2.3.9-3.8 2.1-5.4.6-.8.7-1.2-.3-1.5-.5-.2-1-.6-.5-1 .8-.7.2-1.9 1.4-2.7-1 0-1.7.7-2.2 0s.2-1.4.5-2c.1-.2.3-.3.4-.4.8-.8 2.2-1.5.2-2.6-.4-.2-.1-.6.2-.8.4-.4 1.1-.6 1.3-1.3-3.3-.9-6.6-1.8-9.9-2.6 1.2-.5 2.1-1.7 1.6-2.7-.7-1.4-1.7.1-2.6.4-.1 0-.2.2-.3.3-.6.2-1.2.4-1.9.6 0-.9.3-1.7 1-2.3.2-.2.4-.6.1-.9-.1-.1-.6-.2-.7-.1-2.9 1.7-5.2-1.3-8.2-.9 1-1.1 2.4-1.4 2.2-2.9-2.5.4-4.6-1-4.1-2.7-.1 0-.3 0-.4.1-2 .5-2 .5-2.5-1.6 0-.2-.4-.2-.6-.4-.7-.5-1.3-.1-1.9.2-1.3.6-2.7 1.2-4 1.7-.3.1-1.1.7-1-.5.1-.9 0-.9-1.2-.5-.2 0-.4 0-.6.1 0-.7 1-1.4.2-1.9-.6-.4-.9.6-1.3 1-.3 0-.5 0-.8-.1-1.9-1.5-3.5 1-5.7.6 2.1-1.2 1.9-3.4 2.9-4.9-.8-.2-1.3.3-1.9.8-.6.6-1.5.9-2.2.3-1-.9.5-1.1.6-1.7 0-.1-.1-.2-.2-.4-3.5 1.2-5.1 4.9-8.5 6.3-.6-1.3 1.8-2.4.5-3-1.1-.5-2.5.9-3.6 1.7-.2.1-.3.3-.4.4-.2.3-.3.5-.2.9.8 1.7-.2 4-2.1 4-3.7 0-4.9 3.5-7.7 4.7-.3.1-.6.8-.5 1 .5 1.1-.4 1.4-.9 1.9-.6.6-1.3 1-1.7 1.6-1.5 2.4-3.3 4.5-5.8 5.8-.8.4-1.2 1-.8 2 .8-.2 1.6-.4 2.3-.6.3-.1.7.1.7.5.1-.2 0 .1-.2.2zm46.9 11.7c0-.1-.1-.2-.1-.3.1.1.1.2.1.3zm-37.5-22.7h-.3c.1-.1.2-.1.3 0z"/><path class="st3" d="M137.9 282.2c1.2.2 2.1-.4 2.9-1.1 1.9-1.6 4-2.7 6.1-3.9 1.6-.9 3.7-2 3.8-4.6-.6.2-.9.4-1.3.6-.7.2-1.6 1.2-2.1.3-.6-1 .6-1.3 1.2-1.8 1.2-1 2.5-1.9 3.1-3.4-.8-.7-2 1.5-2.1-.7 1.6-.5 1.3-2.3 2.4-3.2 1.3-1 2.5-2.1 3.8-3.2 1.4-.5 2-1.7 2.6-2.9-.8-.3-1.2.4-1.8.5-.4.1-1.1-.2-.8-.5 1.6-1.6-.7-4.1 1.7-5.6-1.6-.2-2.4 1.1-3.4.9-1-1.2 2.8-1.9.1-3.2l.3-.3c2-1.2-.5-.8-.5-1.5 2.7-1.1 1.2-3.6 1.7-5.5-1.2-.3-1.5 1.2-2.5 1.4-.6.1-1.3.7-1.7.1-.5-.7.2-1.2.7-1.6.8-.6 1.7-1 2.3-1.8.3-.4 1-.6.5-1.2-.4-.5-1-.3-1.5 0-.3.2-.5.5-.8.3.1-1.2-.3-2-1.6-2.2.9-1 2.3-1 3-2.1.2-.3.4-.6.2-.9-.2-.3-.6-.2-.9-.1-.8.5-1.7.5-3 .1 2.3-1.3 1-2.9.5-4.3-.1-.2-.2-.3-.3-.5-.5-2.9-.5-2.9-3.2-2.8.2-.3.4-.7.6-1 .4-.8 2.1-1.1 1.5-2-.7-.9-1.6.7-2.9.7 1.7-2.1 2.6-4.2 2.8-6.5-.9-.5-1.7 1.1-2.2 0-.3-.7-.5-2 .3-2.8l.4-.4c1.1-1.4.7-2.5-1.1-2.8-2.6-.5-4.2-4.1-2.8-6.3.2-.3.9-.4.7-1-1.5.5-3.1-.3-2.7-1.5.6-2-.7-.9-1.1-.8-.6.2-1.1.8-1.7 1.1-.9.4-2 1-1.7-1.1.2-1.7-1.5-2.6-3.1-1.8-1 .5-2 .6-2.9-.3-.8-.7-1.8-.8-2.8-.1-.7.5-1.6.9-2.1 0-.8-1.5-1.6-.8-2.4-.3-1 .7-2 1.3-2.9 2-1.3 1-2.7 2.2-4.6 2.3.3-1.4 2-1.4 2.7-2.9-4.1 1.5-6.5 4.3-9.3 6.6-.7.3-1.5.4-2 1.1-.8.2-1.9.3-1 1.6.2.2.1.5-.1.7-1.7 1.8-3 4-5.3 5.3-.4.2-1 .4-.8 1 .1.5.6.3 1 .3 1.2-.1 1.3.3.6 1.2-.3.3-.8.6-.6 1.2 1.2.3 2.1-.3 3.1-.8.5-.2 1-1.1 1.6-.2-.1 0-.2.1-.3.2-1.2.3-1.9 1.3-2.7 2.1.2.5.3.9.3 1.4 0-.4-.1-.9-.3-1.4-.6.2-1.2.5-1.6 1-1.4.4-2.2 1.6-2.9 2.7 1.2-.4 2.5-.6 3.4-1.5.3.1.5.2.8.3-2 1.1-1.9 3.3-3.1 5 .5.1.7.2 1 .1 1.1-.2 1.8.3 2.1 1.4.3 1.2-.3 2-1.2 2.4-1.6.6-1.9 2-2.7 3.2.6.7 1.2-.1 1.8.3-2.1 3.8 2.2.4 2 2.2-1.6.5-.2 1.9-.5 2.9-.7 1.9.2 2.4 1.8 2.2-1.3.7-.4 2.2-1.1 3.1.9.7 1.8 0 2.6.1s1.5.1 2.5 0c-1.4 2.4-.3 2.5 1.6 1.9-.5 1.2-1.8 1.2-2.2 2.2-.3.1-.7.3-.5.6.3.5.7.1.9-.3 1.1-.4 2.2-1 3.4-.1-.8 1-2.5 1.6-2.2 3 .3 1.2 2 .4 3 1l.2.2h.1c-.2.1-.6.1-.6.6 0 .2.1.4.3.3.4 0 .5-.3.5-.7l-.2-.2c.8.1 1.2-.8 2-1 0 .4.1.8 0 1.1-.7 1.8 1.2 3.4.3 5.2 1.1.5 1.5 2.2 3.2 1.6.6-.2 1.3-.4 1.9.4.7 1.1 1.6.4 1.6-.4 0 0 .4 0 .5-.1l.3.6-.4.4c-.7.4-1.5.7-2.2 1.2s-.8 1.4-.8 2.1c0 .4.7.4 1 0 .4.1.8.1 1.2-.1.8.4 1 1.9 2.4 1.3 1.3.3 2.3-.8 3.4-.8 0 0-.1.2 0 .3l-.3.3c-1.9 1.5-3.1 3.8-5.5 4.8 2.3-.7 4.6-.3 7.1-.5-.5 1-1.7 1.5-1.4 2.6.8.2 1.7-.1 2.4.4-.1 0-.2.1-.2.3-.6.2-.8.6-.3 1 1.3.9 2.4 2.3 4.2 2.1.2 0 .5-.1.6.2.8 1.9.1 3.4-1.3 4.7-.4.4-1.1.6-1.2 1.6 1.8-.5 3.1-1.4 4.4-2.4 1-.2 1.5-1 2.3-.9zm9.8-39.5l-.4.4c.1-.2.3-.3.4-.4zm-1.5 22.8c.3-.2.6-.4.9-.5-.3.2-.6.4-.9.5-.3.2-.6.4-.9.4.3-.1.6-.2.9-.4zm-1 .5c-.2.3-.5.3-.7.4.3-.1.5-.2.7-.4zm-7-57.2c-.1.3-.6.5-.6.8 0-.3.5-.4.6-.8zM111.6 225c.1-.1.2 0 .3.1-.1 0-.2-.1-.3-.1zm10.7 24.1c.2-.2.4-.3.7-.4-.2.1-.5.2-.7.4zm35-7c-.6-.1-1.2-.3-1.3.6.5 0 1.1.2 1.3-.6z"/><path class="st3" d="M156 242.7c-.3 0-.4.1-.4.4.3 0 .4-.1.4-.4z"/><path class="st0" d="M290.3 129.5c-1.8.6-3.7.2-5.5.9 0-.8 1.1-.7.9-1.6-1.1-.1-2 .9-3.1.5.4-1.6 2.2-1.6 2.7-2.9l.2-.2c-.2-.2-.3-.1-.4.1-.8-.1-1.7.1-2.4-.5 0-.7 1.3-1 .6-1.7-.5-.5-1.3-.2-1.8.2-.7.4-1.3.6-1.6-.5-.3-.8-.9-.5-1.4-.4-.9-.8-1.4-.3-1.8.5-.3 0-.6.1-.7.4-2.7.6-5 2.2-7.8 2.8 2-.7.6-3.5 3-4.3-.8 0-1-.1-1.2 0-2.7 1.3-5.2 2.8-8.3 2.6-.4 0-.3.5-.1.8-.9-.1-1.7-.1-1.7 1.2-1.7.6-3.4 1.2-5.3 1.9.3-1.2 1.6-1.4 1.6-2.8-3.2 1.4-6.9.8-9.8 3.2-.3.3-1.2.5-1.2.4-1.2-1.6-2.4-.1-3.7-.1-1.6 0-2.8 1.6-4.7 1.4.2-.4.3-.7.5-.9.4-.5.9-1 .3-1.6-.5-.4-1 0-1.5.3-1.2.7-2.4 1.4-3.6 2.2-.3.2-1.5.8 0 1.2-.6 1.3.1 2.1 1 3 .3.4-.3 1.1-.7 1.5-.8.8-1.6 1.5-2.4 2.3 1.2-.4 1.9 1.4 3.2.5.6-.4 1.7-1.2 2.3-.4.5.7-.6 1.3-.9 2-.1.1-.1.3-.2.5.9-.1 1.7-1 2.4-.1.6.8.4 1.7-.2 2.6-.2.3-.2.8-.3 1.1.6.4 1.4-.9 1.7 0 .3 1.3.8.6 1.4.5.5-.1.9-.8 1.6-.5-.3.7-1.3 1.2-.6 1.9.6.6 1.2-.1 1.7-.5.4-.3.8-.6 1.4-.2-.9 1.4-2.4 2.2-3.1 3.7.4.4.7.2 1 .2.5 0 1.2-.4 1.4.3s-.5.8-1 1c-.4.2-1 .5-.8 1.2 1.2.3 1.9-.8 2.9-1.1.4-.1 1-.7 1.2-.1.3 1 1 .9 1.7 1.1 1.1.2 1 .9.4 1.4-1 .9-.8 2.6-2 3.4.8-.2 1.4-.5 2.1-.7 1-.2 2.2-1.4 2.8-.4.5.8-.9 1.7-1.7 2.3-.1.1 0 .2-.1.5 1.4-.9 1.4.6 1.9 1.1 1.1 1.1-.9 1.6-.7 2.4 1.9 1.2 3.9 1.1 6 .2-1.8.8-.5 2.6-2 3.9 1.2-.4 1.9-.7 2.5-.9.7-.2 1.4 0 1.8.6.4.7-.1 1.2-.6 1.5-1.5.9-1.4 2.7-2.6 4.1 1.8-.4 3.3-.3 4.7-1 .4-.2 1.2-.9 1.3-.3.1.7.8 1.2.6 2-.7 2.5-.6 2.5 1.7 2.4.3.8-.8 1.2-.6 2.1.6 0 1.6-.2 1.6-.1.4 2 2 .9 3 1.1.8.1 1.8-.7 2.2.4.5 1.4 1.2 3.1.3 4.4-.7 1.1-1.2 2.2-1.8 3.6 1.2-.5 2.6-.9 3.8-1.4h.2v.5s.1.1.3.1h-.6c0 .2-.1.5-.1.7.2.2.3.4.5.4h-.1c-.2-.1-.3-.2-.5-.4-.8.1-1.4.4-1.6 1.2-.2.1-.3.2-.1.4 0 0 .2-.1.3-.2 1 .4 2 .8 3.1.3 1 .1 1.7-.9 2.7-1-.3.9-1.3 1.1-1.9 1.7-.4.4-.6.7-.3 1.2s.8.7 1.4.4c.3-.2.6-.5 1-.7l4.8-3c.4-.2.9-.6 1.3-.1.5.6-.4.8-.7 1.2-.4.5-1.4.5-1.6 1.4.6.5.9 0 1.3-.1 2-.7 2.6-3 4.4-3.9.4-.2.9-.5.9-1-.1-.7-1-.2-1.3-.7 2.2-1.2 3.1-3.3 4.3-5.2-.7-.4-1.1 0-1.6.1-.4.1-.9.6-1.2.1-.2-.4-.1-.9-.1-1.4 0-.8 2-1.4.2-2.4 1-.5 2-.9 3-1.4.4-.2 1.1-.3 1.1-1-1.4-.3-2.5.9-3.8.8-.1-.9 1.1-1.2 1-2.1 1.1-.7 2.1-1.5 3.2-2.2.4-.1.9-.2.8-.7s-.5-.6-.9-.2c-.6.2-1.3.4-1.9.6.1-.2.1-.4.2-.6 1-.1 1.1-1.1 1.8-1.6.4-.1.7-.3.9-.8.1-.1.2-.2.2-.3-.1-.2-.3-.1-.5 0-.2 0-.4.1-.6.1l-.9.3c0-.2.1-.4.1-.6.1 0 .1-.1.1-.2.9-.3 1.3-.8.2-1.4.6-.5 1.2-1.1 1.8-1.6.3-.3.8-.4.6-.9-.2-.6-.7-.3-1.2-.3l-1.2.3c.1-.1.1-.2.1-.3.2-.1.5-.2.7-.4.7.2 1-.5 1.6-.7.5-.1 1.2-.2 1.2-.9 0-.8-.9-.5-1.3-1 .2-.3.4-.7.7-1 1.7-.4 2.5-1.8 4-2.9-2.2-.5-3.2 1.7-5 1.3 0-.9 1-1 1-1.8.1-.1.1-.3.2-.4 1.2-.2 2-1 2.5-2 .2-.5.7-1.1.3-1.7-.4-.7-1.1-.1-1.6-.1-.7.1-1.4.2-2.2.4.4-1.3.4-1.5-.4-2.6-.2.1-.5.2-.7.2.2-.1.5-.2.7-.2-.3-1-1-.5-1.6-.4.7-.6 1.5-1.1 1.9-2 1.2-.7 1.2-.7.3-1.7-.1-.1-.1-.2-.1-.3.6-1.7-.6-1.5-2-1.3 1.1-1 1-2.2 1.5-3.1.6-1-.8-1.8-.8-2.9 0-.4-.7-.4-1-.2-1.8 1.4-2.9.3-4.2-1.1.8-.4 1.8-.9 1.5-2.1-1.4-.2-1.9 1.6-3.4 1.2 1.4-1.8 4.3-1.8 5.6-4zm-26.8-2.7c.1 0 .1.1.1.2 0-.1-.1-.1-.1-.2zm1 4.4c.2-.2.5-.3.8-.3-.3 0-.6.2-.8.3zm17.9 31.4c.1-.1.2-.2.3-.2-.1.1-.2.1-.3.2zm6.7-5.8c0 .1 0 0-.1 0h.1zm-.7 4.6c-.2-.1-.2-.3-.3-.5.1.2.2.3.3.5z"/><path class="st1" d="M343.1 394.2c-1.2-1.3.1-2.3 1.1-3-.6-.6-1.3.3-1.7-.5 0-.6.6-.8 1-1.1.3-.4.9-.8.4-1.3-.4-.5-.8.1-1.2.2-1.9.7-2.7 2.7-4.4 3.7-.9.6-.9.6-1.7-.3-.1-.1-.3-.2-.3-.2-1.1 1.1-2.5-.1-3.5.5-2.7 1.8-5.7 3.1-8.3 5.2-.9.7-1.2 2.2-2.8 2.3 2.3.2 4.5.2 6.8.2h15.2c1.7 0 2.6-1.3 1.6-2.3-1.4-1.5-.9-2.3.6-3.1.3-.1.4-.5.6-.7-1.1-.5-2.2 1.7-3.4.4z"/><path class="st0" d="M298 177.5c-.5.7-.7.8.1 1.8 1.3 1.5 2-.1 3.1.2-2.2 1.4.9 3.4-1.2 5 1.9-.1 3.4-1.3 4.9-.3-.1.1-.2.3-.2.4.2.3.4.1.5-.1.6.1 1.2-.1 1.7-.3-.1 0-.1.1-.1.2-.2.1-.3.2-.5.2.6.6-.3 2.3 1.5 2.1.2 0 .5-.4.7.2.5 1.1.6 1 1.6.2h.5c.9.5 1.8-.7 2.8-.1-.4.9-1.5 1.2-2.1 1.9-.5.5-.8 1.5.2 1.5 1.2 0 2.5.9 3.5-.3.9-.3 1.5-1.2 2.5-1.2v.1c-.4.3-1 .5-.8 1.3 1.1.1 2-.4 2.9-.9-.4.4-.8.7-1.2 1-.3.3-.9.5-.6 1.1.3.5.8.3 1.3.2 1-.2 1.9-.5 3.2-.8-.9 1-1.5 1.7-2.1 2.3-.3.4-.9.8-.5 1.3s1 .1 1.5-.1c1-.5 2-1 3-1.6 1.3-.9 1.2 1.8 2.4.8-.2.4-.5.7-.7 1.1-.3.1-.7.3-.4.6.3.3.6.1.8-.1.9.4 2 .6 1.7 2-.1.5.4.8.8.6 1-.4 1.8.3 2.7.1.8-.1 1.4 0 1.9.9.6 1-.2 1.3-.5 1.8-.3.4-.6.7-.4 1.3.2.5.8.4 1.1.2 2.6-1.1 2.9-.2 1.9 2-.1.1 0 .4-.1.5-.6 1 .1 1.2.7.8 1.5-1 2.9-.6 4.6-.3 1.8.3 1.2.9.7 1.8.6-.4.8 1.3 1.8.4.8-.7 1-.5 1.7.7.6 1.1-.5.8-.9 1.2-.3.3-1.1.3-1 1 .8.5 1.1-.3 1.6-.5 1-.5 1.8-1.5 3.1-1.3-.3 1.1-.9 2-1.9 2.7-.3.2-.7.5-.5.9s.7.4 1.1.3c1.6-.3 3-1.1 4.5-2.1-.8-.3-1.6.5-1.8-.3-.2-.6.4-1.1 1-1.4.5-.3 1-.6 1.6-.8 1.5-.7 3.2-1.4 4.4-2.6 2-2 3-3.6 4.4-7.4 0-.1.2-.2.3-.3 1.5-1.2 2.8-2.5 4.8-3.1 1.4-.4 2.9-.8 3.7-2.5-.4 0-.6-.1-.8 0-1.4.7-2.7 1.4-4.1 2.1-.4.2-.9.9-1.3.3-.3-.5.3-1 .7-1.3 1.2-1 3-2 3-3.5 0-1.9 1.2-2.7 2-3.9.7-.9.1-1.3-.8-1.4.4-.4.5-.7.4-.9.1.1.3.2.5.2.7-.1 1.3-.6 1.6-1.2.2-.3-.1-.6-.5-.6-.8 0-1.3.5-1.7 1.2-.1.1 0 .2 0 .3-.1-.1-.4-.2-.9-.1-.7.1-1.4.6-2.1.9 1.4-1.1 2.2-2.6 3.2-4 1-1.3-.8-2.5-.2-3.9-.3 0-.6 0-1.3-.1 1.9-1 2.2-1.8.1-2.5-.2-.1-1.2-.4-.8-.7 1.9-1.5-.8-.9-.6-1.7 1.3-.7 2.6-1.4 4-2.1-.7-.8-1.3-.6-1.8-.3-.4.2-.7.7-1.1 0-.3-.6.1-.8.4-1.1.6-.5 1.1-.9 1.6-1.4 1-1.1 1.1-2.1.2-3.3-.7-.9-1.4-.1-2.1.1-.6.1-1.1.3-1.7.5.4-.6 1-1 1.4-1.5.5-.6 2-.7 1.5-1.4-.5-.8-1.6.1-2.4.4-.5.2-.9.5-1.4.7-.4.1-.6-.1-.7-.5 1.5-1.3 2.9-2.7 4.4-4-.1-.2-.2-.3-.2-.5-1.5 1-2.7-.3-4.1-.3.3-.8 1.6-1 .9-2.1-.8-1.1-1.8-1.5-3.3-1.1 1.2-1 1.1-2.1.8-3.3-.5-1.9-2.1.4-2.9-.8.7-.6 1.4-1.2 2-1.7-2-.6-4.1-1.3-5.9.3-.1.1-.3 0-.4-.1-1.5-1-2.4 0-3.4 1-.1.1-.3.1-.4.2-1-.1-.8-.7-.7-1.4.8-.6 1.6-1.2 2.5-1.7-1.4 0-2.5.3-3.5 1.1-.1 0-.2 0-.3.1-1.4.6-2.6-.7-4-.4-1.6-1.3 0-2.6.4-3.9-2.5.4-3.6 2-4.4 3.9-1.6.8-3.1 1.6-4 3.2-.5 0-1.1.9-1.5.2-.5-.8.4-1.1.8-1.6 1.2-1.5 2.8-2.6 4.4-3.9-.8-.4-1.2 0-1.6.2-3.5 1.7-6.9 3.6-9.9 6-.6.5-1.4 1.2-2.3.8s-1.4-1.3-1.1-2.9c-3.5 3-7.6 4.1-11 6.2-1.1 0-1.9.7-2.8 1.2-.6-.8-1.1 0-1.6-.1-4.4-.2-6.5 3.1-9 5.7-.9 1-2 1.9-2.1 3.4.7.4 3.1-1.5 1.9 1.4 0 .1.2.4.3.4.9.4.4.9.3 1.6-.3 1.7-2 2-3 3 .3.7.9-.1 1.2.4-.3.8-1.3 1.3-1.4 2.3.5.3 1.2-.5 1.6.2-.2.1-.3.2-.5.4-.5 1.2-1.1 2.1-1.8 3zm51.6-21.9c0 .3-.1.5-.3.6.1-.1.2-.3.3-.6zm-3.4 39.1c-.1 0-.2-.1-.3-.1.1-.1.2 0 .3.1zm-.7 8.2c-.1.1-.1.1-.2.1.1 0 .1-.1.2-.1zm-5.3-30.6c0-.1-.1-.1-.2-.2.1 0 .2.1.2.2zm-.1-15.6c-.2 0-.4-.1-.5-.1.2 0 .4.1.5.1zm-8.4 18.5c-.2 0-.4 0-.6.1.1-.1.4-.1.6-.1zm-2.3-9.8c-.1 0-.1 0-.2-.1.1 0 .1.1.2.1zM314 185.9c-.2 0-.3 0-.5-.1.2 0 .3.1.5.1zm-2.9-8.1s.1.1.1.2c0-.1-.1-.1-.1-.2-.1-.1-.2-.3-.3-.4.1.1.2.3.3.4zm-.5-.7c-.1-.1-.2-.3-.3-.4.1.1.2.2.3.4zm64.3-14.7c2.2 0 3.3-1.6 5.1-2.1-.1 1-.5 1.9-1 2.8-.3.5-.4.9.2 1.3 1.9 1.3 1.9 1.8.5 3.5-.1.1-.1.3-.2.4.1 0 .3-.1.4-.1.3-.1.7-.1 1-.2-.1 1-1.1 1.1-1.6 1.8-.8 0-1.1.5-1 1.2.3 1.2 1.2 1.8 2.5 1.8-2.3 2.8-2.4 4.2-.3 5.5.1-.1.3-.2.4-.3.5 0 1.1 0 1.6-.1-1.4 1.7-2.5 3.7-4.6 4.8 1-.2 1.8-.7 2.8-.3.5.2 1.4-.7 1.7.2.3.7-.8.9-1.1 1.7 3.4-.7 6.3-2.4 8.9-4.4 1.1-.8 2.1-1.1 3.3-.6.9.4 1.6.4 2.3-.4.5-.7 1.3-.9 2.1-.9 1.8 0 2.3-.9 2-2.4-.1-.4 0-.8-.1-1.2 0-.3 0-.5.1-.8V162c0-.5.1-1.1.1-1.6v-21.5c-2 .4-.8 1.2-.9 1.9-.2 1.9-5.1 6-6.9 6.3-.3 0-.7.2-.8-.3 0-.2.2-.5.4-.6 1.9-1.1 2.9-3.2 4.6-4.6.7-.6.4-1.3.2-1.7-.3-.5-1.1-.1-1.4.2-1.3 1.4-3.7 1.7-3.9 4.2 0 .6-.9 1.1-1.4 1.6-1.4 1.7-4.3 1.6-5 4.2 0 .1-.4.1-.5.2-1.3.4-2.6.9-3.9 1.4-.8.3-1.7.6-1.9 1.6-.5 1.9-.9 3.7-2.3 5.2 1.1.3 1.6-.7 2.6-.2-1.4 1.3-2.2 2.9-4 4.1zm11.8-4.6c0 .1-.1.2-.1.3 0-.1 0-.2.1-.3z"/><path class="st2" d="M396.8 192.3c-.5.2-1.1.8-1.6.1-.6-1-1.4-.4-2.1-.2-1.4.4-2.1 1.3-2.5 2.7-.3.9-.3 1.3.5 1.6.4.2 1.1-.3 1.4.5-1.5.8-2.1 2.1-2.1 3.8 2.8.8 5.3 2.6 8 3.6.4.1.5.9 1.1.7.6-.3.4-.9.4-1.4 0-3.1.1-6.1.1-9.2 0-2.7-.7-3.1-3.2-2.2z"/><path class="st1" d="M157 395.3c0-.7.9-1.4.1-2-.6-.5-1.3 0-1.9.3-1.2.6-2.4.7-3.7.6-1.1 0-2.4-.5-3.3.8-1.1.7-2.6.1-3.4 1.4-.2-1.8 1.8-2.1 2.4-3.9-2.6.7-5 1.1-6.5 3.3-.2.1-.4.2-.7.3-.5-.2-.8.2-.9.6-1.7.7-3.3 1.3-5.2 3.3h15.3c.4 0 .8-.1 1.2-.1.5 0 1.1-.1 1.6-.1h5.6c.4 0 .8 0 1.2-.1 1.4 0 3 .4 4.1-.8.3-.3.8-.7-.1-1l-.2-.2c-.4-1 .3-1.7 1.2-2.7-2.5 1-4.6 1.2-6.8.3z"/><path class="st2" d="M73.4 105.8c-.7.6-1.5 1-2 2.3 1-.3 1.8-.5 2.5-.7.5-.1 1 0 1 .6-.1 1.7-.3 3.4-.5 5.1-.1.2-.2.3-.3.5-.6 0-1.3.1-1.3.8.1.5.8.1 1.2.3l.2.2c.1.1.1.3.2.4-.1 0-.2 0-.2.1-1 .7-1 .7-2.4 5.2.3-.1.5-.1.8-.2.7-.2 1.4-.9 2-.3.6.7-.4 1.1-.7 1.7-.4.9-.3 1.4.9 1.2 1.6-.3 1.8.3 1.7 1.9-.1 1.1-1.5 1.7-.8 2.9.6 1 .6 1.9-.5 2.5-.3.2-.6.6-.4.8 1.2.8-.1 1.8.1 2.6.8.3 1.4-.2 2.1-.2.6 0 1 .3.7.8-.6 1-.2 2.4-1.3 3.4.9 0 1.5-.9 2.1-.2.6.6-.6 1.1-.4 1.6 1 1.3 2.2-1.4 3.3.5 1.3 2.1.2 3.1-1.7 4.2 1.5.3 3.1-1 3.6.9.8 0 1.4-.4 1.9-.9.4-.4 1.1-.6 1.5-.3 1.1 1 2 .4 2.9-.2.4-.3 1.1-.7 1.7-.4 0 .8-1 .7-1 1.5.4.5 1.2-.4 1.6.4-.5 1-2 .9-2.7 2.1 1.1.2 1.7-.2 2.3-.6.6-.4 1.6-.8 1.8-.5.8 1.5 1.6.6 2.4.2.4-.2.9-.5 1.3-.1.4.5-.2.8-.4 1.2-.2.5-.7 1-.3 1.4.4.5 1.1.4 1.7.1 1-.5 2.2-.4 3.1-1.1.9-.7 1.3-.1 1.3.8 1.3.1 2-1.4 3.5-1.3-.2.4-.3.7-.4 1-1 1.3-.3 1.5 1 1.6s2.3-1 3.5-1c0 0 .1.2.1.1-.2 1.5-2.1 1.5-2.6 2.8 1.3.4 2.2-.4 2.8-1.2 1.6-1.9 3.7-2.9 5.7-4.3 1.4-1 3-1.8 4.1-3.2-.4.1-.7.3-1.1.4-1.8.7-3.3 2.2-5.4 2.1.3-.3.8-.5.9-1.1.8-.2 1.1-.9 1.3-1.6.4-1.2 1.4-2.4 2.1-3 1.4-1.1 2.6-2.6 4.2-3.5.9-.5 2.1-1.5 2-2.3-.4-2 .5-3.4 1.7-4.9-1.7-.3-2.7.3-3.5 1.4-.7 1.1-1.8 1.6-3.1 2-.8.2-.5-.3-.6-.6.4-.2.7-.5 1.1-.7 1.2-.7 2.2-1.6 1.8-3.3 1.7-1.9 3.6-3.6 5.8-4.9 1.5-.5 2.8-1.3 3.9-3-.9.5-1.6.8-2.2 1.1-.7.3-1.3-.1-1.8-.5-.4-.3-.2-.7.1-1 1.2-1.2 1.3-3.3 3-4.1-1-.7-1.8.6-2.7-.1 2.4-3.4 4.6-5.3 8.7-7.2.5-.2 1-.7 1.4-.2.5.5-.1 1-.3 1.4-1.2 2.2-1 2.5 1.5 2.4.3 0 .7-.4 1-.1-.2 1.6-2.8 2.4-1.2 4.5 0 .1-.3.4-.4.6-2 2.7-2 2.7.2 5.2.3.4 1 .2 1 .7.2 1.7 1 .6 1.5.3h.2c-.1.2 0 .4 0 .6-1 .2-.5.4-.2.6.1.1.2-.1.4-.1 1.2-.7 2.4.2 3.6-.2.2-.1-.3 1.4.9.9 1.7-.6 3.6.3 5.4-1.5-.4 1-1 1.4-.6 1.9s.8.1 1.3 0c.6-.1 1.6-1 1.7.1.1 1.9 1 .6 1.5.6s1.1-1 1.4-.3c.5 1.1 1.2.7 1.7.5.9-.3 1.7-.8 2.5-1.1.3-.1.7-.2.9 0 .4.3 0 .7-.2 1-.7 1-2 1.2-2.9 2.2 3.1 1 4.8-1.7 7-2.5.7.2-.8 1.5.7 1.2.7-.1 1.2-.8 2-.5.2.9-1.2 1.1-.7 2.4 1.4-1.3 3.4-.9 4.6-2.4.2-.1.5-.3.7-.4.8-.3 1.8-.2 2.2-1.2.4-.1.8-.2 1.1-.3 0 .7-.4 1-1 1.3-.6.4-1.9.5-1.5 1.4.3.7 1.3-.1 2-.2.1 0 .2 0 .4.1-.2.2-.4.4-.5.6-.3.5-1.3.9-.7 1.6.5.7 1.2 0 1.8-.1 1-.2 1.7-1.4 3-1.1-.2.8-1.3.9-1.1 2 2.1.1 3.9-1.2 6-1.6-.8.7-1.4 1.4-1.7 2.4-.1.5-1.2.5-.6 1.2.4.5 1.1.1 1.7-.1 1.1-.4 2-1.4 3.1-1.2 3.2.5 6.2-.5 9.2-1.2.3-.1.6-.5 1 0 1.2 1.9 2.5 1 3.6-.1 1-1 2-1.7 3.4-1.9.3-.1.7-.1.9.2.2.4-.1.6-.4.8-1.1.5-2.1 1.2-2.9 2.1-.4.4-1.2.9-.4 1.7.6.6 1 0 1.5-.4 1.5-1.1 2.4-2.5 3.4-4 2-3.3 2-3.1.8-6.3-.3-.9-.6-2.9 1.2-3.6.5-.2 1.2-.9 1-.9-2.2-.9.5-1.4.2-1.8-.3-.9-1.5-.5-1.3-1 .8-2.3-1.2-1-2.4-1.5 3.6-1.1.6-3.2 1.6-4.7-1.3-.2-2.1 1.1-3.9.7 2.4-1 2.9-2.7 3.3-4.5.1-.3.5-.9-.2-.8-1.7.2-1-.8-.5-1.2 1.1-1 1.2-2.1.7-3.4-.2-.4-.1-.9.2-1.1.9-.6.5-1.4 0-1.7-.8-.4-.7-.9-.1-1.1 1.6-.7-.2-2 .6-2.7-2-1.5-1-3 .3-4.4-4.1-.7.4-1.6-.3-2.4-.9.4-1.8.8-2.7 1.3-.4.2-.8.4-1-.1-.5-1.1-1.5-.9-2.3-1.2.6-1.5 2.6-1.3 3.2-2.8-.9-.3-1.6.6-2.4.4 0-.5.1-1.1 0-1.6-.2-.6-.1-1.1.2-1.7 1-2.1 1-2.1-1.4-2.3.3-.8 1.1-1.1 1.7-1.6.7-.7.7-1.3.5-2.3-.1-.9-2.3-1-.8-2.4-.1-.1-.2-.2-.3-.2-1.3.1-2-1.3-3.4-1-.4.1-1.2-.4-1.2-.5.7-2.7-1-.8-1.5-.7-.8.2-1.5.3-2.2 0-.3-2.2 2.1-2.7 2.9-4.3-1.1 0-1.2.1-1.9-.6-.5-.5-.9-.2-1.2-.1-2.1.5-2.9-.1-3.5-2.6-.1-.3-.2-1.2-1.3-1-1.1.3-2.4.1-3.7.1.6-1.2 1.4-2.3 2.6-3.2-2.7-.4-4.4 2.1-6.9 1.9.2-.9 1.3-1 1.3-1.9-1.1-.8-1.9.8-3.5.2 2.6-.5 2.3-3.1 4-4.2-1.8.3-3.4 1.2-4.7 2.4-1.5 1.4-3.1 2.5-5.1 3.1s-3.8 1.6-5 3.4c-1.1 1.6-2.6 2.6-4.1 3.8-.7.6-1.4 1.2-1.9 2.1-.7 1.4-2 1.5-3.4 2.5.3-1.2 1.7-1.5 1.1-2.2s-1.4.3-2 .7c-1.7 1.4-3.2 3-5.1 4.1-1.2.7-2.5 1.3-3.2 2.6.8.3 1.3-.3 1.9-.5.5-.2 1.2-.3 1.5.2s-.2 1-.7 1.2c-.8.4-1.3 1.1-1.7 1.9-.3.6-1 1.3-1.5 1.2-2.8-.5-4 1.8-5.9 3 .2.8 1.1.2 1.2 1-1.4 1-1.9 2.8-3.1 4-.5.5-.4 1 .4 1h1.6c.7.1 1.5.1 1.5 1.2 0 .9 0 1.6-1.2 1.9-2.2.6-3.5 2.2-5.1 4 .5.1.9.1 1.2.1s.7-.2.8.1c.2.8-.9 1.2-.4 1.7 1.1 1.1.1 2.3-.3 3-.8 1.7.4 1.1 1.2 1.4-2.2 1.1-4.1 2.5-5.4 4.6-1.3 2.1-3 3.1-5.4 2.7-.5-.8 1.4-1.2.3-1.7-1-.4-.7-.8-.5-1.5.4-2.1 2.1-4.2.1-6.3.3-1.4 1.3-2.1 2.3-3.1.2 0 .4-.3.6-.4-1.4-.5-1.6-2.1-2.7-2.9-.1-.1-.2-.1-.2-.1.3-.6 1.3-.8 1.1-1.4-.6-2 .1-3.4 1.5-4.7.4-.4.7-1 1-1.5.2-.3.1-.8-.3-.7-1.2.1-2.3-.7-3.5.1-1.9 1.3-4.2.1-6.2 1.2.9-.8 1.8-1.5 2.7-2.1 1-.6 1-1.6.7-2.2-.4-.8-1.1.1-1.7.2-1.3.1-2.3 1.8-3.4 1.3-1.4-.6-2.8-.5-4.1-.3-1.8.2-3.5-.9-5.3-.1-4.6 2.1-9.4 3.7-13.3 7.3-2.5 2.3-5.3 4.5-8.7 5.5-2.4.7-4.9 1.1-6.1 3.7-.2.1-.4.1-.5.2-1.1.5-2.2 1.2-3.4 1.6-.7.3-1.3 1.5-2 .6-.5-.6.7-1.1 1-1.7 0-.1-.1-.2-.1-.4-1.7.3-3.1 1.4-4.6 2.1-.5.2-.8.8-.6 1.3.8 1.4 0 2-.7 2.6zm78.5-4.3l-.1.1s0-.1.1-.1zm-1.1 18.3c-.7.8-1.6 1.3-2.3 1.3.7 0 1.6-.6 2.3-1.3zm-2.1-11.9c-.1 0-.2-.1-.3-.1.1 0 .2.1.3.1zm-5.8-3.7c-.2.1-.4.2-.5.2.1-.1.3-.2.5-.2zm-29.7-14c-.3.1-.7.2-1.1.3.3-.1.7-.2 1.1-.3zm-2.7 44.4c-.1.1-.3.4-.4.4.1 0 .2-.3.4-.4zm-.9.5c-.1.2-.2.3-.3.4.1-.1.2-.2.3-.4zm-3.5-42.8c-.2-.1-.2-.2-.3-.4.1.2.2.3.3.4zm-5 45.3c0-.1 0-.1-.1-.2.1 0 .1.1.1.2zM99.4 123c-.1.1-.1.1-.2.1 0 0 .1 0 .2-.1zm-1.3 17.4c-.1 0-.2.1-.3.1 0 0 .2-.1.3-.1zm-4.6-6.3c0 .1-.1.1-.1.2 0-.1 0-.1.1-.2zm-18.1-14.8c-.1.1-.1 0 0 0z"/><path class="st4" d="M30.8 353.5c2.5-1.7 6.2-2.9 9.4-3.1.3 0 .6-.3.8-.5 2.6-2.3 5.4-4.3 8.3-6.3.9-.1 1.5-.7 2-1.3 1.9-.2 3.5-.9 5.2-1.8.8-.4 1.8-.8.4-1.8-.6-.4-.4-.9 0-1.2 1.6-1.4 2.9-2.9 4.1-4.8.9-1.4 1.3-3.1 2.8-4.2.6-.4 0-.9-.7-.8-1.4.2-2.6.2-1.8-1.8.1-.2.1-.5 0-.5-1.7-.5-.7-2-1.1-2.9-.2-.4.3-1.8-1.1-1.3-.5.2-1.1.6-1.4 0-.3-.6-.1-1.3.5-1.8.9-.8 1.9-1.7 2.7-2.7.3-.3.9-1 .2-1.6-.5-.4-1.1-.2-1.7.2-.2.2-.2.7-.1.7-1.4-1.4-1.2-3.1-2.6-4-.4-.3-1.1-.6-.3-1.5 1.1-1.3.8-2-.9-2.3-.8-.1-1.2-.3-.7-1.1.3-.5.8-1.1.2-1.6-.6-.4-1.3-.1-1.8.4-.3 0-.5.1-.8.1 0-.5.4-.8.6-1.2.7-1.1 1.8-2.2 1.9-3.3.1-1.4-.1-2.9 0-4.4 0-.6-.1-2.2-1.7-2.1 0-.4-.1-.8-.4-1.2 1-.3 1.5-1 1.6-2-.5 0-.7-.3-1-.8-.9-1.4-.8-3.7-3.3-3.9.4-.8 1.8-.8 1.2-2-.7-1.6 0-2.6 1.5-3.3-.6-.5-1.5.4-1.6-.7-.9 0-2.1.6-2.4-.6-.4-1.9-1.4-1.3-2.5-.9-1.5.6-2.6 2-4.2 2.5-.4.1-.8.4-1.1 0-.4-.4.6-.7.3-1.2-.5.1-1 .1-1.5.2l-.2-.2c-.3-.7-.7-.3-1.1-.1-3.1 1-4.8 3.9-7.4 5.5-.4.3-.8 1-1.3.4-.5-.5.1-1 .5-1.3 1.6-1.5 3.1-3 4.6-4.8-2.3.1-4 1.3-5.6 2.3h-.1l.1.1c-.1.1-.3.3-.3.5v.1c-2.4.4-4.6 1.2-6.7 2.6-.7.5-1.6.8-2.4.9-2.8.3-4.5 2.1-6.3 3.9-1.4.6-2.8 1.3-4.3 1.9-.2-.1-.4-.1-.6-.2.2-.1.4-.1.5-.2.8-.5 2.2-1 1.6-2.1-.5-.9-1.8-.3-2.7.3-.8.2-1.3.6-1.3 1.5-.4.2-.8.3-1.2.5-.5-2.2-2.1-.2-3.4-.9 2.3-1.6 5.7-1.2 7-4.3-1.2.3-2 .8-2.8 1.3-2.1 1.1-4.6 2-6.6 3v46.4c1 .2 2.6.6 3.9.3-.6.3-1.3.7-1.5 1.5-.4 1.7 2.6.3 2.1 2.3 0 .2.6.2.9 0 .6-.3 1.2-.3 1.8-.6 1.2.2 2-.8 3.1-.8 2.4 1-1 1.7-.9 2.8 1.3 1.2 2.7.1 4.3-.2-.9 1.6-.1 2.2.9 3.1.8.7 2.2-.2 2.4 1.2-.7.8-.4 1.1.5.8 1.1-.4 2.2-1 3.3-1.6-.1.1-.1.2 0 .3-.3 1.1 0 1.2 1.7.7 0 .3.1.4.4.5 0 .6-2.5.6-.5 1.8.5.9.9.7 1.3-.1h.8c.3.6.4 1.6 1.2 1.6-.3 0-.6.5-.9.6-.9.4-.8.9-.4 1.6s.9.6 1.5.3c.5-.2 1-.5 1.4-.6.1 0 .3.1.4.2.1.7-.6.9-.8 1.4 1.8 0 2.9-1 4.1-1.8zm27-37c0 .2-.1.3-.1.3 0-.1.1-.2.1-.3zm-5.5-18.2c-.1 0-.2-.1-.3-.1.1 0 .2 0 .3.1zm-3.4 44c0 .1-.1-.1-.1-.1l.1.1zm-3.2-21.9c-.1 0-.2.1-.3.1.1-.1.2-.1.3-.1zm-1.9-28.2c0 .1 0 .2-.1.3 0-.1.1-.2.1-.3zm-11.7-1c2.4-.2 4.3-1 6-2.3-1.7 1.3-3.7 2.2-6 2.3-.2.3-.6.4-.9.4.3 0 .6-.1.9-.4zm-13.4 31.2c.2 0 .3.1.4.3-.1-.2-.2-.3-.4-.3z"/><path class="st1" d="M115.2 398.1c0-.4.3-.6.5-.8.5-.5 1.7-.9 1-1.8-.5-.7-1.3.2-1.9.4-2.1.7-4 1.9-6.5 2.2 1-.9 1.7-1.6 2.5-2.3-1.7.2-3.4.1-4.8 1.2-.2.1-.4.1-.6.2-1-1.6-2.1-2.2-3.9-.9-.7.4-1.7 1.5-2.8.7-.8-.6-1.6-.4-2.4-.3.1-1.6-.8-1.5-1.9-1.1-1 .4-1.9 1.2-3.4 1.3 1-1.7 2.3-2.9 3.4-4.3l-2.7.9c-.1-.2-.2-.3-.3-.5-.3-.8-.9-.3-1.3-.2-4.3 1.1-8 3.1-10.5 7 6.9.4 13.9.3 20.9.3h2.8c3.8 0 7.6-.1 11.4 0 1.7.1 2.9-.5 3.8-1.9-1.4-.7-2.3.3-3.3-.1zm106.4.8c-.4-.6 0-1.3.5-1.8.3-.3.8-.5 1.1-.8s.9-.4.9-.8c-4.5-1-7.4 2-10.6 4.1 2.7.2 5.4-.1 8 .2 2.8.3 4.7-.7 6.3-2.9-1.6.6-3.2 1.2-4.7 1.9-.5.3-1.1.6-1.5.1z"/><path class="st2" d="M162.7 273.1c-1.3.8-3.1 1.2-3 3.2.7 0 1.5.2 2.1-.1 3.8-1.6 6.5-4.6 9.6-7.2-1.7.4-3.3.9-4.4 2.6-.4.5-1.2 1.5-1.9.7-.6-.6.4-1.1.8-1.6.2-.2.4-.3.3-.8-1.3.3-3.1 1.7-2.9 1.9 1.1 1.4-.1 1-.6 1.3zm62 60.7c-3.6 1.4-6 3.6-8 6.7 3.4-1.4 5.5-4 8-6.7z"/><path class="st3" d="M379.8 254.6c4.7-2 10.5-6.5 11.3-8.9-1.6 1-3.2 1.3-4.2 2.8-.5.7-1.2 1.2-2.1 1.4l-.1.1c.1-1.1.3-1.8 1.2-2.4 1.5-1.1-.4-.8-.6-1.2.2-.2.4-.4.7-.4 3.8-.7 5.7-4.4 8.9-6 .2-.1.4-.4.6-.6.3-.3.5-.7.3-1.1-.2-.3-.6-.3-.9-.2-.4.1-.7.4-1.3-.1 1.3-1.5 2.7-3.1 3.5-5-.5-.4-1.2.5-1.7-.2.5-.9 1.1-1.8 1.4-2.8.3-.9.6-1.9-1-2.3-1-.2-.5-.9 0-1.3 1-.7 2-1.2 1.5-2.8-.5-1.5-.6-3.2.9-4.4.2-.1.4-.5.4-.5-2.4-1.2-3 1.9-5 1.6.2-1.1 1.2-1.6 1.4-2.3-1.9-1.1-3.1.8-4.8.8.4-2 2.3-2.7 3.3-4-.2.1-.4.2-.7.2-1 .3-2.3 1.9-2.5-.8 0-.6-.9-.6-1.5-.2-1 .6-2.1.4-3.2.3-.2-.9.9-1 .8-1.9-1.2.3-2.2.8-3.2 1.5h-.8c.3-.6.8-.9 1.3-1.2 1.1-.8 1.6-1.4.1-2.4-1-.7-2.5-.3-3.2-1.6.4-1 1.7-1.1 2.4-2-1.4-.9-2.6-1.8-4.3-1.9-.8 0-1.5 1.4-2 .4-.4-.7.9-1.3 1.2-2.1.1-.2.1-.3.2-.6-1.1-.2-2-.3-2.9.3-2.2 1.4-4.6 2.5-7.1 3.6-.5.2-1.3.4-1.2 1.1.1 1.1 1.1-.2 1.5.4-2.9 1.9-6.4 2.9-6.8 7.1h.4v.1c-1 .2-1 .3 0 .4v.1h-.2c-2.9 3.3-4.9 7.4-7.9 10.6h-.1c0 .1-.1.3-.2.4.1 0 .3-.1.4-.1.2 0 .4-.1.6-.1.4 0 1.1-.7 1.2 0 .1.4.9 1.5-.5 1.8-1.5.4-2.1 1.9-3.4 2.9.7.1 1.2.1 1.6.1-.1.3-.2.5-.4.8h-.1v.2c0-.1.1-.1.1-.2.8.3 1.9-.4 2.2.7.3.9-.6 1.4-1.1 1.9s-.3.9-.1 1.5c.3.7.2 1.4-.4 1.8-1 .7-1.7 1.7-2.5 2.6-.8.8-.8 1.8-1.3 2.6s-.6 1.9.9 2.2c0 0 .1.4 0 .5-1.7 1.5-.7 4.2-2.7 5.6 1.6.3 2.5-.9 3.7-.9 0 1.1-1.5 1-1.6 2 .7.4 1.5-.6 2 .1s-.7 1.1-.6 1.8c1.1-.3 2-1.5 3.3-.7.4.2-.4.6-.4 1 1.7.2 3-.9 5.2-.9-1.8 1.3-.5 2.8-1.2 4 2-.3 3.5-1.7 5.3-2.2.6-.2 1.1-.6 1.7-.1.6.6-.3 1.1-.3 1.8 3.2-.4 5.9-2.1 9-2l.2.2c-.5.6-1.1 1.1-1.8 1.9 2.1-.9 4.1-1.6 5.2-3.2 1.8-2.5 4.2-3.1 6.8-4-1.3 1.8-3.3 2.7-4.8 4.4zm4.5-10.4c.1-.1.1 0 .2 0h-.2z"/><path class="st2" d="M67.5 163c-3.6.7-5.5 3.5-8.4 5.5 5.3-1.5 5.3-1.5 8.4-5.5z"/><path class="st1" d="M143.3 382c.3-.8 1.3-.8 1.4-1.6-2.3-.7-2.3 2.3-4.1 2.3-1.3.1-3.2 1.8-3.8 3.3 3-1.8 6.5-2.1 9.2-4.3-1.1-.5-1.9.6-2.7.3zm130.9 16.3c-.6-.3.8-.7.9-1.5-1.5.8-3.2 1-4 3.2 3.4-.9 7 1.1 10-1.9-1.5 0-2.4 1-3.5 1.2-1.3.2-2.4-.4-3.4-1z"/><path class="st2" d="M366 350.6c2.4-2.4 5.3-4.2 7.6-6.6-3.3 1.4-6.5 2.8-7.6 6.6zm-53.9-196.1c3-.1 4.8-2 7-3.9-2.9.7-5 2-7 3.9zm-6.9-90.8c.1-1.5 1.2-2.4 2.1-3.4-2.5.8-4.5 2.2-5.8 4.4 1.4.1 2.4-1.2 3.7-1zM392.1 292c-2 1.1-4 1.9-5.9 3.8 3.6-.2 5.7-1.6 5.9-3.8zM64.6 334.7c-2.3.9-4.2 1.8-5.7 3.4 2.1-.6 3.8-1.9 5.7-3.4zm151.1-202.1c-4.1 1.5-4.9 2-5.6 3.7 1.7-1.3 3.7-1.9 5.6-3.7zm182 205.3c.4.4.5 1.2 1.5 1 .6-.1.7-.5.7-1v-2.8c-.9.8-1.5 1.2-2.1 1.7-.4.3-.6.6-.1 1.1zm-221-7.1c-2.5.8-4 2.2-5.4 3.8 2-.8 3.7-1.9 5.4-3.8zm.6-276.2c-1.9.9-3.7 1.8-4.9 3.6 1.9-.7 3.7-1.7 4.9-3.6zm26 286.7c-1.9.2-3.8.4-5.2 1.8 2 0 3.8-.5 5.2-1.8zm51.8-292.6c-2.9.5-3.9 1.1-4.5 2.9 1.8-.4 3-1.5 4.5-2.9z"/><path class="st1" d="M249.7 399.5c.3.4.8.3 1.2 0 1-.9 2-1.9 3-2.8-1.6-.1-2.6 1.1-3.9 1.7-.3.2-.6.7-.3 1.1z"/><path class="st2" d="M172 332.4c-2.4-.1-3.2 1.5-4.5 2.4 1.7-.1 3-.9 4.5-2.4z"/><path class="st1" d="M96.7 394c.8-.8 2-1.1 2.5-2.5-1.5.1-2.4.8-3.2 1.6-.2.2-.4.6-.1.9.2.3.6.3.8 0zm39.6 1.7c.2.1.5.1.7.1 1.1-.4 1.9-1.4 2.7-2.4-1.5-.2-2.4.9-3.4 1.6-.2.2-.2.6 0 .7z"/><path class="st3" d="M79 253.6c-1.9.2-3 1.2-4.1 2.1 1.6-.1 3-.3 4.1-2.1z"/><path class="st2" d="M135.9 135.4c-1.3.6-2.7 1-3.4 2.4 1.2-.6 2.8-.7 3.4-2.4zm-86.8 40.9c-1.3.4-2.2 1.2-3.6 2.5 2-.3 3-1.1 3.6-2.5z"/><path class="st1" d="M212.5 398.3c-1.2.2-2.4.4-3.5 1.3 1.7.8 2.5-.5 3.5-1.3z"/><path class="st2" d="M187.1 323.8c1.6-.2 2.5-.8 3.3-1.6-1.2-.1-2.3.1-3.3 1.6z"/><path class="st1" d="M399.9 374.7v-4.8c-.1-.2-.3-.5-.3-.7.7-4.3.2-8.6.3-12.9.3-3.1-.4-6.3-.2-9.4.1-.8-.3-.9-.9-.6-.5.2-1.1.5-1.6.8-.7.3-1.4 1.1-2.2 0-1-1.4 1.1-.8 1-1.5 0-.1 0-.2.1-.7-1.1 1-1.7-.7-2.5-.3-1.5.6-3.2.1-4.7.5-.6.2-.9-.1-.8-.7.4-.3 1-.3 1.1-.9-1.3-.1-2.4.3-3.5.8-2.6-2.1-5.8-1.6-7.7 1.2-1.1.8-2.2 1.5-3.4 2.3.3-1-.2-1.8-1.1-1.2-.9.6-2 1.2-2.2 2.5-2.3.3-3.8 2.4-6 2.9-1.9-.7-3.6-.5-5.1 1-.4.4-1 1.5-1.7.2-.4-.1-.9-.1-1.3-.2 0-.5.3-.5.5-.7.4-.3 1.4-.5 1-1.2-.4-.8-1.2-.3-1.8 0-1.9.8-3.9 2.2-4.3 3.9-.5 2.2-2.1 2.9-3.4 4.2-.9.9-1.9 1.7-2.9 2.6 3.3-.5 4.8-4 8-4.8.2.8-.8 1.1-.7 2 .8-.4 1.4-.8 2.1-1.1.7-.3.8 0 .8.6l-.4.4c-2.3 1.9-6 2.3-6.4 6.4-.2 2.2-.1 2.8 2 2.3.3-.1.7-.3.8.2.1.1 0 .4-.1.5-1.9 1.4-2.7 3.7-4.4 5.2-1.2 1-2.8 2-2.8 3.8.3.9 2.7-1.6 1.6 1.2 0 .1.1.3.2.3 2 .6.4 1.2 0 1.7s-.9.9-1.1 1.6c.7.5 1.6-1 2.3.2.6 1.1 1.7-.4 2.5.4 0 .6-.9.6-.7 1.4 2.2-.6 1.6 1.7 2.4 2.6 1.6 1.8-1.5 2-1.5 3.6.7.1 1.4.3 2.3.4-1.7 1.7-1.6 4.4-3.6 5.7-.3.2-.1.8.2.8 1.8-.1 3.1 2.7 5.4.1-.8 2.6-.8 2.7 1 2.8h10.4c10.8 0 21.5 0 32.3.1 1.1 0 1.2-.5 1.2-1.4v-14.9c-.2-.8-.2-1.2-.2-1.6.4-2.5-.4-5 0-7.6zM365 389.4c0-.1.1-.1.2-.2-.1.1-.1.2-.2.2zm3.6-6.3c.1 0 .1.1.2.1-.1 0-.2-.1-.2-.1z"/><path class="st2" d="M249.6 126.4c-1.8.1-2.8 1-4.3 2.3 2-.3 3.2-.9 4.3-2.3zm150.5-29.9V76.7c0-.4.1-.8-.4-1 .1-.6.5-1 .2-1.7V60c0-.4.1-.8.1-1.2v-4.5c-1 .6-1.8 1.1-2.5.9-1.9-.5-3.1.7-4.2 1.7-1.4 1.1-3 1.4-4.6 1.9 1.9-1.3 4.1-2.5 5.1-5.3-2.7 1.6-5.1 3.4-7.2 5.3-.1.1-.3.6-.2.7.5.4.8 0 1.2-.2h-.1v-.2l.1.1c0 .6.1 1.2-.6 1.4-1.5.7-1.9 2.2-2.8 3.4-1 1.3-.2 2.9-1.6 4-1.3 1-2.9 1.6-3.8 3.3.9-.4 1.6-.7 2.3-1 .5-.2 1-.5 1.5-.1.5.5.2 1.2 0 1.7-.3.6-.6 1.2-1.1 1.6-.8.6-1 1.4-1.1 2.4-.4.1-.6.4-.8.7-1.4.6-2.9 1.7-2.1 3 1 1.6.2 1.8-.7 2.4-.9.5-1.1.8.1 1.2 1.6.6.9 2 .3 2.4-1 .7-1.5 1.8-2.6 2.4-1.4.8-2.2 1.9-.3 3.2-1 .8-2.2 1.1-2.9 2.2.5.1.9.3 1.3.4-.4.6-.8 1.1-1.2 1.6 0 .2-.1.3-.1.5.2 0 .3-.1.5-.1.4-.1.9-.1 1.5-.2-.3.5-1.1.7-.8 1.5.8.3 1.5-.2 2.7-.2-2.9 1.2-4.9 2.7-5.5 5.5.7.5 1.8-1 2.2.1.3.8-.7 1.4-1.4 1.9-.6.4-.7.9-.3 1.5-.2.2-.5.4-.7.7-1 .3-2.4.9-2.1 1.9.3 1.2 1.4 0 2.2 0h.3c-.2.4-.7.9-.6 1 1.1 1.8-.7 1.9-1.5 2.4-1.9 1.1-3.5 2.3-4.7 4.2-.2.4-.7.8-.3 1.2 1 .9.2 1.4-.4 1.9-.9.8-1.5 1.8-1.8 3 .2-.1.4-.1.6-.2.6-.4 1.3-.8 1.8-.4.7.6-.2 1.3-.3 2-.2.9-1.1 1.3-1.7 1.9-.4.5-1.3 1.1-1 1.6.6 1.1-.2 1.4-.6 1.9-.3.4-1 .8-.6 1.3.4.6.9-.1 1.4-.1.6 0 .9-.5 1.3-.8 1.2-.9 2.6-1.6 4.2-1.9-2.6 1.5-2.4 4.6-3.9 6.7 1.1.7 1.9-1 3-.2-.1.1-.1.2-.2.4-.4 0-.7.2-.6.6.4.9 1-.2 1.5.1.1.5-1 .7-.5 1.3.4.4 1-.1 1.4-.3s.6-1 1.3-.5c-.4 1.2-.8 2.3-1.3 3.8.7-.3 1-.5 1.4-.6 1.7-.5 3.3-1.2 5-1.3 1.1-.1 2.2.9 3.6.3.5-.3 1.9-.9 1.4 1-.2.6.4.6.8.4 1.1-.5 2.4-.9 2.8-2.3.5-2 2.1-2.7 3.9-2.8 2.1 0 3.9-.8 5.5-2.1.5-.4 1-1.1 1.6-1 2.8.5 3.8-1.5 5-3.3-.7.2-1.5.4-2.2.5.7-.2 1.5-.3 2.2-.5.1-.1.1-.2.2-.4 1.7-.8 2.4-2.2 2.3-4 0-.5 0-1 .1-1.6-.7.3-1.4.6-2.2.9.7-.3 1.5-.6 2.2-.9v-12.8c0-.7.1-1.3.1-2v-5.6c0-.9-.1-1.9-.1-2.8v-2zm-21 10.4s.1 0 0 0c.1.1.1.1 0 0zm8.9-44.7c.9-.5 1.8-.9 2.4-1.8-.5.9-1.5 1.3-2.4 1.8zM140.4 325.9c-.9.4-2 .5-2.7 1.4 1-.1 2.1-.3 2.7-1.4zm155 29.6c1.6-.2 2.4-.8 3.1-1.9-1.6-.3-2.3.6-3.1 1.9zM162.5 346h-2.3c.8 1 1.4 1 2.3 0zm-2.9-69.6c-.8.1-1.5.4-1.9 1.2.9 0 1.8 0 1.9-1.2zM105.8 84.9c-.8-.3-1.6-.3-2.1.5-.1.1.1.4.2.5.9.2 1.6-.1 1.9-1zm22.6.5c.6-.1 1.1-.5 1.2-1.1.1-.3-.2-.4-.5-.4-.6.1-1.1.4-1.3 1-.1.4.2.6.6.5zM13.6 280.6c.4-.1.9-.2 1.2-1-.6.3-1.3.1-1.2 1zm153.1-151.8c-.8 0-1.2.2-1.2 1 .6 0 1.1-.2 1.2-1z"/><path class="st3" d="M276.4 245.6c.3-.2.5-.3.6-.5.1-.3 0-.5-.3-.4-.2.1-.4.3-.6.5 0-.1.2.1.3.4z"/><path class="st2" d="M280.8 123c0-.3-.1-.5-.4-.5-.4 0-.5.3-.6.6 0 .3.1.5.4.5.4 0 .6-.3.6-.6zm-94.9 147.8c.6.2.8-.1.9-.5-.3.2-.8 0-.9.5zm.9-.4c.1-.1 0-.1 0 0z"/><path class="st1" d="M220.9 378.7c.3 0 .4-.3.4-.5-.1-.3-.4-.4-.6-.3-.2.1-.5.3-.5.5 0 .4.3.4.7.3z"/><path class="st2" d="M154 362.8c.2-.1.5-.2.5-.5s-.3-.4-.5-.4c-.2.1-.5.3-.5.5-.1.3.2.3.5.4zm-12.8-37.4c-.2.1-.4.3-.7.4.2-.1.5-.2.7-.3.1 0 .1-.1 0-.1zm-.8.5c.1 0 .1 0 .2-.1-.1 0-.1.1-.2.1zm-39.6 6.7c.1 0 .3-.1.3-.1 0-.1-.1-.2-.1-.3-.1 0-.3.1-.3.1-.1 0 0 .1.1.3zm209.7 1.4c.1.1.3.3.4.3s.3-.2.5-.4c-.2-.1-.4-.3-.5-.2-.2 0-.3.2-.4.3zM44.7 179.4l.4-.4c-.1 0-.2-.1-.3-.1-.1.1-.2.3-.3.4 0 .1.1.2.2.1zm321.5-39.5c-.1 0-.2-.2-.3-.1-.1 0-.1.2-.2.3.1 0 .2.1.3.1s.1-.2.2-.3zM161 136.8c0-.1-.1-.2 0 0-.2-.1-.3 0-.3.1.1.1.2.1.2.2 0-.1.1-.2.1-.3zm-92.7-9.3c0 .1.1.3.1.3s.2-.1.3-.1c0-.1-.1-.3-.1-.3-.1 0-.2.1-.3.1zm-7.8 52.4c.2 0 .3-.1.8-.4-.6-.2-.8-.2-.9-.2 0 0-.1.1-.2.3 0 .2.1.4.3.3zm145.7 156.4c.1.2.2.4.3.4.3.1.5 0 .6-.3-.1-.1-.3-.3-.4-.3-.2 0-.3.1-.5.2zm150.7-221c-.1 0-.1 0-.2.1 0 .1.1.2.1.2.1 0 .2-.1.4-.1-.1-.1-.2-.2-.3-.2zm36.9 99.4c.1 0 .1-.1 0 0zM371.9 67.6c.2-.1.2-.1.3-.2-.1 0-.2 0-.3-.1v.3zm-9.4 130.6h-.3l.1.1c.1-.1.1-.1.2-.1zm-147.7-85.5l.3-.3c-.2 0-.3.1-.5.1l.2.2zM55.3 294.4l-.1.1c0 .1.1.1.2.1 0 0 .1-.1 0-.1 0 0-.1 0-.1-.1zm304.1 58.1l-.1-.1c-.3-.1-.4.1-.5.4.2-.1.5-.1.6-.3zm-212.9 7.7c0-.1-.1-.2-.1-.2l-.3.3c.1 0 .3-.1.4-.1zm-131.8 3.5l-.2.2h.3c0-.1 0-.2-.1-.2zm88.1-277.6c0 .2.1.2.2.3l.1-.1c-.1-.1-.2-.2-.3-.2z"/><path class="st3" d="M206.7 229.4c-.1 0-.2.1-.3.1.1 0 .2 0 .3-.1z"/><path class="st2" d="M293.6 126.8h-.3c0 .1 0 .2.1.2l.2-.2zm-52.1 198.8c.1.1.1.2.2.2l.1-.1s0-.1-.1-.1h-.2zM67.4 133.1c.1 0 .3-.1.4-.1-.1 0-.1 0-.1-.1-.1.1-.2.2-.3.2zm313.8 138.8c.1-.1.2-.1.3-.2l-.1-.1c-.1 0-.2 0-.3.1 0 .1.1.2.1.2zm-255.7-91c.1 0 .1.1.1.2.1 0 .2-.1.3-.1 0 0 0-.1-.1-.1h-.3zm13.4-80.8h-.2c0 .1.1.1.1.2l.1-.2c.1.1.1 0 0 0zm-89.1 79.1h.3c-.1-.1-.1-.2-.1-.2-.1.1-.2.1-.2.2zm180.4 139c-.1-.1-.1-.1-.1-.2-.1.1-.3.2-.4.3.2 0 .3-.1.5-.1zm-37.2 1.5c.1 0 .2-.1.3-.1h-.2s-.1 0-.1.1zm127.8-.1c0 .1 0 .1.1.1v-.1h-.1zm5.6-113.2c.1-.1.2-.1.3-.2-.1 0-.2.1-.3.2zM83.2 144.9l-.2.2s.1 0 .1.1c0-.1.1-.2.1-.3zm37 136.8c-.1-.3-.5-.1-.6.1l.2.2c.2 0 .6 0 .4-.3zm221.4-74.5c-.1 0-.2.1-.3.1.2 0 .3-.1.3-.1zm29.2-22.9c.1 0 .1-.2.2-.3-.1-.1-.2-.1-.3-.1-.1.1-.1.2-.2.3.1 0 .2.1.3.1zm-209.5 93.9c.2.1.3.2.5.2l.2-.4c-.2-.1-.4-.1-.5-.1-.1 0-.1.2-.2.3zm208.1-175.6c0-.1.1-.1.1-.2h-.1v.2z"/><path class="st3" d="M271 242.6l-.1.1h.1zm-.1.1c-.1 0-.1.1 0 0z"/><path class="st2" d="M144.2 125.5c.2-.1.5-.3.3-.5-.2-.4-.5-.2-.8 0-.1.2-.3.3-.1.6.2.2.4.1.6-.1z"/><path class="st3" d="M103.5 246.5l-.2.1c.1.1.2.1.2-.1.1.1.1 0 0 0z"/><path class="st2" d="M236.7 146.2c0-.1.1-.1.1-.2h-.1v.2zm56.2.8c.1 0 .1.1.2.1 0 0 0-.1.1-.1l-.1-.1c-.1 0-.2 0-.2.1zm-190.7 1.6h.2v-.1c-.1 0-.1.1-.2.1zm138.2 174.9l-.1.1c.1 0 .1 0 .1-.1zM99.3 333c0 .1 0 0 0 0zm22.5-160h.1v-.1zM252 334.3c-.1 0-.1.1 0 0 0 .1 0 .1 0 0zm1.7-155.6s-.1 0 0 0zm44.5 1.6h.1v-.1l-.1-.1c-.2 0-.2.1 0 .2zm-209.9 4.6c-.1 0-.1 0-.1.1h.2s0-.1-.1-.1zM16.4 349v-.1l-.1-.1c-.2.1-.2.2 0 .3 0-.1.1-.1.1-.1zm373.8-148.3c.1.2.1.2.2.2v-.2h-.2zm-284.5 66.7c0 .1.1 0 0 0 .1 0 .1 0 0 0zm252.7 85.7c.2-.1.4-.2.4-.4-.3 0-.4.1-.4.4zM247 205.5l.1-.1-.1-.1-.1.1.1.1zm-71.3 67.4c0 .1-.1.2-.1.2.1 0 .1-.1.1-.2zm207 6h-.2l.1.1zm-192.1 4.5l.1-.1h-.1zm-.8.2s0 .1-.1.1l.1.1.1-.1-.1-.1zm1.9.6h.2l-.1-.2zM36.6 55.1c-.1 0-.1.1 0 0zm.1 0c-.1 0-.1 0 0 0-.1.1 0 0 0 0z"/><path class="st1" d="M219.4 379l.1-.1-.1-.1-.1.1.1.1z"/><path class="st2" d="M54.5 291.9c.2.1.4 0 .2-.2l-.2.2z"/><path transform="rotate(-44.984 278.124 61.1)" class="st2" d="M278.1 61h.1v.1h-.1z"/><path class="st2" d="M198.7 68.2l-.1-.1-.1.1.1.1c.1 0 .1 0 .1-.1z"/><path class="st1" d="M102.3 385.2l.1-.1h-.1z"/><path class="st2" d="M296 79.1h-.2l.1.1s0-.1.1-.1zm-244.9.4h-.2v.1c.1 0 .1-.1.2-.1zm76.7 2.4h.1v-.1zm77.1.9c.1-.1.1-.1 0 0z"/><path class="st1" d="M292.3 393.6l.1-.1h-.1zm-38.3 3.1c0-.1.1-.1 0-.2v.2z"/><path class="st2" d="M12.5 119.2c.4 1.9 1.2.5 1.8.2 1.3-.6 2.5-1.5 3.8-2.1 3-1.2 6.1-2 8.1-4.9.1-.2.4-.3.7-.1 1.1.6 1.3.6 2.2-.2 1.1-1 2.3-1.7 3.8-2.6-.7 2-.5 2.3.2 1.9 2.1-1.2 4.6-1.2 6.4-3 1.1-1.1 2.4-2.2 4-2.8.1.9-.9 1-1 2 5.9-2.7 10.7-7.1 16.7-9.2.3-.1.6-.5.3-1.1-2.3.1-3.9 1.9-6.1 2.7.3-2.1.5-2.5 2.6-4.3.1-.2.1-.3.2-.5-.2 0-.3.1-.5.1-.8-.2-1.9 1-2.7-.6-.3-.6.4-1.8-.7-1.9-.8 0-1.6.5-2.4.8-.1 0-.3-.1-.4-.1.3-.2.5-.5.8-.7.8 0 1.3-.5 1.7-1.2.1-.1-.1-.4-.2-.5-.7-.2-1.2.1-1.6.7-.2.1-.4.2-.6.2.1-.3.1-.5-.1-.7.3-.3.6-.6.4-1h.3c.4-.1.7-.4.6-.8 0-.4-.3-.5-.7-.5-.3.1-.5.4-.6.7v.2c-1.1-.7-.7-1.4.2-2 1.1-.6 1.9-1.4 2-2.8-1.1 0-2.7.6-2.8-1-.1-1.3-.8-3.2 1.3-4 .3-.1.4-.5.4-.8-.6.1-1.3.2-1.9.3-.3 0-.8.1-.9-.1-.4-.4 0-.8.2-1 .8-.8.8-2 1.2-3-.8-.2-1.2.2-1.7.3-2 .5-3.9-.8-3.5-2.4-1.1.2-1.6.5-1.7 1.1 0 .2 0 .5.1.9-.1-.3-.1-.6-.1-.9.1-.6.6-1 1.7-1.1.6-.2.8-.7 1.1-1.2.6-.2 1.4-.5 1.1-1.3-.3-.7-1-.2-1.6-.1-1 .1-2.1.3-3.2.4 1.2-1.6 1.2-1.6.1-2.4h-.8c-.7-1.3.7-1.8 1-2.7.3-.1.7-.3.4-.6-.3-.4-.6-.1-.9.1-.7.2-1.3.5-1.9.7-.3-.8.7-1.2.3-1.9-3.2 0 0-1.7-.9-2.5h-.5c-.6 0-1.2.6-1.6 0-.3-.6.5-1 .7-1.5.4-.9 1.8-1.2 1.6-2.9-2 2.3-2 0-2.9-.8-1.3-1 .7-1.1.4-1.7-.9-.1-1.4-.4-1-1.5.5-1.2-.2-1.1-.9-.7-.4.2-.8.5-1.1.7-.3.1-.6.1-.9.2 1.1-1.1-.4-1.8-.5-2.7.2-.3.3-.5.5-.8.9-.8 2.5-.9 2.8-2.6-1.1.3-2 .6-3 .9-.6.2-1.2.1-1.6-.4-.4-.4.1-.8.3-1.2.5-1.2 1.1-2.4 1.7-3.8-1.9.5-3.1 1.4-4.1 2.5-.8.9-1.7 1.4-2.9 1.4 0 .3 0 .2-.1.2.2-.8 1.4-1 1.4-2-.3 0-.5-.1-.7 0-2.4 1.9-5.5 2.2-7.8 4.2-.3.3-.8.6-1.3.4-.6-.3-.3-1-.3-1.5 0-1.3 1.3-1.6 1.9-2.4-.2-.5-1.2 0-1-.7.4-1.3-.6-.6-.8-.5-1.7.8-3.3 1.8-4.5 3.4.6.5 1.2-.3 1.8.5-2.8 1.9-6.4 2.2-9 4.4.4-.9 1.7-.8 1.7-2-.1-.1-.2-.2-.3-.2h-.6C3.8 51.2 2 52.4 0 54v70.8c4-1.9 8.2-2.6 11.5-5.5.3-.2 1-.5 1-.1zm10.4-19.1c0 .1-.1.1-.1.1 0-.1.1-.1.1-.1z"/></svg>