<?xml version="1.0" encoding="utf-8"?>
<!-- Generator: Adobe Illustrator 19.2.0, SVG Export Plug-In . SVG Version: 6.00 Build 0)  -->
<svg version="1.1" id="レイヤー_1" xmlns="http://www.w3.org/2000/svg" xmlns:xlink="http://www.w3.org/1999/xlink" x="0px"
	 y="0px" viewBox="0 0 800 460" style="enable-background:new 0 0 800 460;" xml:space="preserve">
<style type="text/css">
	.st0{fill:#F8E6BB;}
	.st1{fill:#AD5D22;}
	.st2{fill:#203443;}
	.st3{fill:#3E4347;}
	.st4{fill:#D05627;}
	.st5{fill:#B9B9B9;}
	.st6{fill:#FFFFFF;}
	.st7{fill:#A8A7A7;}
	.st8{fill:#D8D8D9;}
	.st9{fill:#7F7F7F;}
	.st10{fill:#497597;}
	.st11{fill:#6196C1;}
	.st12{fill:#60BCBD;}
	.st13{fill:#EEEEEF;}
	.st14{fill:#D95D2D;}
	.st15{fill:#BABBBB;}
	.st16{fill:#7A7A7B;}
	.st17{fill:#545455;}
	.st18{fill:#626363;}
	.st19{fill:#4D5D69;}
	.st20{fill:#F29600;}
	.st21{opacity:0.1;fill:#FFFFFF;enable-background:new    ;}
	.st22{fill:#F5AB51;}
	.st23{fill:#FAD29D;}
</style>
<g>
	<path class="st0" d="M572.7,284.2c0.6-2.1,0.8-9.4,1.1-16.2l-8.6-2.2l-32.3-51.6l-58.8-9.7l-47.6,13.7l-21.4-22.1l11.1-31.3
		l-14.5-14.3l-25-1.6l-30.4-4.6l-3.7-1.7c-5.4,2.9-30.9,12.4-32.7,14.6c-5,6.2,8.6,22,13.9,23.3s31.2-5.3,42.3,3.4
		c11.1,8.8,6.8,31.6,6,33.8c-0.7,2.2-7,42.8,26.3,50c2.3,1-1.7,16.4-3,17.1s-7.3-0.1-9.1,0c-3.7,2.7-7.5,15.1-2.1,16.2
		c5.3,1.1,7.2,0.6,8.2,0c0.7,2.3,10.2,9.3,25.2-5.9c2.9-2.7,7.2-19.8,10.2-21.1c4.7-0.7,21.3-4.9,33.1-16.7
		c5.2-5.2,27.8-16.8,40.5-13.6c6.5,11.5,31.1,27.7,49.9,21.3c2,4.9,1.4,14.8,0,17.4s-10.2,4.9-11.8,4.7c-1.6,0.4-5.9,9.6,0.7,12.6
		c6.6,3.1,6.6,1.3,7.3,0.9c0.1,1.9,7.2,6.6,15.1-1C567.3,295.3,570.7,290.1,572.7,284.2z"/>
	<path class="st1" d="M581.9,216.6c-1.1-19.4-15.7-32.5-17.8-33.5c2.9,0.6,7.5,0.4,8.9-0.6c1.5-1-16.4-14.4-46.9-18.8
		c-27.2-3.9-40,8.2-70.9,5.2c-31-3-43-28-43.6-34.3c-0.5-6.3-60.7-10.8-60.7-10.8c-6.5,6.8-5.7,16.4-7.3,18.1
		c-0.2,0.2-0.4,0.3-0.6,0.4c1.1,8.5,11.2,23.2,30.5,13.3c9.6-4.9,33.5,1.8,21.5,22.3c-3.6,6.2-15,12.7-4.6,25.9
		c10.3,13.2,2.8,50.2,49.7,52.4c28.1,1.3,27.3-21.3,59-23.2c3,9.5,22.4,38.4,52.8,34.1c0.6,2.8,0.8,5.6,0.6,8.4
		c2.4,2,4.9,3.7,6.8,3.4c1.9-0.3,10.1-3.7,14.4-10.3c0.2-5.9,0.3-11.6,0.7-13.5C575.3,251,583.1,236,581.9,216.6z"/>
	<path class="st2" d="M390.4,94.7c-18.8-4.3-35.1,0.2-41.5,27.7l33.3,7.7l33.3,7.8C421.9,110.3,409.2,99.1,390.4,94.7z"/>
	<path class="st3" d="M417.5,130.3c0.1-0.4-0.2-0.8-0.6-0.9l-32.8-7.6l-32.8-7.6c-0.4-0.1-0.8,0.2-0.9,0.6c-0.9,2.4-1.6,4.9-2.1,7.5
		l34,7.8l34,7.8C416.8,135.4,417.3,132.9,417.5,130.3z"/>
	<path class="st0" d="M373.5,128c-0.4-7.8,2.1-41.9,4.1-42.9c2.1-1,11,44.8,11.2,46.3C389,132.8,373.5,128,373.5,128z"/>
	<path class="st1" d="M377.6,128.8c13.1-3.8,0.2-40.1-1.5-43.7s5.2-5,12.8,12.4c7.6,17.3,10.2,35,12.9,36.6
		C401.6,134.3,377.6,128.8,377.6,128.8z"/>
	<path class="st2" d="M338,120.9l0.4-1.9c0.1-0.6,0.7-0.9,1.3-0.8l86,19.8c0.6,0.1,0.9,0.7,0.8,1.3l-0.4,1.9
		c-0.1,0.6-0.7,0.9-1.3,0.8l-85.9-19.8C338.2,122.1,337.9,121.5,338,120.9L338,120.9z"/>
	<ellipse class="st4" cx="299.6" cy="155.9" rx="13.4" ry="13.3"/>
	<path class="st2" d="M341.9,132.8c-1.3-0.1-2.4-0.2-2.4,0.9c0,1.1,2.1,17.3,2.1,18.4c0.1,0.4,1.6-0.2,1.9-0.8s-0.2-8.2-0.2-9
		c0.1-0.8,0.2-1.6,0.4-2.4v-2l12.6,0.5c3.6,0.1,7.1,0,10.6-0.2c1.7-0.3,11.7-0.1,15.2,0.6c3.5,0.7,7.5,3.7,9.8,6
		c2.4,2.2,4.9,5.2,7.6,3.5c2.6-1.7-4.7-7-14.7-10.5c-10-3.6-31.9-4.3-31.9-4.3L341.9,132.8z"/>
</g>
<path class="st5" d="M679.6,19h7.7c2.3,0,4.1-1.8,4.1-4.1l0,0c0-2.3-1.9-4.1-4.1-4.1h-7.7c-2.3,0-4.1,1.8-4.1,4.1V15
	C675.5,17.2,677.4,19,679.6,19z"/>
<circle class="st6" cx="687.4" cy="14.9" r="2"/>
<path class="st5" d="M542.9,10.7h7.7c2.3,0,4.1,1.8,4.1,4.1v0.1c0,2.3-1.8,4.1-4.1,4.1h-7.7c-2.3,0-4.1-1.8-4.1-4.1v-0.1
	C538.8,12.6,540.6,10.7,542.9,10.7z"/>
<rect x="551.3" y="1.5" class="st7" width="20.9" height="4.2"/>
<rect x="577.3" y="1.5" class="st7" width="8.8" height="4.2"/>
<rect x="573.3" y="2.3" class="st7" width="17" height="3.4"/>
<rect x="590.9" y="2.9" class="st7" width="20.3" height="2.8"/>
<path class="st2" d="M680.3,9.4H549.9c-1.8,0-3.2,1.5-3.1,3.3l0,0v66.5c0,1.8,1.4,3.2,3.1,3.3l0,0h130.4c1.8,0,3.2-1.5,3.1-3.3l0,0
	V12.7C683.5,10.9,682.1,9.4,680.3,9.4C680.4,9.4,680.4,9.4,680.3,9.4z"/>
<rect x="546.8" y="4.7" class="st8" width="136.7" height="9.4"/>
<path class="st5" d="M669.2,38h6.5c3.3,0,6,2.7,6,6v0.1c0,3.3-2.7,6-6,6h-6.5c-3.3,0-6-2.7-6-6V44C663.2,40.7,665.9,38,669.2,38z"/>
<ellipse class="st9" cx="675.7" cy="44.1" rx="4.8" ry="4.8"/>
<circle class="st2" cx="593.6" cy="9.5" r="1.5"/>
<ellipse class="st8" cx="631.9" cy="43.9" rx="41.5" ry="41.4"/>
<ellipse class="st7" cx="631.9" cy="43.9" rx="36.1" ry="36"/>
<ellipse class="st8" cx="631.9" cy="43.9" rx="34.7" ry="34.7"/>
<ellipse class="st7" cx="631.9" cy="43.9" rx="28.2" ry="28.2"/>
<ellipse class="st2" cx="631.9" cy="43.9" rx="27.1" ry="27"/>
<ellipse class="st9" cx="631.9" cy="43.9" rx="21.8" ry="21.8"/>
<ellipse class="st2" cx="631.9" cy="43.9" rx="21.3" ry="21.2"/>
<ellipse class="st2" cx="631.9" cy="43.9" rx="19.5" ry="19.5"/>
<ellipse class="st10" cx="631.9" cy="43.9" rx="15" ry="15"/>
<ellipse class="st11" cx="631.9" cy="43.9" rx="9.9" ry="9.9"/>
<path class="st9" d="M667.6,68.6h6.4c0.6,0,1,0.4,1,1v5.9c0,0.6-0.4,1-1,1h-6.4c-0.6,0-1-0.4-1-1v-5.9
	C666.6,69.1,667.1,68.6,667.6,68.6z"/>
<circle class="st6" cx="542.8" cy="14.9" r="2"/>
<path class="st12" d="M7.8,390h56.1c3.8,0,6.9,3,6.9,6.8c0,0,0,0,0,0.1v56c0,3.8-3.1,6.9-6.8,6.9c0,0,0,0-0.1,0H7.8
	c-3.8,0-6.9-3-6.9-6.8c0,0,0,0,0-0.1v-56C0.9,393.1,3.9,390,7.8,390C7.7,390,7.7,390,7.8,390L7.8,390z"/>
<polygon class="st6" points="35.8,406.4 41.4,418.5 54.6,420.1 44.9,429.2 47.4,442.2 35.8,435.8 24.1,442.2 26.7,429.2 17,420.1 
	30.2,418.5 "/>
<polygon class="st13" points="35.8,406.4 35.8,435.7 47.4,442.2 44.9,429.2 54.6,420.1 41.4,418.5 "/>
<rect x="710.6" y="1.4" width="89.4" height="93.5"/>
<rect x="710.6" y="1.4" class="st4" width="89.4" height="93.5"/>
<rect x="714.6" y="5.6" class="st2" width="81.1" height="84.8"/>
<path class="st4" d="M773.9,39.5v6.6l-12.4,3.7v12.6l12.4,3.6v6.4l-42-12.6v-7.7L773.9,39.5z M756.6,50.8l-11,3.2
	c-2.8,0.8-5.7,1.5-8.3,2v0.1c2.6,0.6,5.7,1.2,8.2,1.9l11,3.3L756.6,50.8L756.6,50.8z"/>
<path class="st4" d="M738.3,30.5c0,2.1-1.7,3.8-3.8,3.8s-3.8-1.7-3.8-3.8s1.7-3.8,3.8-3.8l0,0c2-0.1,3.7,1.5,3.8,3.5
	C738.3,30.3,738.3,30.4,738.3,30.5z M773.9,27.3v6.5H743v-6.5H773.9L773.9,27.3z"/>
<rect x="476.9" y="341" class="st2" width="102.8" height="68.4"/>
<rect x="512.4" y="351.4" class="st8" width="31.8" height="47.6"/>
<rect x="478" y="351.4" class="st8" width="31.8" height="47.6"/>
<rect x="546.9" y="351.4" class="st8" width="31.8" height="47.6"/>
<path class="st8" d="M575.4,343.7h2.2c0.5,0,1,0.4,1,1v4.3c0,0.5-0.4,1-1,1h-2.2c-0.5,0-1-0.4-1-1v-4.3
	C574.5,344.1,574.9,343.7,575.4,343.7z"/>
<path class="st8" d="M568.5,343.7h2.2c0.5,0,1,0.4,1,1v4.3c0,0.5-0.4,1-1,1h-2.2c-0.5,0-1-0.4-1-1v-4.3
	C567.6,344.1,568,343.7,568.5,343.7z"/>
<path class="st8" d="M561.6,343.7h2.2c0.5,0,1,0.4,1,1v4.3c0,0.5-0.4,1-1,1h-2.2c-0.5,0-1-0.4-1-1v-4.3
	C560.7,344.1,561.1,343.7,561.6,343.7z"/>
<path class="st8" d="M554.8,343.7h2.2c0.5,0,1,0.4,1,1v4.3c0,0.5-0.4,1-1,1h-2.2c-0.5,0-1-0.4-1-1v-4.3
	C553.8,344.1,554.2,343.7,554.8,343.7z"/>
<path class="st8" d="M547.9,343.7h2.2c0.5,0,1,0.4,1,1v4.3c0,0.5-0.4,1-1,1h-2.2c-0.5,0-1-0.4-1-1v-4.3
	C546.9,344.1,547.3,343.7,547.9,343.7z"/>
<path class="st8" d="M541,343.7h2.2c0.5,0,1,0.4,1,1v4.3c0,0.5-0.4,1-1,1H541c-0.5,0-1-0.4-1-1v-4.3
	C540,344.1,540.4,343.7,541,343.7z"/>
<path class="st8" d="M534.1,343.7h2.2c0.5,0,1,0.4,1,1v4.3c0,0.5-0.4,1-1,1h-2.2c-0.5,0-1-0.4-1-1v-4.3
	C533.1,344.1,533.5,343.7,534.1,343.7z"/>
<path class="st8" d="M527.2,343.7h2.2c0.5,0,1,0.4,1,1v4.3c0,0.5-0.4,1-1,1h-2.2c-0.5,0-1-0.4-1-1v-4.3
	C526.2,344.1,526.6,343.7,527.2,343.7z"/>
<path class="st8" d="M520.3,343.7h2.2c0.5,0,1,0.4,1,1v4.3c0,0.5-0.4,1-1,1h-2.2c-0.5,0-1-0.4-1-1v-4.3
	C519.3,344.1,519.8,343.7,520.3,343.7z"/>
<path class="st8" d="M513.4,343.7h2.2c0.5,0,1,0.4,1,1v4.3c0,0.5-0.4,1-1,1h-2.2c-0.5,0-1-0.4-1-1v-4.3
	C512.4,344.1,512.9,343.7,513.4,343.7z"/>
<path class="st8" d="M506.5,343.7h2.2c0.5,0,1,0.4,1,1v4.3c0,0.5-0.4,1-1,1h-2.2c-0.5,0-1-0.4-1-1v-4.3
	C505.5,344.1,506,343.7,506.5,343.7z"/>
<path class="st8" d="M499.6,343.7h2.2c0.5,0,1,0.4,1,1v4.3c0,0.5-0.4,1-1,1h-2.2c-0.5,0-1-0.4-1-1v-4.3
	C498.6,344.1,499.1,343.7,499.6,343.7z"/>
<path class="st8" d="M492.7,343.7h2.2c0.5,0,1,0.4,1,1v4.3c0,0.5-0.4,1-1,1h-2.2c-0.5,0-1-0.4-1-1v-4.3
	C491.7,344.1,492.2,343.7,492.7,343.7z"/>
<path class="st8" d="M485.8,343.7h2.2c0.5,0,1,0.4,1,1v4.3c0,0.5-0.4,1-1,1h-2.2c-0.5,0-1-0.4-1-1v-4.3
	C484.8,344.1,485.3,343.7,485.8,343.7z"/>
<path class="st8" d="M478.9,343.7h2.2c0.5,0,1,0.4,1,1v4.3c0,0.5-0.4,1-1,1h-2.2c-0.5,0-1-0.4-1-1v-4.3
	C478,344.1,478.4,343.7,478.9,343.7z"/>
<path class="st8" d="M575.4,400.5h2.2c0.5,0,1,0.4,1,1v4.3c0,0.5-0.4,1-1,1h-2.2c-0.5,0-1-0.4-1-1v-4.3
	C574.5,400.9,574.9,400.5,575.4,400.5z"/>
<path class="st8" d="M568.5,400.5h2.2c0.5,0,1,0.4,1,1v4.3c0,0.5-0.4,1-1,1h-2.2c-0.5,0-1-0.4-1-1v-4.3
	C567.6,400.9,568,400.5,568.5,400.5z"/>
<path class="st8" d="M561.6,400.5h2.2c0.5,0,1,0.4,1,1v4.3c0,0.5-0.4,1-1,1h-2.2c-0.5,0-1-0.4-1-1v-4.3
	C560.7,400.9,561.1,400.5,561.6,400.5z"/>
<path class="st8" d="M554.8,400.5h2.2c0.5,0,1,0.4,1,1v4.3c0,0.5-0.4,1-1,1h-2.2c-0.5,0-1-0.4-1-1v-4.3
	C553.8,400.9,554.2,400.5,554.8,400.5z"/>
<path class="st8" d="M547.9,400.5h2.2c0.5,0,1,0.4,1,1v4.3c0,0.5-0.4,1-1,1h-2.2c-0.5,0-1-0.4-1-1v-4.3
	C546.9,400.9,547.3,400.5,547.9,400.5z"/>
<path class="st8" d="M541,400.5h2.2c0.5,0,1,0.4,1,1v4.3c0,0.5-0.4,1-1,1H541c-0.5,0-1-0.4-1-1v-4.3
	C540,400.9,540.4,400.5,541,400.5z"/>
<path class="st8" d="M534.1,400.5h2.2c0.5,0,1,0.4,1,1v4.3c0,0.5-0.4,1-1,1h-2.2c-0.5,0-1-0.4-1-1v-4.3
	C533.1,400.9,533.5,400.5,534.1,400.5z"/>
<path class="st8" d="M527.2,400.5h2.2c0.5,0,1,0.4,1,1v4.3c0,0.5-0.4,1-1,1h-2.2c-0.5,0-1-0.4-1-1v-4.3
	C526.2,400.9,526.6,400.5,527.2,400.5z"/>
<path class="st8" d="M520.3,400.5h2.2c0.5,0,1,0.4,1,1v4.3c0,0.5-0.4,1-1,1h-2.2c-0.5,0-1-0.4-1-1v-4.3
	C519.3,400.9,519.8,400.5,520.3,400.5z"/>
<path class="st8" d="M513.4,400.5h2.2c0.5,0,1,0.4,1,1v4.3c0,0.5-0.4,1-1,1h-2.2c-0.5,0-1-0.4-1-1v-4.3
	C512.4,400.9,512.9,400.5,513.4,400.5z"/>
<path class="st8" d="M506.5,400.5h2.2c0.5,0,1,0.4,1,1v4.3c0,0.5-0.4,1-1,1h-2.2c-0.5,0-1-0.4-1-1v-4.3
	C505.5,400.9,506,400.5,506.5,400.5z"/>
<path class="st8" d="M499.6,400.5h2.2c0.5,0,1,0.4,1,1v4.3c0,0.5-0.4,1-1,1h-2.2c-0.5,0-1-0.4-1-1v-4.3
	C498.6,400.9,499.1,400.5,499.6,400.5z"/>
<path class="st8" d="M492.7,400.5h2.2c0.5,0,1,0.4,1,1v4.3c0,0.5-0.4,1-1,1h-2.2c-0.5,0-1-0.4-1-1v-4.3
	C491.7,400.9,492.2,400.5,492.7,400.5z"/>
<path class="st8" d="M485.8,400.5h2.2c0.5,0,1,0.4,1,1v4.3c0,0.5-0.4,1-1,1h-2.2c-0.5,0-1-0.4-1-1v-4.3
	C484.8,400.9,485.3,400.5,485.8,400.5z"/>
<path class="st8" d="M478.9,400.5h2.2c0.5,0,1,0.4,1,1v4.3c0,0.5-0.4,1-1,1h-2.2c-0.5,0-1-0.4-1-1v-4.3
	C478,400.9,478.4,400.5,478.9,400.5z"/>
<polygon class="st4" points="15,372.3 45.3,372.3 54.1,282.1 6.2,282.1 "/>
<rect x="2" y="279" class="st14" width="56.4" height="7.1"/>
<polygon class="st14" points="12.6,348 12.9,350.4 47.5,350.4 47.7,348 "/>
<polygon class="st14" points="12.1,342.3 12.3,344.7 48,344.7 48.3,342.3 "/>
<polygon class="st14" points="13.2,353.6 13.4,356 46.9,356 47.1,353.6 "/>
<polygon class="st14" points="46.6,359.2 13.7,359.2 14,361.7 46.4,361.7 "/>
<polygon class="st14" points="10.4,325.4 10.7,327.8 49.7,327.8 49.9,325.4 "/>
<polygon class="st14" points="11,331 11.2,333.5 49.1,333.5 49.4,331 "/>
<polygon class="st14" points="11.5,336.7 11.8,339.1 48.6,339.1 48.8,336.7 "/>
<polygon class="st8" points="77.6,372.3 107.9,372.3 116.7,282.1 68.7,282.1 "/>
<rect x="64.5" y="279" class="st15" width="56.4" height="7.1"/>
<polygon class="st15" points="75.2,348 75.4,350.4 110,350.4 110.2,348 "/>
<polygon class="st15" points="74.6,342.3 74.9,344.7 110.5,344.7 110.8,342.3 "/>
<polygon class="st15" points="75.7,353.6 76,356 109.4,356 109.7,353.6 "/>
<polygon class="st15" points="109.1,359.2 76.3,359.2 76.5,361.7 108.9,361.7 "/>
<polygon class="st15" points="73,325.4 73.2,327.8 112.2,327.8 112.4,325.4 "/>
<polygon class="st15" points="73.5,331 73.8,333.5 111.7,333.5 111.9,331 "/>
<polygon class="st15" points="74.1,336.7 74.3,339.1 111.1,339.1 111.3,336.7 "/>
<path class="st8" d="M134.8,311.7v60.9c0,3.1,2.5,5.6,5.6,5.6h89.9c3.1,0,5.6-2.5,5.6-5.6v-60.9c0-3.1-2.5-5.6-5.6-5.6h-89.9
	C137.3,306.1,134.8,308.6,134.8,311.7L134.8,311.7z"/>
<path class="st2" d="M219,319.7v-1.6l3.1-0.9V314l-3.1-0.9v-1.6l10.4,3.1v1.9L219,319.7z M223.3,316.9l2.7-0.8
	c0.7-0.2,1.4-0.4,2-0.5l0,0c-0.6-0.1-1.4-0.3-2-0.5l-2.7-0.8V316.9L223.3,316.9z"/>
<path class="st2" d="M151.7,364.5v1.6l-3.1,0.9v3.1l3.1,0.9v1.6l-10.4-3.1v-1.9L151.7,364.5z M147.5,367.3l-2.7,0.8
	c-0.7,0.2-1.4,0.4-2,0.5l0,0c0.6,0.1,1.4,0.3,2,0.5l2.7,0.8V367.3L147.5,367.3z"/>
<path class="st2" d="M198.9,342c0-3.6-2.9-6.5-6.5-6.4c-1.8,0-3.5,0.8-4.7,2.1c0.4-0.9,0.7-1.8,0.6-2.8c0-3.6-2.9-6.5-6.4-6.5
	c-3.6,0-6.5,2.9-6.5,6.4c0,2.7,1.6,5,4,6h-2.3l-1.5-0.9l-3.7-2.1v8.6l3.7-2.1l1.5-0.9h2.3c-3.3,1.4-4.9,5.1-3.5,8.4s5.1,4.9,8.4,3.5
	c2.4-1,4-3.3,4-6c0-1.1-0.3-2.2-0.9-3.2c1.2,1.5,3.1,2.3,5,2.3C196,348.4,198.9,345.5,198.9,342L198.9,342L198.9,342z"/>
<path class="st2" d="M217.6,315.6c0-1.1-0.9-1.9-1.9-1.9c-0.5,0-1.1,0.2-1.4,0.6c0.1-0.3,0.2-0.5,0.2-0.8c0-1.1-0.8-1.9-1.9-1.9
	c-1.1,0-1.9,0.8-1.9,1.9c0,0.8,0.5,1.5,1.2,1.8h-0.7l-0.5-0.3l-1.1-0.6v2.5l1.1-0.6l0.5-0.3h0.7c-1,0.4-1.4,1.5-1,2.5s1.5,1.4,2.5,1
	c0.7-0.3,1.2-1,1.2-1.8c0-0.3-0.1-0.7-0.3-0.9c0.4,0.4,0.9,0.7,1.5,0.7C216.7,317.5,217.5,316.6,217.6,315.6L217.6,315.6
	L217.6,315.6L217.6,315.6z"/>
<path class="st2" d="M153.2,368.5c0-1.1,0.9-1.9,1.9-1.9c0.5,0,1.1,0.2,1.4,0.6c-0.1-0.3-0.2-0.5-0.2-0.8c0-1.1,0.8-1.9,1.9-1.9
	c1.1,0,1.9,0.8,1.9,1.9c0,0.8-0.5,1.5-1.2,1.8h0.7l0.5-0.3l1.1-0.6v2.5l-1.1-0.6l-0.5-0.3H159c1,0.4,1.4,1.5,1,2.5s-1.5,1.4-2.5,1
	c-0.7-0.3-1.2-1-1.2-1.8c0-0.3,0.1-0.7,0.3-0.9c-0.4,0.4-0.9,0.7-1.5,0.7C154.1,370.4,153.2,369.6,153.2,368.5L153.2,368.5
	L153.2,368.5L153.2,368.5z"/>
<ellipse class="st16" cx="602.7" cy="138.9" rx="38" ry="37.9"/>
<ellipse class="st17" cx="602.7" cy="138.9" rx="36.4" ry="36.3"/>
<path class="st16" d="M588.5,122.1c-1.5-0.9-3.3-2.4-3.2-4.4s1.5-0.4,1.6-1.6s0.7-4,3.1-3.2c2.1-2,6.6-3,9-3.2s2.5-2,7.4,0
	c2.4,1,7.8-0.9,10.8,4.2c4.3,2.8,6.3,6,5,12c-0.6,2.5-0.8,7.7-2.9,12c-2.1,4.2-2,7.1,1.2,12.7c-7.2,2.7-18.6,9.9-22.3,13.1
	c-1.9,0.8-0.9-3.8-0.9-4.7c0-1.4-1-3.7-0.8-6.3c-0.1-1.6-2.6-1-4.2-1.3c-1.6-0.3-2.9-0.8-4.2-1c-1.4-0.2-1.5-2.5-0.6-3.6
	c1.5-1.9-1.9-2.6-0.5-4.3c-1-0.4-0.5-2.8-0.6-3.6c-0.7-0.7-2.4,0-3.2-1.3s4.9-7.4,4.4-8.1C586.2,127.7,588.5,122.1,588.5,122.1z"/>
<path class="st16" d="M585.2,168.8l-3.8-2.7l0.2-0.3c1.3,0,3.4,0.2,4.2-0.9c0.4-0.4,0.4-1.1-0.1-1.5l-0.1-0.1
	c-0.5-0.3-1.2-0.3-1.7,0l-0.1-0.4l1.1-0.4c0.6-0.1,1.2,0,1.7,0.4c0.8,0.5,1.1,1.6,0.6,2.5c0,0,0,0.1-0.1,0.1
	c-0.4,0.6-1.1,0.8-2.2,0.8c-0.3,0-0.8,0-1.4,0.1l0,0l1.4,1c0.3,0.4,0.9,0.4,1.3,0.1l0.2,0.3L585.2,168.8z"/>
<path class="st16" d="M596.2,167.7c1.6,0.3,2.6,1.7,2.4,3.3c-0.3,1.6-1.7,2.6-3.3,2.4c-1.6-0.3-2.6-1.7-2.4-3.3c0-0.1,0-0.1,0-0.2
	c0.2-1.5,1.6-2.5,3.1-2.2C596.1,167.7,596.2,167.7,596.2,167.7L596.2,167.7L596.2,167.7z M596.1,168.3c-0.7-0.2-1.5,0.5-1.9,1.9
	c-0.3,1.4,0.1,2.3,0.9,2.5c0.7,0.2,1.6-0.5,1.9-1.9C597.2,169.4,596.8,168.5,596.1,168.3L596.1,168.3L596.1,168.3z"/>
<path class="st16" d="M607.7,173.8l-0.1-0.4l0.7-0.3c0.5-0.2,0.5-0.4,0.3-1l-0.8-2.4c-0.2-0.5-0.3-0.6-0.7-0.5l-0.7,0.2l-0.1-0.3
	c0.8-0.4,1.5-0.9,2.2-1.4l1.4,4.1c0.2,0.6,0.3,0.7,0.9,0.6l0.7-0.2l0.1,0.4L607.7,173.8z"/>
<path class="st16" d="M622.4,164.7l-0.8,0.6l1.4,1.8l-1,0.8l-1.4-1.8l-2.5,1.9l-0.3-0.4c-0.1-1.7-0.1-4.4,0-6l0.6-0.5l2.8,3.6
	l0.9-0.7L622.4,164.7z M618.2,163.1L618.2,163.1c0,1.2,0.1,2.4,0.2,3.8l1.7-1.4L618.2,163.1z"/>
<path class="st14" d="M120.3,49.6l-7.3-7.2C114.4,45.7,117,48.3,120.3,49.6z"/>
<path class="st8" d="M111.9,57.9V23c0-2.4-6.9-17.5-51.7-17.5h-36v69.9h36C105,75.4,111.9,60.3,111.9,57.9z"/>
<path class="st15" d="M24.2,1.7L24.2,1.7c2.3,0,4.2,1.8,4.2,4.1V75c0,2.3-1.8,4.1-4.1,4.1h-0.1c-2.3,0-4.1-1.8-4.1-4.1V5.8
	C20.1,3.5,21.9,1.7,24.2,1.7z"/>
<path class="st15" d="M61.1,4L61.1,4c1,0,1.7,0.8,1.7,1.7V75c0,0.9-0.8,1.7-1.7,1.7l0,0c-0.9,0-1.7-0.8-1.7-1.7V5.7
	C59.4,4.8,60.1,4,61.1,4z"/>
<path class="st15" d="M52.4,4L52.4,4c1,0,1.7,0.8,1.7,1.7V75c0,0.9-0.8,1.7-1.7,1.7l0,0c-0.9,0-1.7-0.8-1.7-1.7V5.7
	C50.7,4.8,51.5,4,52.4,4z"/>
<path class="st4" d="M135.2,30.8c5.3,5.3,5.3,14,0,19.3s-14,5.3-19.3,0s-5.3-14,0-19.3S129.8,25.4,135.2,30.8
	C135.2,30.7,135.2,30.8,135.2,30.8z"/>
<path class="st14" d="M138.4,44.8c0.3-0.9,0.5-1.9,0.6-2.8l-15-15c-1,0.1-1.9,0.3-2.8,0.6L138.4,44.8z"/>
<path class="st14" d="M136.4,48.6c0.5-0.7,1-1.4,1.3-2.1l-18.3-18.2c-0.7,0.4-1.5,0.8-2.1,1.3L136.4,48.6z"/>
<path class="st14" d="M126.5,26.9l12.6,12.6c-0.1-1.6-0.5-3.1-1.1-4.5l-7-7C129.6,27.3,128.1,27,126.5,26.9z"/>
<path class="st14" d="M112.1,42.3l11.6,11.6c1.2,0.1,2.3,0.1,3.5,0l-15.1-15C111.9,40,111.9,41.1,112.1,42.3z"/>
<path class="st14" d="M114.4,32.6l19,18.9c0.7-0.5,1.3-1,1.9-1.5l0,0L116,30.8l0,0C115.4,31.3,114.8,32,114.4,32.6z"/>
<path class="st14" d="M129.3,53.5c0.9-0.3,1.7-0.6,2.5-1l-18.3-18.2c-0.4,0.8-0.7,1.6-1,2.5L129.3,53.5z"/>
<path class="st8" d="M111.9,136.9V102c0-2.4-6.9-17.5-51.7-17.5h-36v69.9h36C105,154.3,111.9,139.3,111.9,136.9z"/>
<path class="st15" d="M24.2,80.7L24.2,80.7c2.3,0,4.2,1.8,4.2,4.1V154c0,2.3-1.8,4.1-4.1,4.1h-0.1c-2.3,0-4.1-1.8-4.1-4.1V84.8
	C20.1,82.5,21.9,80.7,24.2,80.7z"/>
<path class="st15" d="M61.1,83.1L61.1,83.1c1,0,1.7,0.8,1.7,1.7v69.3c0,0.9-0.8,1.7-1.7,1.7l0,0c-0.9,0-1.7-0.8-1.7-1.7V84.7
	C59.4,83.8,60.1,83.1,61.1,83.1z"/>
<path class="st15" d="M52.4,83.1L52.4,83.1c1,0,1.7,0.8,1.7,1.7v69.3c0,0.9-0.8,1.7-1.7,1.7l0,0c-0.9,0-1.7-0.8-1.7-1.7V84.7
	C50.7,83.8,51.5,83.1,52.4,83.1z"/>
<path class="st8" d="M111.9,215.9V181c0-2.4-6.9-17.5-51.7-17.5h-36v69.9h36C105,233.3,111.9,218.3,111.9,215.9z"/>
<path class="st15" d="M20.1,233v-69.3c0-2.3,1.8-4.1,4.1-4.1h0.1c2.3,0,4.1,1.8,4.1,4.1V233c0,2.3-1.8,4.1-4.1,4.1h-0.1
	C21.9,237.1,20.1,235.3,20.1,233z"/>
<path class="st15" d="M61.1,162L61.1,162c1,0,1.7,0.8,1.7,1.7v69.4c0,0.9-0.8,1.7-1.7,1.7l0,0c-0.9,0-1.7-0.8-1.7-1.7v-69.4
	C59.4,162.8,60.1,162,61.1,162z"/>
<path class="st15" d="M52.4,162L52.4,162c1,0,1.7,0.8,1.7,1.7v69.4c0,0.9-0.8,1.7-1.7,1.7l0,0c-0.9,0-1.7-0.8-1.7-1.7v-69.4
	C50.7,162.8,51.5,162,52.4,162z"/>
<rect class="st2" width="11.4" height="240"/>
<rect class="st8" width="11.4" height="38.4"/>
<rect y="201.6" class="st8" width="11.4" height="38.4"/>
<path class="st4" d="M43.4,213.9c5.3,5.3,5.3,14,0,19.3s-14,5.3-19.3,0s-5.3-14,0-19.3C29.4,208.5,38,208.5,43.4,213.9
	C43.4,213.8,43.4,213.9,43.4,213.9z"/>
<path class="st14" d="M46.6,227.9c0.3-0.9,0.5-1.9,0.6-2.8l-15-15c-1,0.1-1.9,0.3-2.8,0.6L46.6,227.9z"/>
<path class="st14" d="M44.5,231.7c0.5-0.7,0.9-1.4,1.3-2.1l-18.3-18.2c-0.7,0.4-1.5,0.8-2.1,1.3L44.5,231.7z"/>
<path class="st14" d="M28.4,236l-7.2-7.2C22.6,232.1,25.2,234.7,28.4,236z"/>
<path class="st14" d="M34.7,210l12.6,12.6c-0.1-1.6-0.5-3.1-1.1-4.5l-7-7C37.8,210.4,36.2,210.1,34.7,210z"/>
<path class="st14" d="M20.3,225.4L31.9,237c1.2,0.1,2.3,0.1,3.5,0l-15.1-15C20.1,223.1,20.1,224.2,20.3,225.4z"/>
<path class="st14" d="M22.5,215.7l19,18.9c0.7-0.5,1.3-1,1.9-1.5l0,0l-19.3-19.3l0,0C23.5,214.4,23,215.1,22.5,215.7z"/>
<path class="st14" d="M37.4,236.6c0.9-0.3,1.7-0.6,2.5-1l-18.3-18.2c-0.4,0.8-0.7,1.6-1,2.5L37.4,236.6z"/>
<path class="st4" d="M43.4,134.9c5.3,5.3,5.3,14,0,19.3s-14,5.3-19.3,0s-5.3-14,0-19.3C29.4,129.5,38,129.5,43.4,134.9
	C43.4,134.8,43.4,134.9,43.4,134.9z"/>
<path class="st14" d="M46.6,148.9c0.3-0.9,0.5-1.9,0.6-2.8l-15-15c-1,0.1-1.9,0.3-2.8,0.6L46.6,148.9z"/>
<path class="st14" d="M44.5,152.7c0.5-0.7,0.9-1.4,1.3-2.1l-18.3-18.2c-0.7,0.4-1.5,0.8-2.1,1.3L44.5,152.7z"/>
<path class="st14" d="M28.4,157l-7.2-7.2C22.6,153.1,25.2,155.7,28.4,157z"/>
<path class="st14" d="M34.7,131l12.6,12.6c-0.1-1.6-0.5-3.1-1.1-4.5l-7-7C37.8,131.4,36.2,131.1,34.7,131z"/>
<path class="st14" d="M20.3,146.4L31.9,158c1.2,0.1,2.3,0.1,3.5,0l-15.1-15C20.1,144.1,20.1,145.2,20.3,146.4z"/>
<path class="st14" d="M22.5,136.7l19,18.9c0.7-0.5,1.3-1,1.9-1.5l0,0l-19.3-19.3l0,0C23.5,135.4,23,136.1,22.5,136.7z"/>
<path class="st14" d="M37.4,157.6c0.9-0.3,1.7-0.6,2.5-1l-18.3-18.2c-0.4,0.8-0.7,1.6-1,2.5L37.4,157.6z"/>
<g>
	<path class="st0" d="M334.2,384.7h-58.4c-6.7,0-12.1-5.4-12.1-12l0,0V223.9c0-6.7,5.4-12.1,12.1-12.1l0,0h58.4
		c6.7,0,12.1,5.4,12.1,12l0,0v148.7C346.2,379.3,340.8,384.7,334.2,384.7L334.2,384.7z"/>
	<rect x="262.5" y="248.2" class="st0" width="1.8" height="12.2"/>
	<rect x="262.5" y="235.6" class="st0" width="2.4" height="7.7"/>
	<rect x="262.5" y="264.2" class="st0" width="1.8" height="12.2"/>
	<rect x="318.8" y="210.5" class="st0" width="13.4" height="1.8"/>
	<path class="st2" d="M333,382.8h-56.1c-6.2,0-11.3-5-11.3-11.3l0,0V224.8c0-6.2,5.1-11.3,11.3-11.3l0,0H333c6.2,0,11.3,5,11.3,11.3
		l0,0v146.8C344.3,377.8,339.2,382.8,333,382.8L333,382.8z"/>
	<ellipse class="st3" cx="305" cy="371.4" rx="7.9" ry="7.9"/>
	<path class="st2" d="M303.4,368.6h3.2c0.7,0,1.2,0.5,1.2,1.2v3.2c0,0.7-0.5,1.2-1.2,1.2h-3.2c-0.7,0-1.2-0.5-1.2-1.2v-3.2
		C302.2,369.1,302.7,368.6,303.4,368.6z"/>
	<path class="st3" d="M299,225.1h12c0.9,0,1.7,0.8,1.7,1.7l0,0c0,0.9-0.8,1.7-1.7,1.7h-12c-0.9,0-1.7-0.8-1.7-1.7l0,0
		C297.3,225.8,298,225.1,299,225.1z"/>
	<circle class="st3" cx="305" cy="220.2" r="1.6"/>
	<rect x="270" y="236.1" class="st0" width="70" height="123.6"/>
	<path class="st2" d="M289,261.3c1.1,0.5,2.1,1.3,2.9,2.3c0.6,0.8,0.9,1.9,0.9,2.9c0,1.5-0.5,2.9-1.5,4c-1.3,1.5-3.2,2.2-5.2,2.1
		c-1.8,0.1-3.7-0.6-5-1.9c-1.1-1.1-1.7-2.6-1.7-4.1c0-1.1,0.3-2.1,0.9-3c0.8-1,1.8-1.8,2.9-2.3c-0.9-0.4-1.6-1.1-2.2-1.9
		c-0.5-0.7-0.7-1.5-0.7-2.4s0.3-1.8,0.8-2.5c0.5-0.8,1.3-1.5,2.1-1.9c0.9-0.5,1.9-0.7,2.9-0.7s2,0.2,2.9,0.7c0.8,0.4,1.6,1.1,2,1.9
		c0.5,0.8,0.7,1.6,0.7,2.5c0,0.8-0.2,1.7-0.7,2.4C290.5,260.2,289.8,260.9,289,261.3z M286.1,262.3c-1.3,0-2.5,0.4-3.4,1.3
		c-0.9,0.8-1.4,1.9-1.4,3.1c0,0.7,0.2,1.4,0.6,2s1,1.2,1.6,1.5c0.8,0.4,1.6,0.5,2.4,0.5c1.3,0.1,2.5-0.4,3.4-1.3
		c0.8-0.8,1.3-1.9,1.3-3s-0.5-2.2-1.3-2.9C288.5,262.7,287.3,262.3,286.1,262.3L286.1,262.3z M286,253.9c-1,0-2,0.3-2.7,1
		c-0.7,0.6-1.1,1.4-1.1,2.3s0.4,1.8,1.1,2.4c1.2,1.2,3,1.4,4.5,0.6c0.6-0.3,1-0.8,1.4-1.3c0.3-0.5,0.5-1.1,0.5-1.7
		c0-0.8-0.4-1.6-1-2.2C288,254.2,287,253.8,286,253.9z"/>
	<path class="st2" d="M297.7,257.2c0.9,0,1.7,0.7,1.7,1.6s-0.7,1.7-1.6,1.7s-1.7-0.7-1.7-1.6c0-0.4,0.2-0.9,0.5-1.2
		S297.3,257.2,297.7,257.2z M297.7,269.2c0.9,0,1.6,0.8,1.6,1.7c0,0.4-0.2,0.8-0.5,1.1c-0.6,0.6-1.7,0.7-2.3,0l0,0
		c-0.7-0.6-0.7-1.7-0.1-2.3C296.8,269.3,297.3,269.1,297.7,269.2L297.7,269.2z"/>
	<path class="st2" d="M312.8,252h0.4v13.7h2.4v1.9h-2.4v4.6h-2v-4.6h-9.4L312.8,252z M311.3,265.7v-8.3l-5.8,8.3H311.3z"/>
	<path class="st2" d="M317.2,262.3c-0.1-2,0.2-4.1,0.8-6c0.5-1.3,1.3-2.4,2.4-3.2c1-0.7,2.2-1.1,3.4-1.1c1.2,0,2.5,0.4,3.5,1.1
		c1.1,0.8,2,2,2.5,3.3c1.2,3.8,1.2,8,0,11.8c-0.5,1.3-1.3,2.5-2.5,3.3c-1,0.7-2.2,1.1-3.5,1.1c-1.2,0-2.4-0.4-3.4-1.1
		c-1.1-0.8-1.9-1.9-2.4-3.2C317.4,266.4,317.1,264.3,317.2,262.3z M319.1,262.3c-0.1,1.7,0.1,3.4,0.6,5c0.3,1,0.9,1.9,1.8,2.6
		c0.7,0.6,1.6,0.9,2.5,0.9s1.8-0.3,2.5-0.9c0.8-0.7,1.4-1.6,1.7-2.6c0.5-1.6,0.8-3.3,0.7-5c0-1.6-0.2-3.3-0.7-4.9
		c-0.3-1.1-0.9-2-1.8-2.8c-1.4-1.2-3.5-1.2-4.9,0c-0.8,0.7-1.4,1.6-1.8,2.6C319.2,258.9,319,260.6,319.1,262.3L319.1,262.3z"/>
</g>
<g>
	<rect x="303.4" y="29.6" class="st2" width="16" height="18.8"/>
	<rect x="307.5" y="24.8" class="st2" width="4.4" height="28.4"/>
	<polygon class="st3" points="309.7,22.9 309.7,55.1 456.4,59.3 456.4,18.8 	"/>
	<path class="st18" d="M487.8,4.3c-0.5,0-1.1,0.1-1.6,0.1s-1.1-0.1-1.6-0.1c-19.2-0.3-35,15-35.3,34.2s15,35,34.2,35.3
		c0.4,0,0.8,0,1.2,0c0.5,0,1.1-0.1,1.6-0.1s1.1,0.1,1.6,0.1c19.2,0.3,35-15,35.3-34.2s-15-35-34.2-35.3
		C488.6,4.3,488.2,4.3,487.8,4.3z"/>
	<path class="st3" d="M518.2,55.9l-3.7,3.7l-3.8-3.8l3.8-3.8L518.2,55.9c0.6-1,1.1-2,1.5-3l-3-3l3.8-3.8l1.1,1.1
		c0.6-2.5,0.9-5,1-7.6l-2.1,2.1l-3.8-3.8l3.8-3.8l2,2c-0.2-2.4-0.6-4.8-1.3-7.1l-0.8,0.8l-3.8-3.8l2.4-2.4c-0.5-1-1-1.9-1.5-2.8
		l-3,3l-3.8-3.8l3.7-3.7c-0.8-0.9-1.6-1.8-2.4-2.6l0.4,0.4l-3.8,3.8l-3.8-3.8l3.4-3.4c-0.8-0.6-1.7-1.2-2.6-1.7l-3,3l-3.8-3.8
		l1.8-1.8c-1-0.4-2.1-0.8-3.2-1.1L496.7,6l-1.2-1.2c-2.5-0.6-5.1-0.9-7.7-0.9c-0.3,0-0.6,0-0.9,0l-2.1,2l-2-2
		c-1.3,0.1-2.6,0.2-3.9,0.4l3.8,3.8l-3.8,3.8l-3.8-3.8l3.8-3.8c-2,0.3-3.9,0.8-5.8,1.5L473,5.9l0,0.4c-1,0.4-2.1,0.8-3,1.2l1,1
		l-3.8,3.8l-2-2c-0.9,0.6-1.7,1.2-2.5,1.8l2.3,2.3l-3.8,3.8l-2.4-2.4c-0.7,0.8-1.3,1.5-2,2.4l2.2,2.2l-3.8,3.8l-1.4-1.4
		c-0.5,1-1,1.9-1.4,2.9l0.6,0.6l-1.4,1.4c-0.8,2.4-1.4,4.9-1.7,7.4l3.1,3.1l-3.2,3.2c0.1,2.2,0.5,4.3,1,6.5l2.2,2.2l-1.1,1.1
		c0.4,1,0.8,2,1.3,3l2-2L459,56l-3,3c0.6,0.8,1.2,1.7,1.9,2.4l3.3-3.3l3.8,3.8l-3.3,3.3c0.8,0.7,1.6,1.3,2.4,1.9l3.1-3.1l3.8,3.8
		l-2.2,2.2c1,0.5,1.9,0.9,3,1.3l1.4-1.4l2.8,2.8c1.7,0.5,3.5,0.8,5.3,1l0,0l3.8-3.8l3.8,3.8l-0.1,0.2c1.6,0,3.2-0.2,4.7-0.4L497,70
		l2.1,2.1c1.1-0.4,2.1-0.8,3.1-1.2l-3.1-3.1l3.8-3.8l3.8,3.8l-1.7,1.7C510.4,66.3,515.1,61.6,518.2,55.9z M508.6,53.7l-3.8-3.8
		l3.8-3.8l3.8,3.8L508.6,53.7z M502.7,36l-3.8-3.8l3.8-3.8l3.8,3.8L502.7,36z M508.6,34.3l3.8,3.8l-3.8,3.8l-3.8-3.8L508.6,34.3z
		 M479,40.3l3.8,3.8l-3.8,3.8l-3.8-3.8L479,40.3z M473.1,41.9l-3.8-3.8l3.8-3.8l3.8,3.8L473.1,41.9z M481.2,38.1l3.8-3.8l3.8,3.8
		l-3.8,3.8L481.2,38.1z M487.1,32.2l3.8-3.8l3.8,3.8l-3.8,3.8L487.1,32.2z M490.8,40.3l3.8,3.7l-3.8,3.8L487,44L490.8,40.3z
		 M493,38.1l3.8-3.8l3.8,3.8l-3.8,3.8L493,38.1z M496.8,30l-3.8-3.7l3.8-3.8l3.8,3.8L496.8,30z M490.8,24.1l-3.8-3.8l3.8-3.8
		l3.8,3.8L490.8,24.1z M488.7,26.2l-3.8,3.8l-3.8-3.8l3.8-3.8L488.7,26.2z M482.8,32.2L479,36l-3.8-3.8l3.8-3.8L482.8,32.2z
		 M473.1,30l-3.8-3.8l3.8-3.8l3.8,3.8L473.1,30z M470.9,32.2l-3.8,3.8l-3.8-3.8l3.8-3.8L470.9,32.2z M465,38.1l-3.8,3.8l-3.8-3.8
		l3.8-3.8L465,38.1z M467.1,40.3l3.8,3.8l-3.8,3.8l-3.8-3.8L467.1,40.3z M473.1,46.2l3.8,3.8l-3.8,3.8l-3.8-3.8L473.1,46.2z
		 M479,52.1l3.8,3.8l-3.8,3.8l-3.8-3.8L479,52.1z M481.1,49.9l3.8-3.8l3.8,3.8l-3.8,3.8L481.1,49.9z M490.8,52.1l3.8,3.8l-3.8,3.8
		l-3.8-3.8L490.8,52.1z M493,49.9l3.8-3.8l3.8,3.8l-3.8,3.8L493,49.9z M498.9,44l3.8-3.8l3.8,3.8l-3.8,3.8L498.9,44z M518.3,44
		l-3.8,3.8l-3.8-3.8l3.8-3.8L518.3,44z M518.3,32.2l-3.8,3.8l-3.8-3.8l3.8-3.8L518.3,32.2z M508.6,22.5l3.8,3.8l-3.8,3.7l-3.8-3.8
		L508.6,22.5z M502.7,16.6l3.8,3.8l-3.8,3.8l-3.8-3.8L502.7,16.6z M496.8,10.7l3.8,3.8l-3.8,3.8l-3.8-3.8L496.8,10.7z M490.8,4.8
		l3.8,3.8l-3.8,3.8L487,8.6L490.8,4.8z M484.9,10.7l3.8,3.8l-3.8,3.8l-3.8-3.8L484.9,10.7z M479,16.6l3.8,3.8l-3.8,3.8l-3.8-3.8
		L479,16.6z M473.1,10.7l3.8,3.8l-3.8,3.8l-3.8-3.8L473.1,10.7z M467.2,16.6l3.8,3.8l-3.8,3.8l-3.8-3.8L467.2,16.6z M461.2,22.5
		l3.8,3.8l-3.8,3.7l-3.8-3.8L461.2,22.5z M451.5,32.2l3.8-3.8l3.8,3.8l-3.8,3.8L451.5,32.2z M451.5,44l3.8-3.8l3.8,3.8l-3.8,3.8
		L451.5,44z M457.5,49.9l3.8-3.8l3.8,3.8l-3.8,3.8L457.5,49.9z M463.4,55.8l3.8-3.8l3.8,3.8l-3.8,3.8L463.4,55.8z M469.3,61.7
		l3.8-3.7l3.8,3.8l-3.8,3.8L469.3,61.7z M479,71.4l-3.8-3.8l3.8-3.8l3.8,3.8L479,71.4z M481.1,61.8l3.8-3.8l3.8,3.8l-3.8,3.8
		L481.1,61.8z M490.8,71.4l-3.8-3.8l3.8-3.8l3.8,3.8L490.8,71.4z M496.8,65.5l-3.8-3.8l3.8-3.8l3.8,3.8L496.8,65.5z M498.9,55.8
		l3.8-3.8l3.8,3.8l-3.8,3.8L498.9,55.8z M504.8,61.8l3.8-3.8l3.8,3.8l-3.8,3.8L504.8,61.8z"/>
	<rect x="479.1" y="3.5" class="st2" width="17.5" height="71"/>
	<polygon class="st2" points="439.9,17.5 439.9,60.6 457.5,61.6 457.5,16.4 	"/>
</g>
<g>
	<path class="st2" d="M664.2,182.3c-0.1,37.4,30.3,67.8,67.7,67.9s67.8-30.3,67.9-67.7c0.1-37.4-30.3-67.8-67.7-67.9H732
		C694.5,114.6,664.2,144.9,664.2,182.3z M789.3,182.3c0,31.7-25.6,57.4-57.3,57.4s-57.4-25.6-57.4-57.3s25.6-57.4,57.3-57.4h0.1
		C763.6,125,789.3,150.7,789.3,182.3L789.3,182.3z"/>
	<path class="st2" d="M687.7,344.1l-1.1,1.2L674.7,335c-3.9-3.8-6.9-7.2-8.1-13.8l0,0c0-0.1,0-0.2-0.1-0.3l-0.1-0.8l-0.5-3.1
		l-1.7-11.2c-1.4-9.3-3.2-21.6-5.1-34c-3.7-24.7-7.4-49.5-7.4-49.5c-1.2-8.6-5.3-15.7-10.1-17.7c-2.4-1-5.2-0.5-7.2,1.2l-1-1.3
		c2.4-2.1,5.9-2.7,8.9-1.5c5.5,2.2,9.9,9.6,11.2,19c0.1,1,14.4,96.9,14.8,98.9l0,0c1.2,6.1,3.9,9.2,7.6,12.9L687.7,344.1z"/>
	<polygon class="st2" points="647.2,223.9 740.6,306.6 745.4,301.2 652,218.5 	"/>
	<path class="st19" d="M732.8,184.1l-65.3,35c-2,1.1-4.5,0.3-5.5-1.7s-0.3-4.5,1.7-5.5l0.2-0.1l67.2-31.2c1-0.5,2.1-0.1,2.6,0.9
		S733.8,183.6,732.8,184.1L732.8,184.1z"/>
	<path class="st2" d="M683.7,347.6L665.5,332l79.6-24l-1.5-4.8l1.8-2L657,222.8l3.3-1.1c0.5-0.2,0.7-0.6,0.5-1.1l0,0l-1.8-5.3
		c-0.2-0.5-0.7-0.7-1.1-0.5l-22,7.5c-0.5,0.2-0.7,0.6-0.5,1.1l0,0l1.8,5.3c0.2,0.5,0.7,0.7,1.1,0.5l3.3-1.1l14.7,100.1l-3,0.9V329
		c-0.1-0.3-0.4-0.5-0.7-0.4l-2.1,0.6c-0.3,0.1-0.5,0.4-0.4,0.7l2,6.7c0.3,0.9,1.2,1.4,2.1,1.1c0.9-0.3,1.4-1.2,1.1-2.1l0,0l-0.1-0.5
		l4.7-1.4l70.5,60.4c1.1,0.9,2.6,0.8,3.5-0.3c0.9-1.1,0.8-2.6-0.3-3.5L692.3,355 M649,237.6l-1.7-11.5l1.7-0.6l88.3,78.3L662,326.4
		l-1.3-9.1 M660.1,313.5l-10.6-72"/>
	<g>
		<path class="st19" d="M621.2,228.2l44.6-15.2c0.6-0.2,1.2,0.1,1.4,0.7l1,2.8c0.2,0.6-0.1,1.2-0.7,1.4l0,0l-44.6,15.2"/>
		<path class="st4" d="M668.4,182.3c-0.1,35.1,28.4,63.6,63.5,63.6c35.1,0.1,63.6-28.4,63.6-63.5c0.1-35.1-28.4-63.6-63.5-63.6h-0.1
			C696.9,118.8,668.4,147.2,668.4,182.3L668.4,182.3z M789.3,182.3c0,31.7-25.6,57.4-57.3,57.4s-57.4-25.6-57.4-57.3
			s25.6-57.4,57.3-57.4h0.1C763.6,125,789.3,150.7,789.3,182.3L789.3,182.3L789.3,182.3z"/>
		<path class="st8" d="M779.2,182.3c-0.1,26.1-21.2,47.2-47.3,47.2c-0.8,0-1.4-0.6-1.4-1.4c0-0.8,0.6-1.4,1.4-1.4
			c24.5,0,44.4-19.9,44.5-44.4c0-0.8,0.6-1.4,1.4-1.4S779.2,181.6,779.2,182.3z"/>
		<path class="st2" d="M664.2,392.2c-0.1,37.4,30.3,67.8,67.7,67.9s67.8-30.3,67.9-67.7c0.1-37.4-30.3-67.8-67.7-67.9H732
			C694.5,324.4,664.2,354.7,664.2,392.2z M789.3,392.2c0,31.7-25.6,57.4-57.3,57.4s-57.4-25.6-57.4-57.3s25.6-57.4,57.3-57.4h0.1
			C763.6,334.9,789.3,360.5,789.3,392.2L789.3,392.2z"/>
		<path class="st4" d="M668.4,392.2c-0.1,35.1,28.4,63.6,63.5,63.6c35.1,0.1,63.6-28.4,63.6-63.5c0.1-35.1-28.4-63.6-63.5-63.6h-0.1
			C696.9,328.7,668.4,357.1,668.4,392.2C668.4,392.1,668.4,392.1,668.4,392.2z M789.3,392.2c0,31.7-25.6,57.4-57.3,57.4
			s-57.4-25.6-57.4-57.3s25.6-57.4,57.3-57.4h0.1C763.6,334.9,789.3,360.5,789.3,392.2C789.3,392.1,789.3,392.1,789.3,392.2
			L789.3,392.2z"/>
		<path class="st8" d="M779.2,392.2c-0.1,26.1-21.2,47.2-47.3,47.2c-0.8,0-1.4-0.6-1.4-1.4s0.6-1.4,1.4-1.4l0,0
			c24.5,0,44.4-19.9,44.5-44.4c0-0.8,0.6-1.4,1.4-1.4S779.2,391.4,779.2,392.2z"/>
		<ellipse class="st4" cx="732" cy="182.3" rx="7" ry="7"/>
		<ellipse class="st19" cx="732" cy="182.3" rx="3.9" ry="3.9"/>
		<path class="st2" d="M716.7,392.2c0,8.4,6.8,15.2,15.2,15.2s15.2-6.8,15.2-15.2c0-8.4-6.8-15.2-15.2-15.2
			C723.5,376.9,716.7,383.7,716.7,392.2z M741.2,392.2c0,5.1-4.1,9.2-9.2,9.2c-5.1,0-9.2-4.1-9.2-9.2s4.1-9.2,9.2-9.2l0,0
			C737,383,741.2,387.1,741.2,392.2L741.2,392.2z"/>
		<path class="st19" d="M657.5,328.8L621.2,340c-1,0.3-1.7,1.2-1.7,2.3l0,0v2.7h-5.8l1.9,6.1h3.9v0.8c0,1.2,0.9,2.1,2.1,2.1
			c1.2,0,2.1-0.9,2.1-2.1l0.3-7.8l34.8-10.8c1.3-0.2,2.2-1.4,1.9-2.7c-0.2-1.3-1.4-2.2-2.7-1.9C657.9,328.7,657.7,328.7,657.5,328.8
			z"/>
		<path class="st2" d="M750.3,304.9c0,0.2,0,0.4,0,0.5l-15.2,87.2c-0.3,1.7-1.9,2.8-3.6,2.5c-1.7-0.3-2.8-1.9-2.5-3.6l15.2-87.2
			c0.1-1.7,1.6-2.9,3.3-2.8C749.2,301.7,750.4,303.2,750.3,304.9L750.3,304.9z"/>
		<path class="st8" d="M760,394.2c2.6,0,4.6-2.1,4.6-4.6l0.4-84.7c0-9.8-7.9-17.8-17.8-17.8s-17.8,7.9-17.8,17.8l-0.2,87.2
			c0.1,1.5,1.4,2.7,3,2.6c1.4-0.1,2.5-1.2,2.6-2.6c0-0.6,0.5-1.1,1.1-1.1s1.1,0.5,1.1,1.1l0,0c-0.1,2.8-2.5,4.9-5.2,4.8
			c-2.6-0.1-4.7-2.2-4.8-4.8l0.2-87.2c0-11,8.9-20,20-20s20,8.9,20,20l-0.4,84.7c0,3.8-3.1,6.8-6.8,6.8"/>
		<path class="st2" d="M618.6,352.5c0,5.7-7.1,8-7.4,8c-0.5,0.3-1.1,0.2-1.4-0.3c-0.3-0.5-0.2-1.1,0.3-1.4c0.2-0.1,0.4-0.2,0.6-0.2
			c0.1,0,6-1.9,6.1-6.2l-0.4-10.1l0,0c0-2.7-3-7.5-6.8-13.6l-1.5-2.3c-0.1-0.5,0.2-1.1,0.7-1.2c0.3-0.1,0.7,0,0.9,0.2l1.5,2.3
			c4.1,6.5,7,11.3,7.1,14.6L618.6,352.5L618.6,352.5L618.6,352.5z"/>
		<path class="st2" d="M606.6,370.6c3.6,0,10.8-16.8,10.1-18.9c-0.6-3.3-6.1-19-6.5-24c-0.8-9.4,1.3-14.2-0.7-13.8
			c-2.8,0.6-4,9.7-2.9,19.4c1.4,11.8,0.1,25.8-1.7,32.3C603.8,369.8,605.3,370.6,606.6,370.6z"/>
		<ellipse class="st2" cx="747.2" cy="304.9" rx="20.1" ry="20.1"/>
		<ellipse class="st2" cx="747.2" cy="304.9" rx="20.1" ry="20.1"/>
		<path class="st19" d="M634.8,206l-6.9,8.1c-0.2,0.2-0.6,0.3-0.8,0l0,0l-2.9-2.7c-0.2-0.3-0.2-0.7,0-0.9l6.9-8.1
			c0.2-0.2,0.6-0.3,0.8,0l0,0l2.9,2.8C635,205.5,635,205.8,634.8,206z"/>
		<ellipse class="st20" cx="747.2" cy="304.9" rx="15.7" ry="15.7"/>
		<ellipse class="st2" cx="747.2" cy="304.9" rx="14.1" ry="14.1"/>
		<path class="st4" d="M742.7,306.2c0,0.6-0.2,1.2-0.6,1.6c-0.5,0.6-1.1,1.2-1.8,1.6c-0.5,0.4-1.6,0.8-1.2,1.6
			c0.2,0.3,0.5,0.6,0.9,0.8l1.8,1.4c0.3,0.3,0.6,0.5,0.9,0.7c0.3,0.2,0.7,0.2,1-0.1c0.2-0.3,0.4-0.6,0.5-1c0.3-0.7,0.7-1.4,1.1-2
			c0.3-0.6,0.8-1,1.4-1.3c0.5-0.1,1,0.1,1.3,0.5c0.5,0.6,0.9,1.3,1.1,2c0.2,0.4,0.3,0.8,0.4,1.2c0,0.4,0.2,0.7,0.4,1
			c0.4,0.3,0.9,0.3,1.3-0.1l1.9-1.2l1.2-0.8c0.4-0.2,0.6-0.7,0.4-1.1c0-0.1-0.1-0.2-0.2-0.2c-0.3-0.3-0.6-0.5-0.9-0.7
			c-0.3-0.3-0.6-0.6-0.9-0.9c-0.5-0.5-0.9-1.1-1.1-1.8c-0.1-0.2-0.1-0.5,0-0.8 M751.6,306.6c0.3-0.5,0.8-0.8,1.4-0.9
			c0.8-0.2,1.6-0.3,2.4-0.3c0.6,0,1.7,0.3,1.9-0.5c0.1-0.4,0-0.8-0.2-1.2l-0.6-2.2c-0.1-0.4-0.2-0.8-0.3-1.1
			c-0.1-0.3-0.4-0.5-0.7-0.6c-0.4,0-0.7,0.2-1,0.4c-0.8,0.5-1.6,0.9-2.5,1.2c-0.6,0.3-1.4,0.3-2,0 M750.1,301.4
			c-0.4-0.4-0.5-1-0.5-1.6c0-0.8,0.2-1.5,0.4-2.3c0.1-0.4,0.2-0.7,0.4-1.1c0.2-0.3,0.1-0.7-0.1-1c-0.4-0.2-0.8-0.3-1.2-0.3l-2.3-0.1
			c-0.4,0-0.8-0.1-1.2-0.1c-0.3,0-0.7,0.2-0.8,0.5s0,0.7,0.1,1c0.2,0.8,0.3,1.6,0.4,2.5c0.1,0.7-0.1,1.3-0.4,1.9
			c-0.4,0.3-0.9,0.5-1.4,0.3c-0.7-0.2-1.4-0.5-2-1c-0.4-0.2-0.7-0.4-1-0.7c-0.2-0.3-0.6-0.5-0.9-0.6c-0.5,0-0.9,0.4-1,0.9l-0.8,2.1
			c-0.2,0.4-0.3,0.9-0.5,1.3s0,0.9,0.4,1.1c0.1,0.1,0.3,0.1,0.4,0.1c0.8,0,1.6,0.1,2.4,0.3c0.7,0.1,1.3,0.4,1.9,0.8
			c0.2,0.1,0.3,0.3,0.4,0.5"/>
		<path class="st4" d="M745.9,300c-2.7,0.6-4.5,3.3-3.9,6s3.3,4.5,6,3.9c0.3-0.1,0.5-0.1,0.8-0.2c0.4-0.1,0.7-0.2,1-0.4l30.4-12.7
			l-0.2-1.7l-0.8-1.5l-32.4,6.4C746.6,299.8,746.3,299.9,745.9,300z"/>
		<path class="st4" d="M788,287.9V305c0,0.4-0.3,0.7-0.7,0.7l0,0h-4c-0.1,0-0.3,0-0.4-0.1l-3.7-2.2c-0.2-0.1-0.4-0.4-0.4-0.6v-17.2
			c0-0.4,0.3-0.7,0.7-0.7l0,0h4c0.1,0,0.3,0,0.4,0.1l3.7,2.2C787.8,287.4,788,287.6,788,287.9z"/>
		<ellipse class="st2" cx="760" cy="389.5" rx="7.7" ry="7.7"/>
		<path class="st2" d="M751.1,392.2c0,2.2-1.7,3.9-3.9,3.9l0,0H732c-2.2,0-3.9-1.7-3.9-3.9c0-2.2,1.7-3.9,3.9-3.9l0,0h15.2
			C749.4,388.3,751.1,390,751.1,392.2z"/>
		<ellipse class="st2" cx="747.2" cy="304.9" rx="4" ry="4"/>
		<path class="st2" d="M744.8,400.7l-6.2-5.2c-1.9-1.6-2.2-4.4-0.6-6.3l0,0l9-10.7c1.6-1.9,4.4-2.2,6.3-0.6c1.2,1,1.8,2.7,1.5,4.2
			L752,398c-0.5,2.4-2.8,4.1-5.3,3.6C746.1,401.6,745.4,401.2,744.8,400.7z"/>
		<path class="st2" d="M633,197.8l-7.7,8c-3-0.6-5.9,1.3-6.6,4.3c-0.5,2.3,0.6,4.7,2.7,5.9v10.5l-0.3,0.1c-0.3,0.1-0.4,0.4-0.3,0.7
			l2.1,6.3l0,0l0.3,1c0.2,0.6,0.9,1,1.6,0.8l1-0.4c0.6-0.2,1-0.9,0.8-1.6l-0.2-0.5l0.9-0.3l0.2,0.5c0.2,0.6,0.9,1,1.6,0.8l1-0.4
			c0.6-0.2,1-0.9,0.8-1.6l-0.3-1l0,0l-0.6-1.7l-0.1-0.2l0,0l-1.3-4.4c-0.1-0.3-0.4-0.4-0.7-0.3l-0.2,0.1v-8.9
			c2.4-1.9,2.9-5.3,1.1-7.8c-0.2-0.3-0.5-0.6-0.8-0.8l6.5-8.1c0.1-0.2,0.1-0.4,0-0.6l-0.8-0.7C633.6,197.6,633.3,197.5,633,197.8
			C633.1,197.7,633.1,197.7,633,197.8z"/>
		<ellipse class="st4" cx="624.2" cy="211.2" rx="3.3" ry="3.3"/>
	</g>
</g>
<polygon class="st4" points="184.4,178.8 189.5,236.7 132.8,236.7 137.9,178.8 161.2,172.4 "/>
<path class="st2" d="M184.3,252.4h-3.6v-3.6h-3.3v3.6h-3.6v-10.8h3.6v3.6h3.3v-3.6h3.6V252.4L184.3,252.4L184.3,252.4z"/>
<path class="st2" d="M169,248.8h3.2v3.6h-10v-3.6h3.2v-7.2h3.6V248.8L169,248.8z"/>
<path class="st2" d="M160.6,252.4h-3.8l-2.3-3.8l-2.3,3.8h-3.8v-10.8h3.6v5.4l2.5-3.8h0.1l2.5,3.8v-5.4h3.5V252.4L160.6,252.4z"/>
<path class="st2" d="M146.6,252.4H143v-7.2h-5v-3.6h8.7L146.6,252.4L146.6,252.4z"/>
<polygon class="st6" points="161.2,224.8 161.2,224.8 179,224.8 178.8,222.9 177.1,203.4 161.2,203.4 161.2,203.4 152.4,203.4 
	153.3,194.2 161.2,192 161.2,192 161.2,192 169.1,194.2 169.6,199.8 173.5,199.8 176.7,199.8 175.8,188.7 161.2,184.7 161.2,184.7 
	161.2,184.7 146.6,188.7 146.5,189.9 144.8,208.6 144.7,210.5 146.6,210.5 161.2,210.5 161.2,210.5 170.6,210.5 171.2,217.7 
	161.2,217.7 161.2,217.7 144,217.7 144,217.7 143.9,219.3 143.6,222.9 143.4,224.8 "/>
<path class="st4" d="M483.5,106.5h9c1.9,0,3.7,0,5.6,0.1c1.4,0,2.7,0.5,3.7,1.4c0.9,0.9,1.6,2,1.8,3.3c0.3,1.7,0.3,3.3,0,5
	c-0.2,1.4-1.1,2.6-2.2,3.3c-1.8,1.2-4.3,0.8-5.6-1c-0.8-1.1-1.3-2.4-1.3-3.8c0-1.1,0-2.2-0.1-3.3c0-0.3,0-0.5,0-0.8
	c0-0.9-0.8-1.6-1.7-1.6c0,0,0,0-0.1,0c-0.8,0-1.6,0-2.4,0h-11.9c-0.2,0-0.4,0-0.6,0c-0.5,0-0.9,0.4-0.9,0.9c0,0.1,0,0.2,0.1,0.3
	c0.5,2.9,1.1,5.7,1.6,8.6c0.6,3,1.1,6,1.7,8.9c0.1,0.7,0.7,1.2,1.4,1.2l0,0h20c0.8,0,1.6,0.1,2.4,0.3c1.5,0.4,2.8,1.5,3.3,3
	c0.3,0.8,0.5,1.7,0.5,2.6c0,1,0,2-0.1,3c-0.1,1.7-1,3.3-2.5,4.2c-1.5,1-3.5,0.9-4.8-0.4c-1.3-1.2-2.1-3-2.1-4.8c0-1.2,0-2.4-0.1-3.5
	c0-0.3-0.1-0.5-0.2-0.7c-0.2-0.6-0.8-0.9-1.4-0.9H492h-11.8l-7.3-0.1c-0.6,0.1-1.1-0.1-1.5-0.4c-0.3-0.2-0.4-0.5-0.5-0.9
	c-0.6-3.3-1.2-6.6-1.9-9.9c-0.7-4-1.5-8.1-2.2-12.1c0-0.3,0-0.6,0-0.8c0.1-0.7,0.7-1.3,1.5-1.3h5.6h9.1l0,0L483.5,106.5z"/>
<path class="st15" d="M231.1,460c4.7-13.8,15.6-17.5,15.6-17.5c14.6-1.1,22.7,10.9,29.6,10.6c20.5-0.9,85.6-16.6,97.4-21.5
	c2.5-1-0.5-8-4.8-8.7c-3.7-0.6-242.9-0.9-256.7-0.1c-10.7,0.6-19.9,3.8-22.2,6.4C110.5,448.7,219.8,460.3,231.1,460z"/>
<path class="st8" d="M231.1,460c0.5-1.4,1.1-2.8,1.8-4.2c-56.4-2.1-124.4-16.1-141.3-27.9c-0.6,0.3-1.1,0.8-1.5,1.3
	C110.5,448.7,219.8,460.3,231.1,460z"/>
<ellipse transform="matrix(5.235945e-003 -1 1 5.235945e-003 -159.4095 690.7804)" class="st18" cx="267.5" cy="425.5" rx="1.6" ry="2"/>
<ellipse transform="matrix(5.235945e-003 -1 1 5.235945e-003 -158.8501 698.7452)" class="st18" cx="271.8" cy="429.2" rx="1.8" ry="2"/>
<ellipse transform="matrix(5.235945e-003 -1 1 5.235945e-003 -150.6369 699.7928)" class="st18" cx="276.4" cy="425.6" rx="1.6" ry="2"/>
<ellipse transform="matrix(5.235945e-003 -1 1 5.235945e-003 -149.9967 707.6387)" class="st18" cx="280.7" cy="429.2" rx="1.8" ry="2"/>
<ellipse transform="matrix(5.235945e-003 -1 1 5.235945e-003 -141.7849 708.866)" class="st18" cx="285.4" cy="425.7" rx="1.6" ry="2"/>
<ellipse transform="matrix(5.235945e-003 -1 1 5.235945e-003 -141.0446 716.6526)" class="st18" cx="289.7" cy="429.2" rx="1.8" ry="2"/>
<ellipse transform="matrix(5.235945e-003 -1 1 5.235945e-003 -132.9315 717.7594)" class="st18" cx="294.3" cy="425.7" rx="1.6" ry="2"/>
<ellipse transform="matrix(5.235945e-003 -1 1 5.235945e-003 -132.2717 725.6253)" class="st18" cx="298.6" cy="429.3" rx="1.8" ry="2"/>
<ellipse transform="matrix(5.235945e-003 -1 1 5.235945e-003 -124.0585 726.673)" class="st18" cx="303.2" cy="425.7" rx="1.6" ry="2"/>
<ellipse transform="matrix(5.235945e-003 -1 1 5.235945e-003 -123.42 734.7382)" class="st18" cx="307.6" cy="429.4" rx="1.8" ry="2"/>
<ellipse transform="matrix(5.235945e-003 -1 1 5.235945e-003 -115.2266 735.7656)" class="st18" cx="312.2" cy="425.8" rx="1.6" ry="2"/>
<ellipse transform="matrix(5.235945e-003 -1 1 5.235945e-003 -114.5668 743.6317)" class="st18" cx="316.5" cy="429.4" rx="1.8" ry="2"/>
<ellipse transform="matrix(5.235945e-003 -1 1 5.235945e-003 -106.3748 744.8586)" class="st18" cx="321.2" cy="425.9" rx="1.6" ry="2"/>
<ellipse transform="matrix(5.235945e-003 -1 1 5.235945e-003 -105.6952 752.7447)" class="st18" cx="325.5" cy="429.5" rx="1.8" ry="2"/>
<ellipse transform="matrix(5.235945e-003 -1 1 5.235945e-003 -97.5214 753.7523)" class="st18" cx="330.1" cy="425.9" rx="1.6" ry="2"/>
<ellipse transform="matrix(5.235945e-003 -1 1 5.235945e-003 -96.8416 761.6183)" class="st18" cx="334.4" cy="429.5" rx="1.8" ry="2"/>
<ellipse transform="matrix(5.235945e-003 -1 1 5.235945e-003 -88.749 762.7648)" class="st18" cx="339" cy="426" rx="1.6" ry="2"/>
<ellipse transform="matrix(5.235945e-003 -1 1 5.235945e-003 -87.9899 770.7114)" class="st18" cx="343.4" cy="429.6" rx="1.8" ry="2"/>
<ellipse transform="matrix(5.235945e-003 -1 1 5.235945e-003 -79.7967 771.7587)" class="st18" cx="348" cy="426" rx="1.6" ry="2"/>
<ellipse transform="matrix(5.235945e-003 -1 1 5.235945e-003 -79.1168 779.6249)" class="st18" cx="352.3" cy="429.6" rx="1.8" ry="2"/>
<ellipse transform="matrix(5.235945e-003 -1 1 5.235945e-003 -71.044 780.7511)" class="st18" cx="356.9" cy="426.1" rx="1.6" ry="2"/>
<ellipse transform="matrix(5.235945e-003 -1 1 5.235945e-003 -157.7916 706.8554)" class="st18" cx="276.4" cy="432.7" rx="2" ry="2"/>
<ellipse transform="matrix(5.235945e-003 -1 1 5.235945e-003 -149.0387 715.8478)" class="st18" cx="285.3" cy="432.8" rx="2" ry="2"/>
<ellipse transform="matrix(5.235945e-003 -1 1 5.235945e-003 -140.0866 724.8618)" class="st18" cx="294.3" cy="432.8" rx="2" ry="2"/>
<ellipse transform="matrix(5.235945e-003 -1 1 5.235945e-003 -131.3338 733.8542)" class="st18" cx="303.2" cy="432.9" rx="2" ry="2"/>
<ellipse transform="matrix(5.235945e-003 -1 1 5.235945e-003 -122.3615 742.8483)" class="st18" cx="312.2" cy="432.9" rx="2" ry="2"/>
<ellipse transform="matrix(5.235945e-003 -1 1 5.235945e-003 -113.6087 751.8409)" class="st18" cx="321.1" cy="433" rx="2" ry="2"/>
<ellipse transform="matrix(5.235945e-003 -1 1 5.235945e-003 -104.6565 760.8547)" class="st18" cx="330.1" cy="433" rx="2" ry="2"/>
<ellipse transform="matrix(5.235945e-003 -1 1 5.235945e-003 -95.8838 769.8473)" class="st18" cx="339" cy="433.1" rx="2" ry="2"/>
<ellipse transform="matrix(5.235945e-003 -1 1 5.235945e-003 -156.1936 722.9502)" class="st18" cx="285.3" cy="440" rx="2" ry="2"/>
<ellipse transform="matrix(5.235945e-003 -1 1 5.235945e-003 -147.3419 732.0432)" class="st18" cx="294.3" cy="440.1" rx="2" ry="2"/>
<ellipse transform="matrix(5.235945e-003 -1 1 5.235945e-003 -138.4884 740.9366)" class="st18" cx="303.2" cy="440.1" rx="2" ry="2"/>
<ellipse transform="matrix(5.235945e-003 -1 1 5.235945e-003 -129.7158 749.9292)" class="st18" cx="312.1" cy="440.2" rx="2" ry="2"/>
<ellipse transform="matrix(5.235945e-003 -1 1 5.235945e-003 -157.1515 714.7211)" class="st18" cx="280.7" cy="436.3" rx="2" ry="2"/>
<ellipse transform="matrix(5.235945e-003 -1 1 5.235945e-003 -148.3987 723.7136)" class="st18" cx="289.6" cy="436.4" rx="2" ry="2"/>
<ellipse transform="matrix(5.235945e-003 -1 1 5.235945e-003 -139.4267 732.7277)" class="st18" cx="298.6" cy="436.4" rx="2" ry="2"/>
<ellipse transform="matrix(5.235945e-003 -1 1 5.235945e-003 -130.674 741.7201)" class="st18" cx="307.5" cy="436.5" rx="2" ry="2"/>
<ellipse transform="matrix(5.235945e-003 -1 1 5.235945e-003 -121.7218 750.7341)" class="st18" cx="316.5" cy="436.5" rx="2" ry="2"/>
<ellipse transform="matrix(5.235945e-003 -1 1 5.235945e-003 -112.9488 759.7068)" class="st18" cx="325.4" cy="436.6" rx="2" ry="2"/>
<ellipse transform="matrix(5.235945e-003 -1 1 5.235945e-003 -155.5536 730.816)" class="st18" cx="289.5" cy="443.6" rx="2" ry="2"/>
<ellipse transform="matrix(5.235945e-003 -1 1 5.235945e-003 -146.6819 739.9091)" class="st18" cx="298.6" cy="443.7" rx="2" ry="2"/>
<path class="st2" d="M471.5,311c-0.8-0.9-3.1-1.1-4.9-1c-4.8,0.1-14.2,1.8-19.3,7.7c-2.8,3.3-6.4,5.8-10.5,7.2
	c-2.2,0.8-4.6,0.9-6.8,0.3c-0.6-0.3-1.3-0.6-1.9-0.9H428l-1.2-0.5c-4.2-1.8-8.8-2.5-13.4-2c-5.8,0.8-11.3,3.1-15.9,6.9
	c-5.4,4.3-10,9.6-13.7,15.5c-4.4,6.8-7.2,13.4-8.3,18.9c-1,5.1-0.4,9.2,1.7,12c2.2,3,6,3.9,10.5,2.5l1.2-0.4
	c5.3-1.9,10.3-3.5,14.8-4.9c0.8,0,1.5,0,2.3,0.1c-1.5,1.3-2.8,2.7-4.1,4.3c-1.1,1.2-2,2.5-2.9,3.9c-1.2,1.9-1.2,2.7-1.1,3.1
	s0.5,0.7,0.9,0.8h0.2c0.7,0,2.5-0.6,10.1-6.3c1.6-1.2,3.6-2.7,5.3-4.1c1.1,0.4,2.1,1.1,2.8,2c0.5,0.8,0.5,1.9-0.1,2.7
	c-1.8,3.3-5.2,6.5-8.5,9.6c-4.7,4.4-9,8.5-9.8,13.2c-0.6,4,0,9.3,3.8,12.1c1.9,1.3,4.3,2,6.6,1.9c4.4,0,10.1-1.8,17-5.3
	c2.4-1,4.6-2.3,6.5-4c2,1.4,4.6,1.7,7.7,0.8c5.2-1.5,10.7-5.8,13.5-8.3c3.8-3.4,7-7,7.4-8.7c0.4-0.7,0.1-1.6-0.6-2
	c-0.4-0.2-0.9-0.2-1.3,0c-1.1,0.2-4.7,1.5-10.1,3.5c-2.9,1.1-5.9,2.2-7.8,2.8c0.7-3.9,7.7-9.3,8.8-9.9c0.8-0.3,1.2-1.1,1-1.9v-0.1
	c0.4,0.1,0.8,0.1,1.2,0.1c0.5,0.1,1-0.1,1.3-0.5c0.4-0.5,0.3-1.1-0.1-1.5c-2.4-2.5-5-4.9-7.7-7c2.8-4.2,4.5-8.9,5.1-13.8
	c0.5-4.5-0.1-9-1.7-13.2c-0.1-0.3-0.3-0.7-0.4-1c0.1-4,2.8-10.2,7.6-17.2c5-7.3,11.3-14,14.8-15.7c0.4-0.3,0.5-0.8,0.3-1.3
	C471.6,311.2,471.5,311.1,471.5,311z M401,361.8L401,361.8c-1.1,0.1-2-0.5-2.4-1.5c-0.3-0.9-0.7-4.2,6.8-10.6c1.2-1.2,2.8-1.9,4.6-2
	c1.3,0,2.5,0.6,3.3,1.5c1.8,2,2.5,5.5,0.5,7.7C411.6,359.3,402.8,361.8,401,361.8L401,361.8z M403.6,412c-4-3-3.3-9.1-3.1-10.3
	c0.7-4.1,4.8-8,9.2-12.2c3.4-3.2,6.9-6.5,8.9-10c0.9-1.4,0.9-3.2,0-4.6c-1.5-2.3-5.5-3.6-10-4.2c13-3.5,21.8-4.4,25.1-2.3
	c-0.3,1.6,0,3.2,0.9,4.6c-1.7,2.3-3.7,4.5-5.9,6.4c-3.2,3-6.3,6.2-9.2,9.6c-2.6,3-4.5,6.5-5.4,10.4c-0.7,2.8-0.3,5.7,1.2,8.2
	c1.1,1.8,3,3,5.1,3.3C412.7,414,407,414.4,403.6,412L403.6,412z M447.9,381.5l0.7,0.2c-5.3,1.6-10.1,4.7-13.8,8.8
	c-3.8,4.7-5.4,9.7-5.1,12.2c-4.1,2-7.4,2.1-8.6,1c-0.6-0.9-0.9-2-0.7-3.1c0.2-2.6,1.9-7.7,11-13.4c3.6-2.2,6.9-4.9,9.8-8
	c0.2,0.1,0.5,0.2,0.7,0.3C443.9,380.3,445.9,381,447.9,381.5L447.9,381.5z"/>
<g>
	<path class="st2" d="M221.1,118.6h8c0.6,0,1.2,0.5,1.2,1.2v114.4c0,0.6-0.5,1.2-1.2,1.2h-8c-0.6,0-1.2-0.5-1.2-1.2V119.7
		C219.9,119.1,220.4,118.6,221.1,118.6z"/>
	<polygon class="st2" points="230.2,156.4 219.9,156.4 214.6,132.2 235.5,132.2 	"/>
	<ellipse class="st2" cx="225.1" cy="74.3" rx="67.4" ry="67.3"/>
	<ellipse class="st21" cx="225.1" cy="74.3" rx="57.3" ry="57.2"/>
	<path class="st8" d="M199,41c14.3-9.1,25.2-1.4,39.8,1.7c15.7,3.4,24.6,15.1,23,36.1s-20.7,31-36.1,31.3c-8.7,0.2-30.3-6.7-31.9-28
		C192,60.9,183.6,50.8,199,41z"/>
	<ellipse class="st22" cx="227.8" cy="79.2" rx="16.4" ry="16.4"/>
	<path class="st23" d="M238.3,81.3c-1.2,0-2.1-1-2.1-2.1c0-4.6-3.8-8.4-8.4-8.4c-1.2,0-2.1-1-2.1-2.1s1-2.1,2.1-2.1
		c7,0,12.6,5.6,12.6,12.6C240.4,80.4,239.5,81.3,238.3,81.3L238.3,81.3z"/>
	<path class="st4" d="M216.8,159.7h16.4c0.3,0,0.6,0.3,0.6,0.6l0,0v77.4c0,0.8-0.6,1.4-1.4,1.4h-14.9c-0.8,0-1.4-0.6-1.4-1.4v-77.4
		C216.2,160,216.5,159.7,216.8,159.7L216.8,159.7L216.8,159.7z"/>
	<path class="st2" d="M216.2,222.1v12.5c0,2.5,2,4.5,4.5,4.5l0,0h8.6c2.5,0,4.5-2,4.5-4.5v-12.5H216.2z"/>
	<ellipse class="st20" cx="225" cy="230.6" rx="3.1" ry="3.1"/>
</g>
<path class="st2" d="M635.9,445.9v9.8c0,0.2-0.1,0.3-0.3,0.3l0,0h-31.4l0,0v-10.3l0,0h31.4C635.8,445.7,635.9,445.8,635.9,445.9z"/>
<path class="st2" d="M599.5,443c0,0-0.3-5.3-0.8-6.2s-58.1-4.3-86.4-0.3c-1.7,0.6,3.9,4.2,8.3,4c1.3,0.1,2.6-0.6,3.2-1.8
	c11.2-0.5,39.5-1,42.7,0.2s3.4,4.9,3.4,4.9L599.5,443z"/>
<path class="st4" d="M610.2,442.7V459c0,0.2-0.1,0.3-0.3,0.3l0,0H417.1l0,0v-16.8l0,0h192.8C610.1,442.4,610.2,442.5,610.2,442.7z"
	/>
<rect x="410.4" y="442.4" class="st2" width="6.7" height="16.8"/>
<polygon class="st2" points="394.5,451.9 394.5,449.7 410.4,442.4 410.4,459.2 "/>
</svg>
