<?xml version="1.0" encoding="utf-8"?>
<!-- Generator: Adobe Illustrator 21.1.0, SVG Export Plug-In . SVG Version: 6.00 Build 0)  -->
<svg version="1.1" id="レイヤー_1" xmlns="http://www.w3.org/2000/svg" xmlns:xlink="http://www.w3.org/1999/xlink" x="0px"
	 y="0px" viewBox="0 0 400 300" style="enable-background:new 0 0 400 300;" xml:space="preserve">
<style type="text/css">
	.st0{fill:#FFFFFF;}
	.st1{fill:#2062AF;}
	.st2{fill:#CC6699;}
	.st3{fill:#1C0A00;}
	.st4{fill:none;}
	.st5{fill:#FF7F18;}
	.st6{fill:#0C0824;}
	.st7{fill:#31C5F0;}
	.st8{fill:#E44D26;}
	.st9{fill:#87CFF3;}
	.st10{fill:#21759B;}
	.st11{opacity:0.7;}
	.st12{fill:#EA6C00;}
	.st13{fill:#005FA8;}
	.st14{opacity:0.3;fill:#FFFFFF;enable-background:new    ;}
	.st15{opacity:0.8;}
	.st16{fill:#FDB300;}
	.st17{fill:#FDAD00;}
	.st18{fill:#FDD231;}
	.st19{fill:#FEEEB7;}
	.st20{fill:#606060;}
</style>
<title>img</title>
<circle class="st0" cx="38.9" cy="150.6" r="16.4"/>
<polygon class="st1" points="65.1,38.1 53.8,41.2 42.6,38.1 40,10 67.7,10 "/>
<polygon class="st0" points="62.1,19.1 62.4,15.7 53.8,15.7 45,15.7 45.5,19.1 53.8,19.1 54.3,19.1 53.8,19.3 45.8,22.7 46,26 
	53.8,26 53.8,26 58,26 57.7,30.5 53.8,31.6 53.8,31.5 53.8,31.6 50,30.6 49.8,27.9 49.8,27.9 46.3,27.9 46.3,27.9 46.7,33.2 
	53.8,35.3 53.8,35.3 53.8,35.3 60.9,33.2 61.8,22.7 53.8,22.7 53.8,22.7 53.8,22.7 "/>
<path class="st2" d="M38.9,175.8c9.1,0,16.4,7.4,16.4,16.4s-7.4,16.4-16.4,16.4s-16.4-7.4-16.4-16.4l0,0
	C22.5,183.2,29.8,175.8,38.9,175.8L38.9,175.8z"/>
<path class="st0" d="M49.2,182.9c-0.8-2.9-5.6-3.9-10.2-2.3c-2.9,1-5.5,2.5-7.8,4.5c-2.5,2.4-2.9,4.4-2.8,5.3c0.6,3,4.7,5,6.4,6.5
	l0,0c-0.5,0.3-4.2,2.1-5,4s0.1,3.4,0.8,3.6c2.1,0.5,4.4-0.4,5.6-2.3c1-1.5,1.2-3.3,0.5-5c0.8-0.2,1.7-0.3,2.5-0.1
	c2.9,0.3,3.5,2.1,3.3,2.9c-0.1,0.5-0.4,1-0.9,1.3c-0.2,0.1-0.3,0.2-0.3,0.3s0.1,0.1,0.3,0.1c0.9-0.3,1.5-1.1,1.6-2
	c0.1-1.8-1.6-3.7-4.6-3.7c-0.9,0-1.7,0.1-2.6,0.4l-0.1-0.1c-1.8-2-5.3-3.4-5.1-6c0-1,0.4-3.5,6.6-6.6c5.1-2.5,9.1-1.8,9.8-0.3
	c1,2.2-2.2,6.3-7.4,6.9c-1.2,0.2-2.4-0.1-3.3-0.8c-0.3-0.3-0.3-0.3-0.4-0.3s-0.1,0.4,0,0.5c0.4,0.7,1.1,1.3,1.9,1.5
	c2.1,0.4,4.2,0.2,6.2-0.6C47.4,189.2,49.9,185.7,49.2,182.9z M35.6,197.7c0.2,0.8,0.2,1.7,0,2.4l-0.1,0.3l-0.1,0.2
	c-0.2,0.4-0.5,0.8-0.8,1.1c-1,1-2.3,1.4-2.9,1.1s-0.3-1.8,0.8-3c0.8-0.8,1.8-1.5,2.9-2.1l0,0H35.6z"/>
<path class="st3" d="M24,52.8h29.8v29H24V52.8z"/>
<path class="st4" d="M36.1,60.8L36.1,60.8c-0.3,1.6-1,4.3-1.6,6.4h3.2C37.3,65.7,36.4,62.4,36.1,60.8z"/>
<path class="st4" d="M24,81.8h29.8v-29H24V81.8z M46.4,73.4c0,0.1,0,0.1-0.1,0.2c0,0,0,0-0.1,0h-2.1c-0.1,0-0.2,0-0.2-0.1
	c0,0,0,0,0-0.1V62.8l0,0c0-0.1,0-0.1,0.1-0.2l0,0h2.1c0.1,0,0.1,0,0.2,0.1l0,0L46.4,73.4L46.4,73.4z M45.2,58.3
	c0.7,0,1.3,0.5,1.4,1.2v0.1c0.1,0.7-0.5,1.3-1.2,1.4c-0.1,0-0.1,0-0.2,0c-0.7,0-1.3-0.5-1.4-1.2c0-0.1,0-0.1,0-0.2
	c0-0.7,0.5-1.3,1.2-1.4C45.1,58.3,45.1,58.3,45.2,58.3z M30.5,73.4l3.8-13.5c0.1-0.4,0.1-0.7,0.1-1.1c0-0.1,0-0.1,0.1-0.1l0,0h2.8
	c0.1,0,0.1,0,0.2,0.1l0,0l4.3,14.6c0,0.1,0,0.2-0.1,0.2h-2.3c-0.1,0-0.2,0-0.2-0.1l-1.1-4.1h-4.3l-1.1,4.1c0,0.1-0.1,0.2-0.2,0.1
	l0,0h-2C30.5,73.6,30.5,73.6,30.5,73.4z"/>
<path class="st5" d="M46.2,62.6h-2.1c-0.1,0-0.1,0-0.2,0.1l0,0l0,0v10.7c0,0.1,0,0.2,0.1,0.2c0,0,0,0,0.1,0h2.1c0.1,0,0.1,0,0.2-0.1
	c0,0,0,0,0-0.1V62.8C46.4,62.7,46.3,62.6,46.2,62.6L46.2,62.6z"/>
<path class="st5" d="M45.1,61.1c0.7,0.1,1.3-0.5,1.4-1.2c0-0.1,0-0.1,0-0.2c0-0.8-0.6-1.4-1.4-1.4c-0.8,0-1.4,0.6-1.4,1.4
	c-0.1,0.7,0.5,1.3,1.2,1.4C45,61.1,45.1,61.1,45.1,61.1z"/>
<path class="st5" d="M30.7,73.6h2c0.1,0,0.2,0,0.2-0.1l0,0l1.1-4.1h4.3l1.1,4.1c0,0.1,0.1,0.1,0.2,0.1h2.3c0.1,0,0.1-0.1,0.1-0.2
	l-4.3-14.6c0-0.1-0.1-0.1-0.1-0.1l0,0h-2.8c-0.1,0-0.1,0-0.1,0.1l0,0c0,0.4,0,0.8-0.1,1.1l-3.8,13.5C30.5,73.6,30.5,73.6,30.7,73.6z
	 M36.1,60.8L36.1,60.8c0.3,1.6,1.2,4.9,1.6,6.4h-3.2C35,65.1,35.8,62.4,36.1,60.8L36.1,60.8z"/>
<path class="st6" d="M24,94.5h29.8v29H24V94.5z"/>
<path class="st4" d="M24,123.4h29.8v-29H24V123.4z M40.8,112.7c0-0.1,0.1-0.2,0.2-0.1c0.8,0.5,1.8,0.8,2.7,0.8
	c1.1,0,1.5-0.4,1.5-1.1s-0.3-0.9-1.7-1.6c-1.9-0.9-2.7-1.8-2.7-3.4c0-1.8,1.4-3.2,3.7-3.2c0.8,0,1.6,0.1,2.4,0.4
	c0.1,0.1,0.1,0.2,0.1,0.3v1.8c0,0.1,0,0.1-0.1,0.2h-0.1c-0.7-0.4-1.5-0.6-2.4-0.6c-1.1,0-1.4,0.5-1.4,1s0.2,0.8,1.7,1.6
	c2.1,1,2.8,2,2.8,3.5c0,2.2-1.7,3.3-3.9,3.3c-1,0-1.9-0.2-2.8-0.6c-0.1,0-0.1-0.1-0.1-0.2L40.8,112.7L40.8,112.7z M30.5,100.5
	L30.5,100.5c0.1-0.1,0.2-0.2,0.3-0.2c0.9,0,2.2-0.1,3.5-0.1c3.8,0,5.2,2.1,5.2,4.7c0,3.4-2.5,4.9-5.5,4.9c-0.5,0-0.7,0-1.1,0v5.2
	c0,0.1,0,0.1-0.1,0.2l0,0h-2.1c-0.1,0-0.1,0-0.2-0.1l0,0L30.5,100.5L30.5,100.5z"/>
<path class="st7" d="M40.9,114.9c0.9,0.4,1.8,0.6,2.8,0.6c2.2,0,3.9-1.2,3.9-3.3c0-1.4-0.7-2.4-2.8-3.5c-1.4-0.7-1.7-1.1-1.7-1.6
	s0.4-1,1.4-1c0.8,0,1.6,0.2,2.4,0.6c0.1,0,0.2,0,0.2-0.1c0,0,0,0,0-0.1v-1.8c0-0.1,0-0.2-0.1-0.3c-0.8-0.3-1.6-0.4-2.4-0.4
	c-2.4,0-3.7,1.4-3.7,3.2c0,1.6,0.8,2.5,2.7,3.4c1.4,0.7,1.7,1.1,1.7,1.6s-0.5,1.1-1.5,1.1s-1.9-0.3-2.7-0.8c-0.1-0.1-0.2,0-0.2,0.1
	v2C40.8,114.7,40.8,114.8,40.9,114.9z"/>
<path class="st7" d="M30.7,115.2h2.1c0.1,0,0.1,0,0.2-0.1l0,0v-5.2c0.4,0,0.5,0,1.1,0c3.1,0,5.5-1.5,5.5-4.9c0-2.6-1.5-4.7-5.2-4.7
	c-1.3,0-2.6,0-3.5,0.1c-0.1,0-0.2,0.1-0.3,0.2l0,0v14.5C30.5,115.1,30.5,115.2,30.7,115.2C30.6,115.2,30.6,115.2,30.7,115.2z
	 M32.9,102.5c0.2,0,0.8,0,1.3,0c1.8,0,2.9,0.9,2.9,2.6c0,2.2-1.5,2.7-3.1,2.7c-0.5,0-0.8,0-1.1,0L32.9,102.5L32.9,102.5z"/>
<polygon class="st8" points="12.5,38.2 10,10 37.6,10 35.1,38.2 23.8,41.3 "/>
<polygon class="st0" points="23.8,15.8 23.8,15.8 15.1,15.8 15.2,16.7 16.1,26.2 23.8,26.2 23.8,26.2 28,26.2 27.6,30.7 23.8,31.8 
	23.8,31.8 23.8,31.8 19.9,30.7 19.7,28 17.8,28 16.2,28 16.7,33.4 23.8,35.3 23.8,35.3 23.8,35.3 30.9,33.4 30.9,32.8 31.8,23.7 
	31.8,22.8 30.9,22.8 23.8,22.8 23.8,22.8 19.2,22.8 18.9,19.2 23.8,19.2 23.8,19.2 32.1,19.2 32.2,19.2 32.2,18.5 32.4,16.7 
	32.5,15.8 "/>
<g>
	<path class="st9" d="M25.8,226.2c-2.7,3.8-2.3,8.8-0.3,12.9c0,0.1,0.1,0.2,0.1,0.3l0.1,0.2l0.1,0.1l0.1,0.2l0.2,0.3l0.1,0.2
		l0.2,0.4l0.1,0.1c0.1,0.2,0.2,0.3,0.3,0.5l0,0h0.1l0.3,0.4l0.1,0.1l0.3,0.3l0.1,0.1l0.4,0.4l0,0l0,0l0.4,0.4l0.2,0.1l0.3,0.3
		l0.1,0.2l0.4,0.4l0,0l0.1,0.1l0.4,0.3l0.2,0.1l0.3,0.3l0.2,0.1l0.3,0.4l0.1,0.1l0,0l0.4,0.2l0.1,0.1l0.6,0.3l0.2,0.1l0.4,0.2
		l0.3,0.2l0.3,0.1h0.1l0.1,0.1l0.5,0.2H34l0.5,0.3h0.1l0.5,0.2h0.1l0.6,0.2H36c0.2,0.1,0.4,0.1,0.6,0.2c12.9,2.4,16.6-7.7,16.6-7.7
		c-3.1,4.1-8.7,5.2-14,4c-0.2,0-0.4-0.1-0.6-0.2h-0.1l-0.6-0.2h-0.1l-0.5-0.2h-0.1l-0.5-0.2h-0.1l-0.5-0.2l-0.1-0.1l-0.3-0.2
		l-0.2-0.1l-0.4-0.2l-0.1-0.2l-0.5-0.3l-0.2-0.1l-0.4-0.3l-0.1-0.1l-0.4-0.2l-0.2-0.1l-0.3-0.3l-0.2-0.1l-0.4-0.4l0,0l-0.4-0.4
		l-0.1-0.1l-0.3-0.3l-0.1-0.1l-0.4-0.4l0,0l-0.4-0.5l-0.1-0.1l-0.3-0.4l-0.1-0.1l-0.3-0.4c-2.9-4-4-9.5-1.6-14"/>
	<path class="st9" d="M34,223c-1.8,2.8-1.9,6.5-0.3,9.4c0.2,0.5,0.5,1,0.8,1.4c0.3,0.5,0.6,0.9,1,1.2c0.1,0.1,0.3,0.3,0.4,0.5
		l0.1,0.1l0.4,0.4l0,0l0,0l0.5,0.4l0.1,0.1l0.5,0.4l0,0l0.3,0.2l0.1,0.1l0.4,0.3h0.1l0.3,0.2l0.1,0.1l0.3,0.1l0,0l0.5,0.2h0.1
		l0.5,0.3h0.2l0.4,0.2l0.2,0.1c0.2,0.1,0.4,0.1,0.6,0.2c9.9,1.6,12.2-6,12.2-6c-2.1,3-6.1,4.4-10.3,3.3l-0.6-0.2h-0.2l-0.4-0.1
		l-0.2-0.1l-0.4-0.2h-0.1l-0.5-0.2l-0.2-0.2l-0.2-0.1l-0.3-0.2h-0.1l-0.4-0.3l-0.2-0.2l-0.3-0.2l-0.5-0.4l-0.1-0.1
		c-1.9-1.5-3.3-3.5-4.1-5.8c-0.8-2.4-0.5-5,0.7-7.2"/>
	<path class="st9" d="M41,220.6c-1.1,1.7-1.3,3.8-0.5,5.6c0.9,1.9,2.5,3.5,4.5,4.2l0.2,0.1h0.1c0.1,0,0.2,0.1,0.3,0.1
		c5.5,1.1,7-2.8,7.4-3.4c-1.3,1.9-3.5,2.3-6.2,1.7c-0.2-0.1-0.4-0.1-0.7-0.2s-0.5-0.2-0.8-0.3c-0.5-0.2-0.9-0.5-1.3-0.8
		c-2.4-1.8-3.9-5.3-2.3-8.1"/>
</g>
<path class="st10" d="M38.9,135c-8.6,0-15.6,7-15.6,15.6s7,15.6,15.6,15.6s15.6-7,15.6-15.6S47.5,135,38.9,135z M24.9,150.6
	c0-2,0.4-3.9,1.2-5.7l6.7,18.3C27.9,160.9,24.9,156,24.9,150.6L24.9,150.6z M38.9,164.6c-1.4,0-2.7-0.2-4-0.6l4.2-12.2l4.3,11.8
	c0,0.1,0.1,0.1,0.1,0.2C42,164.3,40.5,164.6,38.9,164.6L38.9,164.6z M40.8,144c0.8,0,1.6-0.1,1.6-0.1c0.3,0,0.6-0.3,0.5-0.6
	c0-0.3-0.3-0.6-0.6-0.5c0,0-2.3,0.2-3.7,0.2s-3.7-0.2-3.7-0.2c-0.3,0-0.6,0.2-0.6,0.5s0.2,0.6,0.5,0.6c0,0,0.7,0.1,1.5,0.1l2.2,6
	l-3.1,9.2L30.3,144c0.8,0,1.6-0.1,1.6-0.1c0.3,0,0.6-0.3,0.5-0.6s-0.3-0.6-0.6-0.5c0,0-2.3,0.2-3.7,0.2h-0.9
	c4.2-6.5,12.9-8.3,19.4-4c0.6,0.4,1.2,0.9,1.8,1.4h-0.2c-1.3,0-2.4,1.2-2.3,2.5c0.2,1.2,0.6,2.3,1.4,3.3c0.7,1.2,1.1,2.5,1.2,3.9
	c-0.1,1.6-0.5,3.1-1.1,4.5l-1.4,4.7L40.8,144z M51.2,143.9c3.7,6.7,1.3,15-5.3,18.9l4.3-12.4c0.7-1.6,1-3.3,1.1-5
	C51.3,144.8,51.3,144.3,51.2,143.9L51.2,143.9z"/>
<rect x="80" y="10.7" class="st8" width="320" height="30"/>
<g class="st11">
	<path class="st0" d="M398,12.7v26H82v-26L398,12.7 M400,10.7H80v30h320V10.7L400,10.7z"/>
</g>
<g>
	<rect x="80" y="52.3" class="st5" width="320" height="30"/>
	<g class="st11">
		<path class="st0" d="M398,54.3v26H82v-26L398,54.3 M400,52.3H80v30h320V52.3L400,52.3z"/>
	</g>
</g>
<g>
	<rect x="80" y="94" class="st7" width="256" height="30"/>
	<g class="st11">
		<path class="st0" d="M334,96v26H82V96H334 M336,94H80v30h256V94L336,94z"/>
	</g>
</g>
<g>
	<rect x="80" y="135.6" class="st10" width="192" height="30"/>
	<g class="st11">
		<path class="st0" d="M270,137.6v26H82v-26H270 M272,135.6H80v30h192V135.6L272,135.6z"/>
	</g>
</g>
<g>
	<rect x="80" y="177.2" class="st2" width="192" height="30"/>
	<g class="st11">
		<path class="st0" d="M270,179.2v26H82v-26H270 M272,177.2H80v30h192V177.2L272,177.2z"/>
	</g>
</g>
<rect x="80" y="260.5" class="st12" width="128" height="30"/>
<g class="st11">
	<path class="st0" d="M206,262.5v26H82v-26H206 M208,260.5H80v30h128V260.5L208,260.5z"/>
</g>
<g>
	<rect x="80" y="218.9" class="st13" width="192" height="30"/>
	<g class="st11">
		<path class="st0" d="M270,220.9v26H82v-26H270 M272,218.9H80v30h192V218.9L272,218.9z"/>
	</g>
</g>
<rect x="80" y="0.3" class="st14" width="2" height="400"/>
<g class="st15">
	<path class="st0" d="M103.3,33.7h-3.5v-5.5h-5v5.5h-3.5V20.4h3.5v5.1h5v-5.1h3.5V33.7z"/>
	<path class="st0" d="M114,23.3h-2.9v10.4h-3.5V23.3h-2.8v-2.9h9.2V23.3z"/>
	<path class="st0" d="M131.7,33.7h-3.5l-1-7.7l-3.2,7.7h-1.4l-3.1-7.7l-1.1,7.7H115l2.3-13.3h3.4l2.7,7.1l2.9-7.1h3.5L131.7,33.7z"
		/>
	<path class="st0" d="M141.5,33.7h-7.6V20.4h3.5v10.4h4.2V33.7z"/>
	<path class="st0" d="M149.1,24.6l-0.4,1.6h-2.5l-0.4,1.3c1,0,1.7,0.3,2.3,0.8s0.8,1.2,0.8,2.1c0,1.1-0.4,2-1.2,2.7
		c-0.7,0.6-1.6,0.9-2.7,0.9c-0.5,0-1-0.1-1.7-0.3v-2c0.5,0.2,0.9,0.3,1.5,0.3c1.3,0,2-0.5,2-1.5c0-0.9-0.7-1.3-2.2-1.5
		c-0.2,0-0.4,0-0.6,0c-0.3,0-0.5,0-0.6,0l1.2-4.5H149.1z"/>
	<path class="st0" d="M167.6,31.5l-1.2,2.5c-0.7-0.4-1.3-0.9-1.8-1.3c-1,0.9-2.2,1.3-3.6,1.3c-1.2,0-2.2-0.3-3-0.9
		c-0.9-0.6-1.3-1.5-1.3-2.7c0-1.4,0.9-2.5,2.6-3.4c-0.5-0.6-0.8-1-0.9-1.2c-0.2-0.4-0.4-0.9-0.4-1.5c0-0.8,0.4-1.5,1.1-2
		c0.7-0.5,1.5-0.8,2.5-0.8c1,0,1.9,0.2,2.6,0.7c0.7,0.5,1.1,1.2,1.1,2.1c0,1.1-0.8,2.1-2.4,3l1.5,1.5c0.2-0.4,0.4-0.9,0.5-1.2
		l2.3,0.8c-0.2,0.8-0.5,1.6-1,2.2C166.6,30.9,167.1,31.2,167.6,31.5z M163,30.9l-2.3-2.3c-0.7,0.4-1,1-1,1.8c0,0.3,0.1,0.6,0.4,0.9
		s0.6,0.4,0.9,0.4C161.8,31.7,162.4,31.4,163,30.9z M162.8,24.5c0-0.3-0.1-0.5-0.3-0.7s-0.5-0.3-0.7-0.3c-0.2,0-0.5,0.1-0.7,0.2
		c-0.2,0.2-0.4,0.4-0.4,0.7c0,0.3,0.1,0.6,0.3,0.9l0.6,0.6l0.6-0.4C162.6,25.3,162.8,25,162.8,24.5z"/>
	<path class="st0" d="M185,33.4c-1.1,0.4-2.2,0.7-3.1,0.7c-1.7,0-3.2-0.5-4.5-1.6c-1.7-1.4-2.5-3.2-2.5-5.4c0-2.2,0.8-4,2.5-5.4
		c1.3-1.1,2.8-1.6,4.5-1.6c0.9,0,2,0.2,3.1,0.7v4.2c-0.3-0.4-0.7-0.7-1-0.9c-0.6-0.4-1.3-0.6-2-0.6c-0.9,0-1.7,0.3-2.3,0.8
		c-0.8,0.7-1.3,1.6-1.3,2.8c0,1.2,0.4,2.1,1.3,2.8c0.7,0.5,1.4,0.8,2.3,0.8c0.7,0,1.4-0.2,2-0.6c0.3-0.2,0.7-0.5,1-0.9V33.4z"/>
	<path class="st0" d="M196.5,29.3c0,2.3-1,3.7-3,4.4c-0.7,0.2-1.4,0.4-2.2,0.4c-1.7,0-3.2-0.5-4.6-1.5l1.5-2.8
		c1,0.9,2.1,1.4,3.1,1.4c0.5,0,0.8-0.1,1.1-0.3c0.4-0.2,0.5-0.6,0.5-1c0-0.4-0.2-0.7-0.6-1c-0.3-0.2-0.8-0.4-1.5-0.6
		c-0.9-0.3-1.4-0.4-1.6-0.5c-0.4-0.1-0.7-0.3-0.9-0.5c-0.7-0.6-1.1-1.5-1.1-2.7c0-1.2,0.4-2.3,1.1-3.1c0.9-1,2-1.4,3.4-1.4
		c1.4,0,2.8,0.4,4.2,1.1l-1.4,2.7c-0.8-0.6-1.5-0.9-2.3-0.9c-0.4,0-0.7,0.1-1,0.3c-0.3,0.2-0.5,0.5-0.5,0.9c0,0.4,0.2,0.7,0.7,0.9
		c0.2,0.1,0.8,0.3,1.8,0.6c1.2,0.4,2.1,0.9,2.6,1.5C196.3,27.7,196.5,28.4,196.5,29.3z"/>
	<path class="st0" d="M207.9,29.3c0,2.3-1,3.7-3,4.4c-0.7,0.2-1.4,0.4-2.2,0.4c-1.7,0-3.2-0.5-4.6-1.5l1.5-2.8
		c1,0.9,2.1,1.4,3.1,1.4c0.5,0,0.8-0.1,1.1-0.3c0.4-0.2,0.5-0.6,0.5-1c0-0.4-0.2-0.7-0.6-1c-0.3-0.2-0.8-0.4-1.5-0.6
		c-0.9-0.3-1.4-0.4-1.6-0.5c-0.4-0.1-0.7-0.3-0.9-0.5c-0.7-0.6-1.1-1.5-1.1-2.7c0-1.2,0.4-2.3,1.1-3.1c0.9-1,2-1.4,3.4-1.4
		c1.4,0,2.8,0.4,4.2,1.1l-1.4,2.7c-0.8-0.6-1.5-0.9-2.3-0.9c-0.4,0-0.7,0.1-1,0.3c-0.3,0.2-0.5,0.5-0.5,0.9c0,0.4,0.2,0.7,0.7,0.9
		c0.2,0.1,0.8,0.3,1.8,0.6c1.2,0.4,2.1,0.9,2.6,1.5C207.7,27.7,207.9,28.4,207.9,29.3z"/>
	<path class="st0" d="M216.1,30.8c0,0.9-0.4,1.7-1.1,2.2c-0.7,0.6-1.6,0.8-2.6,0.8c-0.9,0-1.8-0.2-2.5-0.6l0.6-1.9
		c0.9,0.3,1.5,0.4,2,0.4c0.4,0,0.8-0.1,1-0.3c0.3-0.2,0.5-0.5,0.5-0.8c0-0.4-0.2-0.7-0.5-0.9c-0.3-0.2-0.7-0.3-1.1-0.3
		c-0.3,0-0.4,0-0.6,0v-1.4c1.2,0,1.8-0.4,1.8-1.1c0-0.3-0.2-0.5-0.5-0.7c-0.3-0.2-0.6-0.2-0.9-0.2c-0.5,0-1.1,0.1-1.6,0.4v-2
		c0.6-0.3,1.3-0.4,2-0.4c0.8,0,1.5,0.2,2.1,0.6c0.7,0.4,1,1.1,1,1.9c0,0.8-0.3,1.4-1,1.8c0.4,0.2,0.8,0.5,1,0.9
		S216.1,30.3,216.1,30.8z"/>
</g>
<g class="st15">
	<path class="st0" d="M94.9,75.3h-3.5V62h3.5V75.3z"/>
	<path class="st0" d="M100.6,75.3h-3.2V60.7h3.2V75.3z"/>
	<path class="st0" d="M106,75.3h-3.2V60.7h3.2V75.3z"/>
	<path class="st0" d="M117.8,72c0,1.7-0.8,2.8-2.4,3.4c-0.7,0.2-1.5,0.3-2.4,0.3c-1.9,0-3.2-0.5-4.1-1.4c-0.5-0.6-0.8-1.4-0.8-2.3
		v-5.8h3.2v5.1c0,0.6,0.1,1,0.4,1.2c0.3,0.3,0.7,0.4,1.2,0.4c0.5,0,0.9-0.1,1.2-0.4c0.3-0.3,0.4-0.7,0.4-1.2v-5.1h3.2V72z"/>
	<path class="st0" d="M127.4,72.3c0,1-0.3,1.8-1,2.4c-0.8,0.7-1.9,1-3.3,1c-1.2,0-2.5-0.3-3.6-1l1.2-2.3c0.9,0.6,1.8,0.9,2.6,0.9
		c0.7,0,1-0.2,1-0.7c0-0.2-0.1-0.4-0.4-0.6c-0.1-0.1-0.5-0.2-1-0.3c-0.6-0.1-1-0.2-1.2-0.3c-0.6-0.3-1.1-0.6-1.3-1.2
		c-0.1-0.3-0.2-0.6-0.2-1.1c0-0.8,0.3-1.5,0.8-2.1c0.7-0.8,1.8-1.1,3.2-1.1c1,0,2,0.2,2.9,0.6l-1.1,2.1c-0.6-0.3-1.2-0.5-1.7-0.5
		c-0.6,0-1,0.2-1,0.7c0,0.2,0.1,0.4,0.4,0.5c0.1,0.1,0.5,0.1,1,0.3c0.8,0.2,1.5,0.5,1.9,0.8C127.1,70.9,127.4,71.5,127.4,72.3z"/>
	<path class="st0" d="M134.4,68.9h-1.8v6.4h-3.2v-6.4h-1.1v-2.6h1.1v-2.7h3.2v2.7h1.8V68.9z"/>
	<path class="st0" d="M142.4,69.2c-0.4-0.2-0.9-0.3-1.4-0.3c-1.1,0-1.7,0.4-2,1.3c-0.1,0.3-0.2,0.7-0.2,1.3v3.9h-3.2v-9.1h3.2v1.5
		c0.3-0.5,0.7-0.9,1.1-1.1c0.5-0.3,1.1-0.5,1.9-0.5c0.2,0,0.4,0,0.6,0V69.2z"/>
	<path class="st0" d="M154,75.3h-3.2v-1c-0.3,0.4-0.6,0.7-0.9,0.8c-0.5,0.3-1.2,0.5-1.9,0.5c-1.1,0-2.1-0.4-3-1.2
		c-1-0.9-1.6-2.1-1.6-3.7c0-1.5,0.5-2.8,1.6-3.7c0.9-0.7,1.8-1.1,2.9-1.1c0.6,0,1.2,0.1,1.8,0.4c0.3,0.2,0.7,0.4,1,0.8v-0.9h3.2
		V75.3z M150.9,70.8c0-0.6-0.2-1.1-0.6-1.5c-0.4-0.4-0.9-0.6-1.5-0.6c-0.6,0-1.2,0.2-1.6,0.7c-0.3,0.4-0.5,0.8-0.5,1.3
		s0.2,0.9,0.5,1.3c0.4,0.5,0.9,0.7,1.6,0.7c0.6,0,1.1-0.2,1.5-0.6S150.9,71.4,150.9,70.8z"/>
	<path class="st0" d="M161.6,68.9h-1.8v6.4h-3.2v-6.4h-1.1v-2.6h1.1v-2.7h3.2v2.7h1.8V68.9z"/>
	<path class="st0" d="M173.3,70.8c0,1.3-0.4,2.3-1.2,3.2c-1,1.1-2.4,1.6-4.2,1.6c-1.8,0-3.2-0.5-4.2-1.6c-0.8-0.9-1.2-2-1.2-3.3
		c0-1.2,0.4-2.2,1.2-3.1c1-1.1,2.4-1.7,4.3-1.7c1.7,0,3.1,0.5,4.1,1.7C172.9,68.5,173.3,69.6,173.3,70.8z M170,70.8
		c0-0.6-0.2-1.1-0.6-1.5c-0.4-0.4-0.9-0.6-1.5-0.6c-0.7,0-1.2,0.2-1.6,0.7c-0.3,0.4-0.5,0.9-0.5,1.4c0,0.5,0.2,1,0.5,1.4
		c0.4,0.5,1,0.7,1.6,0.7c0.6,0,1.1-0.2,1.5-0.6C169.8,71.9,170,71.4,170,70.8z"/>
	<path class="st0" d="M182,69.2c-0.4-0.2-0.9-0.3-1.4-0.3c-1.1,0-1.7,0.4-2,1.3c-0.1,0.3-0.2,0.7-0.2,1.3v3.9h-3.2v-9.1h3.2v1.5
		c0.3-0.5,0.7-0.9,1.1-1.1c0.5-0.3,1.1-0.5,1.9-0.5c0.2,0,0.4,0,0.6,0V69.2z"/>
</g>
<g class="st15">
	<path class="st0" d="M101.5,108c0,1.2-0.3,2.2-0.8,3c-0.7,1-2,1.5-3.7,1.5h-2.2v4.4h-3.5v-13.3h5.5c1.6,0,2.8,0.5,3.6,1.4
		C101.2,105.8,101.5,106.8,101.5,108z M97.9,108.1c0-0.5-0.1-0.9-0.4-1.2c-0.3-0.3-0.8-0.4-1.5-0.4h-1.2v3.3H96
		c0.8,0,1.3-0.2,1.5-0.5C97.8,109,97.9,108.6,97.9,108.1z"/>
	<path class="st0" d="M112.6,117h-3.2v-4.6c0-0.8-0.1-1.3-0.3-1.6c-0.3-0.4-0.7-0.6-1.2-0.6c-0.5,0-0.9,0.2-1.2,0.5
		c-0.3,0.3-0.4,0.8-0.4,1.4v4.9h-3.2v-14.7h3.2v6.7c0.4-0.4,0.7-0.7,1-0.9c0.5-0.3,1.1-0.4,1.9-0.4c1,0,1.8,0.3,2.4,0.8
		c0.7,0.6,1,1.5,1,2.7V117z"/>
	<path class="st0" d="M125.4,112.4c0,1.3-0.4,2.3-1.2,3.2c-1,1.1-2.4,1.6-4.2,1.6c-1.8,0-3.2-0.5-4.2-1.6c-0.8-0.9-1.2-2-1.2-3.3
		c0-1.2,0.4-2.2,1.2-3.1c1-1.1,2.4-1.7,4.3-1.7c1.7,0,3.1,0.5,4.1,1.7C125,110.1,125.4,111.2,125.4,112.4z M122,112.4
		c0-0.6-0.2-1.1-0.6-1.5c-0.4-0.4-0.9-0.6-1.5-0.6c-0.7,0-1.2,0.2-1.6,0.7c-0.3,0.4-0.5,0.9-0.5,1.4c0,0.5,0.2,1,0.5,1.4
		c0.4,0.5,1,0.7,1.6,0.7c0.6,0,1.1-0.2,1.5-0.6C121.8,113.5,122,113,122,112.4z"/>
	<path class="st0" d="M132.6,110.5h-1.8v6.4h-3.2v-6.4h-1.1v-2.6h1.1v-2.7h3.2v2.7h1.8V110.5z"/>
	<path class="st0" d="M144.3,112.4c0,1.3-0.4,2.3-1.2,3.2c-1,1.1-2.4,1.6-4.2,1.6c-1.8,0-3.2-0.5-4.2-1.6c-0.8-0.9-1.2-2-1.2-3.3
		c0-1.2,0.4-2.2,1.2-3.1c1-1.1,2.4-1.7,4.3-1.7c1.7,0,3.1,0.5,4.1,1.7C143.9,110.1,144.3,111.2,144.3,112.4z M141,112.4
		c0-0.6-0.2-1.1-0.6-1.5c-0.4-0.4-0.9-0.6-1.5-0.6c-0.7,0-1.2,0.2-1.6,0.7c-0.3,0.4-0.5,0.9-0.5,1.4c0,0.5,0.2,1,0.5,1.4
		c0.4,0.5,1,0.7,1.6,0.7c0.6,0,1.1-0.2,1.5-0.6C140.8,113.5,141,113,141,112.4z"/>
	<path class="st0" d="M153.5,113.9c0,1-0.3,1.8-1,2.4c-0.8,0.7-1.9,1-3.3,1c-1.2,0-2.5-0.3-3.6-1l1.2-2.3c0.9,0.6,1.8,0.9,2.6,0.9
		c0.7,0,1-0.2,1-0.7c0-0.2-0.1-0.4-0.4-0.6c-0.1-0.1-0.5-0.2-1-0.3c-0.6-0.1-1-0.2-1.2-0.3c-0.6-0.3-1.1-0.6-1.3-1.2
		c-0.1-0.3-0.2-0.6-0.2-1.1c0-0.8,0.3-1.5,0.8-2.1c0.7-0.8,1.8-1.1,3.2-1.1c1,0,2,0.2,2.9,0.6l-1.1,2.1c-0.6-0.3-1.2-0.5-1.7-0.5
		c-0.6,0-1,0.2-1,0.7c0,0.2,0.1,0.4,0.4,0.5c0.1,0.1,0.5,0.1,1,0.3c0.8,0.2,1.5,0.5,1.9,0.8C153.3,112.5,153.5,113.1,153.5,113.9z"
		/>
	<path class="st0" d="M164.7,117h-3.2v-4.6c0-0.8-0.1-1.3-0.3-1.6c-0.3-0.4-0.7-0.6-1.2-0.6c-0.5,0-0.9,0.2-1.2,0.5
		c-0.3,0.3-0.4,0.8-0.4,1.4v4.9h-3.2v-14.7h3.2v6.7c0.4-0.4,0.7-0.7,1-0.9c0.5-0.3,1.1-0.4,1.9-0.4c1,0,1.8,0.3,2.4,0.8
		c0.7,0.6,1,1.5,1,2.7V117z"/>
	<path class="st0" d="M177.5,112.4c0,1.3-0.4,2.3-1.2,3.2c-1,1.1-2.4,1.6-4.2,1.6c-1.8,0-3.2-0.5-4.2-1.6c-0.8-0.9-1.2-2-1.2-3.3
		c0-1.2,0.4-2.2,1.2-3.1c1-1.1,2.4-1.7,4.3-1.7c1.7,0,3.1,0.5,4.1,1.7C177,110.1,177.5,111.2,177.5,112.4z M174.1,112.4
		c0-0.6-0.2-1.1-0.6-1.5c-0.4-0.4-0.9-0.6-1.5-0.6c-0.7,0-1.2,0.2-1.6,0.7c-0.3,0.4-0.5,0.9-0.5,1.4c0,0.5,0.2,1,0.5,1.4
		c0.4,0.5,1,0.7,1.6,0.7c0.6,0,1.1-0.2,1.5-0.6C173.9,113.5,174.1,113,174.1,112.4z"/>
	<path class="st0" d="M189.9,112.4c0,1.5-0.5,2.8-1.6,3.7c-0.9,0.7-1.8,1.1-2.9,1.1c-0.6,0-1.2-0.1-1.8-0.4c-0.3-0.2-0.7-0.4-1-0.8
		v5.4h-3.2v-13.6h3.2v1c0.3-0.4,0.6-0.7,0.9-0.8c0.5-0.3,1.2-0.5,1.9-0.5c1.1,0,2.1,0.4,3,1.2C189.3,109.7,189.9,110.9,189.9,112.4z
		 M186.5,112.4c0-0.5-0.2-1-0.5-1.3c-0.4-0.5-0.9-0.7-1.6-0.7c-0.6,0-1.1,0.2-1.5,0.6c-0.4,0.4-0.6,0.9-0.6,1.5
		c0,0.6,0.2,1.1,0.6,1.5s0.9,0.6,1.5,0.6c0.6,0,1.2-0.2,1.6-0.7C186.4,113.4,186.5,112.9,186.5,112.4z"/>
</g>
<g class="st15">
	<path class="st0" d="M110.3,145.3l-4.3,13.3h-3.5l-2.4-7.7l-2.5,7.7H94l-4-13.3h3.6l2.3,8.6l2.8-8.6h2.8l2.6,8.6l2.5-8.6H110.3z"/>
	<path class="st0" d="M121.9,154.1c0,1.3-0.4,2.3-1.2,3.2c-1,1.1-2.4,1.6-4.2,1.6c-1.8,0-3.2-0.5-4.2-1.6c-0.8-0.9-1.2-2-1.2-3.3
		c0-1.2,0.4-2.2,1.2-3.1c1-1.1,2.4-1.7,4.3-1.7c1.7,0,3.1,0.5,4.1,1.7C121.5,151.8,121.9,152.8,121.9,154.1z M118.6,154.1
		c0-0.6-0.2-1.1-0.6-1.5c-0.4-0.4-0.9-0.6-1.5-0.6c-0.7,0-1.2,0.2-1.6,0.7c-0.3,0.4-0.5,0.9-0.5,1.4c0,0.5,0.2,1,0.5,1.4
		c0.4,0.5,1,0.7,1.6,0.7c0.6,0,1.1-0.2,1.5-0.6C118.4,155.2,118.6,154.7,118.6,154.1z"/>
	<path class="st0" d="M130.5,152.5c-0.4-0.2-0.9-0.3-1.4-0.3c-1.1,0-1.7,0.4-2,1.3c-0.1,0.3-0.2,0.7-0.2,1.3v3.9h-3.2v-9.1h3.2v1.5
		c0.3-0.5,0.7-0.9,1.1-1.1c0.5-0.3,1.1-0.5,1.9-0.5c0.2,0,0.4,0,0.6,0V152.5z"/>
	<path class="st0" d="M142.2,158.6H139v-1c-0.3,0.4-0.6,0.7-0.9,0.8c-0.5,0.3-1.2,0.5-1.9,0.5c-1.1,0-2.1-0.4-3-1.2
		c-1-0.9-1.6-2.1-1.6-3.7c0-1.5,0.5-2.8,1.6-3.7c0.9-0.7,1.8-1.1,2.9-1.1c0.6,0,1.2,0.1,1.8,0.4c0.3,0.2,0.7,0.4,1,0.8v-6.5h3.2
		V158.6z M139.1,154.1c0-0.6-0.2-1.1-0.6-1.5c-0.4-0.4-0.9-0.6-1.5-0.6c-0.6,0-1.2,0.2-1.6,0.7c-0.3,0.4-0.5,0.8-0.5,1.3
		s0.2,0.9,0.5,1.3c0.4,0.5,0.9,0.7,1.6,0.7c0.6,0,1.1-0.2,1.5-0.6C138.9,155.1,139.1,154.7,139.1,154.1z"/>
	<path class="st0" d="M154.9,154.1c0,1.5-0.5,2.8-1.6,3.7c-0.9,0.7-1.8,1.1-2.9,1.1c-0.6,0-1.2-0.1-1.8-0.4c-0.3-0.2-0.7-0.4-1-0.8
		v5.4h-3.2v-13.6h3.2v1c0.3-0.4,0.6-0.7,0.9-0.8c0.5-0.3,1.2-0.5,1.9-0.5c1.1,0,2.1,0.4,3,1.2C154.4,151.3,154.9,152.6,154.9,154.1z
		 M151.6,154.1c0-0.5-0.2-1-0.5-1.3c-0.4-0.5-0.9-0.7-1.6-0.7c-0.6,0-1.1,0.2-1.5,0.6c-0.4,0.4-0.6,0.9-0.6,1.5
		c0,0.6,0.2,1.1,0.6,1.5s0.9,0.6,1.5,0.6c0.6,0,1.2-0.2,1.6-0.7C151.4,155,151.6,154.6,151.6,154.1z"/>
	<path class="st0" d="M163.6,152.5c-0.4-0.2-0.9-0.3-1.4-0.3c-1.1,0-1.7,0.4-2,1.3c-0.1,0.3-0.2,0.7-0.2,1.3v3.9h-3.2v-9.1h3.2v1.5
		c0.3-0.5,0.7-0.9,1.1-1.1c0.5-0.3,1.1-0.5,1.9-0.5c0.2,0,0.4,0,0.6,0V152.5z"/>
	<path class="st0" d="M174.6,154.7h-6.7c0,1.4,0.7,2,2,2c0.7,0,1.2-0.3,1.5-0.9h3.1c-0.2,0.8-0.6,1.5-1.1,1.9
		c-0.9,0.8-2,1.2-3.5,1.2c-1.9,0-3.3-0.6-4.2-1.7c-0.7-0.8-1.1-1.9-1.1-3.1c0-1.4,0.4-2.6,1.3-3.5c0.9-0.9,2.1-1.4,3.7-1.4
		c2,0,3.4,0.7,4.2,2.2c0.5,0.8,0.7,1.7,0.7,2.8V154.7z M171.6,152.8c-0.2-1-0.8-1.5-1.8-1.5c-0.5,0-1,0.2-1.3,0.5
		c-0.3,0.3-0.4,0.6-0.5,1H171.6z"/>
	<path class="st0" d="M183.8,155.5c0,1-0.3,1.8-1,2.4c-0.8,0.7-1.9,1-3.3,1c-1.2,0-2.5-0.3-3.6-1l1.2-2.3c0.9,0.6,1.8,0.9,2.6,0.9
		c0.7,0,1-0.2,1-0.7c0-0.2-0.1-0.4-0.4-0.6c-0.1-0.1-0.5-0.2-1-0.3c-0.6-0.1-1-0.2-1.2-0.3c-0.6-0.3-1.1-0.6-1.3-1.2
		c-0.1-0.3-0.2-0.6-0.2-1.1c0-0.8,0.3-1.5,0.8-2.1c0.7-0.8,1.8-1.1,3.2-1.1c1,0,2,0.2,2.9,0.6l-1.1,2.1c-0.6-0.3-1.2-0.5-1.7-0.5
		c-0.6,0-1,0.2-1,0.7c0,0.2,0.1,0.4,0.4,0.5c0.1,0.1,0.5,0.1,1,0.3c0.8,0.2,1.5,0.5,1.9,0.8C183.6,154.1,183.8,154.8,183.8,155.5z"
		/>
	<path class="st0" d="M192.8,155.5c0,1-0.3,1.8-1,2.4c-0.8,0.7-1.9,1-3.3,1c-1.2,0-2.5-0.3-3.6-1l1.2-2.3c0.9,0.6,1.8,0.9,2.6,0.9
		c0.7,0,1-0.2,1-0.7c0-0.2-0.1-0.4-0.4-0.6c-0.1-0.1-0.5-0.2-1-0.3c-0.6-0.1-1-0.2-1.2-0.3c-0.6-0.3-1.1-0.6-1.3-1.2
		c-0.1-0.3-0.2-0.6-0.2-1.1c0-0.8,0.3-1.5,0.8-2.1c0.7-0.8,1.8-1.1,3.2-1.1c1,0,2,0.2,2.9,0.6l-1.1,2.1c-0.6-0.3-1.2-0.5-1.7-0.5
		c-0.6,0-1,0.2-1,0.7c0,0.2,0.1,0.4,0.4,0.5c0.1,0.1,0.5,0.1,1,0.3c0.8,0.2,1.5,0.5,1.9,0.8C192.6,154.1,192.8,154.8,192.8,155.5z"
		/>
</g>
<g class="st15">
	<path class="st0" d="M100.6,195.8c0,2.3-1,3.7-3,4.4c-0.7,0.2-1.4,0.4-2.2,0.4c-1.7,0-3.2-0.5-4.6-1.5l1.5-2.8
		c1,0.9,2.1,1.4,3.1,1.4c0.5,0,0.8-0.1,1.1-0.3c0.4-0.2,0.5-0.6,0.5-1c0-0.4-0.2-0.7-0.6-1c-0.3-0.2-0.8-0.4-1.5-0.6
		c-0.9-0.3-1.4-0.4-1.6-0.5c-0.4-0.1-0.7-0.3-0.9-0.5c-0.7-0.6-1.1-1.5-1.1-2.7c0-1.2,0.4-2.3,1.1-3.1c0.9-1,2-1.4,3.4-1.4
		c1.4,0,2.8,0.4,4.2,1.1l-1.4,2.7c-0.8-0.6-1.5-0.9-2.3-0.9c-0.4,0-0.7,0.1-1,0.3c-0.3,0.2-0.5,0.5-0.5,0.9c0,0.4,0.2,0.7,0.7,0.9
		c0.2,0.1,0.8,0.3,1.8,0.6c1.2,0.4,2.1,0.9,2.6,1.5C100.4,194.2,100.6,194.9,100.6,195.8z"/>
	<path class="st0" d="M115.5,200.2h-3.7l-0.9-2.3h-4.8l-0.9,2.3h-3.7l5.1-13.3h3.8L115.5,200.2z M110,195.3l-1.4-4.2l-1.5,4.2H110z"
		/>
	<path class="st0" d="M126.3,195.8c0,2.3-1,3.7-3,4.4c-0.7,0.2-1.4,0.4-2.2,0.4c-1.7,0-3.2-0.5-4.6-1.5l1.5-2.8
		c1,0.9,2.1,1.4,3.1,1.4c0.5,0,0.8-0.1,1.1-0.3c0.4-0.2,0.5-0.6,0.5-1c0-0.4-0.2-0.7-0.6-1c-0.3-0.2-0.8-0.4-1.5-0.6
		c-0.9-0.3-1.4-0.4-1.6-0.5c-0.4-0.1-0.7-0.3-0.9-0.5c-0.7-0.6-1.1-1.5-1.1-2.7c0-1.2,0.4-2.3,1.1-3.1c0.9-1,2-1.4,3.4-1.4
		c1.4,0,2.8,0.4,4.2,1.1l-1.4,2.7c-0.8-0.6-1.5-0.9-2.3-0.9c-0.4,0-0.7,0.1-1,0.3c-0.3,0.2-0.5,0.5-0.5,0.9c0,0.4,0.2,0.7,0.7,0.9
		c0.2,0.1,0.8,0.3,1.8,0.6c1.2,0.4,2.1,0.9,2.6,1.5C126,194.2,126.3,194.9,126.3,195.8z"/>
	<path class="st0" d="M137.7,195.8c0,2.3-1,3.7-3,4.4c-0.7,0.2-1.4,0.4-2.2,0.4c-1.7,0-3.2-0.5-4.6-1.5l1.5-2.8
		c1,0.9,2.1,1.4,3.1,1.4c0.5,0,0.8-0.1,1.1-0.3c0.4-0.2,0.5-0.6,0.5-1c0-0.4-0.2-0.7-0.6-1c-0.3-0.2-0.8-0.4-1.5-0.6
		c-0.9-0.3-1.4-0.4-1.6-0.5c-0.4-0.1-0.7-0.3-0.9-0.5c-0.7-0.6-1.1-1.5-1.1-2.7c0-1.2,0.4-2.3,1.1-3.1c0.9-1,2-1.4,3.4-1.4
		c1.4,0,2.8,0.4,4.2,1.1l-1.4,2.7c-0.8-0.6-1.5-0.9-2.3-0.9c-0.4,0-0.7,0.1-1,0.3c-0.3,0.2-0.5,0.5-0.5,0.9c0,0.4,0.2,0.7,0.7,0.9
		c0.2,0.1,0.8,0.3,1.8,0.6c1.2,0.4,2.1,0.9,2.6,1.5C137.5,194.2,137.7,194.9,137.7,195.8z"/>
</g>
<g class="st15">
	<path class="st0" d="M94.5,229.3c0,0.5-0.2,0.9-0.5,1.3c-0.3,0.3-0.8,0.5-1.3,0.5c-0.5,0-0.9-0.2-1.3-0.5c-0.3-0.4-0.5-0.8-0.5-1.3
		s0.2-0.9,0.5-1.3c0.3-0.3,0.8-0.5,1.3-0.5s0.9,0.2,1.3,0.5C94.3,228.4,94.5,228.8,94.5,229.3z M94.3,246.4h-3.2v-13.6h3.2V246.4z"
		/>
	<path class="st0" d="M111.5,242.2l-3.2,0.5l-1.1-1.2c-1.1,0.6-2.4,0.8-3.7,0.8c-2.3,0-4.2-0.8-5.6-2.3c-1.2-1.4-1.8-2.9-1.8-4.8
		c0-1.8,0.6-3.4,1.8-4.8c1.4-1.6,3.2-2.3,5.6-2.3c2.3,0,4.2,0.8,5.6,2.3c1.2,1.4,1.8,3,1.8,4.8c0,1.7-0.6,3.3-1.8,4.7L111.5,242.2z
		 M107.4,235.3c0-0.9-0.3-1.7-0.9-2.4c-0.8-0.9-1.7-1.3-2.9-1.3c-1.2,0-2.1,0.4-2.9,1.3c-0.6,0.7-0.9,1.5-0.9,2.4
		c0,0.9,0.3,1.7,0.9,2.4c0.7,0.9,1.7,1.3,2.9,1.3c0.3,0,0.7,0,1.1-0.1l-2.1-2.1l3.3-0.4l0.9,1C107.1,236.7,107.4,236,107.4,235.3z"
		/>
	<path class="st0" d="M122.5,238.6c0,1.7-0.8,2.8-2.4,3.4c-0.7,0.2-1.5,0.3-2.4,0.3c-1.9,0-3.2-0.5-4.1-1.4
		c-0.5-0.6-0.8-1.4-0.8-2.3v-5.8h3.2v5.1c0,0.6,0.1,1,0.4,1.2c0.3,0.3,0.7,0.4,1.2,0.4c0.5,0,0.9-0.1,1.2-0.4
		c0.3-0.3,0.4-0.7,0.4-1.2v-5.1h3.2V238.6z"/>
	<path class="st0" d="M134.3,237.9h-6.7c0,1.4,0.7,2,2,2c0.7,0,1.2-0.3,1.5-0.9h3.1c-0.2,0.8-0.6,1.5-1.1,1.9
		c-0.9,0.8-2,1.2-3.5,1.2c-1.9,0-3.3-0.6-4.2-1.7c-0.7-0.8-1.1-1.9-1.1-3.1c0-1.4,0.4-2.6,1.3-3.5s2.1-1.4,3.7-1.4
		c2,0,3.4,0.7,4.2,2.2c0.5,0.8,0.7,1.7,0.7,2.8V237.9z M131.3,236.1c-0.2-1-0.8-1.5-1.8-1.5c-0.5,0-1,0.2-1.3,0.5
		c-0.3,0.3-0.4,0.6-0.5,1H131.3z"/>
	<path class="st0" d="M142.9,235.8c-0.4-0.2-0.9-0.3-1.4-0.3c-1.1,0-1.7,0.4-2,1.3c-0.1,0.3-0.2,0.7-0.2,1.3v3.9h-3.2v-9.1h3.2v1.5
		c0.3-0.5,0.7-0.9,1.1-1.1c0.5-0.3,1.1-0.5,1.9-0.5c0.2,0,0.4,0,0.6,0V235.8z"/>
	<path class="st0" d="M155.4,232.8l-7.3,13.6h-3.6l3.1-5.8l-4.4-7.8h3.7l2.4,4.6l2.4-4.6H155.4z"/>
</g>
<g class="st15">
	<path class="st0" d="M100.6,279.1c0,2.3-1,3.7-3,4.4c-0.7,0.2-1.4,0.4-2.2,0.4c-1.7,0-3.2-0.5-4.6-1.5l1.5-2.8
		c1,0.9,2.1,1.4,3.1,1.4c0.5,0,0.8-0.1,1.1-0.3c0.4-0.2,0.5-0.6,0.5-1c0-0.4-0.2-0.7-0.6-1c-0.3-0.2-0.8-0.4-1.5-0.6
		c-0.9-0.3-1.4-0.4-1.6-0.5c-0.4-0.1-0.7-0.3-0.9-0.5c-0.7-0.6-1.1-1.5-1.1-2.7c0-1.2,0.4-2.3,1.1-3.1c0.9-1,2-1.4,3.4-1.4
		c1.4,0,2.8,0.4,4.2,1.1l-1.4,2.7c-0.8-0.6-1.5-0.9-2.3-0.9c-0.4,0-0.7,0.1-1,0.3c-0.3,0.2-0.5,0.5-0.5,0.9c0,0.4,0.2,0.7,0.7,0.9
		c0.2,0.1,0.8,0.3,1.8,0.6c1.2,0.4,2.1,0.9,2.6,1.5C100.4,277.5,100.6,278.2,100.6,279.1z"/>
	<path class="st0" d="M113.7,283.5h-4.5l-3.5-3.7v3.7h-3.2v-14.7h3.2v8.9l3.3-3.3h4.4l-4.5,4.2L113.7,283.5z"/>
	<path class="st0" d="M124.5,279.6h-6.7c0,1.4,0.7,2,2,2c0.7,0,1.2-0.3,1.5-0.9h3.1c-0.2,0.8-0.6,1.5-1.1,1.9
		c-0.9,0.8-2,1.2-3.5,1.2c-1.9,0-3.3-0.6-4.2-1.7c-0.7-0.8-1.1-1.9-1.1-3.1c0-1.4,0.4-2.6,1.3-3.5s2.1-1.4,3.7-1.4
		c2,0,3.4,0.7,4.2,2.2c0.5,0.8,0.7,1.7,0.7,2.8V279.6z M121.5,277.7c-0.2-1-0.8-1.5-1.8-1.5c-0.5,0-1,0.2-1.3,0.5
		c-0.3,0.3-0.4,0.6-0.5,1H121.5z"/>
	<path class="st0" d="M131.7,277.1h-1.8v6.4h-3.2v-6.4h-1.1v-2.6h1.1v-2.7h3.2v2.7h1.8V277.1z"/>
	<path class="st0" d="M139.7,283.3c-0.7,0.3-1.4,0.5-2.1,0.5c-1.7,0-3-0.6-3.9-1.7c-0.8-0.9-1.2-2-1.2-3.1c0-1.2,0.4-2.2,1.2-3.1
		c1-1.1,2.3-1.7,3.9-1.7c0.7,0,1.4,0.2,2.1,0.5v2.7c-0.6-0.4-1.1-0.6-1.7-0.6c-0.6,0-1.2,0.2-1.6,0.6c-0.4,0.4-0.6,0.9-0.6,1.6
		s0.2,1.2,0.6,1.6c0.4,0.4,0.9,0.6,1.6,0.6c0.5,0,1.1-0.2,1.7-0.6V283.3z"/>
	<path class="st0" d="M151.1,283.5h-3.2v-4.6c0-0.8-0.1-1.3-0.3-1.6c-0.3-0.4-0.7-0.6-1.2-0.6c-0.5,0-0.9,0.2-1.2,0.5
		c-0.3,0.3-0.4,0.8-0.4,1.4v4.9h-3.2v-14.7h3.2v6.7c0.4-0.4,0.7-0.7,1-0.9c0.5-0.3,1.1-0.4,1.9-0.4c1,0,1.8,0.3,2.4,0.8
		c0.7,0.6,1,1.5,1,2.7V283.5z"/>
</g>
<g>
	<path class="st16" d="M29.5,261.5l9.4-1l9.4,1l7.3,9.7l-16.7,19.3l-16.7-19.3L29.5,261.5z"/>
	<polygon class="st12" points="28.9,271.3 38.9,290.5 22.2,271.3 	"/>
	<polygon class="st12" points="48.9,271.3 38.9,290.5 55.6,271.3 	"/>
	<polygon class="st17" points="28.8,271.3 48.7,271.3 38.7,290.5 	"/>
	<polygon class="st18" points="38.6,260.5 29.3,261.5 28.8,271.3 	"/>
	<polygon class="st18" points="38.9,260.5 48.1,261.5 48.7,271.3 	"/>
	<polygon class="st17" points="55.6,271.3 48.3,261.5 48.8,271.3 	"/>
	<polygon class="st17" points="22.2,271.3 29.5,261.5 29,271.3 	"/>
	<polygon class="st19" points="38.7,260.5 28.8,271.3 48.7,271.3 	"/>
</g>
<g>
	<g>
		<path class="st20" d="M239.9,282.2h-3.5l-6.4-8.2v8.2h-3.5v-13.3h3.5l6.4,8.2v-8.2h3.5V282.2z"/>
		<path class="st20" d="M250.3,282.2h-7.6v-13.3h7.6v2.9h-4.1v2.3h3.9v2.9h-3.9v2.4h4.1V282.2z"/>
		<path class="st20" d="M271.4,268.8l-4.3,13.3h-3.5l-2.4-7.7l-2.5,7.7h-3.5l-4-13.3h3.6l2.3,8.6l2.8-8.6h2.8l2.6,8.6l2.5-8.6H271.4
			z"/>
	</g>
	<path class="st20" d="M221.8,282.3l-8.8-6.8l8.8-6.8"/>
</g>
</svg>
