<?xml version="1.0" encoding="utf-8"?>
<!-- Generator: Adobe Illustrator 19.2.1, SVG Export Plug-In . SVG Version: 6.00 Build 0)  -->
<svg version="1.1" id="レイヤー_1" xmlns="http://www.w3.org/2000/svg" xmlns:xlink="http://www.w3.org/1999/xlink" x="0px"
	 y="0px" viewBox="0 0 400 300" style="enable-background:new 0 0 400 300;" xml:space="preserve">
<style type="text/css">
	.st0{fill:#FFFFFF;}
	.st1{fill:#2062AF;}
	.st2{fill:#CC6699;}
	.st3{fill:#1C0A00;}
	.st4{fill:none;}
	.st5{fill:#FF7F18;}
	.st6{fill:#0C0824;}
	.st7{fill:#31C5F0;}
	.st8{fill:#6380B9;}
	.st9{fill:#E44D26;}
	.st10{fill:#87CFF3;}
	.st11{fill:#21759B;}
	.st12{opacity:0.7;}
	.st13{opacity:0.8;enable-background:new    ;}
	.st14{fill:#005FA8;}
	.st15{opacity:0.3;fill:#FFFFFF;enable-background:new    ;}
</style>
<title>img</title>
<circle class="st0" cx="38.9" cy="150.6" r="16.4"/>
<polygon class="st1" points="65.1,38.1 53.8,41.2 42.6,38.1 40,10 67.7,10 "/>
<polygon class="st0" points="62.1,19.1 62.4,15.7 53.8,15.7 45,15.7 45.5,19.1 53.8,19.1 54.3,19.1 53.8,19.3 45.8,22.7 46,26 
	53.8,26 53.8,26 58,26 57.7,30.5 53.8,31.6 53.8,31.5 53.8,31.6 50,30.6 49.8,27.9 49.8,27.9 46.3,27.9 46.3,27.9 46.7,33.2 
	53.8,35.3 53.8,35.3 53.8,35.3 60.9,33.2 61.8,22.7 53.8,22.7 53.8,22.7 53.8,22.7 "/>
<path class="st2" d="M38.9,175.8c9.1,0,16.4,7.4,16.4,16.4s-7.4,16.4-16.4,16.4s-16.4-7.4-16.4-16.4l0,0
	C22.5,183.2,29.8,175.8,38.9,175.8L38.9,175.8z"/>
<path class="st0" d="M49.2,182.9c-0.8-2.9-5.6-3.9-10.2-2.3c-2.9,1-5.5,2.5-7.8,4.5c-2.5,2.4-2.9,4.4-2.8,5.3c0.6,3,4.7,5,6.4,6.5
	l0,0c-0.5,0.3-4.2,2.1-5,4s0.1,3.4,0.8,3.6c2.1,0.5,4.4-0.4,5.6-2.3c1-1.5,1.2-3.3,0.5-5c0.8-0.2,1.7-0.3,2.5-0.1
	c2.9,0.3,3.5,2.1,3.3,2.9c-0.1,0.5-0.4,1-0.9,1.3c-0.2,0.1-0.3,0.2-0.3,0.3s0.1,0.1,0.3,0.1c0.9-0.3,1.5-1.1,1.6-2
	c0.1-1.8-1.6-3.7-4.6-3.7c-0.9,0-1.7,0.1-2.6,0.4l-0.1-0.1c-1.8-2-5.3-3.4-5.1-6c0-1,0.4-3.5,6.6-6.6c5.1-2.5,9.1-1.8,9.8-0.3
	c1,2.2-2.2,6.3-7.4,6.9c-1.2,0.2-2.4-0.1-3.3-0.8c-0.3-0.3-0.3-0.3-0.4-0.3s-0.1,0.4,0,0.5c0.4,0.7,1.1,1.3,1.9,1.5
	c2.1,0.4,4.2,0.2,6.2-0.6C47.4,189.2,49.9,185.7,49.2,182.9z M35.6,197.7c0.2,0.8,0.2,1.7,0,2.4l-0.1,0.3l-0.1,0.2
	c-0.2,0.4-0.5,0.8-0.8,1.1c-1,1-2.3,1.4-2.9,1.1s-0.3-1.8,0.8-3c0.8-0.8,1.8-1.5,2.9-2.1l0,0H35.6z"/>
<path class="st3" d="M24,52.8h29.8v29H24V52.8z"/>
<path class="st4" d="M36.1,60.8L36.1,60.8c-0.3,1.6-1,4.3-1.6,6.4h3.2C37.3,65.7,36.4,62.4,36.1,60.8z"/>
<path class="st4" d="M24,81.8h29.8v-29H24V81.8z M46.4,73.4c0,0.1,0,0.1-0.1,0.2c0,0,0,0-0.1,0h-2.1c-0.1,0-0.2,0-0.2-0.1
	c0,0,0,0,0-0.1V62.8l0,0c0-0.1,0-0.1,0.1-0.2l0,0h2.1c0.1,0,0.1,0,0.2,0.1l0,0L46.4,73.4L46.4,73.4z M45.2,58.3
	c0.7,0,1.3,0.5,1.4,1.2v0.1c0.1,0.7-0.5,1.3-1.2,1.4c-0.1,0-0.1,0-0.2,0c-0.7,0-1.3-0.5-1.4-1.2c0-0.1,0-0.1,0-0.2
	c0-0.7,0.5-1.3,1.2-1.4C45.1,58.3,45.1,58.3,45.2,58.3z M30.5,73.4l3.8-13.5c0.1-0.4,0.1-0.7,0.1-1.1c0-0.1,0-0.1,0.1-0.1l0,0h2.8
	c0.1,0,0.1,0,0.2,0.1l0,0l4.3,14.6c0,0.1,0,0.2-0.1,0.2h-2.3c-0.1,0-0.2,0-0.2-0.1l-1.1-4.1h-4.3l-1.1,4.1c0,0.1-0.1,0.2-0.2,0.1
	l0,0h-2C30.5,73.6,30.5,73.6,30.5,73.4z"/>
<path class="st5" d="M46.2,62.6h-2.1c-0.1,0-0.1,0-0.2,0.1l0,0l0,0v10.7c0,0.1,0,0.2,0.1,0.2c0,0,0,0,0.1,0h2.1c0.1,0,0.1,0,0.2-0.1
	c0,0,0,0,0-0.1V62.8C46.4,62.7,46.3,62.6,46.2,62.6L46.2,62.6z"/>
<path class="st5" d="M45.1,61.1c0.7,0.1,1.3-0.5,1.4-1.2c0-0.1,0-0.1,0-0.2c0-0.8-0.6-1.4-1.4-1.4c-0.8,0-1.4,0.6-1.4,1.4
	c-0.1,0.7,0.5,1.3,1.2,1.4C45,61.1,45.1,61.1,45.1,61.1z"/>
<path class="st5" d="M30.7,73.6h2c0.1,0,0.2,0,0.2-0.1l0,0l1.1-4.1h4.3l1.1,4.1c0,0.1,0.1,0.1,0.2,0.1h2.3c0.1,0,0.1-0.1,0.1-0.2
	l-4.3-14.6c0-0.1-0.1-0.1-0.1-0.1l0,0h-2.8c-0.1,0-0.1,0-0.1,0.1l0,0c0,0.4,0,0.8-0.1,1.1l-3.8,13.5C30.5,73.6,30.5,73.6,30.7,73.6z
	 M36.1,60.8L36.1,60.8c0.3,1.6,1.2,4.9,1.6,6.4h-3.2C35,65.1,35.8,62.4,36.1,60.8L36.1,60.8z"/>
<path class="st6" d="M24,94.5h29.8v29H24V94.5z"/>
<path class="st4" d="M24,123.4h29.8v-29H24V123.4z M40.8,112.7c0-0.1,0.1-0.2,0.2-0.1c0.8,0.5,1.8,0.8,2.7,0.8
	c1.1,0,1.5-0.4,1.5-1.1s-0.3-0.9-1.7-1.6c-1.9-0.9-2.7-1.8-2.7-3.4c0-1.8,1.4-3.2,3.7-3.2c0.8,0,1.6,0.1,2.4,0.4
	c0.1,0.1,0.1,0.2,0.1,0.3v1.8c0,0.1,0,0.1-0.1,0.2h-0.1c-0.7-0.4-1.5-0.6-2.4-0.6c-1.1,0-1.4,0.5-1.4,1s0.2,0.8,1.7,1.6
	c2.1,1,2.8,2,2.8,3.5c0,2.2-1.7,3.3-3.9,3.3c-1,0-1.9-0.2-2.8-0.6c-0.1,0-0.1-0.1-0.1-0.2L40.8,112.7L40.8,112.7z M30.5,100.5
	L30.5,100.5c0.1-0.1,0.2-0.2,0.3-0.2c0.9,0,2.2-0.1,3.5-0.1c3.8,0,5.2,2.1,5.2,4.7c0,3.4-2.5,4.9-5.5,4.9c-0.5,0-0.7,0-1.1,0v5.2
	c0,0.1,0,0.1-0.1,0.2l0,0h-2.1c-0.1,0-0.1,0-0.2-0.1l0,0L30.5,100.5L30.5,100.5z"/>
<path class="st7" d="M40.9,114.9c0.9,0.4,1.8,0.6,2.8,0.6c2.2,0,3.9-1.2,3.9-3.3c0-1.4-0.7-2.4-2.8-3.5c-1.4-0.7-1.7-1.1-1.7-1.6
	s0.4-1,1.4-1c0.8,0,1.6,0.2,2.4,0.6c0.1,0,0.2,0,0.2-0.1c0,0,0,0,0-0.1v-1.8c0-0.1,0-0.2-0.1-0.3c-0.8-0.3-1.6-0.4-2.4-0.4
	c-2.4,0-3.7,1.4-3.7,3.2c0,1.6,0.8,2.5,2.7,3.4c1.4,0.7,1.7,1.1,1.7,1.6s-0.5,1.1-1.5,1.1s-1.9-0.3-2.7-0.8c-0.1-0.1-0.2,0-0.2,0.1
	v2C40.8,114.7,40.8,114.8,40.9,114.9z"/>
<path class="st7" d="M30.7,115.2h2.1c0.1,0,0.1,0,0.2-0.1l0,0v-5.2c0.4,0,0.5,0,1.1,0c3.1,0,5.5-1.5,5.5-4.9c0-2.6-1.5-4.7-5.2-4.7
	c-1.3,0-2.6,0-3.5,0.1c-0.1,0-0.2,0.1-0.3,0.2l0,0v14.5C30.5,115.1,30.5,115.2,30.7,115.2C30.6,115.2,30.6,115.2,30.7,115.2z
	 M32.9,102.5c0.2,0,0.8,0,1.3,0c1.8,0,2.9,0.9,2.9,2.6c0,2.2-1.5,2.7-3.1,2.7c-0.5,0-0.8,0-1.1,0L32.9,102.5L32.9,102.5z"/>
<ellipse class="st8" cx="38.9" cy="233.9" rx="24.6" ry="12.9"/>
<path class="st0" d="M28.7,230.2c0.8-0.1,1.5,0.1,2.1,0.6c0.4,0.6,0.5,1.3,0.3,2c-0.1,0.8-0.5,1.6-1.1,2.2c-0.8,0.5-1.6,0.7-2.5,0.6
	h-1.8l1-5.4L28.7,230.2L28.7,230.2z M21.8,241.1h2.8l0.7-3.4h2.4c0.9,0,1.8-0.1,2.6-0.3c0.7-0.2,1.3-0.6,1.9-1.1
	c0.9-0.8,1.6-2,1.8-3.2c0.4-1.2,0.1-2.6-0.7-3.6c-0.9-0.9-2.2-1.4-3.6-1.3h-5.4L21.8,241.1z"/>
<path class="st0" d="M36.1,224.7h2.8l-0.7,3.4h2.5c1.2-0.1,2.3,0.2,3.3,0.8c0.6,0.7,0.8,1.7,0.5,2.7l-1.2,6h-2.9l1.1-5.7
	c0.2-0.4,0.1-0.9-0.1-1.3c-0.4-0.3-0.9-0.4-1.4-0.4h-2.2l-1.4,7.4h-2.8L36.1,224.7z"/>
<path class="st0" d="M50.7,230.2c0.8-0.1,1.5,0.1,2.1,0.6c0.4,0.6,0.5,1.3,0.3,2c-0.1,0.9-0.5,1.6-1.1,2.2c-0.8,0.5-1.6,0.7-2.5,0.6
	h-1.7l1-5.4L50.7,230.2L50.7,230.2z M43.8,241.1h2.8l0.7-3.4h2.4c0.9,0,1.8-0.1,2.6-0.3c0.7-0.2,1.3-0.6,1.9-1.1
	c0.9-0.8,1.5-2,1.7-3.2c0.4-1.2,0.1-2.6-0.7-3.6c-0.9-0.9-2.2-1.4-3.6-1.3h-5.4L43.8,241.1z"/>
<polygon class="st9" points="12.5,38.2 10,10 37.6,10 35.1,38.2 23.8,41.3 "/>
<polygon class="st0" points="23.8,15.8 23.8,15.8 15.1,15.8 15.2,16.7 16.1,26.2 23.8,26.2 23.8,26.2 28,26.2 27.6,30.7 23.8,31.8 
	23.8,31.8 23.8,31.8 19.9,30.7 19.7,28 17.8,28 16.2,28 16.7,33.4 23.8,35.3 23.8,35.3 23.8,35.3 30.9,33.4 30.9,32.8 31.8,23.7 
	31.8,22.8 30.9,22.8 23.8,22.8 23.8,22.8 19.2,22.8 18.9,19.2 23.8,19.2 23.8,19.2 32.1,19.2 32.2,19.2 32.2,18.5 32.4,16.7 
	32.5,15.8 "/>
<path class="st10" d="M25.8,267.8c-2.7,3.8-2.3,8.8-0.3,12.9c0,0.1,0.1,0.2,0.1,0.3l0.1,0.2l0.1,0.1l0.1,0.2l0.2,0.3l0.1,0.2
	l0.2,0.4l0.1,0.1c0.1,0.2,0.2,0.3,0.3,0.5l0,0h0.1l0.3,0.4l0.1,0.1l0.3,0.3l0.1,0.1l0.4,0.4l0,0l0,0l0.4,0.4l0.2,0.1l0.3,0.3
	l0.1,0.2l0.4,0.4l0,0l0.1,0.1l0.4,0.3l0.2,0.1l0.3,0.3l0.2,0.1L31,287l0.1,0.1l0,0l0.4,0.2l0.1,0.1l0.6,0.3l0.2,0.1l0.4,0.2l0.3,0.2
	l0.3,0.1h0.1l0.1,0.1l0.5,0.2H34l0.5,0.3h0.1l0.5,0.2h0.1l0.6,0.2H36c0.2,0.1,0.4,0.1,0.6,0.2c12.9,2.4,16.6-7.7,16.6-7.7
	c-3.1,4.1-8.7,5.2-14,4c-0.2,0-0.4-0.1-0.6-0.2h-0.1l-0.6-0.2h-0.1l-0.5-0.2h-0.1l-0.5-0.2h-0.1l-0.5-0.2l-0.1-0.1l-0.3-0.2
	l-0.2-0.1l-0.4-0.2L35,284l-0.5-0.3l-0.2-0.1l-0.4-0.3l-0.1-0.1l-0.4-0.2l-0.2-0.1l-0.3-0.3l-0.2-0.1l-0.4-0.4l0,0l-0.4-0.4
	l-0.1-0.1l-0.3-0.3l-0.1-0.1l-0.4-0.4l0,0l-0.4-0.5l-0.1-0.1l-0.3-0.4l-0.1-0.1l-0.3-0.4c-2.9-4-4-9.5-1.6-14"/>
<path class="st10" d="M34,264.6c-1.8,2.8-1.9,6.5-0.3,9.4c0.2,0.5,0.5,1,0.8,1.4c0.3,0.5,0.6,0.9,1,1.2c0.1,0.1,0.3,0.3,0.4,0.5
	l0.1,0.1l0.4,0.4l0,0l0,0l0.5,0.4l0.1,0.1l0.5,0.4l0,0l0.3,0.2l0.1,0.1l0.4,0.3h0.1l0.3,0.2l0.1,0.1l0.3,0.1l0,0l0.5,0.2h0.1
	l0.5,0.3h0.2l0.4,0.2l0.2,0.1c0.2,0.1,0.4,0.1,0.6,0.2c9.9,1.6,12.2-6,12.2-6c-2.1,3-6.1,4.4-10.3,3.3l-0.6-0.2h-0.2l-0.4-0.1
	l-0.2-0.1l-0.4-0.2h-0.1l-0.5-0.2l-0.2-0.2l-0.2-0.1l-0.3-0.2h-0.1l-0.4-0.3l-0.2-0.2l-0.3-0.2l-0.5-0.4l-0.1-0.1
	c-1.9-1.5-3.3-3.5-4.1-5.8c-0.8-2.4-0.5-5,0.7-7.2"/>
<path class="st10" d="M41,262.2c-1.1,1.7-1.3,3.8-0.5,5.6c0.9,1.9,2.5,3.5,4.5,4.2l0.2,0.1h0.1c0.1,0,0.2,0.1,0.3,0.1
	c5.5,1.1,7-2.8,7.4-3.4c-1.3,1.9-3.5,2.3-6.2,1.7c-0.2-0.1-0.4-0.1-0.7-0.2s-0.5-0.2-0.8-0.3c-0.5-0.2-0.9-0.5-1.3-0.8
	c-2.4-1.8-3.9-5.3-2.3-8.1"/>
<path class="st11" d="M38.9,135c-8.6,0-15.6,7-15.6,15.6s7,15.6,15.6,15.6s15.6-7,15.6-15.6S47.5,135,38.9,135z M24.9,150.6
	c0-2,0.4-3.9,1.2-5.7l6.7,18.3C27.9,160.9,24.9,156,24.9,150.6L24.9,150.6z M38.9,164.6c-1.4,0-2.7-0.2-4-0.6l4.2-12.2l4.3,11.8
	c0,0.1,0.1,0.1,0.1,0.2C42,164.3,40.5,164.6,38.9,164.6L38.9,164.6z M40.8,144c0.8,0,1.6-0.1,1.6-0.1c0.3,0,0.6-0.3,0.5-0.6
	c0-0.3-0.3-0.6-0.6-0.5c0,0-2.3,0.2-3.7,0.2s-3.7-0.2-3.7-0.2c-0.3,0-0.6,0.2-0.6,0.5s0.2,0.6,0.5,0.6c0,0,0.7,0.1,1.5,0.1l2.2,6
	l-3.1,9.2L30.3,144c0.8,0,1.6-0.1,1.6-0.1c0.3,0,0.6-0.3,0.5-0.6s-0.3-0.6-0.6-0.5c0,0-2.3,0.2-3.7,0.2h-0.9
	c4.2-6.5,12.9-8.3,19.4-4c0.6,0.4,1.2,0.9,1.8,1.4h-0.2c-1.3,0-2.4,1.2-2.3,2.5c0.2,1.2,0.6,2.3,1.4,3.3c0.7,1.2,1.1,2.5,1.2,3.9
	c-0.1,1.6-0.5,3.1-1.1,4.5l-1.4,4.7L40.8,144z M51.2,143.9c3.7,6.7,1.3,15-5.3,18.9l4.3-12.4c0.7-1.6,1-3.3,1.1-5
	C51.3,144.8,51.3,144.3,51.2,143.9L51.2,143.9z"/>
<rect x="80" y="10.7" class="st9" width="320" height="30"/>
<g class="st12">
	<path class="st0" d="M398,12.7v26H82v-26L398,12.7 M400,10.7H80v30h320V10.7L400,10.7z"/>
</g>
<g class="st13">
	<path class="st0" d="M94.8,19.6h2.5v4.9h4.3v-4.9h2.5v12.9h-2.5v-5.7h-4.3v5.7h-2.5V19.6z"/>
	<path class="st0" d="M105.8,19.6h7.1V22h-2.4v10.5h-2.5V22h-2.3V19.6z"/>
	<path class="st0" d="M115.9,19.6h2.4l3,9l3-9h2.4l2.2,12.9h-2.4l-1.4-8.2l-2.7,8.2h-2.2l-2.7-8.2l-1.4,8.2h-2.4L115.9,19.6z"/>
	<path class="st0" d="M130.8,19.6h2.5v10.6h3.6v2.3h-6V19.6z"/>
	<path class="st0" d="M140.3,19.6h6.1v2.3h-4.2l-0.5,2.3c0.1,0,0.3-0.1,0.4-0.1c0.1,0,0.3,0,0.4,0c1.2,0,2.1,0.4,2.9,1.2
		c0.8,0.8,1.2,1.8,1.2,3.1c0,1.3-0.4,2.3-1.3,3.2s-1.9,1.3-3.1,1.3c-1.1,0-2-0.3-2.8-0.9s-1.3-1.5-1.6-2.6h2.6
		c0.2,0.4,0.5,0.7,0.8,0.9s0.7,0.3,1.1,0.3c0.5,0,1-0.2,1.4-0.6s0.6-0.9,0.6-1.5c0-0.6-0.2-1.1-0.5-1.5c-0.4-0.4-0.8-0.6-1.3-0.6
		c-0.3,0-0.5,0.1-0.8,0.2s-0.5,0.3-0.8,0.6l-2-0.4L140.3,19.6z"/>
	<path class="st0" d="M162,27.5l1.5,1.7l-0.7,0.6l-0.7,0.6l2.1,2.2h-3l-0.9-0.9c-1.4,0.8-2.6,1.2-3.8,1.2c-1,0-1.8-0.3-2.4-0.9
		s-0.9-1.3-0.9-2.2c0-0.7,0.2-1.3,0.5-1.9s0.9-1.2,1.8-1.9c-0.8-1.1-1.2-2.1-1.2-3c0-0.6,0.3-1.3,0.8-1.9s1.3-0.9,2.3-0.9
		c1,0,1.8,0.3,2.3,0.9s0.8,1.2,0.8,1.9c0,0.5-0.1,1-0.4,1.4s-0.8,1.1-1.7,2c1,1.2,1.7,2,2,2.3C160.7,28.5,161.2,28.1,162,27.5z
		 M158.8,29.9c-0.5-0.4-1.1-1.2-1.9-2.2c-0.9,0.7-1.3,1.4-1.3,1.9c0,0.3,0.1,0.5,0.4,0.7c0.2,0.2,0.5,0.3,0.9,0.3
		C157.3,30.6,158,30.4,158.8,29.9z M157.3,24.6c0.7-0.6,1-1,1-1.5c0-0.2-0.1-0.4-0.2-0.5s-0.3-0.2-0.6-0.2c-0.2,0-0.4,0.1-0.6,0.2
		s-0.2,0.3-0.2,0.6C156.7,23.6,156.9,24.1,157.3,24.6z"/>
	<path class="st0" d="M183,21.9l-1.7,1.6c-1.2-1.2-2.5-1.9-4-1.9c-1.2,0-2.3,0.4-3.1,1.3c-0.8,0.8-1.3,1.9-1.3,3.1
		c0,0.9,0.2,1.6,0.6,2.3s0.9,1.2,1.6,1.6c0.7,0.4,1.4,0.6,2.3,0.6c0.7,0,1.4-0.1,2-0.4s1.2-0.8,1.9-1.5l1.7,1.7
		c-1,0.9-1.9,1.6-2.7,1.9s-1.8,0.5-2.9,0.5c-2,0-3.7-0.6-4.9-1.9c-1.3-1.3-1.9-2.9-1.9-4.9c0-1.3,0.3-2.4,0.9-3.4s1.4-1.8,2.5-2.4
		s2.3-0.9,3.5-0.9c1.1,0,2.1,0.2,3.1,0.7S182.3,21,183,21.9z"/>
	<path class="st0" d="M192,21.4l-1.8,1.6c-0.6-0.9-1.3-1.3-2-1.3c-0.3,0-0.6,0.1-0.8,0.3s-0.3,0.4-0.3,0.6s0.1,0.4,0.2,0.6
		c0.2,0.3,0.8,0.8,1.8,1.7c0.9,0.8,1.5,1.3,1.7,1.5c0.5,0.5,0.9,1,1.1,1.4c0.2,0.5,0.3,1,0.3,1.5c0,1.1-0.4,1.9-1.1,2.6
		c-0.7,0.7-1.7,1-2.9,1c-0.9,0-1.7-0.2-2.4-0.7c-0.7-0.5-1.3-1.2-1.8-2.1l2.1-1.2c0.6,1.1,1.3,1.7,2.1,1.7c0.4,0,0.8-0.1,1.1-0.4
		s0.4-0.5,0.4-0.9c0-0.3-0.1-0.6-0.3-0.9s-0.7-0.7-1.4-1.3c-1.4-1.1-2.3-2-2.7-2.7c-0.4-0.6-0.6-1.2-0.6-1.9c0-0.9,0.3-1.7,1-2.3
		c0.7-0.6,1.5-1,2.5-1c0.6,0,1.3,0.1,1.8,0.4C190.7,20,191.3,20.6,192,21.4z"/>
	<path class="st0" d="M201.3,21.4l-1.8,1.6c-0.6-0.9-1.3-1.3-2-1.3c-0.3,0-0.6,0.1-0.8,0.3s-0.3,0.4-0.3,0.6s0.1,0.4,0.2,0.6
		c0.2,0.3,0.8,0.8,1.8,1.7c0.9,0.8,1.5,1.3,1.7,1.5c0.5,0.5,0.9,1,1.1,1.4c0.2,0.5,0.3,1,0.3,1.5c0,1.1-0.4,1.9-1.1,2.6
		s-1.7,1-2.9,1c-0.9,0-1.7-0.2-2.4-0.7c-0.7-0.5-1.3-1.2-1.8-2.1l2.1-1.2c0.6,1.1,1.3,1.7,2.1,1.7c0.4,0,0.8-0.1,1.1-0.4
		s0.4-0.5,0.4-0.9c0-0.3-0.1-0.6-0.3-0.9s-0.7-0.7-1.4-1.3c-1.4-1.1-2.3-2-2.7-2.7c-0.4-0.6-0.6-1.2-0.6-1.9c0-0.9,0.3-1.7,1-2.3
		c0.7-0.6,1.5-1,2.5-1c0.6,0,1.3,0.1,1.8,0.4C200,20,200.7,20.6,201.3,21.4z"/>
	<path class="st0" d="M205.9,22.8h-2.4c0.1-1,0.5-1.7,1-2.3c0.8-0.8,1.8-1.2,3-1.2c1.1,0,1.9,0.3,2.7,1s1.1,1.5,1.1,2.4
		c0,0.6-0.2,1.1-0.5,1.6s-0.8,0.9-1.4,1.2c0.8,0.2,1.4,0.6,1.8,1.2s0.7,1.3,0.7,2.1c0,1.2-0.4,2.1-1.3,2.9s-1.9,1.2-3.3,1.2
		c-1.3,0-2.3-0.4-3.1-1.1s-1.2-1.8-1.3-3.1h2.4c0.1,0.7,0.3,1.2,0.7,1.5c0.4,0.3,0.8,0.5,1.4,0.5c0.6,0,1-0.2,1.4-0.6
		s0.6-0.8,0.6-1.4c0-0.6-0.3-1.1-0.8-1.5s-1.2-0.6-2.2-0.6v-2.1c0.6,0,1-0.1,1.3-0.3s0.5-0.3,0.7-0.6s0.2-0.5,0.2-0.8
		c0-0.4-0.1-0.6-0.4-0.9c-0.2-0.2-0.6-0.3-1-0.3c-0.4,0-0.7,0.1-1,0.3S206,22.5,205.9,22.8z"/>
</g>
<rect x="80" y="52.3" class="st5" width="320" height="30"/>
<g class="st12">
	<path class="st0" d="M398,54.3v26H82v-26L398,54.3 M400,52.3H80v30h320V52.3L400,52.3z"/>
</g>
<g class="st13">
	<path class="st0" d="M96.1,61.2h2.4v12.9h-2.4V61.2z"/>
	<path class="st0" d="M100.7,60.9h2.4v13.3h-2.4V60.9z"/>
	<path class="st0" d="M105.1,60.9h2.4v13.3h-2.4V60.9z"/>
	<path class="st0" d="M109.6,64.6h2.4v4.6c0,0.9,0.1,1.5,0.2,1.9c0.1,0.3,0.3,0.6,0.6,0.8s0.6,0.3,1,0.3s0.7-0.1,1-0.3
		c0.3-0.2,0.5-0.5,0.6-0.8c0.1-0.3,0.1-0.9,0.1-1.8v-4.7h2.4v4.1c0,1.7-0.1,2.8-0.4,3.4c-0.3,0.8-0.8,1.3-1.4,1.7
		c-0.6,0.4-1.4,0.6-2.4,0.6c-1,0-1.9-0.2-2.5-0.7s-1.1-1.1-1.4-2c-0.2-0.6-0.3-1.6-0.3-3.2V64.6z"/>
	<path class="st0" d="M126.3,65.9l-1.5,1.5c-0.6-0.6-1.2-0.9-1.6-0.9c-0.3,0-0.5,0.1-0.6,0.2c-0.2,0.1-0.2,0.3-0.2,0.4
		c0,0.1,0,0.2,0.1,0.4s0.3,0.3,0.7,0.4l0.9,0.4c0.9,0.5,1.6,0.9,1.9,1.4s0.5,1,0.5,1.7c0,0.8-0.3,1.6-0.9,2.1s-1.5,0.9-2.5,0.9
		c-1.4,0-2.5-0.5-3.3-1.6l1.5-1.6c0.3,0.3,0.6,0.6,1,0.8c0.4,0.2,0.7,0.3,1,0.3c0.3,0,0.6-0.1,0.8-0.2s0.3-0.3,0.3-0.5
		c0-0.4-0.3-0.7-1-1.1l-0.8-0.4c-1.5-0.8-2.3-1.8-2.3-2.9c0-0.8,0.3-1.4,0.9-1.9c0.6-0.5,1.3-0.8,2.2-0.8c0.6,0,1.2,0.1,1.8,0.4
		C125.4,65,125.9,65.4,126.3,65.9z"/>
	<path class="st0" d="M128.6,61.1h2.4v3.5h1.4v2.1H131v7.5h-2.4v-7.5h-1.2v-2.1h1.2V61.1z"/>
	<path class="st0" d="M133.2,64.6h2.1v1.2c0.2-0.5,0.5-0.8,0.9-1.1s0.8-0.4,1.2-0.4c0.3,0,0.6,0.1,1,0.2l-0.7,2.1
		c-0.3-0.1-0.5-0.2-0.7-0.2c-0.4,0-0.7,0.2-0.9,0.7s-0.4,1.4-0.4,2.7l0,0.5v3.9h-2.4V64.6z"/>
	<path class="st0" d="M146.6,64.6h2.4v9.6h-2.4v-1c-0.5,0.4-0.9,0.8-1.4,1c-0.5,0.2-1,0.3-1.5,0.3c-1.2,0-2.3-0.5-3.2-1.4
		c-0.9-1-1.4-2.1-1.4-3.6c0-1.5,0.4-2.7,1.3-3.6s1.9-1.4,3.2-1.4c0.6,0,1.1,0.1,1.6,0.3s1,0.5,1.4,1V64.6z M144,66.6
		c-0.7,0-1.4,0.3-1.8,0.8s-0.7,1.2-0.7,2c0,0.8,0.2,1.5,0.7,2c0.5,0.5,1.1,0.8,1.8,0.8c0.8,0,1.4-0.3,1.9-0.8
		c0.5-0.5,0.7-1.2,0.7-2.1c0-0.8-0.2-1.5-0.7-2C145.4,66.8,144.8,66.6,144,66.6z"/>
	<path class="st0" d="M151.7,61.1h2.4v3.5h1.4v2.1h-1.4v7.5h-2.4v-7.5h-1.2v-2.1h1.2V61.1z"/>
	<path class="st0" d="M161.3,64.4c0.9,0,1.8,0.2,2.5,0.7s1.4,1.1,1.9,1.8s0.7,1.6,0.7,2.5c0,0.9-0.2,1.7-0.7,2.5s-1.1,1.4-1.8,1.8
		c-0.8,0.4-1.6,0.7-2.6,0.7c-1.4,0-2.5-0.5-3.5-1.5c-1-1-1.5-2.2-1.5-3.6c0-1.5,0.5-2.7,1.6-3.7C158.9,64.8,160,64.4,161.3,64.4z
		 M161.3,66.6c-0.7,0-1.4,0.3-1.9,0.8c-0.5,0.5-0.7,1.2-0.7,2c0,0.8,0.2,1.5,0.7,2c0.5,0.5,1.1,0.8,1.9,0.8c0.8,0,1.4-0.3,1.9-0.8
		c0.5-0.5,0.7-1.2,0.7-2s-0.2-1.5-0.7-2C162.7,66.9,162.1,66.6,161.3,66.6z"/>
	<path class="st0" d="M167.7,64.6h2.1v1.2c0.2-0.5,0.5-0.8,0.9-1.1s0.8-0.4,1.2-0.4c0.3,0,0.6,0.1,1,0.2l-0.7,2.1
		c-0.3-0.1-0.5-0.2-0.7-0.2c-0.4,0-0.7,0.2-0.9,0.7s-0.4,1.4-0.4,2.7l0,0.5v3.9h-2.4V64.6z"/>
</g>
<rect x="80" y="93.9" class="st7" width="256" height="30"/>
<g class="st12">
	<path class="st0" d="M334,95.9v26H82v-26H334 M336,93.9H80v30h256V93.9L336,93.9z"/>
</g>
<g class="st13">
	<path class="st0" d="M94.8,102.9h2.6c1.4,0,2.4,0.1,3.1,0.4s1.1,0.7,1.5,1.3s0.5,1.3,0.5,2.1c0,0.9-0.2,1.7-0.7,2.3s-1.1,1-1.9,1.2
		c-0.5,0.1-1.3,0.2-2.6,0.2v5.5h-2.5V102.9z M97.3,107.9H98c0.6,0,1,0,1.3-0.1c0.2-0.1,0.4-0.2,0.6-0.4c0.1-0.2,0.2-0.4,0.2-0.7
		c0-0.5-0.2-0.9-0.6-1.1c-0.3-0.2-0.8-0.3-1.6-0.3h-0.7V107.9z"/>
	<path class="st0" d="M104.6,102.6h2.4v4.7c0.5-0.4,0.9-0.7,1.4-0.9c0.5-0.2,1-0.3,1.4-0.3c0.9,0,1.7,0.3,2.4,1
		c0.6,0.6,0.8,1.4,0.8,2.5v6.3h-2.4v-4.2c0-1.1-0.1-1.9-0.2-2.3s-0.3-0.7-0.5-0.9s-0.6-0.3-0.9-0.3c-0.5,0-0.9,0.2-1.3,0.5
		s-0.6,0.8-0.7,1.3c-0.1,0.3-0.1,0.9-0.1,2v3.8h-2.4V102.6z"/>
	<path class="st0" d="M119.9,106c0.9,0,1.8,0.2,2.5,0.7s1.4,1.1,1.9,1.8s0.7,1.6,0.7,2.5c0,0.9-0.2,1.7-0.7,2.5s-1.1,1.4-1.8,1.8
		c-0.8,0.4-1.6,0.7-2.6,0.7c-1.4,0-2.5-0.5-3.5-1.5c-1-1-1.5-2.2-1.5-3.6c0-1.5,0.5-2.7,1.6-3.7C117.6,106.4,118.7,106,119.9,106z
		 M120,108.3c-0.7,0-1.4,0.3-1.9,0.8c-0.5,0.5-0.7,1.2-0.7,2c0,0.8,0.2,1.5,0.7,2c0.5,0.5,1.1,0.8,1.9,0.8c0.8,0,1.4-0.3,1.9-0.8
		c0.5-0.5,0.7-1.2,0.7-2s-0.2-1.5-0.7-2C121.3,108.5,120.7,108.3,120,108.3z"/>
	<path class="st0" d="M127.2,102.7h2.4v3.5h1.4v2.1h-1.4v7.5h-2.4v-7.5H126v-2.1h1.2V102.7z"/>
	<path class="st0" d="M136.8,106c0.9,0,1.8,0.2,2.5,0.7s1.4,1.1,1.9,1.8s0.7,1.6,0.7,2.5c0,0.9-0.2,1.7-0.7,2.5s-1.1,1.4-1.8,1.8
		c-0.8,0.4-1.6,0.7-2.6,0.7c-1.4,0-2.5-0.5-3.5-1.5c-1-1-1.5-2.2-1.5-3.6c0-1.5,0.5-2.7,1.6-3.7C134.5,106.4,135.6,106,136.8,106z
		 M136.9,108.3c-0.7,0-1.4,0.3-1.9,0.8c-0.5,0.5-0.7,1.2-0.7,2c0,0.8,0.2,1.5,0.7,2c0.5,0.5,1.1,0.8,1.9,0.8c0.8,0,1.4-0.3,1.9-0.8
		c0.5-0.5,0.7-1.2,0.7-2s-0.2-1.5-0.7-2C138.3,108.5,137.6,108.3,136.9,108.3z"/>
	<path class="st0" d="M149.7,107.6l-1.5,1.5c-0.6-0.6-1.2-0.9-1.6-0.9c-0.3,0-0.5,0.1-0.6,0.2c-0.2,0.1-0.2,0.3-0.2,0.4
		c0,0.1,0,0.2,0.1,0.4s0.3,0.3,0.7,0.4l0.9,0.4c0.9,0.5,1.6,0.9,1.9,1.4s0.5,1,0.5,1.7c0,0.8-0.3,1.6-0.9,2.1s-1.5,0.9-2.5,0.9
		c-1.4,0-2.5-0.5-3.3-1.6l1.5-1.6c0.3,0.3,0.6,0.6,1,0.8c0.4,0.2,0.7,0.3,1,0.3c0.3,0,0.6-0.1,0.8-0.2s0.3-0.3,0.3-0.5
		c0-0.4-0.3-0.7-1-1.1l-0.8-0.4c-1.5-0.8-2.3-1.8-2.3-2.9c0-0.8,0.3-1.4,0.9-1.9c0.6-0.5,1.3-0.8,2.2-0.8c0.6,0,1.2,0.1,1.8,0.4
		C148.9,106.7,149.3,107.1,149.7,107.6z"/>
	<path class="st0" d="M151.8,102.6h2.4v4.7c0.5-0.4,0.9-0.7,1.4-0.9c0.5-0.2,1-0.3,1.4-0.3c0.9,0,1.7,0.3,2.4,1
		c0.6,0.6,0.8,1.4,0.8,2.5v6.3h-2.4v-4.2c0-1.1-0.1-1.9-0.2-2.3s-0.3-0.7-0.5-0.9s-0.6-0.3-0.9-0.3c-0.5,0-0.9,0.2-1.3,0.5
		s-0.6,0.8-0.7,1.3c-0.1,0.3-0.1,0.9-0.1,2v3.8h-2.4V102.6z"/>
	<path class="st0" d="M167.1,106c0.9,0,1.8,0.2,2.5,0.7s1.4,1.1,1.9,1.8s0.7,1.6,0.7,2.5c0,0.9-0.2,1.7-0.7,2.5s-1.1,1.4-1.8,1.8
		c-0.8,0.4-1.6,0.7-2.6,0.7c-1.4,0-2.5-0.5-3.5-1.5c-1-1-1.5-2.2-1.5-3.6c0-1.5,0.5-2.7,1.6-3.7C164.7,106.4,165.8,106,167.1,106z
		 M167.1,108.3c-0.7,0-1.4,0.3-1.9,0.8c-0.5,0.5-0.7,1.2-0.7,2c0,0.8,0.2,1.5,0.7,2c0.5,0.5,1.1,0.8,1.9,0.8c0.8,0,1.4-0.3,1.9-0.8
		c0.5-0.5,0.7-1.2,0.7-2s-0.2-1.5-0.7-2C168.5,108.5,167.9,108.3,167.1,108.3z"/>
	<path class="st0" d="M176.5,106.2v1.1c0.4-0.4,0.9-0.8,1.4-1s1-0.3,1.6-0.3c1.2,0,2.3,0.5,3.2,1.4s1.3,2.2,1.3,3.6
		c0,1.4-0.5,2.6-1.4,3.6c-0.9,1-2,1.4-3.2,1.4c-0.6,0-1.1-0.1-1.5-0.3c-0.5-0.2-0.9-0.5-1.4-1v4.5h-2.4v-13.1H176.5z M179,108.2
		c-0.8,0-1.4,0.3-1.9,0.8s-0.7,1.2-0.7,2c0,0.8,0.2,1.5,0.7,2.1c0.5,0.5,1.1,0.8,1.9,0.8c0.7,0,1.3-0.3,1.9-0.8s0.8-1.2,0.8-2
		c0-0.8-0.2-1.5-0.7-2S179.8,108.2,179,108.2z"/>
</g>
<rect x="80" y="135.6" class="st11" width="192" height="30"/>
<g class="st12">
	<path class="st0" d="M270,137.6v26H82v-26H270 M272,135.6H80v30h192V135.6L272,135.6z"/>
</g>
<g class="st13">
	<path class="st0" d="M94.6,144.5H97l1.9,8.3l2.3-8.3h2l2.3,8.3l1.9-8.3h2.4l-2.9,12.9h-2.4l-2.4-8.4l-2.3,8.4h-2.3L94.6,144.5z"/>
	<path class="st0" d="M116,147.6c0.9,0,1.8,0.2,2.5,0.7s1.4,1.1,1.9,1.8s0.7,1.6,0.7,2.5c0,0.9-0.2,1.7-0.7,2.5s-1.1,1.4-1.8,1.8
		c-0.8,0.4-1.6,0.7-2.6,0.7c-1.4,0-2.5-0.5-3.5-1.5c-1-1-1.5-2.2-1.5-3.6c0-1.5,0.5-2.7,1.6-3.7C113.7,148.1,114.8,147.6,116,147.6z
		 M116.1,149.9c-0.7,0-1.4,0.3-1.9,0.8c-0.5,0.5-0.7,1.2-0.7,2c0,0.8,0.2,1.5,0.7,2c0.5,0.5,1.1,0.8,1.9,0.8c0.8,0,1.4-0.3,1.9-0.8
		c0.5-0.5,0.7-1.2,0.7-2s-0.2-1.5-0.7-2C117.5,150.2,116.8,149.9,116.1,149.9z"/>
	<path class="st0" d="M122.5,147.9h2.1v1.2c0.2-0.5,0.5-0.8,0.9-1.1s0.8-0.4,1.2-0.4c0.3,0,0.6,0.1,1,0.2l-0.7,2.1
		c-0.3-0.1-0.5-0.2-0.7-0.2c-0.4,0-0.7,0.2-0.9,0.7s-0.4,1.4-0.4,2.7l0,0.5v3.9h-2.4V147.9z"/>
	<path class="st0" d="M135.9,144.2h2.4v13.3h-2.4v-1c-0.5,0.4-0.9,0.8-1.4,1c-0.5,0.2-1,0.3-1.5,0.3c-1.2,0-2.3-0.5-3.2-1.4
		c-0.9-1-1.4-2.1-1.4-3.6c0-1.5,0.4-2.7,1.3-3.6s1.9-1.4,3.2-1.4c0.6,0,1.1,0.1,1.6,0.3s1,0.5,1.4,1V144.2z M133.4,149.9
		c-0.7,0-1.4,0.3-1.8,0.8s-0.7,1.2-0.7,2c0,0.8,0.2,1.5,0.7,2c0.5,0.5,1.1,0.8,1.8,0.8c0.8,0,1.4-0.3,1.9-0.8
		c0.5-0.5,0.7-1.2,0.7-2.1c0-0.8-0.2-1.5-0.7-2C134.7,150.1,134.1,149.9,133.4,149.9z"/>
	<path class="st0" d="M143.1,147.9v1.1c0.4-0.4,0.9-0.8,1.4-1s1-0.3,1.6-0.3c1.2,0,2.3,0.5,3.2,1.4s1.3,2.2,1.3,3.6
		c0,1.4-0.5,2.6-1.4,3.6c-0.9,1-2,1.4-3.2,1.4c-0.6,0-1.1-0.1-1.5-0.3c-0.5-0.2-0.9-0.5-1.4-1v4.5h-2.4v-13.1H143.1z M145.6,149.9
		c-0.8,0-1.4,0.3-1.9,0.8s-0.7,1.2-0.7,2c0,0.8,0.2,1.5,0.7,2.1c0.5,0.5,1.1,0.8,1.9,0.8c0.7,0,1.3-0.3,1.9-0.8s0.8-1.2,0.8-2
		c0-0.8-0.2-1.5-0.7-2S146.4,149.9,145.6,149.9z"/>
	<path class="st0" d="M152,147.9h2.1v1.2c0.2-0.5,0.5-0.8,0.9-1.1s0.8-0.4,1.2-0.4c0.3,0,0.6,0.1,1,0.2l-0.7,2.1
		c-0.3-0.1-0.5-0.2-0.7-0.2c-0.4,0-0.7,0.2-0.9,0.7s-0.4,1.4-0.4,2.7l0,0.5v3.9H152V147.9z"/>
	<path class="st0" d="M167.9,153.4h-7.7c0.1,0.7,0.4,1.2,0.9,1.6s1.1,0.6,1.9,0.6c0.9,0,1.7-0.3,2.3-0.9l2,0.9
		c-0.5,0.7-1.1,1.2-1.8,1.6c-0.7,0.3-1.5,0.5-2.5,0.5c-1.5,0-2.7-0.5-3.7-1.4c-0.9-0.9-1.4-2.1-1.4-3.6c0-1.5,0.5-2.7,1.4-3.6
		c0.9-1,2.1-1.4,3.5-1.4c1.5,0,2.7,0.5,3.7,1.4c0.9,1,1.4,2.2,1.4,3.8L167.9,153.4z M165.5,151.5c-0.2-0.5-0.5-1-0.9-1.3
		c-0.5-0.3-1-0.5-1.6-0.5c-0.7,0-1.3,0.2-1.8,0.6c-0.3,0.2-0.6,0.6-0.9,1.2H165.5z"/>
	<path class="st0" d="M175.7,149.2l-1.5,1.5c-0.6-0.6-1.2-0.9-1.6-0.9c-0.3,0-0.5,0.1-0.6,0.2c-0.2,0.1-0.2,0.3-0.2,0.4
		c0,0.1,0,0.2,0.1,0.4s0.3,0.3,0.7,0.4l0.9,0.4c0.9,0.5,1.6,0.9,1.9,1.4s0.5,1,0.5,1.7c0,0.8-0.3,1.6-0.9,2.1s-1.5,0.9-2.5,0.9
		c-1.4,0-2.5-0.5-3.3-1.6l1.5-1.6c0.3,0.3,0.6,0.6,1,0.8c0.4,0.2,0.7,0.3,1,0.3c0.3,0,0.6-0.1,0.8-0.2s0.3-0.3,0.3-0.5
		c0-0.4-0.3-0.7-1-1.1l-0.8-0.4c-1.5-0.8-2.3-1.8-2.3-2.9c0-0.8,0.3-1.4,0.9-1.9c0.6-0.5,1.3-0.8,2.2-0.8c0.6,0,1.2,0.1,1.8,0.4
		C174.9,148.3,175.3,148.7,175.7,149.2z"/>
	<path class="st0" d="M183.6,149.2l-1.5,1.5c-0.6-0.6-1.2-0.9-1.6-0.9c-0.3,0-0.5,0.1-0.6,0.2c-0.2,0.1-0.2,0.3-0.2,0.4
		c0,0.1,0,0.2,0.1,0.4s0.3,0.3,0.7,0.4l0.9,0.4c0.9,0.5,1.6,0.9,1.9,1.4s0.5,1,0.5,1.7c0,0.8-0.3,1.6-0.9,2.1s-1.5,0.9-2.5,0.9
		c-1.4,0-2.5-0.5-3.3-1.6l1.5-1.6c0.3,0.3,0.6,0.6,1,0.8c0.4,0.2,0.7,0.3,1,0.3c0.3,0,0.6-0.1,0.8-0.2s0.3-0.3,0.3-0.5
		c0-0.4-0.3-0.7-1-1.1l-0.8-0.4c-1.5-0.8-2.3-1.8-2.3-2.9c0-0.8,0.3-1.4,0.9-1.9c0.6-0.5,1.3-0.8,2.2-0.8c0.6,0,1.2,0.1,1.8,0.4
		C182.8,148.3,183.3,148.7,183.6,149.2z"/>
</g>
<rect x="80" y="177.2" class="st2" width="192" height="30"/>
<g class="st12">
	<path class="st0" d="M270,179.2v26H82v-26H270 M272,177.2H80v30h192V177.2L272,177.2z"/>
</g>
<g class="st13">
	<path class="st0" d="M102.8,187.9l-1.8,1.6c-0.6-0.9-1.3-1.3-2-1.3c-0.3,0-0.6,0.1-0.8,0.3s-0.3,0.4-0.3,0.6s0.1,0.4,0.2,0.6
		c0.2,0.3,0.8,0.8,1.8,1.7c0.9,0.8,1.5,1.3,1.7,1.5c0.5,0.5,0.9,1,1.1,1.4c0.2,0.5,0.3,1,0.3,1.5c0,1.1-0.4,1.9-1.1,2.6
		c-0.7,0.7-1.7,1-2.9,1c-0.9,0-1.7-0.2-2.4-0.7c-0.7-0.5-1.3-1.2-1.8-2.1l2.1-1.2c0.6,1.1,1.3,1.7,2.1,1.7c0.4,0,0.8-0.1,1.1-0.4
		s0.4-0.5,0.4-0.9c0-0.3-0.1-0.6-0.3-0.9s-0.7-0.7-1.4-1.3c-1.4-1.1-2.3-2-2.7-2.7c-0.4-0.6-0.6-1.2-0.6-1.9c0-0.9,0.3-1.7,1-2.3
		c0.7-0.6,1.5-1,2.5-1c0.6,0,1.3,0.1,1.8,0.4C101.5,186.6,102.1,187.1,102.8,187.9z"/>
	<path class="st0" d="M109.3,186.2h2.5l5,12.9h-2.6l-1-2.7h-5.3l-1.1,2.7h-2.6L109.3,186.2z M110.6,189.6l-1.7,4.4h3.5L110.6,189.6z
		"/>
	<path class="st0" d="M125.5,187.9l-1.8,1.6c-0.6-0.9-1.3-1.3-2-1.3c-0.3,0-0.6,0.1-0.8,0.3s-0.3,0.4-0.3,0.6s0.1,0.4,0.2,0.6
		c0.2,0.3,0.8,0.8,1.8,1.7c0.9,0.8,1.5,1.3,1.7,1.5c0.5,0.5,0.9,1,1.1,1.4c0.2,0.5,0.3,1,0.3,1.5c0,1.1-0.4,1.9-1.1,2.6
		c-0.7,0.7-1.7,1-2.9,1c-0.9,0-1.7-0.2-2.4-0.7c-0.7-0.5-1.3-1.2-1.8-2.1l2.1-1.2c0.6,1.1,1.3,1.7,2.1,1.7c0.4,0,0.8-0.1,1.1-0.4
		s0.4-0.5,0.4-0.9c0-0.3-0.1-0.6-0.3-0.9s-0.7-0.7-1.4-1.3c-1.4-1.1-2.3-2-2.7-2.7c-0.4-0.6-0.6-1.2-0.6-1.9c0-0.9,0.3-1.7,1-2.3
		c0.7-0.6,1.5-1,2.5-1c0.6,0,1.3,0.1,1.8,0.4C124.1,186.6,124.8,187.1,125.5,187.9z"/>
	<path class="st0" d="M134.8,187.9l-1.8,1.6c-0.6-0.9-1.3-1.3-2-1.3c-0.3,0-0.6,0.1-0.8,0.3s-0.3,0.4-0.3,0.6s0.1,0.4,0.2,0.6
		c0.2,0.3,0.8,0.8,1.8,1.7c0.9,0.8,1.5,1.3,1.7,1.5c0.5,0.5,0.9,1,1.1,1.4c0.2,0.5,0.3,1,0.3,1.5c0,1.1-0.4,1.9-1.1,2.6
		c-0.7,0.7-1.7,1-2.9,1c-0.9,0-1.7-0.2-2.4-0.7c-0.7-0.5-1.3-1.2-1.8-2.1l2.1-1.2c0.6,1.1,1.3,1.7,2.1,1.7c0.4,0,0.8-0.1,1.1-0.4
		s0.4-0.5,0.4-0.9c0-0.3-0.1-0.6-0.3-0.9s-0.7-0.7-1.4-1.3c-1.4-1.1-2.3-2-2.7-2.7c-0.4-0.6-0.6-1.2-0.6-1.9c0-0.9,0.3-1.7,1-2.3
		c0.7-0.6,1.5-1,2.5-1c0.6,0,1.3,0.1,1.8,0.4C133.5,186.6,134.1,187.1,134.8,187.9z"/>
</g>
<rect x="80" y="218.9" class="st8" width="128" height="30"/>
<g class="st12">
	<path class="st0" d="M206,220.9v26H82v-26H206 M208,218.9H80v30h128V218.9L208,218.9z"/>
</g>
<g class="st13">
	<path class="st0" d="M95.1,227.8h2.6c1.4,0,2.4,0.1,3.1,0.4s1.1,0.7,1.5,1.3s0.5,1.3,0.5,2.1c0,0.9-0.2,1.7-0.7,2.3s-1.1,1-1.9,1.2
		c-0.5,0.1-1.3,0.2-2.6,0.2v5.5h-2.5V227.8z M97.5,232.9h0.8c0.6,0,1,0,1.3-0.1c0.2-0.1,0.4-0.2,0.6-0.4c0.1-0.2,0.2-0.4,0.2-0.7
		c0-0.5-0.2-0.9-0.6-1.1c-0.3-0.2-0.8-0.3-1.6-0.3h-0.7V232.9z"/>
	<path class="st0" d="M105.1,227.8h2.5v4.9h4.3v-4.9h2.5v12.9H112v-5.7h-4.3v5.7h-2.5V227.8z"/>
	<path class="st0" d="M117.4,227.8h2.6c1.4,0,2.4,0.1,3.1,0.4s1.1,0.7,1.5,1.3s0.5,1.3,0.5,2.1c0,0.9-0.2,1.7-0.7,2.3
		s-1.1,1-1.9,1.2c-0.5,0.1-1.3,0.2-2.6,0.2v5.5h-2.5V227.8z M119.8,232.9h0.8c0.6,0,1,0,1.3-0.1c0.2-0.1,0.4-0.2,0.6-0.4
		c0.1-0.2,0.2-0.4,0.2-0.7c0-0.5-0.2-0.9-0.6-1.1c-0.3-0.2-0.8-0.3-1.6-0.3h-0.7V232.9z"/>
</g>
<rect x="80" y="260.5" class="st14" width="128" height="30"/>
<g class="st12">
	<path class="st0" d="M206,262.5v26H82v-26H206 M208,260.5H80v30h128V260.5L208,260.5z"/>
</g>
<g class="st13">
	<path class="st0" d="M96.3,272.8h2.4v9.9c0,0.9-0.1,1.6-0.3,2c-0.2,0.4-0.5,0.8-0.8,1s-0.9,0.4-1.4,0.4c-0.5,0-1.1-0.1-1.8-0.4
		v-1.9c0.4,0.2,0.7,0.3,1,0.3c0.3,0,0.5-0.1,0.7-0.3s0.2-0.5,0.2-1V272.8z M97.5,268.9c0.4,0,0.8,0.2,1.1,0.5s0.5,0.7,0.5,1.1
		c0,0.4-0.1,0.8-0.4,1.1s-0.7,0.5-1.1,0.5c-0.4,0-0.8-0.2-1.1-0.5c-0.3-0.3-0.5-0.7-0.5-1.1c0-0.4,0.1-0.8,0.4-1.1
		S97.1,268.9,97.5,268.9z"/>
	<path class="st0" d="M112.4,280.5l2.3,2.9h-2.9l-1.1-1.5c-0.9,0.5-2,0.8-3.2,0.8c-1.9,0-3.6-0.7-4.8-2c-1.3-1.3-1.9-2.9-1.9-4.8
		c0-1.2,0.3-2.4,0.9-3.4c0.6-1,1.4-1.9,2.5-2.5c1-0.6,2.2-0.9,3.4-0.9c1.8,0,3.4,0.7,4.7,2s2,2.9,2,4.8
		C114.1,277.7,113.5,279.2,112.4,280.5z M110.9,278.5c0.5-0.8,0.8-1.6,0.8-2.6c0-1.2-0.4-2.3-1.2-3.1c-0.8-0.9-1.8-1.3-3-1.3
		c-1.2,0-2.2,0.4-3,1.2c-0.8,0.8-1.2,1.9-1.2,3.2c0,1.4,0.5,2.6,1.5,3.4c0.8,0.7,1.7,1,2.7,1c0.6,0,1.1-0.1,1.7-0.3l-2.3-3h2.9
		L110.9,278.5z"/>
	<path class="st0" d="M116.1,272.8h2.4v4.6c0,0.9,0.1,1.5,0.2,1.9c0.1,0.3,0.3,0.6,0.6,0.8s0.6,0.3,1,0.3s0.7-0.1,1-0.3
		c0.3-0.2,0.5-0.5,0.6-0.8c0.1-0.3,0.1-0.9,0.1-1.8v-4.7h2.4v4.1c0,1.7-0.1,2.8-0.4,3.4c-0.3,0.8-0.8,1.3-1.4,1.7
		c-0.6,0.4-1.4,0.6-2.4,0.6c-1,0-1.9-0.2-2.5-0.7s-1.1-1.1-1.4-2c-0.2-0.6-0.3-1.6-0.3-3.2V272.8z"/>
	<path class="st0" d="M136.5,278.3h-7.7c0.1,0.7,0.4,1.2,0.9,1.6s1.1,0.6,1.9,0.6c0.9,0,1.7-0.3,2.3-0.9l2,0.9
		c-0.5,0.7-1.1,1.2-1.8,1.6c-0.7,0.3-1.5,0.5-2.5,0.5c-1.5,0-2.7-0.5-3.7-1.4c-0.9-0.9-1.4-2.1-1.4-3.6c0-1.5,0.5-2.7,1.4-3.6
		c0.9-1,2.1-1.4,3.5-1.4c1.5,0,2.7,0.5,3.7,1.4c0.9,1,1.4,2.2,1.4,3.8L136.5,278.3z M134.1,276.4c-0.2-0.5-0.5-1-0.9-1.3
		c-0.5-0.3-1-0.5-1.6-0.5c-0.7,0-1.3,0.2-1.8,0.6c-0.3,0.2-0.6,0.6-0.9,1.2H134.1z"/>
	<path class="st0" d="M137.9,272.8h2.1v1.2c0.2-0.5,0.5-0.8,0.9-1.1s0.8-0.4,1.2-0.4c0.3,0,0.6,0.1,1,0.2l-0.7,2.1
		c-0.3-0.1-0.5-0.2-0.7-0.2c-0.4,0-0.7,0.2-0.9,0.7s-0.4,1.4-0.4,2.7l0,0.5v3.9h-2.4V272.8z"/>
	<path class="st0" d="M143.2,272.8h2.5l2.5,6l2.7-6h2.5l-6,13.1h-2.5l2-4.2L143.2,272.8z"/>
</g>
<rect x="80" y="0.3" class="st15" width="2" height="400"/>
</svg>
