<?xml version="1.0" encoding="utf-8"?>
<!-- Generator: Adobe Illustrator 21.0.2, SVG Export Plug-In . SVG Version: 6.00 Build 0)  -->
<svg version="1.1" id="レイヤー_1" xmlns="http://www.w3.org/2000/svg" xmlns:xlink="http://www.w3.org/1999/xlink" x="0px"
	 y="0px" viewBox="0 0 150 30" style="enable-background:new 0 0 150 30;" xml:space="preserve">
<style type="text/css">
	.st0{fill:#CE0F1B;}
	.st1{fill:#68AADE;}
	.st2{fill:#3C5998;}
	.st3{fill:#0096DB;}
	.st4{fill:#FFFFFF;}
</style>
<title>sns</title>
<path class="st0" d="M15,0L15,0c8.3,0,15,6.7,15,15l0,0c0,8.3-6.7,15-15,15l0,0C6.7,30,0,23.3,0,15l0,0C0,6.7,6.7,0,15,0z"/>
<path class="st1" d="M75,0L75,0c8.3,0,15,6.7,15,15l0,0c0,8.3-6.7,15-15,15l0,0c-8.3,0-15-6.7-15-15l0,0C60,6.7,66.7,0,75,0z"/>
<path class="st2" d="M105,0L105,0c8.3,0,15,6.7,15,15l0,0c0,8.3-6.7,15-15,15l0,0c-8.3,0-15-6.7-15-15l0,0C90,6.7,96.7,0,105,0z"/>
<path class="st3" d="M135,0L135,0c8.3,0,15,6.7,15,15l0,0c0,8.3-6.7,15-15,15l0,0c-8.3,0-15-6.7-15-15l0,0C120,6.7,126.7,0,135,0z"
	/>
<path class="st4" d="M106.6,25v-9.1h3.1l0.5-3.6h-3.5v-2.3c-0.2-0.8,0.4-1.6,1.2-1.7c0.2,0,0.4,0,0.6,0h1.9V5.1
	C109.3,5,108.4,5,107.4,5c-2.7,0-4.6,1.7-4.6,4.7v2.6h-3.1v3.6h3.1V25C102.9,25,106.5,25,106.6,25z"/>
<path class="st4" d="M141.7,8.9c-1.6-1.3-3.6-2-5.6-1.9c-5.9,0-9.9,4.6-9.9,4.6l1.1,1.8c0,0,0.6,0.1,0.3-1c0.5-0.8,1.2-1.6,1.9-2.1
	v12c-0.5,0.1-1.1,0.4-0.7,0.8h3.2c0.4-0.4-0.2-0.7-0.7-0.8v-2.9c1.5,0.5,3,0.8,4.6,0.9c2,0,3.9-0.6,5.5-1.8c1.5-1.1,2.3-2.9,2.3-4.7
	C143.9,11.9,143.1,10.1,141.7,8.9z M139.9,17.5c-1.1,1-2.6,1.6-4.1,1.6c-1.5,0-3-0.3-4.4-0.9v-9c1.3-0.8,2.9-1.3,4.4-1.3
	c1.6,0,3.1,0.6,4.1,1.7c1,1.1,1.5,2.5,1.5,4C141.5,15.1,141,16.5,139.9,17.5z"/>
<path class="st4" d="M84.5,9.6c-0.7,0.3-1.4,0.5-2.2,0.6C83.1,9.7,83.7,9,84,8.1c-0.7,0.4-1.6,0.7-2.4,0.9c-1.4-1.5-3.8-1.6-5.4-0.2
	c-1,0.9-1.4,2.3-1.1,3.6c-3.1-0.2-5.9-1.6-7.8-4c-1,1.7-0.5,3.9,1.2,5.1c-0.6,0-1.2-0.1-1.7-0.4l0,0c0,1.8,1.2,3.3,3,3.7
	c-0.6,0.1-1.1,0.2-1.7,0.1c0.5,1.5,1.9,2.6,3.5,2.6c-1.3,1.1-2.9,1.6-4.6,1.7c-0.3,0-0.6,0-0.9,0c5,3.2,11.7,1.7,14.9-3.3
	c1.1-1.7,1.7-3.8,1.7-5.8v-0.5C83.4,11,84,10.3,84.5,9.6z"/>
<path d="M45,0L45,0c8.3,0,15,6.7,15,15l0,0c0,8.3-6.7,15-15,15l0,0c-8.3,0-15-6.7-15-15l0,0C30,6.7,36.7,0,45,0z"/>
<path class="st4" d="M23.7,9.2v12.3H6.3V9.2l8.7,7.6L23.7,9.2z M22.9,8.5H7.2l7.8,6.9L22.9,8.5z"/>
<path class="st4" d="M52.9,6.2c-0.4-0.1-0.9,0-1.6,0.2C50.6,6.7,50,7,49.5,7.3l-0.7,0.5c-1.2-0.3-2.5-0.5-3.8-0.5s-2.5,0.2-3.7,0.5
	c-0.2-0.1-0.5-0.3-0.8-0.5c-0.3-0.2-0.9-0.5-1.6-0.8c-0.7-0.3-1.3-0.4-1.7-0.3c-0.6,1.5-0.6,2.8-0.1,4c-1,1.1-1.5,2.4-1.5,4
	c0,1.1,0.1,2.1,0.4,2.9c0.3,0.8,0.6,1.5,1,2.1c0.4,0.5,0.9,1,1.6,1.3c0.6,0.4,1.2,0.6,1.8,0.8c0.6,0.2,1.3,0.3,2,0.4
	c-0.5,0.5-0.8,1.1-1,2c-0.3,0.1-0.6,0.2-0.9,0.3C40.1,24,39.7,24,39.3,24s-0.9-0.1-1.3-0.4c-0.4-0.3-0.8-0.7-1.1-1.2
	c-0.2-0.4-0.6-0.8-0.9-1c-0.4-0.3-0.7-0.4-1-0.5l-0.4-0.1c-0.3,0-0.5,0-0.6,0.1C34,21,33.9,21.1,34,21.2c0,0.1,0.1,0.2,0.2,0.3
	c0.1,0.1,0.2,0.2,0.3,0.2l0.1,0.1c0.3,0.1,0.6,0.4,0.8,0.7c0.3,0.4,0.5,0.7,0.6,1l0.2,0.4c0.2,0.5,0.5,0.9,0.9,1.2
	c0.4,0.3,0.8,0.5,1.3,0.6c0.5,0.1,0.9,0.1,1.4,0.1c0.4,0,0.8,0,1.1-0.1l0.4-0.1c0,0.5,0,1.1,0,1.7c0,0.7,0,1,0,1.1
	c0,0.2-0.1,0.4-0.3,0.6c-0.2,0.1-0.4,0.2-0.7,0.1c1.5,0.5,3.1,0.8,4.7,0.8c1.6,0,3.2-0.3,4.7-0.8c-0.3,0.1-0.6,0-0.7-0.1
	c-0.2-0.2-0.2-0.4-0.2-0.6v-4.1c0-1.3-0.3-2.2-1-2.8c0.7-0.1,1.4-0.2,2-0.4c0.6-0.2,1.2-0.4,1.8-0.8c0.6-0.4,1.2-0.8,1.6-1.3
	c0.4-0.5,0.8-1.2,1-2.1c0.3-0.9,0.4-1.8,0.4-2.9c0-1.6-0.5-2.9-1.5-4C53.5,9,53.5,7.7,52.9,6.2z"/>
</svg>
