<svg id="レイヤー_1" xmlns="http://www.w3.org/2000/svg" viewBox="0 0 800 460"><style>.st0{fill:#f8e6bb}.st1{fill:#ad5d22}.st2{fill:#203443}.st3{fill:#3e4347}.st4{fill:#d05627}.st5{fill:#b9b9b9}.st6{fill:#fff}.st7{fill:#a8a7a7}.st8{fill:#d8d8d9}.st9{fill:#7f7f7f}.st10{fill:#497597}.st11{fill:#6196c1}.st12{fill:#60bcbd}.st13{fill:#eeeeef}.st14{fill:#d95d2d}.st15{fill:#babbbb}.st16{fill:#7a7a7b}.st17{fill:#545455}.st18{fill:#626363}.st19{fill:#4d5d69}.st20{fill:#f29600}.st21{opacity:.1;fill:#fff;enable-background:new}.st22{fill:#f5ab51}.st23{fill:#fad29d}</style><path class="st0" d="M572.7 284.2c.6-2.1.8-9.4 1.1-16.2l-8.6-2.2-32.3-51.6-58.8-9.7-47.6 13.7-21.4-22.1 11.1-31.3-14.5-14.3-25-1.6-30.4-4.6-3.7-1.7c-5.4 2.9-30.9 12.4-32.7 14.6-5 6.2 8.6 22 13.9 23.3s31.2-5.3 42.3 3.4c11.1 8.8 6.8 31.6 6 33.8-.7 2.2-7 42.8 26.3 50 2.3 1-1.7 16.4-3 17.1s-7.3-.1-9.1 0c-3.7 2.7-7.5 15.1-2.1 16.2 5.3 1.1 7.2.6 8.2 0 .7 2.3 10.2 9.3 25.2-5.9 2.9-2.7 7.2-19.8 10.2-21.1 4.7-.7 21.3-4.9 33.1-16.7 5.2-5.2 27.8-16.8 40.5-13.6 6.5 11.5 31.1 27.7 49.9 21.3 2 4.9 1.4 14.8 0 17.4s-10.2 4.9-11.8 4.7c-1.6.4-5.9 9.6.7 12.6 6.6 3.1 6.6 1.3 7.3.9.1 1.9 7.2 6.6 15.1-1 4.7-4.3 8.1-9.5 10.1-15.4z"/><path class="st1" d="M581.9 216.6c-1.1-19.4-15.7-32.5-17.8-33.5 2.9.6 7.5.4 8.9-.6 1.5-1-16.4-14.4-46.9-18.8-27.2-3.9-40 8.2-70.9 5.2-31-3-43-28-43.6-34.3-.5-6.3-60.7-10.8-60.7-10.8-6.5 6.8-5.7 16.4-7.3 18.1-.2.2-.4.3-.6.4 1.1 8.5 11.2 23.2 30.5 13.3 9.6-4.9 33.5 1.8 21.5 22.3-3.6 6.2-15 12.7-4.6 25.9 10.3 13.2 2.8 50.2 49.7 52.4 28.1 1.3 27.3-21.3 59-23.2 3 9.5 22.4 38.4 52.8 34.1.6 2.8.8 5.6.6 8.4 2.4 2 4.9 3.7 6.8 3.4 1.9-.3 10.1-3.7 14.4-10.3.2-5.9.3-11.6.7-13.5.9-4.1 8.7-19.1 7.5-38.5z"/><path class="st2" d="M390.4 94.7c-18.8-4.3-35.1.2-41.5 27.7l33.3 7.7 33.3 7.8c6.4-27.6-6.3-38.8-25.1-43.2z"/><path class="st3" d="M417.5 130.3c.1-.4-.2-.8-.6-.9l-32.8-7.6-32.8-7.6c-.4-.1-.8.2-.9.6-.9 2.4-1.6 4.9-2.1 7.5l34 7.8 34 7.8c.5-2.5 1-5 1.2-7.6z"/><path class="st0" d="M373.5 128c-.4-7.8 2.1-41.9 4.1-42.9 2.1-1 11 44.8 11.2 46.3.2 1.4-15.3-3.4-15.3-3.4z"/><path class="st1" d="M377.6 128.8c13.1-3.8.2-40.1-1.5-43.7s5.2-5 12.8 12.4c7.6 17.3 10.2 35 12.9 36.6-.2.2-24.2-5.3-24.2-5.3z"/><path class="st2" d="M338 120.9l.4-1.9c.1-.6.7-.9 1.3-.8l86 19.8c.6.1.9.7.8 1.3l-.4 1.9c-.1.6-.7.9-1.3.8l-85.9-19.8c-.7-.1-1-.7-.9-1.3z"/><ellipse class="st4" cx="299.6" cy="155.9" rx="13.4" ry="13.3"/><path class="st2" d="M341.9 132.8c-1.3-.1-2.4-.2-2.4.9s2.1 17.3 2.1 18.4c.1.4 1.6-.2 1.9-.8s-.2-8.2-.2-9c.1-.8.2-1.6.4-2.4v-2l12.6.5c3.6.1 7.1 0 10.6-.2 1.7-.3 11.7-.1 15.2.6s7.5 3.7 9.8 6c2.4 2.2 4.9 5.2 7.6 3.5 2.6-1.7-4.7-7-14.7-10.5-10-3.6-31.9-4.3-31.9-4.3l-11-.7z"/><path class="st5" d="M679.6 19h7.7c2.3 0 4.1-1.8 4.1-4.1s-1.9-4.1-4.1-4.1h-7.7c-2.3 0-4.1 1.8-4.1 4.1v.1c0 2.2 1.9 4 4.1 4z"/><circle class="st6" cx="687.4" cy="14.9" r="2"/><path class="st5" d="M542.9 10.7h7.7c2.3 0 4.1 1.8 4.1 4.1v.1c0 2.3-1.8 4.1-4.1 4.1h-7.7c-2.3 0-4.1-1.8-4.1-4.1v-.1c0-2.2 1.8-4.1 4.1-4.1z"/><path class="st7" d="M551.3 1.5h20.9v4.2h-20.9zm26 0h8.8v4.2h-8.8z"/><path class="st7" d="M573.3 2.3h17v3.4h-17zm17.6.6h20.3v2.8h-20.3z"/><path class="st2" d="M680.3 9.4H549.9c-1.8 0-3.2 1.5-3.1 3.3v66.5c0 1.8 1.4 3.2 3.1 3.3h130.4c1.8 0 3.2-1.5 3.1-3.3V12.7c.1-1.8-1.3-3.3-3.1-3.3.1 0 .1 0 0 0z"/><path class="st8" d="M546.8 4.7h136.7v9.4H546.8z"/><path class="st5" d="M669.2 38h6.5c3.3 0 6 2.7 6 6v.1c0 3.3-2.7 6-6 6h-6.5c-3.3 0-6-2.7-6-6V44c0-3.3 2.7-6 6-6z"/><ellipse class="st9" cx="675.7" cy="44.1" rx="4.8" ry="4.8"/><circle class="st2" cx="593.6" cy="9.5" r="1.5"/><ellipse class="st8" cx="631.9" cy="43.9" rx="41.5" ry="41.4"/><ellipse class="st7" cx="631.9" cy="43.9" rx="36.1" ry="36"/><ellipse class="st8" cx="631.9" cy="43.9" rx="34.7" ry="34.7"/><ellipse class="st7" cx="631.9" cy="43.9" rx="28.2" ry="28.2"/><ellipse class="st2" cx="631.9" cy="43.9" rx="27.1" ry="27"/><ellipse class="st9" cx="631.9" cy="43.9" rx="21.8" ry="21.8"/><ellipse class="st2" cx="631.9" cy="43.9" rx="21.3" ry="21.2"/><ellipse class="st2" cx="631.9" cy="43.9" rx="19.5" ry="19.5"/><ellipse class="st10" cx="631.9" cy="43.9" rx="15" ry="15"/><ellipse class="st11" cx="631.9" cy="43.9" rx="9.9" ry="9.9"/><path class="st9" d="M667.6 68.6h6.4c.6 0 1 .4 1 1v5.9c0 .6-.4 1-1 1h-6.4c-.6 0-1-.4-1-1v-5.9c0-.5.5-1 1-1z"/><circle class="st6" cx="542.8" cy="14.9" r="2"/><path class="st12" d="M7.8 390h56.1c3.8 0 6.9 3 6.9 6.8v56.1c0 3.8-3.1 6.9-6.8 6.9H7.8c-3.8 0-6.9-3-6.9-6.8v-56.1c0-3.8 3-6.9 6.9-6.9-.1 0-.1 0 0 0z"/><path class="st6" d="M35.8 406.4l5.6 12.1 13.2 1.6-9.7 9.1 2.5 13-11.6-6.4-11.7 6.4 2.6-13-9.7-9.1 13.2-1.6z"/><path class="st13" d="M35.8 406.4v29.3l11.6 6.5-2.5-13 9.7-9.1-13.2-1.6z"/><path d="M710.6 1.4H800v93.5h-89.4z"/><path class="st4" d="M710.6 1.4H800v93.5h-89.4z"/><path class="st2" d="M714.6 5.6h81.1v84.8h-81.1z"/><path class="st4" d="M773.9 39.5v6.6l-12.4 3.7v12.6l12.4 3.6v6.4l-42-12.6v-7.7l42-12.6zm-17.3 11.3l-11 3.2c-2.8.8-5.7 1.5-8.3 2v.1c2.6.6 5.7 1.2 8.2 1.9l11 3.3.1-10.5zm-18.3-20.3c0 2.1-1.7 3.8-3.8 3.8s-3.8-1.7-3.8-3.8 1.7-3.8 3.8-3.8c2-.1 3.7 1.5 3.8 3.5v.3zm35.6-3.2v6.5H743v-6.5h30.9z"/><path class="st2" d="M476.9 341h102.8v68.4H476.9z"/><path class="st8" d="M512.4 351.4h31.8V399h-31.8zm-34.4 0h31.8V399H478zm68.9 0h31.8V399h-31.8zm28.5-7.7h2.2c.5 0 1 .4 1 1v4.3c0 .5-.4 1-1 1h-2.2c-.5 0-1-.4-1-1v-4.3c.1-.6.5-1 1-1zm-6.9 0h2.2c.5 0 1 .4 1 1v4.3c0 .5-.4 1-1 1h-2.2c-.5 0-1-.4-1-1v-4.3c.1-.6.5-1 1-1zm-6.9 0h2.2c.5 0 1 .4 1 1v4.3c0 .5-.4 1-1 1h-2.2c-.5 0-1-.4-1-1v-4.3c.1-.6.5-1 1-1zm-6.8 0h2.2c.5 0 1 .4 1 1v4.3c0 .5-.4 1-1 1h-2.2c-.5 0-1-.4-1-1v-4.3c0-.6.4-1 1-1zm-6.9 0h2.2c.5 0 1 .4 1 1v4.3c0 .5-.4 1-1 1h-2.2c-.5 0-1-.4-1-1v-4.3c0-.6.4-1 1-1zm-6.9 0h2.2c.5 0 1 .4 1 1v4.3c0 .5-.4 1-1 1H541c-.5 0-1-.4-1-1v-4.3c0-.6.4-1 1-1zm-6.9 0h2.2c.5 0 1 .4 1 1v4.3c0 .5-.4 1-1 1h-2.2c-.5 0-1-.4-1-1v-4.3c0-.6.4-1 1-1zm-6.9 0h2.2c.5 0 1 .4 1 1v4.3c0 .5-.4 1-1 1h-2.2c-.5 0-1-.4-1-1v-4.3c0-.6.4-1 1-1zm-6.9 0h2.2c.5 0 1 .4 1 1v4.3c0 .5-.4 1-1 1h-2.2c-.5 0-1-.4-1-1v-4.3c0-.6.5-1 1-1zm-6.9 0h2.2c.5 0 1 .4 1 1v4.3c0 .5-.4 1-1 1h-2.2c-.5 0-1-.4-1-1v-4.3c0-.6.5-1 1-1zm-6.9 0h2.2c.5 0 1 .4 1 1v4.3c0 .5-.4 1-1 1h-2.2c-.5 0-1-.4-1-1v-4.3c0-.6.5-1 1-1zm-6.9 0h2.2c.5 0 1 .4 1 1v4.3c0 .5-.4 1-1 1h-2.2c-.5 0-1-.4-1-1v-4.3c0-.6.5-1 1-1zm-6.9 0h2.2c.5 0 1 .4 1 1v4.3c0 .5-.4 1-1 1h-2.2c-.5 0-1-.4-1-1v-4.3c0-.6.5-1 1-1zm-6.9 0h2.2c.5 0 1 .4 1 1v4.3c0 .5-.4 1-1 1h-2.2c-.5 0-1-.4-1-1v-4.3c0-.6.5-1 1-1zm-6.9 0h2.2c.5 0 1 .4 1 1v4.3c0 .5-.4 1-1 1h-2.2c-.5 0-1-.4-1-1v-4.3c.1-.6.5-1 1-1zm96.5 56.8h2.2c.5 0 1 .4 1 1v4.3c0 .5-.4 1-1 1h-2.2c-.5 0-1-.4-1-1v-4.3c.1-.6.5-1 1-1zm-6.9 0h2.2c.5 0 1 .4 1 1v4.3c0 .5-.4 1-1 1h-2.2c-.5 0-1-.4-1-1v-4.3c.1-.6.5-1 1-1zm-6.9 0h2.2c.5 0 1 .4 1 1v4.3c0 .5-.4 1-1 1h-2.2c-.5 0-1-.4-1-1v-4.3c.1-.6.5-1 1-1zm-6.8 0h2.2c.5 0 1 .4 1 1v4.3c0 .5-.4 1-1 1h-2.2c-.5 0-1-.4-1-1v-4.3c0-.6.4-1 1-1zm-6.9 0h2.2c.5 0 1 .4 1 1v4.3c0 .5-.4 1-1 1h-2.2c-.5 0-1-.4-1-1v-4.3c0-.6.4-1 1-1zm-6.9 0h2.2c.5 0 1 .4 1 1v4.3c0 .5-.4 1-1 1H541c-.5 0-1-.4-1-1v-4.3c0-.6.4-1 1-1zm-6.9 0h2.2c.5 0 1 .4 1 1v4.3c0 .5-.4 1-1 1h-2.2c-.5 0-1-.4-1-1v-4.3c0-.6.4-1 1-1zm-6.9 0h2.2c.5 0 1 .4 1 1v4.3c0 .5-.4 1-1 1h-2.2c-.5 0-1-.4-1-1v-4.3c0-.6.4-1 1-1zm-6.9 0h2.2c.5 0 1 .4 1 1v4.3c0 .5-.4 1-1 1h-2.2c-.5 0-1-.4-1-1v-4.3c0-.6.5-1 1-1zm-6.9 0h2.2c.5 0 1 .4 1 1v4.3c0 .5-.4 1-1 1h-2.2c-.5 0-1-.4-1-1v-4.3c0-.6.5-1 1-1zm-6.9 0h2.2c.5 0 1 .4 1 1v4.3c0 .5-.4 1-1 1h-2.2c-.5 0-1-.4-1-1v-4.3c0-.6.5-1 1-1zm-6.9 0h2.2c.5 0 1 .4 1 1v4.3c0 .5-.4 1-1 1h-2.2c-.5 0-1-.4-1-1v-4.3c0-.6.5-1 1-1zm-6.9 0h2.2c.5 0 1 .4 1 1v4.3c0 .5-.4 1-1 1h-2.2c-.5 0-1-.4-1-1v-4.3c0-.6.5-1 1-1zm-6.9 0h2.2c.5 0 1 .4 1 1v4.3c0 .5-.4 1-1 1h-2.2c-.5 0-1-.4-1-1v-4.3c0-.6.5-1 1-1zm-6.9 0h2.2c.5 0 1 .4 1 1v4.3c0 .5-.4 1-1 1h-2.2c-.5 0-1-.4-1-1v-4.3c.1-.6.5-1 1-1z"/><path class="st4" d="M15 372.3h30.3l8.8-90.2H6.2z"/><path class="st14" d="M2 279h56.4v7.1H2zm10.6 69l.3 2.4h34.6l.2-2.4zm-.5-5.7l.2 2.4H48l.3-2.4zm1.1 11.3l.2 2.4h33.5l.2-2.4zm33.4 5.6H13.7l.3 2.5h32.4zm-36.2-33.8l.3 2.4h39l.2-2.4zm.6 5.6l.2 2.5h37.9l.3-2.5zm.5 5.7l.3 2.4h36.8l.2-2.4z"/><path class="st8" d="M77.6 372.3h30.3l8.8-90.2h-48z"/><path class="st15" d="M64.5 279h56.4v7.1H64.5zm10.7 69l.2 2.4H110l.2-2.4zm-.6-5.7l.3 2.4h35.6l.3-2.4zm1.1 11.3l.3 2.4h33.4l.3-2.4zm33.4 5.6H76.3l.2 2.5h32.4zM73 325.4l.2 2.4h39l.2-2.4zm.5 5.6l.3 2.5h37.9l.2-2.5zm.6 5.7l.2 2.4h36.8l.2-2.4z"/><path class="st8" d="M134.8 311.7v60.9c0 3.1 2.5 5.6 5.6 5.6h89.9c3.1 0 5.6-2.5 5.6-5.6v-60.9c0-3.1-2.5-5.6-5.6-5.6h-89.9c-3.1 0-5.6 2.5-5.6 5.6z"/><path class="st2" d="M219 319.7v-1.6l3.1-.9V314l-3.1-.9v-1.6l10.4 3.1v1.9l-10.4 3.2zm4.3-2.8l2.7-.8c.7-.2 1.4-.4 2-.5-.6-.1-1.4-.3-2-.5l-2.7-.8v2.6zm-71.6 47.6v1.6l-3.1.9v3.1l3.1.9v1.6l-10.4-3.1v-1.9l10.4-3.1zm-4.2 2.8l-2.7.8c-.7.2-1.4.4-2 .5.6.1 1.4.3 2 .5l2.7.8v-2.6zm51.4-25.3c0-3.6-2.9-6.5-6.5-6.4-1.8 0-3.5.8-4.7 2.1.4-.9.7-1.8.6-2.8 0-3.6-2.9-6.5-6.4-6.5-3.6 0-6.5 2.9-6.5 6.4 0 2.7 1.6 5 4 6h-2.3l-1.5-.9-3.7-2.1v8.6l3.7-2.1 1.5-.9h2.3c-3.3 1.4-4.9 5.1-3.5 8.4s5.1 4.9 8.4 3.5c2.4-1 4-3.3 4-6 0-1.1-.3-2.2-.9-3.2 1.2 1.5 3.1 2.3 5 2.3 3.6 0 6.5-2.9 6.5-6.4zm18.7-26.4c0-1.1-.9-1.9-1.9-1.9-.5 0-1.1.2-1.4.6.1-.3.2-.5.2-.8 0-1.1-.8-1.9-1.9-1.9-1.1 0-1.9.8-1.9 1.9 0 .8.5 1.5 1.2 1.8h-.7l-.5-.3-1.1-.6v2.5l1.1-.6.5-.3h.7c-1 .4-1.4 1.5-1 2.5s1.5 1.4 2.5 1c.7-.3 1.2-1 1.2-1.8 0-.3-.1-.7-.3-.9.4.4.9.7 1.5.7.9 0 1.7-.9 1.8-1.9zm-64.4 52.9c0-1.1.9-1.9 1.9-1.9.5 0 1.1.2 1.4.6-.1-.3-.2-.5-.2-.8 0-1.1.8-1.9 1.9-1.9 1.1 0 1.9.8 1.9 1.9 0 .8-.5 1.5-1.2 1.8h.7l.5-.3 1.1-.6v2.5l-1.1-.6-.5-.3h-.6c1 .4 1.4 1.5 1 2.5s-1.5 1.4-2.5 1c-.7-.3-1.2-1-1.2-1.8 0-.3.1-.7.3-.9-.4.4-.9.7-1.5.7-1 0-1.9-.8-1.9-1.9z"/><ellipse class="st16" cx="602.7" cy="138.9" rx="38" ry="37.9"/><ellipse class="st17" cx="602.7" cy="138.9" rx="36.4" ry="36.3"/><path class="st16" d="M588.5 122.1c-1.5-.9-3.3-2.4-3.2-4.4s1.5-.4 1.6-1.6.7-4 3.1-3.2c2.1-2 6.6-3 9-3.2s2.5-2 7.4 0c2.4 1 7.8-.9 10.8 4.2 4.3 2.8 6.3 6 5 12-.6 2.5-.8 7.7-2.9 12-2.1 4.2-2 7.1 1.2 12.7-7.2 2.7-18.6 9.9-22.3 13.1-1.9.8-.9-3.8-.9-4.7 0-1.4-1-3.7-.8-6.3-.1-1.6-2.6-1-4.2-1.3-1.6-.3-2.9-.8-4.2-1-1.4-.2-1.5-2.5-.6-3.6 1.5-1.9-1.9-2.6-.5-4.3-1-.4-.5-2.8-.6-3.6-.7-.7-2.4 0-3.2-1.3s4.9-7.4 4.4-8.1c-1.4-1.8.9-7.4.9-7.4zm-3.3 46.7l-3.8-2.7.2-.3c1.3 0 3.4.2 4.2-.9.4-.4.4-1.1-.1-1.5l-.1-.1c-.5-.3-1.2-.3-1.7 0l-.1-.4 1.1-.4c.6-.1 1.2 0 1.7.4.8.5 1.1 1.6.6 2.5 0 0 0 .1-.1.1-.4.6-1.1.8-2.2.8-.3 0-.8 0-1.4.1l1.4 1c.3.4.9.4 1.3.1l.2.3-1.2 1zm11-1.1c1.6.3 2.6 1.7 2.4 3.3-.3 1.6-1.7 2.6-3.3 2.4-1.6-.3-2.6-1.7-2.4-3.3v-.2c.2-1.5 1.6-2.5 3.1-2.2h.2zm-.1.6c-.7-.2-1.5.5-1.9 1.9-.3 1.4.1 2.3.9 2.5.7.2 1.6-.5 1.9-1.9.2-1.4-.2-2.3-.9-2.5zm11.6 5.5l-.1-.4.7-.3c.5-.2.5-.4.3-1l-.8-2.4c-.2-.5-.3-.6-.7-.5l-.7.2-.1-.3c.8-.4 1.5-.9 2.2-1.4l1.4 4.1c.2.6.3.7.9.6l.7-.2.1.4-3.9 1.2zm14.7-9.1l-.8.6 1.4 1.8-1 .8-1.4-1.8-2.5 1.9-.3-.4c-.1-1.7-.1-4.4 0-6l.6-.5 2.8 3.6.9-.7.3.7zm-4.2-1.6c0 1.2.1 2.4.2 3.8l1.7-1.4-1.9-2.4z"/><path class="st14" d="M120.3 49.6l-7.3-7.2c1.4 3.3 4 5.9 7.3 7.2z"/><path class="st8" d="M111.9 57.9V23c0-2.4-6.9-17.5-51.7-17.5h-36v69.9h36c44.8 0 51.7-15.1 51.7-17.5z"/><path class="st15" d="M24.2 1.7c2.3 0 4.2 1.8 4.2 4.1V75c0 2.3-1.8 4.1-4.1 4.1h-.1c-2.3 0-4.1-1.8-4.1-4.1V5.8c0-2.3 1.8-4.1 4.1-4.1zM61.1 4c1 0 1.7.8 1.7 1.7V75c0 .9-.8 1.7-1.7 1.7-.9 0-1.7-.8-1.7-1.7V5.7c0-.9.7-1.7 1.7-1.7zm-8.7 0c1 0 1.7.8 1.7 1.7V75c0 .9-.8 1.7-1.7 1.7-.9 0-1.7-.8-1.7-1.7V5.7c0-.9.8-1.7 1.7-1.7z"/><path class="st4" d="M135.2 30.8c5.3 5.3 5.3 14 0 19.3s-14 5.3-19.3 0-5.3-14 0-19.3 13.9-5.4 19.3 0c0-.1 0 0 0 0z"/><path class="st14" d="M138.4 44.8c.3-.9.5-1.9.6-2.8l-15-15c-1 .1-1.9.3-2.8.6l17.2 17.2zm-2 3.8c.5-.7 1-1.4 1.3-2.1l-18.3-18.2c-.7.4-1.5.8-2.1 1.3l19.1 19zm-9.9-21.7l12.6 12.6c-.1-1.6-.5-3.1-1.1-4.5l-7-7c-1.4-.7-2.9-1-4.5-1.1zm-14.4 15.4l11.6 11.6c1.2.1 2.3.1 3.5 0l-15.1-15c-.2 1.1-.2 2.2 0 3.4zm2.3-9.7l19 18.9c.7-.5 1.3-1 1.9-1.5L116 30.8c-.6.5-1.2 1.2-1.6 1.8zm14.9 20.9c.9-.3 1.7-.6 2.5-1l-18.3-18.2c-.4.8-.7 1.6-1 2.5l16.8 16.7z"/><path class="st8" d="M111.9 136.9V102c0-2.4-6.9-17.5-51.7-17.5h-36v69.9h36c44.8-.1 51.7-15.1 51.7-17.5z"/><path class="st15" d="M24.2 80.7c2.3 0 4.2 1.8 4.2 4.1V154c0 2.3-1.8 4.1-4.1 4.1h-.1c-2.3 0-4.1-1.8-4.1-4.1V84.8c0-2.3 1.8-4.1 4.1-4.1zm36.9 2.4c1 0 1.7.8 1.7 1.7v69.3c0 .9-.8 1.7-1.7 1.7-.9 0-1.7-.8-1.7-1.7V84.7c0-.9.7-1.6 1.7-1.6zm-8.7 0c1 0 1.7.8 1.7 1.7v69.3c0 .9-.8 1.7-1.7 1.7-.9 0-1.7-.8-1.7-1.7V84.7c0-.9.8-1.6 1.7-1.6z"/><path class="st8" d="M111.9 215.9V181c0-2.4-6.9-17.5-51.7-17.5h-36v69.9h36c44.8-.1 51.7-15.1 51.7-17.5z"/><path class="st15" d="M20.1 233v-69.3c0-2.3 1.8-4.1 4.1-4.1h.1c2.3 0 4.1 1.8 4.1 4.1V233c0 2.3-1.8 4.1-4.1 4.1h-.1c-2.3 0-4.1-1.8-4.1-4.1zm41-71c1 0 1.7.8 1.7 1.7v69.4c0 .9-.8 1.7-1.7 1.7-.9 0-1.7-.8-1.7-1.7v-69.4c0-.9.7-1.7 1.7-1.7zm-8.7 0c1 0 1.7.8 1.7 1.7v69.4c0 .9-.8 1.7-1.7 1.7-.9 0-1.7-.8-1.7-1.7v-69.4c0-.9.8-1.7 1.7-1.7z"/><path class="st2" d="M0 0h11.4v240H0z"/><path class="st8" d="M0 0h11.4v38.4H0zm0 201.6h11.4V240H0z"/><path class="st4" d="M43.4 213.9c5.3 5.3 5.3 14 0 19.3s-14 5.3-19.3 0-5.3-14 0-19.3c5.3-5.4 13.9-5.4 19.3 0 0-.1 0 0 0 0z"/><path class="st14" d="M46.6 227.9c.3-.9.5-1.9.6-2.8l-15-15c-1 .1-1.9.3-2.8.6l17.2 17.2zm-2.1 3.8c.5-.7.9-1.4 1.3-2.1l-18.3-18.2c-.7.4-1.5.8-2.1 1.3l19.1 19zM28.4 236l-7.2-7.2c1.4 3.3 4 5.9 7.2 7.2zm6.3-26l12.6 12.6c-.1-1.6-.5-3.1-1.1-4.5l-7-7c-1.4-.7-3-1-4.5-1.1zm-14.4 15.4L31.9 237c1.2.1 2.3.1 3.5 0l-15.1-15c-.2 1.1-.2 2.2 0 3.4zm2.2-9.7l19 18.9c.7-.5 1.3-1 1.9-1.5l-19.3-19.3c-.6.6-1.1 1.3-1.6 1.9zm14.9 20.9c.9-.3 1.7-.6 2.5-1l-18.3-18.2c-.4.8-.7 1.6-1 2.5l16.8 16.7z"/><path class="st4" d="M43.4 134.9c5.3 5.3 5.3 14 0 19.3s-14 5.3-19.3 0-5.3-14 0-19.3c5.3-5.4 13.9-5.4 19.3 0 0-.1 0 0 0 0z"/><path class="st14" d="M46.6 148.9c.3-.9.5-1.9.6-2.8l-15-15c-1 .1-1.9.3-2.8.6l17.2 17.2zm-2.1 3.8c.5-.7.9-1.4 1.3-2.1l-18.3-18.2c-.7.4-1.5.8-2.1 1.3l19.1 19zM28.4 157l-7.2-7.2c1.4 3.3 4 5.9 7.2 7.2zm6.3-26l12.6 12.6c-.1-1.6-.5-3.1-1.1-4.5l-7-7c-1.4-.7-3-1-4.5-1.1zm-14.4 15.4L31.9 158c1.2.1 2.3.1 3.5 0l-15.1-15c-.2 1.1-.2 2.2 0 3.4zm2.2-9.7l19 18.9c.7-.5 1.3-1 1.9-1.5l-19.3-19.3c-.6.6-1.1 1.3-1.6 1.9zm14.9 20.9c.9-.3 1.7-.6 2.5-1l-18.3-18.2c-.4.8-.7 1.6-1 2.5l16.8 16.7z"/><path class="st0" d="M334.2 384.7h-58.4c-6.7 0-12.1-5.4-12.1-12V223.9c0-6.7 5.4-12.1 12.1-12.1h58.4c6.7 0 12.1 5.4 12.1 12v148.7c-.1 6.8-5.5 12.2-12.1 12.2z"/><path class="st0" d="M262.5 248.2h1.8v12.2h-1.8zm0-12.6h2.4v7.7h-2.4zm0 28.6h1.8v12.2h-1.8zm56.3-53.7h13.4v1.8h-13.4z"/><path class="st2" d="M333 382.8h-56.1c-6.2 0-11.3-5-11.3-11.3V224.8c0-6.2 5.1-11.3 11.3-11.3H333c6.2 0 11.3 5 11.3 11.3v146.8c0 6.2-5.1 11.2-11.3 11.2z"/><ellipse class="st3" cx="305" cy="371.4" rx="7.9" ry="7.9"/><path class="st2" d="M303.4 368.6h3.2c.7 0 1.2.5 1.2 1.2v3.2c0 .7-.5 1.2-1.2 1.2h-3.2c-.7 0-1.2-.5-1.2-1.2v-3.2c0-.7.5-1.2 1.2-1.2z"/><path class="st3" d="M299 225.1h12c.9 0 1.7.8 1.7 1.7 0 .9-.8 1.7-1.7 1.7h-12c-.9 0-1.7-.8-1.7-1.7 0-1 .7-1.7 1.7-1.7z"/><circle class="st3" cx="305" cy="220.2" r="1.6"/><path class="st0" d="M270 236.1h70v123.6h-70z"/><path class="st2" d="M289 261.3c1.1.5 2.1 1.3 2.9 2.3.6.8.9 1.9.9 2.9 0 1.5-.5 2.9-1.5 4-1.3 1.5-3.2 2.2-5.2 2.1-1.8.1-3.7-.6-5-1.9-1.1-1.1-1.7-2.6-1.7-4.1 0-1.1.3-2.1.9-3 .8-1 1.8-1.8 2.9-2.3-.9-.4-1.6-1.1-2.2-1.9-.5-.7-.7-1.5-.7-2.4s.3-1.8.8-2.5c.5-.8 1.3-1.5 2.1-1.9.9-.5 1.9-.7 2.9-.7s2 .2 2.9.7c.8.4 1.6 1.1 2 1.9.5.8.7 1.6.7 2.5 0 .8-.2 1.7-.7 2.4-.5.8-1.2 1.5-2 1.9zm-2.9 1c-1.3 0-2.5.4-3.4 1.3-.9.8-1.4 1.9-1.4 3.1 0 .7.2 1.4.6 2s1 1.2 1.6 1.5c.8.4 1.6.5 2.4.5 1.3.1 2.5-.4 3.4-1.3.8-.8 1.3-1.9 1.3-3s-.5-2.2-1.3-2.9c-.8-.8-2-1.2-3.2-1.2zm-.1-8.4c-1 0-2 .3-2.7 1-.7.6-1.1 1.4-1.1 2.3s.4 1.8 1.1 2.4c1.2 1.2 3 1.4 4.5.6.6-.3 1-.8 1.4-1.3.3-.5.5-1.1.5-1.7 0-.8-.4-1.6-1-2.2-.7-.8-1.7-1.2-2.7-1.1zm11.7 3.3c.9 0 1.7.7 1.7 1.6s-.7 1.7-1.6 1.7-1.7-.7-1.7-1.6c0-.4.2-.9.5-1.2s.7-.5 1.1-.5zm0 12c.9 0 1.6.8 1.6 1.7 0 .4-.2.8-.5 1.1-.6.6-1.7.7-2.3 0-.7-.6-.7-1.7-.1-2.3.4-.4.9-.6 1.3-.5zm15.1-17.2h.4v13.7h2.4v1.9h-2.4v4.6h-2v-4.6h-9.4l11-15.6zm-1.5 13.7v-8.3l-5.8 8.3h5.8zm5.9-3.4c-.1-2 .2-4.1.8-6 .5-1.3 1.3-2.4 2.4-3.2 1-.7 2.2-1.1 3.4-1.1 1.2 0 2.5.4 3.5 1.1 1.1.8 2 2 2.5 3.3 1.2 3.8 1.2 8 0 11.8-.5 1.3-1.3 2.5-2.5 3.3-1 .7-2.2 1.1-3.5 1.1-1.2 0-2.4-.4-3.4-1.1-1.1-.8-1.9-1.9-2.4-3.2-.6-1.9-.9-4-.8-6zm1.9 0c-.1 1.7.1 3.4.6 5 .3 1 .9 1.9 1.8 2.6.7.6 1.6.9 2.5.9s1.8-.3 2.5-.9c.8-.7 1.4-1.6 1.7-2.6.5-1.6.8-3.3.7-5 0-1.6-.2-3.3-.7-4.9-.3-1.1-.9-2-1.8-2.8-1.4-1.2-3.5-1.2-4.9 0-.8.7-1.4 1.6-1.8 2.6-.5 1.7-.7 3.4-.6 5.1zM303.4 29.6h16v18.8h-16z"/><path class="st2" d="M307.5 24.8h4.4v28.4h-4.4z"/><path class="st3" d="M309.7 22.9v32.2l146.7 4.2V18.8z"/><path class="st18" d="M487.8 4.3c-.5 0-1.1.1-1.6.1s-1.1-.1-1.6-.1c-19.2-.3-35 15-35.3 34.2s15 35 34.2 35.3h1.2c.5 0 1.1-.1 1.6-.1s1.1.1 1.6.1c19.2.3 35-15 35.3-34.2s-15-35-34.2-35.3h-1.2z"/><path class="st3" d="M518.2 55.9l-3.7 3.7-3.8-3.8 3.8-3.8 3.7 3.9c.6-1 1.1-2 1.5-3l-3-3 3.8-3.8 1.1 1.1c.6-2.5.9-5 1-7.6l-2.1 2.1-3.8-3.8 3.8-3.8 2 2c-.2-2.4-.6-4.8-1.3-7.1l-.8.8-3.8-3.8 2.4-2.4c-.5-1-1-1.9-1.5-2.8l-3 3-3.8-3.8 3.7-3.7c-.8-.9-1.6-1.8-2.4-2.6l.4.4-3.8 3.8-3.8-3.8 3.4-3.4c-.8-.6-1.7-1.2-2.6-1.7l-3 3-3.8-3.8 1.8-1.8c-1-.4-2.1-.8-3.2-1.1l-.7.7-1.2-1.2c-2.5-.6-5.1-.9-7.7-.9h-.9l-2.1 2-2-2c-1.3.1-2.6.2-3.9.4l3.8 3.8-3.8 3.8-3.8-3.8 3.8-3.8c-2 .3-3.9.8-5.8 1.5l-.1.1v.4c-1 .4-2.1.8-3 1.2l1 1-3.8 3.8-2-2c-.9.6-1.7 1.2-2.5 1.8l2.3 2.3-3.8 3.8-2.4-2.4c-.7.8-1.3 1.5-2 2.4l2.2 2.2-3.8 3.8-1.4-1.4c-.5 1-1 1.9-1.4 2.9l.6.6-1.4 1.4c-.8 2.4-1.4 4.9-1.7 7.4l3.1 3.1-3.2 3.2c.1 2.2.5 4.3 1 6.5l2.2 2.2-1.1 1.1c.4 1 .8 2 1.3 3l2-2L459 56l-3 3c.6.8 1.2 1.7 1.9 2.4l3.3-3.3 3.8 3.8-3.3 3.3c.8.7 1.6 1.3 2.4 1.9l3.1-3.1 3.8 3.8-2.2 2.2c1 .5 1.9.9 3 1.3l1.4-1.4 2.8 2.8c1.7.5 3.5.8 5.3 1l3.8-3.8 3.8 3.8-.1.2c1.6 0 3.2-.2 4.7-.4L497 70l2.1 2.1c1.1-.4 2.1-.8 3.1-1.2l-3.1-3.1 3.8-3.8 3.8 3.8-1.7 1.7c5.4-3.2 10.1-7.9 13.2-13.6zm-9.6-2.2l-3.8-3.8 3.8-3.8 3.8 3.8-3.8 3.8zM502.7 36l-3.8-3.8 3.8-3.8 3.8 3.8-3.8 3.8zm5.9-1.7l3.8 3.8-3.8 3.8-3.8-3.8 3.8-3.8zm-29.6 6l3.8 3.8-3.8 3.8-3.8-3.8 3.8-3.8zm-5.9 1.6l-3.8-3.8 3.8-3.8 3.8 3.8-3.8 3.8zm8.1-3.8l3.8-3.8 3.8 3.8-3.8 3.8-3.8-3.8zm5.9-5.9l3.8-3.8 3.8 3.8-3.8 3.8-3.8-3.8zm3.7 8.1l3.8 3.7-3.8 3.8L487 44l3.8-3.7zm2.2-2.2l3.8-3.8 3.8 3.8-3.8 3.8-3.8-3.8zm3.8-8.1l-3.8-3.7 3.8-3.8 3.8 3.8-3.8 3.7zm-6-5.9l-3.8-3.8 3.8-3.8 3.8 3.8-3.8 3.8zm-2.1 2.1l-3.8 3.8-3.8-3.8 3.8-3.8 3.8 3.8zm-5.9 6L479 36l-3.8-3.8 3.8-3.8 3.8 3.8zm-9.7-2.2l-3.8-3.8 3.8-3.8 3.8 3.8-3.8 3.8zm-2.2 2.2l-3.8 3.8-3.8-3.8 3.8-3.8 3.8 3.8zm-5.9 5.9l-3.8 3.8-3.8-3.8 3.8-3.8 3.8 3.8zm2.1 2.2l3.8 3.8-3.8 3.8-3.8-3.8 3.8-3.8zm6 5.9l3.8 3.8-3.8 3.8-3.8-3.8 3.8-3.8zm5.9 5.9l3.8 3.8-3.8 3.8-3.8-3.8 3.8-3.8zm2.1-2.2l3.8-3.8 3.8 3.8-3.8 3.8-3.8-3.8zm9.7 2.2l3.8 3.8-3.8 3.8-3.8-3.8 3.8-3.8zm2.2-2.2l3.8-3.8 3.8 3.8-3.8 3.8-3.8-3.8zm5.9-5.9l3.8-3.8 3.8 3.8-3.8 3.8-3.8-3.8zm19.4 0l-3.8 3.8-3.8-3.8 3.8-3.8 3.8 3.8zm0-11.8l-3.8 3.8-3.8-3.8 3.8-3.8 3.8 3.8zm-9.7-9.7l3.8 3.8-3.8 3.7-3.8-3.8 3.8-3.7zm-5.9-5.9l3.8 3.8-3.8 3.8-3.8-3.8 3.8-3.8zm-5.9-5.9l3.8 3.8-3.8 3.8-3.8-3.8 3.8-3.8zm-6-5.9l3.8 3.8-3.8 3.8-3.8-3.8 3.8-3.8zm-5.9 5.9l3.8 3.8-3.8 3.8-3.8-3.8 3.8-3.8zm-5.9 5.9l3.8 3.8-3.8 3.8-3.8-3.8 3.8-3.8zm-5.9-5.9l3.8 3.8-3.8 3.8-3.8-3.8 3.8-3.8zm-5.9 5.9l3.8 3.8-3.8 3.8-3.8-3.8 3.8-3.8zm-6 5.9l3.8 3.8-3.8 3.7-3.8-3.8 3.8-3.7zm-9.7 9.7l3.8-3.8 3.8 3.8-3.8 3.8-3.8-3.8zm0 11.8l3.8-3.8 3.8 3.8-3.8 3.8-3.8-3.8zm6 5.9l3.8-3.8 3.8 3.8-3.8 3.8-3.8-3.8zm5.9 5.9l3.8-3.8 3.8 3.8-3.8 3.8-3.8-3.8zm5.9 5.9l3.8-3.7 3.8 3.8-3.8 3.8-3.8-3.9zm9.7 9.7l-3.8-3.8 3.8-3.8 3.8 3.8-3.8 3.8zm2.1-9.6l3.8-3.8 3.8 3.8-3.8 3.8-3.8-3.8zm9.7 9.6l-3.8-3.8 3.8-3.8 3.8 3.8-3.8 3.8zm6-5.9l-3.8-3.8 3.8-3.8 3.8 3.8-3.8 3.8zm2.1-9.7l3.8-3.8 3.8 3.8-3.8 3.8-3.8-3.8zm5.9 6l3.8-3.8 3.8 3.8-3.8 3.8-3.8-3.8z"/><path class="st2" d="M479.1 3.5h17.5v71h-17.5zm-39.2 14v43.1l17.6 1V16.4zm224.3 164.8c-.1 37.4 30.3 67.8 67.7 67.9s67.8-30.3 67.9-67.7c.1-37.4-30.3-67.8-67.7-67.9h-.1c-37.5 0-67.8 30.3-67.8 67.7zm125.1 0c0 31.7-25.6 57.4-57.3 57.4s-57.4-25.6-57.4-57.3 25.6-57.4 57.3-57.4h.1c31.6 0 57.3 25.7 57.3 57.3zM687.7 344.1l-1.1 1.2-11.9-10.3c-3.9-3.8-6.9-7.2-8.1-13.8 0-.1 0-.2-.1-.3l-.1-.8-.5-3.1-1.7-11.2c-1.4-9.3-3.2-21.6-5.1-34-3.7-24.7-7.4-49.5-7.4-49.5-1.2-8.6-5.3-15.7-10.1-17.7-2.4-1-5.2-.5-7.2 1.2l-1-1.3c2.4-2.1 5.9-2.7 8.9-1.5 5.5 2.2 9.9 9.6 11.2 19 .1 1 14.4 96.9 14.8 98.9 1.2 6.1 3.9 9.2 7.6 12.9l11.8 10.3z"/><path class="st2" d="M647.2 223.9l93.4 82.7 4.8-5.4-93.4-82.7z"/><path class="st19" d="M732.8 184.1l-65.3 35c-2 1.1-4.5.3-5.5-1.7s-.3-4.5 1.7-5.5l.2-.1 67.2-31.2c1-.5 2.1-.1 2.6.9s.1 2.1-.9 2.6z"/><path class="st2" d="M683.7 347.6L665.5 332l79.6-24-1.5-4.8 1.8-2-88.4-78.4 3.3-1.1c.5-.2.7-.6.5-1.1l-1.8-5.3c-.2-.5-.7-.7-1.1-.5l-22 7.5c-.5.2-.7.6-.5 1.1l1.8 5.3c.2.5.7.7 1.1.5l3.3-1.1 14.7 100.1-3 .9v-.1c-.1-.3-.4-.5-.7-.4l-2.1.6c-.3.1-.5.4-.4.7l2 6.7c.3.9 1.2 1.4 2.1 1.1.9-.3 1.4-1.2 1.1-2.1l-.1-.5 4.7-1.4 70.5 60.4c1.1.9 2.6.8 3.5-.3.9-1.1.8-2.6-.3-3.5L692.3 355M649 237.6l-1.7-11.5 1.7-.6 88.3 78.3-75.3 22.6-1.3-9.1m-.6-3.8l-10.6-72"/><path class="st19" d="M621.2 228.2l44.6-15.2c.6-.2 1.2.1 1.4.7l1 2.8c.2.6-.1 1.2-.7 1.4l-44.6 15.2"/><path class="st4" d="M668.4 182.3c-.1 35.1 28.4 63.6 63.5 63.6 35.1.1 63.6-28.4 63.6-63.5.1-35.1-28.4-63.6-63.5-63.6h-.1c-35 0-63.5 28.4-63.5 63.5zm120.9 0c0 31.7-25.6 57.4-57.3 57.4s-57.4-25.6-57.4-57.3 25.6-57.4 57.3-57.4h.1c31.6 0 57.3 25.7 57.3 57.3z"/><path class="st8" d="M779.2 182.3c-.1 26.1-21.2 47.2-47.3 47.2-.8 0-1.4-.6-1.4-1.4 0-.8.6-1.4 1.4-1.4 24.5 0 44.4-19.9 44.5-44.4 0-.8.6-1.4 1.4-1.4s1.4.7 1.4 1.4z"/><path class="st2" d="M664.2 392.2c-.1 37.4 30.3 67.8 67.7 67.9s67.8-30.3 67.9-67.7c.1-37.4-30.3-67.8-67.7-67.9h-.1c-37.5-.1-67.8 30.2-67.8 67.7zm125.1 0c0 31.7-25.6 57.4-57.3 57.4s-57.4-25.6-57.4-57.3 25.6-57.4 57.3-57.4h.1c31.6 0 57.3 25.6 57.3 57.3z"/><path class="st4" d="M668.4 392.2c-.1 35.1 28.4 63.6 63.5 63.6 35.1.1 63.6-28.4 63.6-63.5.1-35.1-28.4-63.6-63.5-63.6h-.1c-35 0-63.5 28.4-63.5 63.5 0-.1 0-.1 0 0zm120.9 0c0 31.7-25.6 57.4-57.3 57.4s-57.4-25.6-57.4-57.3 25.6-57.4 57.3-57.4h.1c31.6 0 57.3 25.6 57.3 57.3 0-.1 0-.1 0 0z"/><path class="st8" d="M779.2 392.2c-.1 26.1-21.2 47.2-47.3 47.2-.8 0-1.4-.6-1.4-1.4s.6-1.4 1.4-1.4c24.5 0 44.4-19.9 44.5-44.4 0-.8.6-1.4 1.4-1.4s1.4.6 1.4 1.4z"/><ellipse class="st4" cx="732" cy="182.3" rx="7" ry="7"/><ellipse class="st19" cx="732" cy="182.3" rx="3.9" ry="3.9"/><path class="st2" d="M716.7 392.2c0 8.4 6.8 15.2 15.2 15.2s15.2-6.8 15.2-15.2c0-8.4-6.8-15.2-15.2-15.2-8.4-.1-15.2 6.7-15.2 15.2zm24.5 0c0 5.1-4.1 9.2-9.2 9.2s-9.2-4.1-9.2-9.2 4.1-9.2 9.2-9.2c5 0 9.2 4.1 9.2 9.2z"/><path class="st19" d="M657.5 328.8L621.2 340c-1 .3-1.7 1.2-1.7 2.3v2.7h-5.8l1.9 6.1h3.9v.8c0 1.2.9 2.1 2.1 2.1 1.2 0 2.1-.9 2.1-2.1l.3-7.8 34.8-10.8c1.3-.2 2.2-1.4 1.9-2.7-.2-1.3-1.4-2.2-2.7-1.9-.1 0-.3 0-.5.1z"/><path class="st2" d="M750.3 304.9v.5l-15.2 87.2c-.3 1.7-1.9 2.8-3.6 2.5-1.7-.3-2.8-1.9-2.5-3.6l15.2-87.2c.1-1.7 1.6-2.9 3.3-2.8 1.7.2 2.9 1.7 2.8 3.4z"/><path class="st8" d="M760 394.2c2.6 0 4.6-2.1 4.6-4.6l.4-84.7c0-9.8-7.9-17.8-17.8-17.8s-17.8 7.9-17.8 17.8l-.2 87.2c.1 1.5 1.4 2.7 3 2.6 1.4-.1 2.5-1.2 2.6-2.6 0-.6.5-1.1 1.1-1.1s1.1.5 1.1 1.1c-.1 2.8-2.5 4.9-5.2 4.8-2.6-.1-4.7-2.2-4.8-4.8l.2-87.2c0-11 8.9-20 20-20s20 8.9 20 20l-.4 84.7c0 3.8-3.1 6.8-6.8 6.8"/><path class="st2" d="M618.6 352.5c0 5.7-7.1 8-7.4 8-.5.3-1.1.2-1.4-.3-.3-.5-.2-1.1.3-1.4.2-.1.4-.2.6-.2.1 0 6-1.9 6.1-6.2l-.4-10.1c0-2.7-3-7.5-6.8-13.6l-1.5-2.3c-.1-.5.2-1.1.7-1.2.3-.1.7 0 .9.2l1.5 2.3c4.1 6.5 7 11.3 7.1 14.6l.3 10.2z"/><path class="st2" d="M606.6 370.6c3.6 0 10.8-16.8 10.1-18.9-.6-3.3-6.1-19-6.5-24-.8-9.4 1.3-14.2-.7-13.8-2.8.6-4 9.7-2.9 19.4 1.4 11.8.1 25.8-1.7 32.3-1.1 4.2.4 5 1.7 5z"/><ellipse class="st2" cx="747.2" cy="304.9" rx="20.1" ry="20.1"/><ellipse class="st2" cx="747.2" cy="304.9" rx="20.1" ry="20.1"/><path class="st19" d="M634.8 206l-6.9 8.1c-.2.2-.6.3-.8 0l-2.9-2.7c-.2-.3-.2-.7 0-.9l6.9-8.1c.2-.2.6-.3.8 0l2.9 2.8c.2.3.2.6 0 .8z"/><ellipse class="st20" cx="747.2" cy="304.9" rx="15.7" ry="15.7"/><ellipse class="st2" cx="747.2" cy="304.9" rx="14.1" ry="14.1"/><path class="st4" d="M742.7 306.2c0 .6-.2 1.2-.6 1.6-.5.6-1.1 1.2-1.8 1.6-.5.4-1.6.8-1.2 1.6.2.3.5.6.9.8l1.8 1.4c.3.3.6.5.9.7.3.2.7.2 1-.1.2-.3.4-.6.5-1 .3-.7.7-1.4 1.1-2 .3-.6.8-1 1.4-1.3.5-.1 1 .1 1.3.5.5.6.9 1.3 1.1 2 .2.4.3.8.4 1.2 0 .4.2.7.4 1 .4.3.9.3 1.3-.1l1.9-1.2 1.2-.8c.4-.2.6-.7.4-1.1 0-.1-.1-.2-.2-.2-.3-.3-.6-.5-.9-.7l-.9-.9c-.5-.5-.9-1.1-1.1-1.8-.1-.2-.1-.5 0-.8m0 0c.3-.5.8-.8 1.4-.9.8-.2 1.6-.3 2.4-.3.6 0 1.7.3 1.9-.5.1-.4 0-.8-.2-1.2l-.6-2.2c-.1-.4-.2-.8-.3-1.1-.1-.3-.4-.5-.7-.6-.4 0-.7.2-1 .4-.8.5-1.6.9-2.5 1.2-.6.3-1.4.3-2 0m.1 0c-.4-.4-.5-1-.5-1.6 0-.8.2-1.5.4-2.3.1-.4.2-.7.4-1.1.2-.3.1-.7-.1-1-.4-.2-.8-.3-1.2-.3l-2.3-.1c-.4 0-.8-.1-1.2-.1-.3 0-.7.2-.8.5s0 .7.1 1c.2.8.3 1.6.4 2.5.1.7-.1 1.3-.4 1.9-.4.3-.9.5-1.4.3-.7-.2-1.4-.5-2-1-.4-.2-.7-.4-1-.7-.2-.3-.6-.5-.9-.6-.5 0-.9.4-1 .9l-.8 2.1c-.2.4-.3.9-.5 1.3s0 .9.4 1.1c.1.1.3.1.4.1.8 0 1.6.1 2.4.3.7.1 1.3.4 1.9.8.2.1.3.3.4.5"/><path class="st4" d="M745.9 300c-2.7.6-4.5 3.3-3.9 6s3.3 4.5 6 3.9c.3-.1.5-.1.8-.2.4-.1.7-.2 1-.4l30.4-12.7-.2-1.7-.8-1.5-32.4 6.4c-.2 0-.5.1-.9.2z"/><path class="st4" d="M788 287.9V305c0 .4-.3.7-.7.7h-4c-.1 0-.3 0-.4-.1l-3.7-2.2c-.2-.1-.4-.4-.4-.6v-17.2c0-.4.3-.7.7-.7h4c.1 0 .3 0 .4.1l3.7 2.2c.2.2.4.4.4.7z"/><ellipse class="st2" cx="760" cy="389.5" rx="7.7" ry="7.7"/><path class="st2" d="M751.1 392.2c0 2.2-1.7 3.9-3.9 3.9H732c-2.2 0-3.9-1.7-3.9-3.9s1.7-3.9 3.9-3.9h15.2c2.2 0 3.9 1.7 3.9 3.9z"/><ellipse class="st2" cx="747.2" cy="304.9" rx="4" ry="4"/><path class="st2" d="M744.8 400.7l-6.2-5.2c-1.9-1.6-2.2-4.4-.6-6.3l9-10.7c1.6-1.9 4.4-2.2 6.3-.6 1.2 1 1.8 2.7 1.5 4.2L752 398c-.5 2.4-2.8 4.1-5.3 3.6-.6 0-1.3-.4-1.9-.9zM633 197.8l-7.7 8c-3-.6-5.9 1.3-6.6 4.3-.5 2.3.6 4.7 2.7 5.9v10.5l-.3.1c-.3.1-.4.4-.3.7l2.1 6.3.3 1c.2.6.9 1 1.6.8l1-.4c.6-.2 1-.9.8-1.6l-.2-.5.9-.3.2.5c.2.6.9 1 1.6.8l1-.4c.6-.2 1-.9.8-1.6l-.3-1-.6-1.7-.1-.2-1.3-4.4c-.1-.3-.4-.4-.7-.3l-.2.1v-8.9c2.4-1.9 2.9-5.3 1.1-7.8-.2-.3-.5-.6-.8-.8l6.5-8.1c.1-.2.1-.4 0-.6l-.8-.7c-.1.1-.4 0-.7.3.1-.1.1-.1 0 0z"/><ellipse class="st4" cx="624.2" cy="211.2" rx="3.3" ry="3.3"/><path class="st4" d="M184.4 178.8l5.1 57.9h-56.7l5.1-57.9 23.3-6.4z"/><path class="st2" d="M184.3 252.4h-3.6v-3.6h-3.3v3.6h-3.6v-10.8h3.6v3.6h3.3v-3.6h3.6v10.8zm-15.3-3.6h3.2v3.6h-10v-3.6h3.2v-7.2h3.6v7.2zm-8.4 3.6h-3.8l-2.3-3.8-2.3 3.8h-3.8v-10.8h3.6v5.4l2.5-3.8h.1l2.5 3.8v-5.4h3.5v10.8zm-14 0H143v-7.2h-5v-3.6h8.7l-.1 10.8z"/><path class="st6" d="M161.2 224.8H179l-.2-1.9-1.7-19.5h-24.7l.9-9.2 7.9-2.2 7.9 2.2.5 5.6h7.1l-.9-11.1-14.6-4-14.6 4-.1 1.2-1.7 18.7-.1 1.9h25.9l.6 7.2H144l-.1 1.6-.3 3.6-.2 1.9z"/><path class="st4" d="M483.5 106.5h9c1.9 0 3.7 0 5.6.1 1.4 0 2.7.5 3.7 1.4.9.9 1.6 2 1.8 3.3.3 1.7.3 3.3 0 5-.2 1.4-1.1 2.6-2.2 3.3-1.8 1.2-4.3.8-5.6-1-.8-1.1-1.3-2.4-1.3-3.8 0-1.1 0-2.2-.1-3.3v-.8c0-.9-.8-1.6-1.7-1.6h-15c-.5 0-.9.4-.9.9 0 .1 0 .2.1.3.5 2.9 1.1 5.7 1.6 8.6.6 3 1.1 6 1.7 8.9.1.7.7 1.2 1.4 1.2h20c.8 0 1.6.1 2.4.3 1.5.4 2.8 1.5 3.3 3 .3.8.5 1.7.5 2.6 0 1 0 2-.1 3-.1 1.7-1 3.3-2.5 4.2-1.5 1-3.5.9-4.8-.4-1.3-1.2-2.1-3-2.1-4.8 0-1.2 0-2.4-.1-3.5 0-.3-.1-.5-.2-.7-.2-.6-.8-.9-1.4-.9h-16.4l-7.3-.1c-.6.1-1.1-.1-1.5-.4-.3-.2-.4-.5-.5-.9-.6-3.3-1.2-6.6-1.9-9.9-.7-4-1.5-8.1-2.2-12.1v-.8c.1-.7.7-1.3 1.5-1.3H483l.5.2z"/><path class="st15" d="M231.1 460c4.7-13.8 15.6-17.5 15.6-17.5 14.6-1.1 22.7 10.9 29.6 10.6 20.5-.9 85.6-16.6 97.4-21.5 2.5-1-.5-8-4.8-8.7-3.7-.6-242.9-.9-256.7-.1-10.7.6-19.9 3.8-22.2 6.4 20.5 19.5 129.8 31.1 141.1 30.8z"/><path class="st8" d="M231.1 460c.5-1.4 1.1-2.8 1.8-4.2-56.4-2.1-124.4-16.1-141.3-27.9-.6.3-1.1.8-1.5 1.3 20.4 19.5 129.7 31.1 141 30.8z"/><ellipse transform="matrix(.00524 -1 1 .00524 -159.41 690.78)" class="st18" cx="267.5" cy="425.5" rx="1.6" ry="2"/><ellipse transform="matrix(.00524 -1 1 .00524 -158.85 698.745)" class="st18" cx="271.8" cy="429.2" rx="1.8" ry="2"/><ellipse transform="matrix(.00524 -1 1 .00524 -150.637 699.793)" class="st18" cx="276.4" cy="425.6" rx="1.6" ry="2"/><ellipse transform="matrix(.00524 -1 1 .00524 -149.997 707.639)" class="st18" cx="280.7" cy="429.2" rx="1.8" ry="2"/><ellipse transform="matrix(.00524 -1 1 .00524 -141.785 708.866)" class="st18" cx="285.4" cy="425.7" rx="1.6" ry="2"/><ellipse transform="matrix(.00524 -1 1 .00524 -141.045 716.653)" class="st18" cx="289.7" cy="429.2" rx="1.8" ry="2"/><ellipse transform="matrix(.00524 -1 1 .00524 -132.931 717.76)" class="st18" cx="294.3" cy="425.7" rx="1.6" ry="2"/><ellipse transform="matrix(.00524 -1 1 .00524 -132.272 725.625)" class="st18" cx="298.6" cy="429.3" rx="1.8" ry="2"/><ellipse transform="matrix(.00524 -1 1 .00524 -124.058 726.673)" class="st18" cx="303.2" cy="425.7" rx="1.6" ry="2"/><ellipse transform="matrix(.00524 -1 1 .00524 -123.42 734.738)" class="st18" cx="307.6" cy="429.4" rx="1.8" ry="2"/><ellipse transform="matrix(.00524 -1 1 .00524 -115.227 735.766)" class="st18" cx="312.2" cy="425.8" rx="1.6" ry="2"/><ellipse transform="matrix(.00524 -1 1 .00524 -114.567 743.632)" class="st18" cx="316.5" cy="429.4" rx="1.8" ry="2"/><ellipse transform="matrix(.00524 -1 1 .00524 -106.375 744.859)" class="st18" cx="321.2" cy="425.9" rx="1.6" ry="2"/><ellipse transform="matrix(.00524 -1 1 .00524 -105.695 752.745)" class="st18" cx="325.5" cy="429.5" rx="1.8" ry="2"/><ellipse transform="matrix(.00524 -1 1 .00524 -97.521 753.752)" class="st18" cx="330.1" cy="425.9" rx="1.6" ry="2"/><ellipse transform="matrix(.00524 -1 1 .00524 -96.842 761.618)" class="st18" cx="334.4" cy="429.5" rx="1.8" ry="2"/><ellipse transform="matrix(.00524 -1 1 .00524 -88.749 762.765)" class="st18" cx="339" cy="426" rx="1.6" ry="2"/><ellipse transform="matrix(.00524 -1 1 .00524 -87.99 770.711)" class="st18" cx="343.4" cy="429.6" rx="1.8" ry="2"/><ellipse transform="matrix(.00524 -1 1 .00524 -79.797 771.759)" class="st18" cx="348" cy="426" rx="1.6" ry="2"/><ellipse transform="matrix(.00524 -1 1 .00524 -79.117 779.625)" class="st18" cx="352.3" cy="429.6" rx="1.8" ry="2"/><ellipse transform="matrix(.00524 -1 1 .00524 -71.044 780.751)" class="st18" cx="356.9" cy="426.1" rx="1.6" ry="2"/><ellipse transform="matrix(.00524 -1 1 .00524 -157.792 706.855)" class="st18" cx="276.4" cy="432.7" rx="2" ry="2"/><ellipse transform="matrix(.00524 -1 1 .00524 -149.039 715.848)" class="st18" cx="285.3" cy="432.8" rx="2" ry="2"/><ellipse transform="matrix(.00524 -1 1 .00524 -140.087 724.862)" class="st18" cx="294.3" cy="432.8" rx="2" ry="2"/><ellipse transform="matrix(.00524 -1 1 .00524 -131.334 733.854)" class="st18" cx="303.2" cy="432.9" rx="2" ry="2"/><ellipse transform="matrix(.00524 -1 1 .00524 -122.362 742.848)" class="st18" cx="312.2" cy="432.9" rx="2" ry="2"/><ellipse transform="matrix(.00524 -1 1 .00524 -113.609 751.84)" class="st18" cx="321.1" cy="433" rx="2" ry="2"/><ellipse transform="matrix(.00524 -1 1 .00524 -104.656 760.855)" class="st18" cx="330.1" cy="433" rx="2" ry="2"/><ellipse transform="matrix(.00524 -1 1 .00524 -95.884 769.847)" class="st18" cx="339" cy="433.1" rx="2" ry="2"/><ellipse transform="matrix(.00524 -1 1 .00524 -156.194 722.95)" class="st18" cx="285.3" cy="440" rx="2" ry="2"/><ellipse transform="matrix(.00524 -1 1 .00524 -147.342 732.043)" class="st18" cx="294.3" cy="440.1" rx="2" ry="2"/><ellipse transform="matrix(.00524 -1 1 .00524 -138.488 740.937)" class="st18" cx="303.2" cy="440.1" rx="2" ry="2"/><ellipse transform="matrix(.00524 -1 1 .00524 -129.716 749.93)" class="st18" cx="312.1" cy="440.2" rx="2" ry="2"/><ellipse transform="matrix(.00524 -1 1 .00524 -157.151 714.721)" class="st18" cx="280.7" cy="436.3" rx="2" ry="2"/><ellipse transform="matrix(.00524 -1 1 .00524 -148.399 723.714)" class="st18" cx="289.6" cy="436.4" rx="2" ry="2"/><ellipse transform="matrix(.00524 -1 1 .00524 -139.427 732.728)" class="st18" cx="298.6" cy="436.4" rx="2" ry="2"/><ellipse transform="matrix(.00524 -1 1 .00524 -130.674 741.72)" class="st18" cx="307.5" cy="436.5" rx="2" ry="2"/><ellipse transform="matrix(.00524 -1 1 .00524 -121.722 750.734)" class="st18" cx="316.5" cy="436.5" rx="2" ry="2"/><ellipse transform="matrix(.00524 -1 1 .00524 -112.949 759.707)" class="st18" cx="325.4" cy="436.6" rx="2" ry="2"/><ellipse transform="matrix(.00524 -1 1 .00524 -155.554 730.816)" class="st18" cx="289.5" cy="443.6" rx="2" ry="2"/><ellipse transform="matrix(.00524 -1 1 .00524 -146.682 739.91)" class="st18" cx="298.6" cy="443.7" rx="2" ry="2"/><path class="st2" d="M471.5 311c-.8-.9-3.1-1.1-4.9-1-4.8.1-14.2 1.8-19.3 7.7-2.8 3.3-6.4 5.8-10.5 7.2-2.2.8-4.6.9-6.8.3-.6-.3-1.3-.6-1.9-.9h-.1l-1.2-.5c-4.2-1.8-8.8-2.5-13.4-2-5.8.8-11.3 3.1-15.9 6.9-5.4 4.3-10 9.6-13.7 15.5-4.4 6.8-7.2 13.4-8.3 18.9-1 5.1-.4 9.2 1.7 12 2.2 3 6 3.9 10.5 2.5l1.2-.4c5.3-1.9 10.3-3.5 14.8-4.9.8 0 1.5 0 2.3.1-1.5 1.3-2.8 2.7-4.1 4.3-1.1 1.2-2 2.5-2.9 3.9-1.2 1.9-1.2 2.7-1.1 3.1s.5.7.9.8h.2c.7 0 2.5-.6 10.1-6.3 1.6-1.2 3.6-2.7 5.3-4.1 1.1.4 2.1 1.1 2.8 2 .5.8.5 1.9-.1 2.7-1.8 3.3-5.2 6.5-8.5 9.6-4.7 4.4-9 8.5-9.8 13.2-.6 4 0 9.3 3.8 12.1 1.9 1.3 4.3 2 6.6 1.9 4.4 0 10.1-1.8 17-5.3 2.4-1 4.6-2.3 6.5-4 2 1.4 4.6 1.7 7.7.8 5.2-1.5 10.7-5.8 13.5-8.3 3.8-3.4 7-7 7.4-8.7.4-.7.1-1.6-.6-2-.4-.2-.9-.2-1.3 0-1.1.2-4.7 1.5-10.1 3.5-2.9 1.1-5.9 2.2-7.8 2.8.7-3.9 7.7-9.3 8.8-9.9.8-.3 1.2-1.1 1-1.9v-.1c.4.1.8.1 1.2.1.5.1 1-.1 1.3-.5.4-.5.3-1.1-.1-1.5-2.4-2.5-5-4.9-7.7-7 2.8-4.2 4.5-8.9 5.1-13.8.5-4.5-.1-9-1.7-13.2-.1-.3-.3-.7-.4-1 .1-4 2.8-10.2 7.6-17.2 5-7.3 11.3-14 14.8-15.7.4-.3.5-.8.3-1.3-.1-.2-.2-.3-.2-.4zM401 361.8c-1.1.1-2-.5-2.4-1.5-.3-.9-.7-4.2 6.8-10.6 1.2-1.2 2.8-1.9 4.6-2 1.3 0 2.5.6 3.3 1.5 1.8 2 2.5 5.5.5 7.7-2.2 2.4-11 4.9-12.8 4.9zm2.6 50.2c-4-3-3.3-9.1-3.1-10.3.7-4.1 4.8-8 9.2-12.2 3.4-3.2 6.9-6.5 8.9-10 .9-1.4.9-3.2 0-4.6-1.5-2.3-5.5-3.6-10-4.2 13-3.5 21.8-4.4 25.1-2.3-.3 1.6 0 3.2.9 4.6-1.7 2.3-3.7 4.5-5.9 6.4-3.2 3-6.3 6.2-9.2 9.6-2.6 3-4.5 6.5-5.4 10.4-.7 2.8-.3 5.7 1.2 8.2 1.1 1.8 3 3 5.1 3.3-7.7 3.1-13.4 3.5-16.8 1.1zm44.3-30.5l.7.2c-5.3 1.6-10.1 4.7-13.8 8.8-3.8 4.7-5.4 9.7-5.1 12.2-4.1 2-7.4 2.1-8.6 1-.6-.9-.9-2-.7-3.1.2-2.6 1.9-7.7 11-13.4 3.6-2.2 6.9-4.9 9.8-8 .2.1.5.2.7.3 2 .8 4 1.5 6 2zM221.1 118.6h8c.6 0 1.2.5 1.2 1.2v114.4c0 .6-.5 1.2-1.2 1.2h-8c-.6 0-1.2-.5-1.2-1.2V119.7c0-.6.5-1.1 1.2-1.1z"/><path class="st2" d="M230.2 156.4h-10.3l-5.3-24.2h20.9z"/><ellipse class="st2" cx="225.1" cy="74.3" rx="67.4" ry="67.3"/><ellipse class="st21" cx="225.1" cy="74.3" rx="57.3" ry="57.2"/><path class="st8" d="M199 41c14.3-9.1 25.2-1.4 39.8 1.7 15.7 3.4 24.6 15.1 23 36.1s-20.7 31-36.1 31.3c-8.7.2-30.3-6.7-31.9-28C192 60.9 183.6 50.8 199 41z"/><ellipse class="st22" cx="227.8" cy="79.2" rx="16.4" ry="16.4"/><path class="st23" d="M238.3 81.3c-1.2 0-2.1-1-2.1-2.1 0-4.6-3.8-8.4-8.4-8.4-1.2 0-2.1-1-2.1-2.1s1-2.1 2.1-2.1c7 0 12.6 5.6 12.6 12.6 0 1.2-.9 2.1-2.1 2.1z"/><path class="st4" d="M216.8 159.7h16.4c.3 0 .6.3.6.6v77.4c0 .8-.6 1.4-1.4 1.4h-14.9c-.8 0-1.4-.6-1.4-1.4v-77.4c.1-.3.4-.6.7-.6z"/><path class="st2" d="M216.2 222.1v12.5c0 2.5 2 4.5 4.5 4.5h8.6c2.5 0 4.5-2 4.5-4.5v-12.5h-17.6z"/><ellipse class="st20" cx="225" cy="230.6" rx="3.1" ry="3.1"/><path class="st2" d="M635.9 445.9v9.8c0 .2-.1.3-.3.3h-31.4v-10.3h31.4c.2 0 .3.1.3.2zm-36.4-2.9s-.3-5.3-.8-6.2-58.1-4.3-86.4-.3c-1.7.6 3.9 4.2 8.3 4 1.3.1 2.6-.6 3.2-1.8 11.2-.5 39.5-1 42.7.2s3.4 4.9 3.4 4.9l29.6-.8z"/><path class="st4" d="M610.2 442.7V459c0 .2-.1.3-.3.3H417.1v-16.8h192.8c.2-.1.3 0 .3.2z"/><path class="st2" d="M410.4 442.4h6.7v16.8h-6.7zm-15.9 9.5v-2.2l15.9-7.3v16.8z"/></svg>