<svg id="レイヤー_1" xmlns="http://www.w3.org/2000/svg" viewBox="0 0 400 300"><style>.st0{fill:#fff}.st1{fill:#2062af}.st2{fill:#c69}.st3{fill:#1c0a00}.st4{fill:none}.st5{fill:#ff7f18}.st6{fill:#0c0824}.st7{fill:#31c5f0}.st8{fill:#6380b9}.st9{fill:#e44d26}.st10{fill:#87cff3}.st11{fill:#21759b}.st12{opacity:.7}.st13{opacity:.8;enable-background:new}.st14{fill:#005fa8}.st15{opacity:.3;fill:#fff;enable-background:new}</style><title>img</title><circle class="st0" cx="38.9" cy="150.6" r="16.4"/><path class="st1" d="M65.1 38.1l-11.3 3.1-11.2-3.1L40 10h27.7z"/><path class="st0" d="M62.1 19.1l.3-3.4H45l.5 3.4h8.8l-.5.2-8 3.4.2 3.3h12l-.3 4.5-3.9 1.1v-.1.1l-3.8-1-.2-2.7h-3.5l.4 5.3 7.1 2.1 7.1-2.1.9-10.5h-8z"/><path class="st2" d="M38.9 175.8c9.1 0 16.4 7.4 16.4 16.4s-7.4 16.4-16.4 16.4-16.4-7.4-16.4-16.4c0-9 7.3-16.4 16.4-16.4z"/><path class="st0" d="M49.2 182.9c-.8-2.9-5.6-3.9-10.2-2.3-2.9 1-5.5 2.5-7.8 4.5-2.5 2.4-2.9 4.4-2.8 5.3.6 3 4.7 5 6.4 6.5-.5.3-4.2 2.1-5 4s.1 3.4.8 3.6c2.1.5 4.4-.4 5.6-2.3 1-1.5 1.2-3.3.5-5 .8-.2 1.7-.3 2.5-.1 2.9.3 3.5 2.1 3.3 2.9-.1.5-.4 1-.9 1.3-.2.1-.3.2-.3.3s.1.1.3.1c.9-.3 1.5-1.1 1.6-2 .1-1.8-1.6-3.7-4.6-3.7-.9 0-1.7.1-2.6.4l-.1-.1c-1.8-2-5.3-3.4-5.1-6 0-1 .4-3.5 6.6-6.6 5.1-2.5 9.1-1.8 9.8-.3 1 2.2-2.2 6.3-7.4 6.9-1.2.2-2.4-.1-3.3-.8-.3-.3-.3-.3-.4-.3s-.1.4 0 .5c.4.7 1.1 1.3 1.9 1.5 2.1.4 4.2.2 6.2-.6 3.2-1.4 5.7-4.9 5-7.7zm-13.6 14.8c.2.8.2 1.7 0 2.4l-.1.3-.1.2c-.2.4-.5.8-.8 1.1-1 1-2.3 1.4-2.9 1.1s-.3-1.8.8-3c.8-.8 1.8-1.5 2.9-2.1h.2z"/><path class="st3" d="M24 52.8h29.8v29H24v-29z"/><path class="st4" d="M36.1 60.8c-.3 1.6-1 4.3-1.6 6.4h3.2c-.4-1.5-1.3-4.8-1.6-6.4z"/><path class="st4" d="M24 81.8h29.8v-29H24v29zm22.4-8.4c0 .1 0 .1-.1.2h-2.2c-.1 0-.2 0-.2-.1V62.8c0-.1 0-.1.1-.2h2.1c.1 0 .1 0 .2.1l.1 10.7zm-1.2-15.1c.7 0 1.3.5 1.4 1.2v.1c.1.7-.5 1.3-1.2 1.4h-.2c-.7 0-1.3-.5-1.4-1.2v-.2c0-.7.5-1.3 1.2-1.4.1.1.1.1.2.1zM30.5 73.4l3.8-13.5c.1-.4.1-.7.1-1.1 0-.1 0-.1.1-.1h2.8c.1 0 .1 0 .2.1l4.3 14.6c0 .1 0 .2-.1.2h-2.3c-.1 0-.2 0-.2-.1l-1.1-4.1h-4.3l-1.1 4.1c0 .1-.1.2-.2.1h-2v-.2z"/><path class="st5" d="M46.2 62.6h-2.1c-.1 0-.1 0-.2.1v10.7c0 .1 0 .2.1.2h2.2c.1 0 .1 0 .2-.1V62.8c0-.1-.1-.2-.2-.2zm-1.1-1.5c.7.1 1.3-.5 1.4-1.2v-.2c0-.8-.6-1.4-1.4-1.4-.8 0-1.4.6-1.4 1.4-.1.7.5 1.3 1.2 1.4h.2zM30.7 73.6h2c.1 0 .2 0 .2-.1l1.1-4.1h4.3l1.1 4.1c0 .1.1.1.2.1h2.3c.1 0 .1-.1.1-.2l-4.3-14.6c0-.1-.1-.1-.1-.1h-2.8c-.1 0-.1 0-.1.1 0 .4 0 .8-.1 1.1l-3.8 13.5c-.3.2-.3.2-.1.2zm5.4-12.8c.3 1.6 1.2 4.9 1.6 6.4h-3.2c.5-2.1 1.3-4.8 1.6-6.4z"/><path class="st6" d="M24 94.5h29.8v29H24v-29z"/><path class="st4" d="M24 123.4h29.8v-29H24v29zm16.8-10.7c0-.1.1-.2.2-.1.8.5 1.8.8 2.7.8 1.1 0 1.5-.4 1.5-1.1s-.3-.9-1.7-1.6c-1.9-.9-2.7-1.8-2.7-3.4 0-1.8 1.4-3.2 3.7-3.2.8 0 1.6.1 2.4.4.1.1.1.2.1.3v1.8c0 .1 0 .1-.1.2h-.1c-.7-.4-1.5-.6-2.4-.6-1.1 0-1.4.5-1.4 1s.2.8 1.7 1.6c2.1 1 2.8 2 2.8 3.5 0 2.2-1.7 3.3-3.9 3.3-1 0-1.9-.2-2.8-.6-.1 0-.1-.1-.1-.2l.1-2.1zm-10.3-12.2c.1-.1.2-.2.3-.2.9 0 2.2-.1 3.5-.1 3.8 0 5.2 2.1 5.2 4.7 0 3.4-2.5 4.9-5.5 4.9h-1.1v5.2c0 .1 0 .1-.1.2h-2.1c-.1 0-.1 0-.2-.1v-14.6z"/><path class="st7" d="M40.9 114.9c.9.4 1.8.6 2.8.6 2.2 0 3.9-1.2 3.9-3.3 0-1.4-.7-2.4-2.8-3.5-1.4-.7-1.7-1.1-1.7-1.6s.4-1 1.4-1c.8 0 1.6.2 2.4.6.1 0 .2 0 .2-.1v-1.9c0-.1 0-.2-.1-.3-.8-.3-1.6-.4-2.4-.4-2.4 0-3.7 1.4-3.7 3.2 0 1.6.8 2.5 2.7 3.4 1.4.7 1.7 1.1 1.7 1.6s-.5 1.1-1.5 1.1-1.9-.3-2.7-.8c-.1-.1-.2 0-.2.1v2c-.1.1-.1.2 0 .3zm-10.2.3h2.1c.1 0 .1 0 .2-.1v-5.2h1.1c3.1 0 5.5-1.5 5.5-4.9 0-2.6-1.5-4.7-5.2-4.7-1.3 0-2.6 0-3.5.1-.1 0-.2.1-.3.2v14.5c-.1 0-.1.1.1.1-.1 0-.1 0 0 0zm2.2-12.7h1.3c1.8 0 2.9.9 2.9 2.6 0 2.2-1.5 2.7-3.1 2.7h-1.1v-5.3z"/><ellipse class="st8" cx="38.9" cy="233.9" rx="24.6" ry="12.9"/><path class="st0" d="M28.7 230.2c.8-.1 1.5.1 2.1.6.4.6.5 1.3.3 2-.1.8-.5 1.6-1.1 2.2-.8.5-1.6.7-2.5.6h-1.8l1-5.4h2zm-6.9 10.9h2.8l.7-3.4h2.4c.9 0 1.8-.1 2.6-.3.7-.2 1.3-.6 1.9-1.1.9-.8 1.6-2 1.8-3.2.4-1.2.1-2.6-.7-3.6-.9-.9-2.2-1.4-3.6-1.3h-5.4l-2.5 12.9zm14.3-16.4h2.8l-.7 3.4h2.5c1.2-.1 2.3.2 3.3.8.6.7.8 1.7.5 2.7l-1.2 6h-2.9l1.1-5.7c.2-.4.1-.9-.1-1.3-.4-.3-.9-.4-1.4-.4h-2.2l-1.4 7.4h-2.8l2.5-12.9zm14.6 5.5c.8-.1 1.5.1 2.1.6.4.6.5 1.3.3 2-.1.9-.5 1.6-1.1 2.2-.8.5-1.6.7-2.5.6h-1.7l1-5.4h1.9zm-6.9 10.9h2.8l.7-3.4h2.4c.9 0 1.8-.1 2.6-.3.7-.2 1.3-.6 1.9-1.1.9-.8 1.5-2 1.7-3.2.4-1.2.1-2.6-.7-3.6-.9-.9-2.2-1.4-3.6-1.3h-5.4l-2.4 12.9z"/><path class="st9" d="M12.5 38.2L10 10h27.6l-2.5 28.2-11.3 3.1z"/><path class="st0" d="M23.8 15.8h-8.7l.1.9.9 9.5H28l-.4 4.5-3.8 1.1-3.9-1.1-.2-2.7h-3.5l.5 5.4 7.1 1.9 7.1-1.9v-.6l.9-9.1v-.9H19.2l-.3-3.6h13.3v-.7l.2-1.8.1-.9z"/><path class="st10" d="M25.8 267.8c-2.7 3.8-2.3 8.8-.3 12.9 0 .1.1.2.1.3l.1.2.1.1.1.2.2.3.1.2.2.4.1.1c.1.2.2.3.3.5h.1l.3.4.1.1.3.3.1.1.4.4.4.4.2.1.3.3.1.2.4.4.1.1.4.3.2.1.3.3.2.1.3.4.1.1.4.2.1.1.6.3.2.1.4.2.3.2.3.1h.1l.1.1.5.2H34l.5.3h.1l.5.2h.1l.6.2h.2c.2.1.4.1.6.2 12.9 2.4 16.6-7.7 16.6-7.7-3.1 4.1-8.7 5.2-14 4-.2 0-.4-.1-.6-.2h-.1l-.6-.2h-.1l-.5-.2h-.1l-.5-.2h-.1l-.5-.2-.1-.1-.3-.2-.2-.1-.4-.2-.1-.2-.5-.3-.2-.1-.4-.3-.1-.1-.4-.2-.2-.1-.3-.3-.2-.1-.4-.4-.4-.4-.1-.1-.3-.3-.1-.1-.4-.4-.4-.5-.1-.1-.3-.4-.1-.1-.3-.4c-2.9-4-4-9.5-1.6-14"/><path class="st10" d="M34 264.6c-1.8 2.8-1.9 6.5-.3 9.4.2.5.5 1 .8 1.4.3.5.6.9 1 1.2.1.1.3.3.4.5l.1.1.4.4.5.4.1.1.5.4.3.2.1.1.4.3h.1l.3.2.1.1.3.1.5.2h.1l.5.3h.2l.4.2.2.1c.2.1.4.1.6.2 9.9 1.6 12.2-6 12.2-6-2.1 3-6.1 4.4-10.3 3.3l-.6-.2h-.2l-.4-.1-.2-.1-.4-.2h-.1l-.5-.2-.2-.2-.2-.1-.3-.2h-.1l-.4-.3-.2-.2-.3-.2-.5-.4-.1-.1c-1.9-1.5-3.3-3.5-4.1-5.8-.8-2.4-.5-5 .7-7.2"/><path class="st10" d="M41 262.2c-1.1 1.7-1.3 3.8-.5 5.6.9 1.9 2.5 3.5 4.5 4.2l.2.1h.1c.1 0 .2.1.3.1 5.5 1.1 7-2.8 7.4-3.4-1.3 1.9-3.5 2.3-6.2 1.7-.2-.1-.4-.1-.7-.2s-.5-.2-.8-.3c-.5-.2-.9-.5-1.3-.8-2.4-1.8-3.9-5.3-2.3-8.1"/><path class="st11" d="M38.9 135c-8.6 0-15.6 7-15.6 15.6s7 15.6 15.6 15.6 15.6-7 15.6-15.6-7-15.6-15.6-15.6zm-14 15.6c0-2 .4-3.9 1.2-5.7l6.7 18.3c-4.9-2.3-7.9-7.2-7.9-12.6zm14 14c-1.4 0-2.7-.2-4-.6l4.2-12.2 4.3 11.8c0 .1.1.1.1.2-1.5.5-3 .8-4.6.8zm1.9-20.6c.8 0 1.6-.1 1.6-.1.3 0 .6-.3.5-.6 0-.3-.3-.6-.6-.5 0 0-2.3.2-3.7.2s-3.7-.2-3.7-.2c-.3 0-.6.2-.6.5s.2.6.5.6c0 0 .7.1 1.5.1l2.2 6-3.1 9.2-5.1-15.2c.8 0 1.6-.1 1.6-.1.3 0 .6-.3.5-.6s-.3-.6-.6-.5c0 0-2.3.2-3.7.2h-.9c4.2-6.5 12.9-8.3 19.4-4 .6.4 1.2.9 1.8 1.4h-.2c-1.3 0-2.4 1.2-2.3 2.5.2 1.2.6 2.3 1.4 3.3.7 1.2 1.1 2.5 1.2 3.9-.1 1.6-.5 3.1-1.1 4.5l-1.4 4.7-5.2-15.3zm10.4-.1c3.7 6.7 1.3 15-5.3 18.9l4.3-12.4c.7-1.6 1-3.3 1.1-5 0-.6 0-1.1-.1-1.5z"/><path class="st9" d="M80 10.7h320v30H80z"/><g class="st12"><path class="st0" d="M398 12.7v26H82v-26h316m2-2H80v30h320v-30z"/></g><g class="st13"><path class="st0" d="M94.8 19.6h2.5v4.9h4.3v-4.9h2.5v12.9h-2.5v-5.7h-4.3v5.7h-2.5V19.6zm11 0h7.1V22h-2.4v10.5H108V22h-2.3v-2.4zm10.1 0h2.4l3 9 3-9h2.4l2.2 12.9h-2.4l-1.4-8.2-2.7 8.2h-2.2l-2.7-8.2-1.4 8.2h-2.4l2.2-12.9zm14.9 0h2.5v10.6h3.6v2.3h-6V19.6zm9.5 0h6.1v2.3h-4.2l-.5 2.3c.1 0 .3-.1.4-.1h.4c1.2 0 2.1.4 2.9 1.2.8.8 1.2 1.8 1.2 3.1s-.4 2.3-1.3 3.2-1.9 1.3-3.1 1.3c-1.1 0-2-.3-2.8-.9s-1.3-1.5-1.6-2.6h2.6c.2.4.5.7.8.9s.7.3 1.1.3c.5 0 1-.2 1.4-.6s.6-.9.6-1.5-.2-1.1-.5-1.5c-.4-.4-.8-.6-1.3-.6-.3 0-.5.1-.8.2s-.5.3-.8.6l-2-.4 1.4-7.2zm21.7 7.9l1.5 1.7-.7.6-.7.6 2.1 2.2h-3l-.9-.9c-1.4.8-2.6 1.2-3.8 1.2-1 0-1.8-.3-2.4-.9s-.9-1.3-.9-2.2c0-.7.2-1.3.5-1.9s.9-1.2 1.8-1.9c-.8-1.1-1.2-2.1-1.2-3 0-.6.3-1.3.8-1.9s1.3-.9 2.3-.9c1 0 1.8.3 2.3.9s.8 1.2.8 1.9c0 .5-.1 1-.4 1.4s-.8 1.1-1.7 2c1 1.2 1.7 2 2 2.3.3-.2.8-.6 1.6-1.2zm-3.2 2.4c-.5-.4-1.1-1.2-1.9-2.2-.9.7-1.3 1.4-1.3 1.9 0 .3.1.5.4.7.2.2.5.3.9.3s1.1-.2 1.9-.7zm-1.5-5.3c.7-.6 1-1 1-1.5 0-.2-.1-.4-.2-.5s-.3-.2-.6-.2c-.2 0-.4.1-.6.2s-.2.3-.2.6c0 .4.2.9.6 1.4zm25.7-2.7l-1.7 1.6c-1.2-1.2-2.5-1.9-4-1.9-1.2 0-2.3.4-3.1 1.3-.8.8-1.3 1.9-1.3 3.1 0 .9.2 1.6.6 2.3s.9 1.2 1.6 1.6c.7.4 1.4.6 2.3.6.7 0 1.4-.1 2-.4s1.2-.8 1.9-1.5l1.7 1.7c-1 .9-1.9 1.6-2.7 1.9s-1.8.5-2.9.5c-2 0-3.7-.6-4.9-1.9-1.3-1.3-1.9-2.9-1.9-4.9 0-1.3.3-2.4.9-3.4s1.4-1.8 2.5-2.4 2.3-.9 3.5-.9c1.1 0 2.1.2 3.1.7s1.7 1.1 2.4 2zm9-.5l-1.8 1.6c-.6-.9-1.3-1.3-2-1.3-.3 0-.6.1-.8.3s-.3.4-.3.6.1.4.2.6c.2.3.8.8 1.8 1.7.9.8 1.5 1.3 1.7 1.5.5.5.9 1 1.1 1.4.2.5.3 1 .3 1.5 0 1.1-.4 1.9-1.1 2.6-.7.7-1.7 1-2.9 1-.9 0-1.7-.2-2.4-.7-.7-.5-1.3-1.2-1.8-2.1l2.1-1.2c.6 1.1 1.3 1.7 2.1 1.7.4 0 .8-.1 1.1-.4s.4-.5.4-.9c0-.3-.1-.6-.3-.9s-.7-.7-1.4-1.3c-1.4-1.1-2.3-2-2.7-2.7-.4-.6-.6-1.2-.6-1.9 0-.9.3-1.7 1-2.3.7-.6 1.5-1 2.5-1 .6 0 1.3.1 1.8.4.7.4 1.3 1 2 1.8zm9.3 0l-1.8 1.6c-.6-.9-1.3-1.3-2-1.3-.3 0-.6.1-.8.3s-.3.4-.3.6.1.4.2.6c.2.3.8.8 1.8 1.7.9.8 1.5 1.3 1.7 1.5.5.5.9 1 1.1 1.4.2.5.3 1 .3 1.5 0 1.1-.4 1.9-1.1 2.6s-1.7 1-2.9 1c-.9 0-1.7-.2-2.4-.7-.7-.5-1.3-1.2-1.8-2.1l2.1-1.2c.6 1.1 1.3 1.7 2.1 1.7.4 0 .8-.1 1.1-.4s.4-.5.4-.9c0-.3-.1-.6-.3-.9s-.7-.7-1.4-1.3c-1.4-1.1-2.3-2-2.7-2.7-.4-.6-.6-1.2-.6-1.9 0-.9.3-1.7 1-2.3.7-.6 1.5-1 2.5-1 .6 0 1.3.1 1.8.4.7.4 1.4 1 2 1.8zm4.6 1.4h-2.4c.1-1 .5-1.7 1-2.3.8-.8 1.8-1.2 3-1.2 1.1 0 1.9.3 2.7 1s1.1 1.5 1.1 2.4c0 .6-.2 1.1-.5 1.6s-.8.9-1.4 1.2c.8.2 1.4.6 1.8 1.2s.7 1.3.7 2.1c0 1.2-.4 2.1-1.3 2.9s-1.9 1.2-3.3 1.2c-1.3 0-2.3-.4-3.1-1.1s-1.2-1.8-1.3-3.1h2.4c.1.7.3 1.2.7 1.5.4.3.8.5 1.4.5.6 0 1-.2 1.4-.6s.6-.8.6-1.4c0-.6-.3-1.1-.8-1.5s-1.2-.6-2.2-.6v-2.1c.6 0 1-.1 1.3-.3s.5-.3.7-.6.2-.5.2-.8c0-.4-.1-.6-.4-.9-.2-.2-.6-.3-1-.3s-.7.1-1 .3-.2.6-.3.9z"/></g><path class="st5" d="M80 52.3h320v30H80z"/><g class="st12"><path class="st0" d="M398 54.3v26H82v-26h316m2-2H80v30h320v-30z"/></g><g class="st13"><path class="st0" d="M96.1 61.2h2.4v12.9h-2.4V61.2zm4.6-.3h2.4v13.3h-2.4V60.9zm4.4 0h2.4v13.3h-2.4V60.9zm4.5 3.7h2.4v4.6c0 .9.1 1.5.2 1.9.1.3.3.6.6.8s.6.3 1 .3.7-.1 1-.3c.3-.2.5-.5.6-.8.1-.3.1-.9.1-1.8v-4.7h2.4v4.1c0 1.7-.1 2.8-.4 3.4-.3.8-.8 1.3-1.4 1.7-.6.4-1.4.6-2.4.6s-1.9-.2-2.5-.7-1.1-1.1-1.4-2c-.2-.6-.3-1.6-.3-3.2v-3.9zm16.7 1.3l-1.5 1.5c-.6-.6-1.2-.9-1.6-.9-.3 0-.5.1-.6.2-.2.1-.2.3-.2.4 0 .1 0 .2.1.4s.3.3.7.4l.9.4c.9.5 1.6.9 1.9 1.4s.5 1 .5 1.7c0 .8-.3 1.6-.9 2.1s-1.5.9-2.5.9c-1.4 0-2.5-.5-3.3-1.6l1.5-1.6c.3.3.6.6 1 .8.4.2.7.3 1 .3.3 0 .6-.1.8-.2s.3-.3.3-.5c0-.4-.3-.7-1-1.1l-.8-.4c-1.5-.8-2.3-1.8-2.3-2.9 0-.8.3-1.4.9-1.9.6-.5 1.3-.8 2.2-.8.6 0 1.2.1 1.8.4.2.1.7.5 1.1 1zm2.3-4.8h2.4v3.5h1.4v2.1H131v7.5h-2.4v-7.5h-1.2v-2.1h1.2v-3.5zm4.6 3.5h2.1v1.2c.2-.5.5-.8.9-1.1s.8-.4 1.2-.4c.3 0 .6.1 1 .2l-.7 2.1c-.3-.1-.5-.2-.7-.2-.4 0-.7.2-.9.7s-.4 1.4-.4 2.7v4.4h-2.4v-9.6zm13.4 0h2.4v9.6h-2.4v-1c-.5.4-.9.8-1.4 1-.5.2-1 .3-1.5.3-1.2 0-2.3-.5-3.2-1.4-.9-1-1.4-2.1-1.4-3.6s.4-2.7 1.3-3.6 1.9-1.4 3.2-1.4c.6 0 1.1.1 1.6.3s1 .5 1.4 1v-1.2zm-2.6 2c-.7 0-1.4.3-1.8.8s-.7 1.2-.7 2 .2 1.5.7 2c.5.5 1.1.8 1.8.8.8 0 1.4-.3 1.9-.8s.7-1.2.7-2.1c0-.8-.2-1.5-.7-2-.5-.5-1.1-.7-1.9-.7zm7.7-5.5h2.4v3.5h1.4v2.1h-1.4v7.5h-2.4v-7.5h-1.2v-2.1h1.2v-3.5zm9.6 3.3c.9 0 1.8.2 2.5.7s1.4 1.1 1.9 1.8.7 1.6.7 2.5c0 .9-.2 1.7-.7 2.5s-1.1 1.4-1.8 1.8c-.8.4-1.6.7-2.6.7-1.4 0-2.5-.5-3.5-1.5s-1.5-2.2-1.5-3.6c0-1.5.5-2.7 1.6-3.7 1-.8 2.1-1.2 3.4-1.2zm0 2.2c-.7 0-1.4.3-1.9.8s-.7 1.2-.7 2 .2 1.5.7 2c.5.5 1.1.8 1.9.8.8 0 1.4-.3 1.9-.8s.7-1.2.7-2-.2-1.5-.7-2c-.5-.5-1.1-.8-1.9-.8zm6.4-2h2.1v1.2c.2-.5.5-.8.9-1.1s.8-.4 1.2-.4c.3 0 .6.1 1 .2l-.7 2.1c-.3-.1-.5-.2-.7-.2-.4 0-.7.2-.9.7s-.4 1.4-.4 2.7v4.4h-2.4v-9.6z"/></g><path class="st7" d="M80 93.9h256v30H80z"/><g class="st12"><path class="st0" d="M334 95.9v26H82v-26h252m2-2H80v30h256v-30z"/></g><g class="st13"><path class="st0" d="M94.8 102.9h2.6c1.4 0 2.4.1 3.1.4s1.1.7 1.5 1.3.5 1.3.5 2.1c0 .9-.2 1.7-.7 2.3s-1.1 1-1.9 1.2c-.5.1-1.3.2-2.6.2v5.5h-2.5v-13zm2.5 5h.7c.6 0 1 0 1.3-.1.2-.1.4-.2.6-.4.1-.2.2-.4.2-.7 0-.5-.2-.9-.6-1.1-.3-.2-.8-.3-1.6-.3h-.7v2.6zm7.3-5.3h2.4v4.7c.5-.4.9-.7 1.4-.9.5-.2 1-.3 1.4-.3.9 0 1.7.3 2.4 1 .6.6.8 1.4.8 2.5v6.3h-2.4v-4.2c0-1.1-.1-1.9-.2-2.3s-.3-.7-.5-.9-.6-.3-.9-.3c-.5 0-.9.2-1.3.5s-.6.8-.7 1.3c-.1.3-.1.9-.1 2v3.8h-2.4v-13.2zm15.3 3.4c.9 0 1.8.2 2.5.7s1.4 1.1 1.9 1.8.7 1.6.7 2.5c0 .9-.2 1.7-.7 2.5s-1.1 1.4-1.8 1.8c-.8.4-1.6.7-2.6.7-1.4 0-2.5-.5-3.5-1.5s-1.5-2.2-1.5-3.6c0-1.5.5-2.7 1.6-3.7 1.1-.8 2.2-1.2 3.4-1.2zm.1 2.3c-.7 0-1.4.3-1.9.8s-.7 1.2-.7 2 .2 1.5.7 2c.5.5 1.1.8 1.9.8.8 0 1.4-.3 1.9-.8s.7-1.2.7-2-.2-1.5-.7-2c-.6-.6-1.2-.8-1.9-.8zm7.2-5.6h2.4v3.5h1.4v2.1h-1.4v7.5h-2.4v-7.5H126v-2.1h1.2v-3.5zm9.6 3.3c.9 0 1.8.2 2.5.7s1.4 1.1 1.9 1.8.7 1.6.7 2.5c0 .9-.2 1.7-.7 2.5s-1.1 1.4-1.8 1.8c-.8.4-1.6.7-2.6.7-1.4 0-2.5-.5-3.5-1.5s-1.5-2.2-1.5-3.6c0-1.5.5-2.7 1.6-3.7 1.1-.8 2.2-1.2 3.4-1.2zm.1 2.3c-.7 0-1.4.3-1.9.8s-.7 1.2-.7 2 .2 1.5.7 2c.5.5 1.1.8 1.9.8.8 0 1.4-.3 1.9-.8s.7-1.2.7-2-.2-1.5-.7-2c-.5-.6-1.2-.8-1.9-.8zm12.8-.7l-1.5 1.5c-.6-.6-1.2-.9-1.6-.9-.3 0-.5.1-.6.2-.2.1-.2.3-.2.4 0 .1 0 .2.1.4s.3.3.7.4l.9.4c.9.5 1.6.9 1.9 1.4s.5 1 .5 1.7c0 .8-.3 1.6-.9 2.1s-1.5.9-2.5.9c-1.4 0-2.5-.5-3.3-1.6l1.5-1.6c.3.3.6.6 1 .8.4.2.7.3 1 .3.3 0 .6-.1.8-.2s.3-.3.3-.5c0-.4-.3-.7-1-1.1l-.8-.4c-1.5-.8-2.3-1.8-2.3-2.9 0-.8.3-1.4.9-1.9.6-.5 1.3-.8 2.2-.8.6 0 1.2.1 1.8.4.3.1.7.5 1.1 1zm2.1-5h2.4v4.7c.5-.4.9-.7 1.4-.9.5-.2 1-.3 1.4-.3.9 0 1.7.3 2.4 1 .6.6.8 1.4.8 2.5v6.3h-2.4v-4.2c0-1.1-.1-1.9-.2-2.3s-.3-.7-.5-.9-.6-.3-.9-.3c-.5 0-.9.2-1.3.5s-.6.8-.7 1.3c-.1.3-.1.9-.1 2v3.8h-2.4v-13.2zm15.3 3.4c.9 0 1.8.2 2.5.7s1.4 1.1 1.9 1.8.7 1.6.7 2.5c0 .9-.2 1.7-.7 2.5s-1.1 1.4-1.8 1.8c-.8.4-1.6.7-2.6.7-1.4 0-2.5-.5-3.5-1.5s-1.5-2.2-1.5-3.6c0-1.5.5-2.7 1.6-3.7 1-.8 2.1-1.2 3.4-1.2zm0 2.3c-.7 0-1.4.3-1.9.8s-.7 1.2-.7 2 .2 1.5.7 2c.5.5 1.1.8 1.9.8.8 0 1.4-.3 1.9-.8s.7-1.2.7-2-.2-1.5-.7-2c-.5-.6-1.1-.8-1.9-.8zm9.4-2.1v1.1c.4-.4.9-.8 1.4-1s1-.3 1.6-.3c1.2 0 2.3.5 3.2 1.4s1.3 2.2 1.3 3.6-.5 2.6-1.4 3.6c-.9 1-2 1.4-3.2 1.4-.6 0-1.1-.1-1.5-.3-.5-.2-.9-.5-1.4-1v4.5h-2.4v-13.1h2.4zm2.5 2c-.8 0-1.4.3-1.9.8s-.7 1.2-.7 2 .2 1.5.7 2.1c.5.5 1.1.8 1.9.8.7 0 1.3-.3 1.9-.8s.8-1.2.8-2-.2-1.5-.7-2-1.2-.9-2-.9z"/></g><path class="st11" d="M80 135.6h192v30H80z"/><g class="st12"><path class="st0" d="M270 137.6v26H82v-26h188m2-2H80v30h192v-30z"/></g><g class="st13"><path class="st0" d="M94.6 144.5H97l1.9 8.3 2.3-8.3h2l2.3 8.3 1.9-8.3h2.4l-2.9 12.9h-2.4l-2.4-8.4-2.3 8.4h-2.3l-2.9-12.9zm21.4 3.1c.9 0 1.8.2 2.5.7s1.4 1.1 1.9 1.8.7 1.6.7 2.5c0 .9-.2 1.7-.7 2.5s-1.1 1.4-1.8 1.8c-.8.4-1.6.7-2.6.7-1.4 0-2.5-.5-3.5-1.5s-1.5-2.2-1.5-3.6c0-1.5.5-2.7 1.6-3.7 1.1-.7 2.2-1.2 3.4-1.2zm.1 2.3c-.7 0-1.4.3-1.9.8s-.7 1.2-.7 2 .2 1.5.7 2c.5.5 1.1.8 1.9.8.8 0 1.4-.3 1.9-.8s.7-1.2.7-2-.2-1.5-.7-2c-.5-.5-1.2-.8-1.9-.8zm6.4-2h2.1v1.2c.2-.5.5-.8.9-1.1s.8-.4 1.2-.4c.3 0 .6.1 1 .2l-.7 2.1c-.3-.1-.5-.2-.7-.2-.4 0-.7.2-.9.7s-.4 1.4-.4 2.7v4.4h-2.4v-9.6zm13.4-3.7h2.4v13.3h-2.4v-1c-.5.4-.9.8-1.4 1-.5.2-1 .3-1.5.3-1.2 0-2.3-.5-3.2-1.4-.9-1-1.4-2.1-1.4-3.6s.4-2.7 1.3-3.6 1.9-1.4 3.2-1.4c.6 0 1.1.1 1.6.3s1 .5 1.4 1v-4.9zm-2.5 5.7c-.7 0-1.4.3-1.8.8s-.7 1.2-.7 2 .2 1.5.7 2c.5.5 1.1.8 1.8.8.8 0 1.4-.3 1.9-.8s.7-1.2.7-2.1c0-.8-.2-1.5-.7-2-.6-.5-1.2-.7-1.9-.7zm9.7-2v1.1c.4-.4.9-.8 1.4-1s1-.3 1.6-.3c1.2 0 2.3.5 3.2 1.4s1.3 2.2 1.3 3.6-.5 2.6-1.4 3.6c-.9 1-2 1.4-3.2 1.4-.6 0-1.1-.1-1.5-.3-.5-.2-.9-.5-1.4-1v4.5h-2.4v-13.1h2.4zm2.5 2c-.8 0-1.4.3-1.9.8s-.7 1.2-.7 2 .2 1.5.7 2.1c.5.5 1.1.8 1.9.8.7 0 1.3-.3 1.9-.8s.8-1.2.8-2-.2-1.5-.7-2-1.2-.9-2-.9zm6.4-2h2.1v1.2c.2-.5.5-.8.9-1.1s.8-.4 1.2-.4c.3 0 .6.1 1 .2l-.7 2.1c-.3-.1-.5-.2-.7-.2-.4 0-.7.2-.9.7s-.4 1.4-.4 2.7v4.4H152v-9.6zm15.9 5.5h-7.7c.1.7.4 1.2.9 1.6s1.1.6 1.9.6c.9 0 1.7-.3 2.3-.9l2 .9c-.5.7-1.1 1.2-1.8 1.6-.7.3-1.5.5-2.5.5-1.5 0-2.7-.5-3.7-1.4-.9-.9-1.4-2.1-1.4-3.6s.5-2.7 1.4-3.6c.9-1 2.1-1.4 3.5-1.4 1.5 0 2.7.5 3.7 1.4.9 1 1.4 2.2 1.4 3.8v.5zm-2.4-1.9c-.2-.5-.5-1-.9-1.3-.5-.3-1-.5-1.6-.5-.7 0-1.3.2-1.8.6-.3.2-.6.6-.9 1.2h5.2zm10.2-2.3l-1.5 1.5c-.6-.6-1.2-.9-1.6-.9-.3 0-.5.1-.6.2-.2.1-.2.3-.2.4 0 .1 0 .2.1.4s.3.3.7.4l.9.4c.9.5 1.6.9 1.9 1.4s.5 1 .5 1.7c0 .8-.3 1.6-.9 2.1s-1.5.9-2.5.9c-1.4 0-2.5-.5-3.3-1.6l1.5-1.6c.3.3.6.6 1 .8.4.2.7.3 1 .3.3 0 .6-.1.8-.2s.3-.3.3-.5c0-.4-.3-.7-1-1.1l-.8-.4c-1.5-.8-2.3-1.8-2.3-2.9 0-.8.3-1.4.9-1.9.6-.5 1.3-.8 2.2-.8.6 0 1.2.1 1.8.4.3.1.7.5 1.1 1zm7.9 0l-1.5 1.5c-.6-.6-1.2-.9-1.6-.9-.3 0-.5.1-.6.2-.2.1-.2.3-.2.4 0 .1 0 .2.1.4s.3.3.7.4l.9.4c.9.5 1.6.9 1.9 1.4s.5 1 .5 1.7c0 .8-.3 1.6-.9 2.1s-1.5.9-2.5.9c-1.4 0-2.5-.5-3.3-1.6l1.5-1.6c.3.3.6.6 1 .8.4.2.7.3 1 .3.3 0 .6-.1.8-.2s.3-.3.3-.5c0-.4-.3-.7-1-1.1l-.8-.4c-1.5-.8-2.3-1.8-2.3-2.9 0-.8.3-1.4.9-1.9.6-.5 1.3-.8 2.2-.8.6 0 1.2.1 1.8.4.3.1.8.5 1.1 1z"/></g><path class="st2" d="M80 177.2h192v30H80z"/><g class="st12"><path class="st0" d="M270 179.2v26H82v-26h188m2-2H80v30h192v-30z"/></g><g class="st13"><path class="st0" d="M102.8 187.9l-1.8 1.6c-.6-.9-1.3-1.3-2-1.3-.3 0-.6.1-.8.3s-.3.4-.3.6.1.4.2.6c.2.3.8.8 1.8 1.7.9.8 1.5 1.3 1.7 1.5.5.5.9 1 1.1 1.4.2.5.3 1 .3 1.5 0 1.1-.4 1.9-1.1 2.6-.7.7-1.7 1-2.9 1-.9 0-1.7-.2-2.4-.7-.7-.5-1.3-1.2-1.8-2.1l2.1-1.2c.6 1.1 1.3 1.7 2.1 1.7.4 0 .8-.1 1.1-.4s.4-.5.4-.9c0-.3-.1-.6-.3-.9s-.7-.7-1.4-1.3c-1.4-1.1-2.3-2-2.7-2.7-.4-.6-.6-1.2-.6-1.9 0-.9.3-1.7 1-2.3.7-.6 1.5-1 2.5-1 .6 0 1.3.1 1.8.4.7.5 1.3 1 2 1.8zm6.5-1.7h2.5l5 12.9h-2.6l-1-2.7h-5.3l-1.1 2.7h-2.6l5.1-12.9zm1.3 3.4l-1.7 4.4h3.5l-1.8-4.4zm14.9-1.7l-1.8 1.6c-.6-.9-1.3-1.3-2-1.3-.3 0-.6.1-.8.3s-.3.4-.3.6.1.4.2.6c.2.3.8.8 1.8 1.7.9.8 1.5 1.3 1.7 1.5.5.5.9 1 1.1 1.4.2.5.3 1 .3 1.5 0 1.1-.4 1.9-1.1 2.6-.7.7-1.7 1-2.9 1-.9 0-1.7-.2-2.4-.7-.7-.5-1.3-1.2-1.8-2.1l2.1-1.2c.6 1.1 1.3 1.7 2.1 1.7.4 0 .8-.1 1.1-.4s.4-.5.4-.9c0-.3-.1-.6-.3-.9s-.7-.7-1.4-1.3c-1.4-1.1-2.3-2-2.7-2.7-.4-.6-.6-1.2-.6-1.9 0-.9.3-1.7 1-2.3.7-.6 1.5-1 2.5-1 .6 0 1.3.1 1.8.4.6.5 1.3 1 2 1.8zm9.3 0l-1.8 1.6c-.6-.9-1.3-1.3-2-1.3-.3 0-.6.1-.8.3s-.3.4-.3.6.1.4.2.6c.2.3.8.8 1.8 1.7.9.8 1.5 1.3 1.7 1.5.5.5.9 1 1.1 1.4.2.5.3 1 .3 1.5 0 1.1-.4 1.9-1.1 2.6-.7.7-1.7 1-2.9 1-.9 0-1.7-.2-2.4-.7-.7-.5-1.3-1.2-1.8-2.1l2.1-1.2c.6 1.1 1.3 1.7 2.1 1.7.4 0 .8-.1 1.1-.4s.4-.5.4-.9c0-.3-.1-.6-.3-.9s-.7-.7-1.4-1.3c-1.4-1.1-2.3-2-2.7-2.7-.4-.6-.6-1.2-.6-1.9 0-.9.3-1.7 1-2.3.7-.6 1.5-1 2.5-1 .6 0 1.3.1 1.8.4.7.5 1.3 1 2 1.8z"/></g><path class="st8" d="M80 218.9h128v30H80z"/><g class="st12"><path class="st0" d="M206 220.9v26H82v-26h124m2-2H80v30h128v-30z"/></g><g class="st13"><path class="st0" d="M95.1 227.8h2.6c1.4 0 2.4.1 3.1.4s1.1.7 1.5 1.3.5 1.3.5 2.1c0 .9-.2 1.7-.7 2.3s-1.1 1-1.9 1.2c-.5.1-1.3.2-2.6.2v5.5h-2.5v-13zm2.4 5.1h.8c.6 0 1 0 1.3-.1.2-.1.4-.2.6-.4.1-.2.2-.4.2-.7 0-.5-.2-.9-.6-1.1-.3-.2-.8-.3-1.6-.3h-.7v2.6zm7.6-5.1h2.5v4.9h4.3v-4.9h2.5v12.9H112V235h-4.3v5.7h-2.5v-12.9zm12.3 0h2.6c1.4 0 2.4.1 3.1.4s1.1.7 1.5 1.3.5 1.3.5 2.1c0 .9-.2 1.7-.7 2.3s-1.1 1-1.9 1.2c-.5.1-1.3.2-2.6.2v5.5h-2.5v-13zm2.4 5.1h.8c.6 0 1 0 1.3-.1.2-.1.4-.2.6-.4.1-.2.2-.4.2-.7 0-.5-.2-.9-.6-1.1-.3-.2-.8-.3-1.6-.3h-.7v2.6z"/></g><path class="st14" d="M80 260.5h128v30H80z"/><g class="st12"><path class="st0" d="M206 262.5v26H82v-26h124m2-2H80v30h128v-30z"/></g><g class="st13"><path class="st0" d="M96.3 272.8h2.4v9.9c0 .9-.1 1.6-.3 2-.2.4-.5.8-.8 1s-.9.4-1.4.4c-.5 0-1.1-.1-1.8-.4v-1.9c.4.2.7.3 1 .3.3 0 .5-.1.7-.3s.2-.5.2-1v-10zm1.2-3.9c.4 0 .8.2 1.1.5s.5.7.5 1.1c0 .4-.1.8-.4 1.1s-.7.5-1.1.5c-.4 0-.8-.2-1.1-.5-.3-.3-.5-.7-.5-1.1 0-.4.1-.8.4-1.1s.7-.5 1.1-.5zm14.9 11.6l2.3 2.9h-2.9l-1.1-1.5c-.9.5-2 .8-3.2.8-1.9 0-3.6-.7-4.8-2-1.3-1.3-1.9-2.9-1.9-4.8 0-1.2.3-2.4.9-3.4.6-1 1.4-1.9 2.5-2.5 1-.6 2.2-.9 3.4-.9 1.8 0 3.4.7 4.7 2s2 2.9 2 4.8c-.2 1.8-.8 3.3-1.9 4.6zm-1.5-2c.5-.8.8-1.6.8-2.6 0-1.2-.4-2.3-1.2-3.1-.8-.9-1.8-1.3-3-1.3s-2.2.4-3 1.2c-.8.8-1.2 1.9-1.2 3.2 0 1.4.5 2.6 1.5 3.4.8.7 1.7 1 2.7 1 .6 0 1.1-.1 1.7-.3l-2.3-3h2.9l1.1 1.5zm5.2-5.7h2.4v4.6c0 .9.1 1.5.2 1.9.1.3.3.6.6.8s.6.3 1 .3.7-.1 1-.3c.3-.2.5-.5.6-.8.1-.3.1-.9.1-1.8v-4.7h2.4v4.1c0 1.7-.1 2.8-.4 3.4-.3.8-.8 1.3-1.4 1.7-.6.4-1.4.6-2.4.6s-1.9-.2-2.5-.7-1.1-1.1-1.4-2c-.2-.6-.3-1.6-.3-3.2v-3.9zm20.4 5.5h-7.7c.1.7.4 1.2.9 1.6s1.1.6 1.9.6c.9 0 1.7-.3 2.3-.9l2 .9c-.5.7-1.1 1.2-1.8 1.6-.7.3-1.5.5-2.5.5-1.5 0-2.7-.5-3.7-1.4-.9-.9-1.4-2.1-1.4-3.6s.5-2.7 1.4-3.6c.9-1 2.1-1.4 3.5-1.4 1.5 0 2.7.5 3.7 1.4.9 1 1.4 2.2 1.4 3.8v.5zm-2.4-1.9c-.2-.5-.5-1-.9-1.3-.5-.3-1-.5-1.6-.5-.7 0-1.3.2-1.8.6-.3.2-.6.6-.9 1.2h5.2zm3.8-3.6h2.1v1.2c.2-.5.5-.8.9-1.1s.8-.4 1.2-.4c.3 0 .6.1 1 .2l-.7 2.1c-.3-.1-.5-.2-.7-.2-.4 0-.7.2-.9.7s-.4 1.4-.4 2.7v4.4H138v-9.6zm5.3 0h2.5l2.5 6 2.7-6h2.5l-6 13.1h-2.5l2-4.2-3.7-8.9z"/></g><path class="st15" d="M80 .3h2v400h-2z"/></svg>