<svg id="レイヤー_1" xmlns="http://www.w3.org/2000/svg" viewBox="0 0 400 300"><style>.st0{fill:#fff}.st1{fill:#2062af}.st2{fill:#c69}.st3{fill:#1c0a00}.st4{fill:none}.st5{fill:#ff7f18}.st6{fill:#0c0824}.st7{fill:#31c5f0}.st8{fill:#e44d26}.st9{fill:#87cff3}.st10{fill:#21759b}.st11{opacity:.7}.st12{fill:#ea6c00}.st13{fill:#005fa8}.st14{opacity:.3;fill:#fff;enable-background:new}.st15{opacity:.8}.st16{fill:#fdb300}.st17{fill:#fdad00}.st18{fill:#fdd231}.st19{fill:#feeeb7}.st20{fill:#606060}</style><title>img</title><circle class="st0" cx="38.9" cy="150.6" r="16.4"/><path class="st1" d="M65.1 38.1l-11.3 3.1-11.2-3.1L40 10h27.7z"/><path class="st0" d="M62.1 19.1l.3-3.4H45l.5 3.4h8.8l-.5.2-8 3.4.2 3.3h12l-.3 4.5-3.9 1.1v-.1.1l-3.8-1-.2-2.7h-3.5l.4 5.3 7.1 2.1 7.1-2.1.9-10.5h-8z"/><path class="st2" d="M38.9 175.8c9.1 0 16.4 7.4 16.4 16.4s-7.4 16.4-16.4 16.4-16.4-7.4-16.4-16.4c0-9 7.3-16.4 16.4-16.4z"/><path class="st0" d="M49.2 182.9c-.8-2.9-5.6-3.9-10.2-2.3-2.9 1-5.5 2.5-7.8 4.5-2.5 2.4-2.9 4.4-2.8 5.3.6 3 4.7 5 6.4 6.5-.5.3-4.2 2.1-5 4s.1 3.4.8 3.6c2.1.5 4.4-.4 5.6-2.3 1-1.5 1.2-3.3.5-5 .8-.2 1.7-.3 2.5-.1 2.9.3 3.5 2.1 3.3 2.9-.1.5-.4 1-.9 1.3-.2.1-.3.2-.3.3s.1.1.3.1c.9-.3 1.5-1.1 1.6-2 .1-1.8-1.6-3.7-4.6-3.7-.9 0-1.7.1-2.6.4l-.1-.1c-1.8-2-5.3-3.4-5.1-6 0-1 .4-3.5 6.6-6.6 5.1-2.5 9.1-1.8 9.8-.3 1 2.2-2.2 6.3-7.4 6.9-1.2.2-2.4-.1-3.3-.8-.3-.3-.3-.3-.4-.3s-.1.4 0 .5c.4.7 1.1 1.3 1.9 1.5 2.1.4 4.2.2 6.2-.6 3.2-1.4 5.7-4.9 5-7.7zm-13.6 14.8c.2.8.2 1.7 0 2.4l-.1.3-.1.2c-.2.4-.5.8-.8 1.1-1 1-2.3 1.4-2.9 1.1s-.3-1.8.8-3c.8-.8 1.8-1.5 2.9-2.1h.2z"/><path class="st3" d="M24 52.8h29.8v29H24v-29z"/><path class="st4" d="M36.1 60.8c-.3 1.6-1 4.3-1.6 6.4h3.2c-.4-1.5-1.3-4.8-1.6-6.4z"/><path class="st4" d="M24 81.8h29.8v-29H24v29zm22.4-8.4c0 .1 0 .1-.1.2h-2.2c-.1 0-.2 0-.2-.1V62.8c0-.1 0-.1.1-.2h2.1c.1 0 .1 0 .2.1l.1 10.7zm-1.2-15.1c.7 0 1.3.5 1.4 1.2v.1c.1.7-.5 1.3-1.2 1.4h-.2c-.7 0-1.3-.5-1.4-1.2v-.2c0-.7.5-1.3 1.2-1.4.1.1.1.1.2.1zM30.5 73.4l3.8-13.5c.1-.4.1-.7.1-1.1 0-.1 0-.1.1-.1h2.8c.1 0 .1 0 .2.1l4.3 14.6c0 .1 0 .2-.1.2h-2.3c-.1 0-.2 0-.2-.1l-1.1-4.1h-4.3l-1.1 4.1c0 .1-.1.2-.2.1h-2v-.2z"/><path class="st5" d="M46.2 62.6h-2.1c-.1 0-.1 0-.2.1v10.7c0 .1 0 .2.1.2h2.2c.1 0 .1 0 .2-.1V62.8c0-.1-.1-.2-.2-.2zm-1.1-1.5c.7.1 1.3-.5 1.4-1.2v-.2c0-.8-.6-1.4-1.4-1.4-.8 0-1.4.6-1.4 1.4-.1.7.5 1.3 1.2 1.4h.2zM30.7 73.6h2c.1 0 .2 0 .2-.1l1.1-4.1h4.3l1.1 4.1c0 .1.1.1.2.1h2.3c.1 0 .1-.1.1-.2l-4.3-14.6c0-.1-.1-.1-.1-.1h-2.8c-.1 0-.1 0-.1.1 0 .4 0 .8-.1 1.1l-3.8 13.5c-.3.2-.3.2-.1.2zm5.4-12.8c.3 1.6 1.2 4.9 1.6 6.4h-3.2c.5-2.1 1.3-4.8 1.6-6.4z"/><path class="st6" d="M24 94.5h29.8v29H24v-29z"/><path class="st4" d="M24 123.4h29.8v-29H24v29zm16.8-10.7c0-.1.1-.2.2-.1.8.5 1.8.8 2.7.8 1.1 0 1.5-.4 1.5-1.1s-.3-.9-1.7-1.6c-1.9-.9-2.7-1.8-2.7-3.4 0-1.8 1.4-3.2 3.7-3.2.8 0 1.6.1 2.4.4.1.1.1.2.1.3v1.8c0 .1 0 .1-.1.2h-.1c-.7-.4-1.5-.6-2.4-.6-1.1 0-1.4.5-1.4 1s.2.8 1.7 1.6c2.1 1 2.8 2 2.8 3.5 0 2.2-1.7 3.3-3.9 3.3-1 0-1.9-.2-2.8-.6-.1 0-.1-.1-.1-.2l.1-2.1zm-10.3-12.2c.1-.1.2-.2.3-.2.9 0 2.2-.1 3.5-.1 3.8 0 5.2 2.1 5.2 4.7 0 3.4-2.5 4.9-5.5 4.9h-1.1v5.2c0 .1 0 .1-.1.2h-2.1c-.1 0-.1 0-.2-.1v-14.6z"/><path class="st7" d="M40.9 114.9c.9.4 1.8.6 2.8.6 2.2 0 3.9-1.2 3.9-3.3 0-1.4-.7-2.4-2.8-3.5-1.4-.7-1.7-1.1-1.7-1.6s.4-1 1.4-1c.8 0 1.6.2 2.4.6.1 0 .2 0 .2-.1v-1.9c0-.1 0-.2-.1-.3-.8-.3-1.6-.4-2.4-.4-2.4 0-3.7 1.4-3.7 3.2 0 1.6.8 2.5 2.7 3.4 1.4.7 1.7 1.1 1.7 1.6s-.5 1.1-1.5 1.1-1.9-.3-2.7-.8c-.1-.1-.2 0-.2.1v2c-.1.1-.1.2 0 .3zm-10.2.3h2.1c.1 0 .1 0 .2-.1v-5.2h1.1c3.1 0 5.5-1.5 5.5-4.9 0-2.6-1.5-4.7-5.2-4.7-1.3 0-2.6 0-3.5.1-.1 0-.2.1-.3.2v14.5c-.1 0-.1.1.1.1-.1 0-.1 0 0 0zm2.2-12.7h1.3c1.8 0 2.9.9 2.9 2.6 0 2.2-1.5 2.7-3.1 2.7h-1.1v-5.3z"/><path class="st8" d="M12.5 38.2L10 10h27.6l-2.5 28.2-11.3 3.1z"/><path class="st0" d="M23.8 15.8h-8.7l.1.9.9 9.5H28l-.4 4.5-3.8 1.1-3.9-1.1-.2-2.7h-3.5l.5 5.4 7.1 1.9 7.1-1.9v-.6l.9-9.1v-.9H19.2l-.3-3.6h13.3v-.7l.2-1.8.1-.9z"/><path class="st9" d="M25.8 226.2c-2.7 3.8-2.3 8.8-.3 12.9 0 .1.1.2.1.3l.1.2.1.1.1.2.2.3.1.2.2.4.1.1c.1.2.2.3.3.5h.1l.3.4.1.1.3.3.1.1.4.4.4.4.2.1.3.3.1.2.4.4.1.1.4.3.2.1.3.3.2.1.3.4.1.1.4.2.1.1.6.3.2.1.4.2.3.2.3.1h.1l.1.1.5.2H34l.5.3h.1l.5.2h.1l.6.2h.2c.2.1.4.1.6.2 12.9 2.4 16.6-7.7 16.6-7.7-3.1 4.1-8.7 5.2-14 4-.2 0-.4-.1-.6-.2h-.1l-.6-.2h-.1l-.5-.2h-.1l-.5-.2h-.1l-.5-.2-.1-.1-.3-.2-.2-.1-.4-.2-.1-.2-.5-.3-.2-.1-.4-.3-.1-.1-.4-.2-.2-.1-.3-.3-.2-.1-.4-.4-.4-.4-.1-.1-.3-.3-.1-.1-.4-.4-.4-.5-.1-.1-.3-.4-.1-.1-.3-.4c-2.9-4-4-9.5-1.6-14"/><path class="st9" d="M34 223c-1.8 2.8-1.9 6.5-.3 9.4.2.5.5 1 .8 1.4.3.5.6.9 1 1.2.1.1.3.3.4.5l.1.1.4.4.5.4.1.1.5.4.3.2.1.1.4.3h.1l.3.2.1.1.3.1.5.2h.1l.5.3h.2l.4.2.2.1c.2.1.4.1.6.2 9.9 1.6 12.2-6 12.2-6-2.1 3-6.1 4.4-10.3 3.3l-.6-.2h-.2l-.4-.1-.2-.1-.4-.2h-.1l-.5-.2-.2-.2-.2-.1-.3-.2h-.1l-.4-.3-.2-.2-.3-.2-.5-.4-.1-.1c-1.9-1.5-3.3-3.5-4.1-5.8-.8-2.4-.5-5 .7-7.2"/><path class="st9" d="M41 220.6c-1.1 1.7-1.3 3.8-.5 5.6.9 1.9 2.5 3.5 4.5 4.2l.2.1h.1c.1 0 .2.1.3.1 5.5 1.1 7-2.8 7.4-3.4-1.3 1.9-3.5 2.3-6.2 1.7-.2-.1-.4-.1-.7-.2s-.5-.2-.8-.3c-.5-.2-.9-.5-1.3-.8-2.4-1.8-3.9-5.3-2.3-8.1"/><path class="st10" d="M38.9 135c-8.6 0-15.6 7-15.6 15.6s7 15.6 15.6 15.6 15.6-7 15.6-15.6-7-15.6-15.6-15.6zm-14 15.6c0-2 .4-3.9 1.2-5.7l6.7 18.3c-4.9-2.3-7.9-7.2-7.9-12.6zm14 14c-1.4 0-2.7-.2-4-.6l4.2-12.2 4.3 11.8c0 .1.1.1.1.2-1.5.5-3 .8-4.6.8zm1.9-20.6c.8 0 1.6-.1 1.6-.1.3 0 .6-.3.5-.6 0-.3-.3-.6-.6-.5 0 0-2.3.2-3.7.2s-3.7-.2-3.7-.2c-.3 0-.6.2-.6.5s.2.6.5.6c0 0 .7.1 1.5.1l2.2 6-3.1 9.2-5.1-15.2c.8 0 1.6-.1 1.6-.1.3 0 .6-.3.5-.6s-.3-.6-.6-.5c0 0-2.3.2-3.7.2h-.9c4.2-6.5 12.9-8.3 19.4-4 .6.4 1.2.9 1.8 1.4h-.2c-1.3 0-2.4 1.2-2.3 2.5.2 1.2.6 2.3 1.4 3.3.7 1.2 1.1 2.5 1.2 3.9-.1 1.6-.5 3.1-1.1 4.5l-1.4 4.7-5.2-15.3zm10.4-.1c3.7 6.7 1.3 15-5.3 18.9l4.3-12.4c.7-1.6 1-3.3 1.1-5 0-.6 0-1.1-.1-1.5z"/><path class="st8" d="M80 10.7h320v30H80z"/><g class="st11"><path class="st0" d="M398 12.7v26H82v-26h316m2-2H80v30h320v-30z"/></g><path class="st5" d="M80 52.3h320v30H80z"/><g class="st11"><path class="st0" d="M398 54.3v26H82v-26h316m2-2H80v30h320v-30z"/></g><path class="st7" d="M80 94h256v30H80z"/><g class="st11"><path class="st0" d="M334 96v26H82V96h252m2-2H80v30h256V94z"/></g><path class="st10" d="M80 135.6h192v30H80z"/><g class="st11"><path class="st0" d="M270 137.6v26H82v-26h188m2-2H80v30h192v-30z"/></g><path class="st2" d="M80 177.2h192v30H80z"/><g class="st11"><path class="st0" d="M270 179.2v26H82v-26h188m2-2H80v30h192v-30z"/></g><path class="st12" d="M80 260.5h128v30H80z"/><g class="st11"><path class="st0" d="M206 262.5v26H82v-26h124m2-2H80v30h128v-30z"/></g><path class="st13" d="M80 218.9h192v30H80z"/><g class="st11"><path class="st0" d="M270 220.9v26H82v-26h188m2-2H80v30h192v-30z"/></g><path class="st14" d="M80 .3h2v400h-2z"/><g class="st15"><path class="st0" d="M103.3 33.7h-3.5v-5.5h-5v5.5h-3.5V20.4h3.5v5.1h5v-5.1h3.5v13.3zM114 23.3h-2.9v10.4h-3.5V23.3h-2.8v-2.9h9.2v2.9zm17.7 10.4h-3.5l-1-7.7-3.2 7.7h-1.4l-3.1-7.7-1.1 7.7H115l2.3-13.3h3.4l2.7 7.1 2.9-7.1h3.5l1.9 13.3zm9.8 0h-7.6V20.4h3.5v10.4h4.2v2.9zm7.6-9.1l-.4 1.6h-2.5l-.4 1.3c1 0 1.7.3 2.3.8s.8 1.2.8 2.1c0 1.1-.4 2-1.2 2.7-.7.6-1.6.9-2.7.9-.5 0-1-.1-1.7-.3v-2c.5.2.9.3 1.5.3 1.3 0 2-.5 2-1.5 0-.9-.7-1.3-2.2-1.5h-1.2l1.2-4.5h4.5zm18.5 6.9l-1.2 2.5c-.7-.4-1.3-.9-1.8-1.3-1 .9-2.2 1.3-3.6 1.3-1.2 0-2.2-.3-3-.9-.9-.6-1.3-1.5-1.3-2.7 0-1.4.9-2.5 2.6-3.4-.5-.6-.8-1-.9-1.2-.2-.4-.4-.9-.4-1.5 0-.8.4-1.5 1.1-2 .7-.5 1.5-.8 2.5-.8s1.9.2 2.6.7c.7.5 1.1 1.2 1.1 2.1 0 1.1-.8 2.1-2.4 3l1.5 1.5c.2-.4.4-.9.5-1.2l2.3.8c-.2.8-.5 1.6-1 2.2.4.3.9.6 1.4.9zm-4.6-.6l-2.3-2.3c-.7.4-1 1-1 1.8 0 .3.1.6.4.9s.6.4.9.4c.8 0 1.4-.3 2-.8zm-.2-6.4c0-.3-.1-.5-.3-.7s-.5-.3-.7-.3c-.2 0-.5.1-.7.2-.2.2-.4.4-.4.7 0 .3.1.6.3.9l.6.6.6-.4c.4-.2.6-.5.6-1zm22.2 8.9c-1.1.4-2.2.7-3.1.7-1.7 0-3.2-.5-4.5-1.6-1.7-1.4-2.5-3.2-2.5-5.4s.8-4 2.5-5.4c1.3-1.1 2.8-1.6 4.5-1.6.9 0 2 .2 3.1.7V25c-.3-.4-.7-.7-1-.9-.6-.4-1.3-.6-2-.6-.9 0-1.7.3-2.3.8-.8.7-1.3 1.6-1.3 2.8 0 1.2.4 2.1 1.3 2.8.7.5 1.4.8 2.3.8.7 0 1.4-.2 2-.6.3-.2.7-.5 1-.9v4.2zm11.5-4.1c0 2.3-1 3.7-3 4.4-.7.2-1.4.4-2.2.4-1.7 0-3.2-.5-4.6-1.5l1.5-2.8c1 .9 2.1 1.4 3.1 1.4.5 0 .8-.1 1.1-.3.4-.2.5-.6.5-1s-.2-.7-.6-1c-.3-.2-.8-.4-1.5-.6-.9-.3-1.4-.4-1.6-.5-.4-.1-.7-.3-.9-.5-.7-.6-1.1-1.5-1.1-2.7 0-1.2.4-2.3 1.1-3.1.9-1 2-1.4 3.4-1.4s2.8.4 4.2 1.1l-1.4 2.7c-.8-.6-1.5-.9-2.3-.9-.4 0-.7.1-1 .3-.3.2-.5.5-.5.9s.2.7.7.9c.2.1.8.3 1.8.6 1.2.4 2.1.9 2.6 1.5.5.5.7 1.2.7 2.1zm11.4 0c0 2.3-1 3.7-3 4.4-.7.2-1.4.4-2.2.4-1.7 0-3.2-.5-4.6-1.5l1.5-2.8c1 .9 2.1 1.4 3.1 1.4.5 0 .8-.1 1.1-.3.4-.2.5-.6.5-1s-.2-.7-.6-1c-.3-.2-.8-.4-1.5-.6-.9-.3-1.4-.4-1.6-.5-.4-.1-.7-.3-.9-.5-.7-.6-1.1-1.5-1.1-2.7 0-1.2.4-2.3 1.1-3.1.9-1 2-1.4 3.4-1.4s2.8.4 4.2 1.1l-1.4 2.7c-.8-.6-1.5-.9-2.3-.9-.4 0-.7.1-1 .3-.3.2-.5.5-.5.9s.2.7.7.9c.2.1.8.3 1.8.6 1.2.4 2.1.9 2.6 1.5.5.5.7 1.2.7 2.1zm8.2 1.5c0 .9-.4 1.7-1.1 2.2-.7.6-1.6.8-2.6.8-.9 0-1.8-.2-2.5-.6l.6-1.9c.9.3 1.5.4 2 .4.4 0 .8-.1 1-.3.3-.2.5-.5.5-.8 0-.4-.2-.7-.5-.9-.3-.2-.7-.3-1.1-.3h-.6V28c1.2 0 1.8-.4 1.8-1.1 0-.3-.2-.5-.5-.7-.3-.2-.6-.2-.9-.2-.5 0-1.1.1-1.6.4v-2c.6-.3 1.3-.4 2-.4.8 0 1.5.2 2.1.6.7.4 1 1.1 1 1.9 0 .8-.3 1.4-1 1.8.4.2.8.5 1 .9s.4 1.1.4 1.6z"/></g><g class="st15"><path class="st0" d="M94.9 75.3h-3.5V62h3.5v13.3zm5.7 0h-3.2V60.7h3.2v14.6zm5.4 0h-3.2V60.7h3.2v14.6zm11.8-3.3c0 1.7-.8 2.8-2.4 3.4-.7.2-1.5.3-2.4.3-1.9 0-3.2-.5-4.1-1.4-.5-.6-.8-1.4-.8-2.3v-5.8h3.2v5.1c0 .6.1 1 .4 1.2.3.3.7.4 1.2.4s.9-.1 1.2-.4c.3-.3.4-.7.4-1.2v-5.1h3.2V72zm9.6.3c0 1-.3 1.8-1 2.4-.8.7-1.9 1-3.3 1-1.2 0-2.5-.3-3.6-1l1.2-2.3c.9.6 1.8.9 2.6.9.7 0 1-.2 1-.7 0-.2-.1-.4-.4-.6-.1-.1-.5-.2-1-.3-.6-.1-1-.2-1.2-.3-.6-.3-1.1-.6-1.3-1.2-.1-.3-.2-.6-.2-1.1 0-.8.3-1.5.8-2.1.7-.8 1.8-1.1 3.2-1.1 1 0 2 .2 2.9.6l-1.1 2.1c-.6-.3-1.2-.5-1.7-.5-.6 0-1 .2-1 .7 0 .2.1.4.4.5.1.1.5.1 1 .3.8.2 1.5.5 1.9.8.5.5.8 1.1.8 1.9zm7-3.4h-1.8v6.4h-3.2v-6.4h-1.1v-2.6h1.1v-2.7h3.2v2.7h1.8v2.6zm8 .3c-.4-.2-.9-.3-1.4-.3-1.1 0-1.7.4-2 1.3-.1.3-.2.7-.2 1.3v3.9h-3.2v-9.1h3.2v1.5c.3-.5.7-.9 1.1-1.1.5-.3 1.1-.5 1.9-.5h.6v3zm11.6 6.1h-3.2v-1c-.3.4-.6.7-.9.8-.5.3-1.2.5-1.9.5-1.1 0-2.1-.4-3-1.2-1-.9-1.6-2.1-1.6-3.7 0-1.5.5-2.8 1.6-3.7.9-.7 1.8-1.1 2.9-1.1.6 0 1.2.1 1.8.4.3.2.7.4 1 .8v-.9h3.2v9.1zm-3.1-4.5c0-.6-.2-1.1-.6-1.5-.4-.4-.9-.6-1.5-.6s-1.2.2-1.6.7c-.3.4-.5.8-.5 1.3s.2.9.5 1.3c.4.5.9.7 1.6.7.6 0 1.1-.2 1.5-.6s.6-.7.6-1.3zm10.7-1.9h-1.8v6.4h-3.2v-6.4h-1.1v-2.6h1.1v-2.7h3.2v2.7h1.8v2.6zm11.7 1.9c0 1.3-.4 2.3-1.2 3.2-1 1.1-2.4 1.6-4.2 1.6-1.8 0-3.2-.5-4.2-1.6-.8-.9-1.2-2-1.2-3.3 0-1.2.4-2.2 1.2-3.1 1-1.1 2.4-1.7 4.3-1.7 1.7 0 3.1.5 4.1 1.7.8.9 1.2 2 1.2 3.2zm-3.3 0c0-.6-.2-1.1-.6-1.5-.4-.4-.9-.6-1.5-.6-.7 0-1.2.2-1.6.7-.3.4-.5.9-.5 1.4 0 .5.2 1 .5 1.4.4.5 1 .7 1.6.7.6 0 1.1-.2 1.5-.6.4-.4.6-.9.6-1.5zm12-1.6c-.4-.2-.9-.3-1.4-.3-1.1 0-1.7.4-2 1.3-.1.3-.2.7-.2 1.3v3.9h-3.2v-9.1h3.2v1.5c.3-.5.7-.9 1.1-1.1.5-.3 1.1-.5 1.9-.5h.6v3z"/></g><g class="st15"><path class="st0" d="M101.5 108c0 1.2-.3 2.2-.8 3-.7 1-2 1.5-3.7 1.5h-2.2v4.4h-3.5v-13.3h5.5c1.6 0 2.8.5 3.6 1.4.8.8 1.1 1.8 1.1 3zm-3.6.1c0-.5-.1-.9-.4-1.2-.3-.3-.8-.4-1.5-.4h-1.2v3.3H96c.8 0 1.3-.2 1.5-.5.3-.3.4-.7.4-1.2zm14.7 8.9h-3.2v-4.6c0-.8-.1-1.3-.3-1.6-.3-.4-.7-.6-1.2-.6s-.9.2-1.2.5c-.3.3-.4.8-.4 1.4v4.9h-3.2v-14.7h3.2v6.7c.4-.4.7-.7 1-.9.5-.3 1.1-.4 1.9-.4 1 0 1.8.3 2.4.8.7.6 1 1.5 1 2.7v5.8zm12.8-4.6c0 1.3-.4 2.3-1.2 3.2-1 1.1-2.4 1.6-4.2 1.6-1.8 0-3.2-.5-4.2-1.6-.8-.9-1.2-2-1.2-3.3 0-1.2.4-2.2 1.2-3.1 1-1.1 2.4-1.7 4.3-1.7 1.7 0 3.1.5 4.1 1.7.8.9 1.2 2 1.2 3.2zm-3.4 0c0-.6-.2-1.1-.6-1.5-.4-.4-.9-.6-1.5-.6-.7 0-1.2.2-1.6.7-.3.4-.5.9-.5 1.4 0 .5.2 1 .5 1.4.4.5 1 .7 1.6.7.6 0 1.1-.2 1.5-.6.4-.4.6-.9.6-1.5zm10.6-1.9h-1.8v6.4h-3.2v-6.4h-1.1v-2.6h1.1v-2.7h3.2v2.7h1.8v2.6zm11.7 1.9c0 1.3-.4 2.3-1.2 3.2-1 1.1-2.4 1.6-4.2 1.6-1.8 0-3.2-.5-4.2-1.6-.8-.9-1.2-2-1.2-3.3 0-1.2.4-2.2 1.2-3.1 1-1.1 2.4-1.7 4.3-1.7 1.7 0 3.1.5 4.1 1.7.8.9 1.2 2 1.2 3.2zm-3.3 0c0-.6-.2-1.1-.6-1.5-.4-.4-.9-.6-1.5-.6-.7 0-1.2.2-1.6.7-.3.4-.5.9-.5 1.4 0 .5.2 1 .5 1.4.4.5 1 .7 1.6.7.6 0 1.1-.2 1.5-.6.4-.4.6-.9.6-1.5zm12.5 1.5c0 1-.3 1.8-1 2.4-.8.7-1.9 1-3.3 1-1.2 0-2.5-.3-3.6-1l1.2-2.3c.9.6 1.8.9 2.6.9.7 0 1-.2 1-.7 0-.2-.1-.4-.4-.6-.1-.1-.5-.2-1-.3-.6-.1-1-.2-1.2-.3-.6-.3-1.1-.6-1.3-1.2-.1-.3-.2-.6-.2-1.1 0-.8.3-1.5.8-2.1.7-.8 1.8-1.1 3.2-1.1 1 0 2 .2 2.9.6l-1.1 2.1c-.6-.3-1.2-.5-1.7-.5-.6 0-1 .2-1 .7 0 .2.1.4.4.5.1.1.5.1 1 .3.8.2 1.5.5 1.9.8.6.5.8 1.1.8 1.9zm11.2 3.1h-3.2v-4.6c0-.8-.1-1.3-.3-1.6-.3-.4-.7-.6-1.2-.6s-.9.2-1.2.5c-.3.3-.4.8-.4 1.4v4.9h-3.2v-14.7h3.2v6.7c.4-.4.7-.7 1-.9.5-.3 1.1-.4 1.9-.4 1 0 1.8.3 2.4.8.7.6 1 1.5 1 2.7v5.8zm12.8-4.6c0 1.3-.4 2.3-1.2 3.2-1 1.1-2.4 1.6-4.2 1.6-1.8 0-3.2-.5-4.2-1.6-.8-.9-1.2-2-1.2-3.3 0-1.2.4-2.2 1.2-3.1 1-1.1 2.4-1.7 4.3-1.7 1.7 0 3.1.5 4.1 1.7.7.9 1.2 2 1.2 3.2zm-3.4 0c0-.6-.2-1.1-.6-1.5-.4-.4-.9-.6-1.5-.6-.7 0-1.2.2-1.6.7-.3.4-.5.9-.5 1.4 0 .5.2 1 .5 1.4.4.5 1 .7 1.6.7.6 0 1.1-.2 1.5-.6.4-.4.6-.9.6-1.5zm15.8 0c0 1.5-.5 2.8-1.6 3.7-.9.7-1.8 1.1-2.9 1.1-.6 0-1.2-.1-1.8-.4-.3-.2-.7-.4-1-.8v5.4h-3.2v-13.6h3.2v1c.3-.4.6-.7.9-.8.5-.3 1.2-.5 1.9-.5 1.1 0 2.1.4 3 1.2.9 1 1.5 2.2 1.5 3.7zm-3.4 0c0-.5-.2-1-.5-1.3-.4-.5-.9-.7-1.6-.7-.6 0-1.1.2-1.5.6-.4.4-.6.9-.6 1.5s.2 1.1.6 1.5.9.6 1.5.6 1.2-.2 1.6-.7c.4-.5.5-1 .5-1.5z"/></g><g class="st15"><path class="st0" d="M110.3 145.3l-4.3 13.3h-3.5l-2.4-7.7-2.5 7.7H94l-4-13.3h3.6l2.3 8.6 2.8-8.6h2.8l2.6 8.6 2.5-8.6h3.7zm11.6 8.8c0 1.3-.4 2.3-1.2 3.2-1 1.1-2.4 1.6-4.2 1.6-1.8 0-3.2-.5-4.2-1.6-.8-.9-1.2-2-1.2-3.3 0-1.2.4-2.2 1.2-3.1 1-1.1 2.4-1.7 4.3-1.7 1.7 0 3.1.5 4.1 1.7.8.9 1.2 1.9 1.2 3.2zm-3.3 0c0-.6-.2-1.1-.6-1.5-.4-.4-.9-.6-1.5-.6-.7 0-1.2.2-1.6.7-.3.4-.5.9-.5 1.4 0 .5.2 1 .5 1.4.4.5 1 .7 1.6.7.6 0 1.1-.2 1.5-.6.4-.4.6-.9.6-1.5zm11.9-1.6c-.4-.2-.9-.3-1.4-.3-1.1 0-1.7.4-2 1.3-.1.3-.2.7-.2 1.3v3.9h-3.2v-9.1h3.2v1.5c.3-.5.7-.9 1.1-1.1.5-.3 1.1-.5 1.9-.5h.6v3zm11.7 6.1H139v-1c-.3.4-.6.7-.9.8-.5.3-1.2.5-1.9.5-1.1 0-2.1-.4-3-1.2-1-.9-1.6-2.1-1.6-3.7 0-1.5.5-2.8 1.6-3.7.9-.7 1.8-1.1 2.9-1.1.6 0 1.2.1 1.8.4.3.2.7.4 1 .8v-6.5h3.2v14.7zm-3.1-4.5c0-.6-.2-1.1-.6-1.5-.4-.4-.9-.6-1.5-.6s-1.2.2-1.6.7c-.3.4-.5.8-.5 1.3s.2.9.5 1.3c.4.5.9.7 1.6.7.6 0 1.1-.2 1.5-.6.4-.3.6-.7.6-1.3zm15.8 0c0 1.5-.5 2.8-1.6 3.7-.9.7-1.8 1.1-2.9 1.1-.6 0-1.2-.1-1.8-.4-.3-.2-.7-.4-1-.8v5.4h-3.2v-13.6h3.2v1c.3-.4.6-.7.9-.8.5-.3 1.2-.5 1.9-.5 1.1 0 2.1.4 3 1.2 1 .9 1.5 2.2 1.5 3.7zm-3.3 0c0-.5-.2-1-.5-1.3-.4-.5-.9-.7-1.6-.7-.6 0-1.1.2-1.5.6-.4.4-.6.9-.6 1.5s.2 1.1.6 1.5.9.6 1.5.6 1.2-.2 1.6-.7c.3-.6.5-1 .5-1.5zm12-1.6c-.4-.2-.9-.3-1.4-.3-1.1 0-1.7.4-2 1.3-.1.3-.2.7-.2 1.3v3.9h-3.2v-9.1h3.2v1.5c.3-.5.7-.9 1.1-1.1.5-.3 1.1-.5 1.9-.5h.6v3zm11 2.2h-6.7c0 1.4.7 2 2 2 .7 0 1.2-.3 1.5-.9h3.1c-.2.8-.6 1.5-1.1 1.9-.9.8-2 1.2-3.5 1.2-1.9 0-3.3-.6-4.2-1.7-.7-.8-1.1-1.9-1.1-3.1 0-1.4.4-2.6 1.3-3.5.9-.9 2.1-1.4 3.7-1.4 2 0 3.4.7 4.2 2.2.5.8.7 1.7.7 2.8v.5zm-3-1.9c-.2-1-.8-1.5-1.8-1.5-.5 0-1 .2-1.3.5-.3.3-.4.6-.5 1h3.6zm12.2 2.7c0 1-.3 1.8-1 2.4-.8.7-1.9 1-3.3 1-1.2 0-2.5-.3-3.6-1l1.2-2.3c.9.6 1.8.9 2.6.9.7 0 1-.2 1-.7 0-.2-.1-.4-.4-.6-.1-.1-.5-.2-1-.3-.6-.1-1-.2-1.2-.3-.6-.3-1.1-.6-1.3-1.2-.1-.3-.2-.6-.2-1.1 0-.8.3-1.5.8-2.1.7-.8 1.8-1.1 3.2-1.1 1 0 2 .2 2.9.6l-1.1 2.1c-.6-.3-1.2-.5-1.7-.5-.6 0-1 .2-1 .7 0 .2.1.4.4.5.1.1.5.1 1 .3.8.2 1.5.5 1.9.8.6.5.8 1.2.8 1.9zm9 0c0 1-.3 1.8-1 2.4-.8.7-1.9 1-3.3 1-1.2 0-2.5-.3-3.6-1l1.2-2.3c.9.6 1.8.9 2.6.9.7 0 1-.2 1-.7 0-.2-.1-.4-.4-.6-.1-.1-.5-.2-1-.3-.6-.1-1-.2-1.2-.3-.6-.3-1.1-.6-1.3-1.2-.1-.3-.2-.6-.2-1.1 0-.8.3-1.5.8-2.1.7-.8 1.8-1.1 3.2-1.1 1 0 2 .2 2.9.6l-1.1 2.1c-.6-.3-1.2-.5-1.7-.5-.6 0-1 .2-1 .7 0 .2.1.4.4.5.1.1.5.1 1 .3.8.2 1.5.5 1.9.8.6.5.8 1.2.8 1.9z"/></g><g class="st15"><path class="st0" d="M100.6 195.8c0 2.3-1 3.7-3 4.4-.7.2-1.4.4-2.2.4-1.7 0-3.2-.5-4.6-1.5l1.5-2.8c1 .9 2.1 1.4 3.1 1.4.5 0 .8-.1 1.1-.3.4-.2.5-.6.5-1s-.2-.7-.6-1c-.3-.2-.8-.4-1.5-.6-.9-.3-1.4-.4-1.6-.5-.4-.1-.7-.3-.9-.5-.7-.6-1.1-1.5-1.1-2.7 0-1.2.4-2.3 1.1-3.1.9-1 2-1.4 3.4-1.4s2.8.4 4.2 1.1l-1.4 2.7c-.8-.6-1.5-.9-2.3-.9-.4 0-.7.1-1 .3-.3.2-.5.5-.5.9s.2.7.7.9c.2.1.8.3 1.8.6 1.2.4 2.1.9 2.6 1.5.5.5.7 1.2.7 2.1zm14.9 4.4h-3.7l-.9-2.3h-4.8l-.9 2.3h-3.7l5.1-13.3h3.8l5.1 13.3zm-5.5-4.9l-1.4-4.2-1.5 4.2h2.9zm16.3.5c0 2.3-1 3.7-3 4.4-.7.2-1.4.4-2.2.4-1.7 0-3.2-.5-4.6-1.5l1.5-2.8c1 .9 2.1 1.4 3.1 1.4.5 0 .8-.1 1.1-.3.4-.2.5-.6.5-1s-.2-.7-.6-1c-.3-.2-.8-.4-1.5-.6-.9-.3-1.4-.4-1.6-.5-.4-.1-.7-.3-.9-.5-.7-.6-1.1-1.5-1.1-2.7 0-1.2.4-2.3 1.1-3.1.9-1 2-1.4 3.4-1.4s2.8.4 4.2 1.1l-1.4 2.7c-.8-.6-1.5-.9-2.3-.9-.4 0-.7.1-1 .3-.3.2-.5.5-.5.9s.2.7.7.9c.2.1.8.3 1.8.6 1.2.4 2.1.9 2.6 1.5.4.5.7 1.2.7 2.1zm11.4 0c0 2.3-1 3.7-3 4.4-.7.2-1.4.4-2.2.4-1.7 0-3.2-.5-4.6-1.5l1.5-2.8c1 .9 2.1 1.4 3.1 1.4.5 0 .8-.1 1.1-.3.4-.2.5-.6.5-1s-.2-.7-.6-1c-.3-.2-.8-.4-1.5-.6-.9-.3-1.4-.4-1.6-.5-.4-.1-.7-.3-.9-.5-.7-.6-1.1-1.5-1.1-2.7 0-1.2.4-2.3 1.1-3.1.9-1 2-1.4 3.4-1.4s2.8.4 4.2 1.1l-1.4 2.7c-.8-.6-1.5-.9-2.3-.9-.4 0-.7.1-1 .3-.3.2-.5.5-.5.9s.2.7.7.9c.2.1.8.3 1.8.6 1.2.4 2.1.9 2.6 1.5.5.5.7 1.2.7 2.1z"/></g><g class="st15"><path class="st0" d="M94.5 229.3c0 .5-.2.9-.5 1.3-.3.3-.8.5-1.3.5s-.9-.2-1.3-.5c-.3-.4-.5-.8-.5-1.3s.2-.9.5-1.3c.3-.3.8-.5 1.3-.5s.9.2 1.3.5c.3.4.5.8.5 1.3zm-.2 17.1h-3.2v-13.6h3.2v13.6zm17.2-4.2l-3.2.5-1.1-1.2c-1.1.6-2.4.8-3.7.8-2.3 0-4.2-.8-5.6-2.3-1.2-1.4-1.8-2.9-1.8-4.8 0-1.8.6-3.4 1.8-4.8 1.4-1.6 3.2-2.3 5.6-2.3 2.3 0 4.2.8 5.6 2.3 1.2 1.4 1.8 3 1.8 4.8 0 1.7-.6 3.3-1.8 4.7l2.4 2.3zm-4.1-6.9c0-.9-.3-1.7-.9-2.4-.8-.9-1.7-1.3-2.9-1.3s-2.1.4-2.9 1.3c-.6.7-.9 1.5-.9 2.4 0 .9.3 1.7.9 2.4.7.9 1.7 1.3 2.9 1.3.3 0 .7 0 1.1-.1l-2.1-2.1 3.3-.4.9 1c.3-.7.6-1.4.6-2.1zm15.1 3.3c0 1.7-.8 2.8-2.4 3.4-.7.2-1.5.3-2.4.3-1.9 0-3.2-.5-4.1-1.4-.5-.6-.8-1.4-.8-2.3v-5.8h3.2v5.1c0 .6.1 1 .4 1.2.3.3.7.4 1.2.4s.9-.1 1.2-.4c.3-.3.4-.7.4-1.2v-5.1h3.2v5.8zm11.8-.7h-6.7c0 1.4.7 2 2 2 .7 0 1.2-.3 1.5-.9h3.1c-.2.8-.6 1.5-1.1 1.9-.9.8-2 1.2-3.5 1.2-1.9 0-3.3-.6-4.2-1.7-.7-.8-1.1-1.9-1.1-3.1 0-1.4.4-2.6 1.3-3.5s2.1-1.4 3.7-1.4c2 0 3.4.7 4.2 2.2.5.8.7 1.7.7 2.8v.5zm-3-1.8c-.2-1-.8-1.5-1.8-1.5-.5 0-1 .2-1.3.5-.3.3-.4.6-.5 1h3.6zm11.6-.3c-.4-.2-.9-.3-1.4-.3-1.1 0-1.7.4-2 1.3-.1.3-.2.7-.2 1.3v3.9h-3.2v-9.1h3.2v1.5c.3-.5.7-.9 1.1-1.1.5-.3 1.1-.5 1.9-.5h.6v3zm12.5-3l-7.3 13.6h-3.6l3.1-5.8-4.4-7.8h3.7l2.4 4.6 2.4-4.6h3.7z"/></g><g class="st15"><path class="st0" d="M100.6 279.1c0 2.3-1 3.7-3 4.4-.7.2-1.4.4-2.2.4-1.7 0-3.2-.5-4.6-1.5l1.5-2.8c1 .9 2.1 1.4 3.1 1.4.5 0 .8-.1 1.1-.3.4-.2.5-.6.5-1s-.2-.7-.6-1c-.3-.2-.8-.4-1.5-.6-.9-.3-1.4-.4-1.6-.5-.4-.1-.7-.3-.9-.5-.7-.6-1.1-1.5-1.1-2.7 0-1.2.4-2.3 1.1-3.1.9-1 2-1.4 3.4-1.4s2.8.4 4.2 1.1l-1.4 2.7c-.8-.6-1.5-.9-2.3-.9-.4 0-.7.1-1 .3-.3.2-.5.5-.5.9s.2.7.7.9c.2.1.8.3 1.8.6 1.2.4 2.1.9 2.6 1.5.5.5.7 1.2.7 2.1zm13.1 4.4h-4.5l-3.5-3.7v3.7h-3.2v-14.7h3.2v8.9l3.3-3.3h4.4l-4.5 4.2 4.8 4.9zm10.8-3.9h-6.7c0 1.4.7 2 2 2 .7 0 1.2-.3 1.5-.9h3.1c-.2.8-.6 1.5-1.1 1.9-.9.8-2 1.2-3.5 1.2-1.9 0-3.3-.6-4.2-1.7-.7-.8-1.1-1.9-1.1-3.1 0-1.4.4-2.6 1.3-3.5s2.1-1.4 3.7-1.4c2 0 3.4.7 4.2 2.2.5.8.7 1.7.7 2.8v.5zm-3-1.9c-.2-1-.8-1.5-1.8-1.5-.5 0-1 .2-1.3.5-.3.3-.4.6-.5 1h3.6zm10.2-.6h-1.8v6.4h-3.2v-6.4h-1.1v-2.6h1.1v-2.7h3.2v2.7h1.8v2.6zm8 6.2c-.7.3-1.4.5-2.1.5-1.7 0-3-.6-3.9-1.7-.8-.9-1.2-2-1.2-3.1 0-1.2.4-2.2 1.2-3.1 1-1.1 2.3-1.7 3.9-1.7.7 0 1.4.2 2.1.5v2.7c-.6-.4-1.1-.6-1.7-.6-.6 0-1.2.2-1.6.6-.4.4-.6.9-.6 1.6s.2 1.2.6 1.6c.4.4.9.6 1.6.6.5 0 1.1-.2 1.7-.6v2.7zm11.4.2h-3.2v-4.6c0-.8-.1-1.3-.3-1.6-.3-.4-.7-.6-1.2-.6s-.9.2-1.2.5c-.3.3-.4.8-.4 1.4v4.9h-3.2v-14.7h3.2v6.7c.4-.4.7-.7 1-.9.5-.3 1.1-.4 1.9-.4 1 0 1.8.3 2.4.8.7.6 1 1.5 1 2.7v5.8z"/></g><path class="st16" d="M29.5 261.5l9.4-1 9.4 1 7.3 9.7-16.7 19.3-16.7-19.3 7.3-9.7z"/><path class="st12" d="M28.9 271.3l10 19.2-16.7-19.2zm20 0l-10 19.2 16.7-19.2z"/><path class="st17" d="M28.8 271.3h19.9l-10 19.2z"/><path class="st18" d="M38.6 260.5l-9.3 1-.5 9.8zm.3 0l9.2 1 .6 9.8z"/><path class="st17" d="M55.6 271.3l-7.3-9.8.5 9.8zm-33.4 0l7.3-9.8-.5 9.8z"/><path class="st19" d="M38.7 260.5l-9.9 10.8h19.9z"/><path class="st20" d="M239.9 282.2h-3.5L230 274v8.2h-3.5v-13.3h3.5l6.4 8.2v-8.2h3.5v13.3zm10.4 0h-7.6v-13.3h7.6v2.9h-4.1v2.3h3.9v2.9h-3.9v2.4h4.1v2.8zm21.1-13.4l-4.3 13.3h-3.5l-2.4-7.7-2.5 7.7h-3.5l-4-13.3h3.6l2.3 8.6 2.8-8.6h2.8l2.6 8.6 2.5-8.6h3.6zm-49.6 13.5l-8.8-6.8 8.8-6.8"/></svg>