<svg id="レイヤー_1" xmlns="http://www.w3.org/2000/svg" viewBox="0 0 150 30"><style>.st0{fill:#ce0f1b}.st1{fill:#68aade}.st2{fill:#3c5998}.st3{fill:#0096db}.st4{fill:#fff}</style><title>sns</title><path class="st0" d="M15 0c8.3 0 15 6.7 15 15s-6.7 15-15 15S0 23.3 0 15 6.7 0 15 0z"/><path class="st1" d="M75 0c8.3 0 15 6.7 15 15s-6.7 15-15 15-15-6.7-15-15S66.7 0 75 0z"/><path class="st2" d="M105 0c8.3 0 15 6.7 15 15s-6.7 15-15 15-15-6.7-15-15 6.7-15 15-15z"/><path class="st3" d="M135 0c8.3 0 15 6.7 15 15s-6.7 15-15 15-15-6.7-15-15 6.7-15 15-15z"/><path class="st4" d="M106.6 25v-9.1h3.1l.5-3.6h-3.5V10c-.2-.8.4-1.6 1.2-1.7h2.5V5.1c-1.1-.1-2-.1-3-.1-2.7 0-4.6 1.7-4.6 4.7v2.6h-3.1v3.6h3.1V25h3.8zm35.1-16.1c-1.6-1.3-3.6-2-5.6-1.9-5.9 0-9.9 4.6-9.9 4.6l1.1 1.8s.6.1.3-1c.5-.8 1.2-1.6 1.9-2.1v12c-.5.1-1.1.4-.7.8h3.2c.4-.4-.2-.7-.7-.8v-2.9c1.5.5 3 .8 4.6.9 2 0 3.9-.6 5.5-1.8 1.5-1.1 2.3-2.9 2.3-4.7.2-1.9-.6-3.7-2-4.9zm-1.8 8.6c-1.1 1-2.6 1.6-4.1 1.6-1.5 0-3-.3-4.4-.9v-9c1.3-.8 2.9-1.3 4.4-1.3 1.6 0 3.1.6 4.1 1.7 1 1.1 1.5 2.5 1.5 4 .1 1.5-.4 2.9-1.5 3.9zM84.5 9.6c-.7.3-1.4.5-2.2.6.8-.5 1.4-1.2 1.7-2.1-.7.4-1.6.7-2.4.9-1.4-1.5-3.8-1.6-5.4-.2-1 .9-1.4 2.3-1.1 3.6-3.1-.2-5.9-1.6-7.8-4-1 1.7-.5 3.9 1.2 5.1-.6 0-1.2-.1-1.7-.4 0 1.8 1.2 3.3 3 3.7-.6.1-1.1.2-1.7.1.5 1.5 1.9 2.6 3.5 2.6-1.3 1.1-2.9 1.6-4.6 1.7h-.9c5 3.2 11.7 1.7 14.9-3.3 1.1-1.7 1.7-3.8 1.7-5.8v-.5c.7-.6 1.3-1.3 1.8-2z"/><path d="M45 0c8.3 0 15 6.7 15 15s-6.7 15-15 15-15-6.7-15-15S36.7 0 45 0z"/><path class="st4" d="M23.7 9.2v12.3H6.3V9.2l8.7 7.6 8.7-7.6zm-.8-.7H7.2l7.8 6.9 7.9-6.9zm30-2.3c-.4-.1-.9 0-1.6.2-.7.3-1.3.6-1.8.9l-.7.5c-1.2-.3-2.5-.5-3.8-.5s-2.5.2-3.7.5c-.2-.1-.5-.3-.8-.5-.3-.2-.9-.5-1.6-.8-.7-.3-1.3-.4-1.7-.3-.6 1.5-.6 2.8-.1 4-1 1.1-1.5 2.4-1.5 4 0 1.1.1 2.1.4 2.9.3.8.6 1.5 1 2.1.4.5.9 1 1.6 1.3.6.4 1.2.6 1.8.8.6.2 1.3.3 2 .4-.5.5-.8 1.1-1 2l-.9.3h-1.2c-.4 0-.9-.1-1.3-.4-.4-.3-.8-.7-1.1-1.2-.2-.4-.6-.8-.9-1-.4-.3-.7-.4-1-.5l-.4-.1c-.3 0-.5 0-.6.1 0 .1-.1.2 0 .3 0 .1.1.2.2.3.1.1.2.2.3.2l.1.1c.3.1.6.4.8.7.3.4.5.7.6 1l.2.4c.2.5.5.9.9 1.2.4.3.8.5 1.3.6.5.1.9.1 1.4.1.4 0 .8 0 1.1-.1l.4-.1v2.8c0 .2-.1.4-.3.6-.2.1-.4.2-.7.1 1.5.5 3.1.8 4.7.8s3.2-.3 4.7-.8c-.3.1-.6 0-.7-.1-.2-.2-.2-.4-.2-.6v-4.1c0-1.3-.3-2.2-1-2.8.7-.1 1.4-.2 2-.4.6-.2 1.2-.4 1.8-.8.6-.4 1.2-.8 1.6-1.3.4-.5.8-1.2 1-2.1.3-.9.4-1.8.4-2.9 0-1.6-.5-2.9-1.5-4 .4-1 .4-2.3-.2-3.8z"/></svg>