<?xml version="1.0" encoding="utf-8"?>
<!-- Generator: Adobe Illustrator 21.0.2, SVG Export Plug-In . SVG Version: 6.00 Build 0)  -->
<svg version="1.1" id="レイヤー_1" xmlns="http://www.w3.org/2000/svg" xmlns:xlink="http://www.w3.org/1999/xlink" x="0px"
	 y="0px" viewBox="0 0 150 30" style="enable-background:new 0 0 150 30;" xml:space="preserve">
<style type="text/css">
	.st0{fill:#CE0F1B;}
	.st1{fill:#68AADE;}
	.st2{fill:url(#SVGID_1_);}
	.st3{fill:#0096DB;}
	.st4{fill:#FFFFFF;}
	.st5{fill:#191313;}
</style>
<title>sns</title>
<path class="st0" d="M15,0L15,0c8.3,0,15,6.7,15,15l0,0c0,8.3-6.7,15-15,15l0,0C6.7,30,0,23.3,0,15l0,0C0,6.7,6.7,0,15,0z"/>
<path class="st1" d="M75,0L75,0c8.3,0,15,6.7,15,15l0,0c0,8.3-6.7,15-15,15l0,0c-8.3,0-15-6.7-15-15l0,0C60,6.7,66.7,0,75,0z"/>
<radialGradient id="SVGID_1_" cx="94.875" cy="27.75" r="32.85" gradientUnits="userSpaceOnUse">
	<stop  offset="0" style="stop-color:#FED778"/>
	<stop  offset="0.3327" style="stop-color:#FC6D30"/>
	<stop  offset="0.6663" style="stop-color:#BE3288"/>
	<stop  offset="1" style="stop-color:#6C50C0"/>
</radialGradient>
<path class="st2" d="M105,0L105,0c8.3,0,15,6.7,15,15l0,0c0,8.3-6.7,15-15,15l0,0c-8.3,0-15-6.7-15-15l0,0C90,6.7,96.7,0,105,0z"/>
<path class="st3" d="M135,0L135,0c8.3,0,15,6.7,15,15l0,0c0,8.3-6.7,15-15,15l0,0c-8.3,0-15-6.7-15-15l0,0C120,6.7,126.7,0,135,0z"
	/>
<path class="st4" d="M141.7,8.9c-1.6-1.3-3.6-2-5.6-1.9c-5.9,0-9.9,4.6-9.9,4.6l1.1,1.8c0,0,0.6,0.1,0.3-1c0.5-0.8,1.2-1.6,1.9-2.1
	v12c-0.5,0.1-1.1,0.4-0.7,0.8h3.2c0.4-0.4-0.2-0.7-0.7-0.8v-2.9c1.5,0.5,3,0.8,4.6,0.9c2,0,3.9-0.6,5.5-1.8c1.5-1.1,2.3-2.9,2.3-4.7
	C143.9,11.9,143.1,10.1,141.7,8.9z M139.9,17.5c-1.1,1-2.6,1.6-4.1,1.6s-3-0.3-4.4-0.9v-9c1.3-0.8,2.9-1.3,4.4-1.3
	c1.6,0,3.1,0.6,4.1,1.7s1.5,2.5,1.5,4C141.5,15.1,141,16.5,139.9,17.5z"/>
<path class="st4" d="M84.5,9.6c-0.7,0.3-1.4,0.5-2.2,0.6C83.1,9.7,83.7,9,84,8.1c-0.7,0.4-1.6,0.7-2.4,0.9c-1.4-1.5-3.8-1.6-5.4-0.2
	c-1,0.9-1.4,2.3-1.1,3.6c-3.1-0.2-5.9-1.6-7.8-4c-1,1.7-0.5,3.9,1.2,5.1c-0.6,0-1.2-0.1-1.7-0.4l0,0c0,1.8,1.2,3.3,3,3.7
	c-0.6,0.1-1.1,0.2-1.7,0.1c0.5,1.5,1.9,2.6,3.5,2.6c-1.3,1.1-2.9,1.6-4.6,1.7c-0.3,0-0.6,0-0.9,0c5,3.2,11.7,1.7,14.9-3.3
	c1.1-1.7,1.7-3.8,1.7-5.8v-0.5C83.4,11,84,10.3,84.5,9.6z"/>
<path class="st5" d="M45,0L45,0c8.3,0,15,6.7,15,15l0,0c0,8.3-6.7,15-15,15l0,0c-8.3,0-15-6.7-15-15l0,0C30,6.7,36.7,0,45,0z"/>
<path class="st4" d="M23.7,9.2v12.3H6.3V9.2l8.7,7.6L23.7,9.2z M22.9,8.5H7.2l7.8,6.9L22.9,8.5z"/>
<g>
	<path class="st4" d="M105,7.9c2.3,0,2.6,0,3.5,0.1c0.8,0,1.3,0.2,1.6,0.3c0.4,0.1,0.7,0.4,1,0.6c0.3,0.3,0.5,0.6,0.6,1
		c0.1,0.3,0.3,0.8,0.3,1.6c0,0.9,0.1,1.2,0.1,3.5s0,2.6-0.1,3.5c0,0.8-0.2,1.3-0.3,1.6c-0.3,0.7-0.9,1.3-1.6,1.6
		c-0.3,0.1-0.8,0.3-1.6,0.3c-0.9,0-1.2,0.1-3.5,0.1s-2.6,0-3.5-0.1c-0.8,0-1.3-0.2-1.6-0.3c-0.4-0.1-0.7-0.4-1-0.6
		c-0.3-0.3-0.5-0.6-0.6-1c-0.1-0.3-0.3-0.8-0.3-1.6c0-0.9-0.1-1.2-0.1-3.5s0-2.6,0.1-3.5c0-0.8,0.2-1.3,0.3-1.6
		c0.1-0.4,0.4-0.7,0.6-1c0.3-0.3,0.6-0.5,1-0.6c0.3-0.1,0.8-0.3,1.6-0.3C102.4,8,102.7,7.9,105,7.9 M105,6.4c-2.3,0-2.6,0-3.5,0.1
		s-1.5,0.2-2.1,0.4c-0.6,0.2-1.1,0.6-1.5,1s-0.8,0.9-1,1.5c-0.2,0.5-0.4,1.2-0.4,2.1c0,0.9-0.1,1.2-0.1,3.5s0,2.6,0.1,3.5
		c0,0.9,0.2,1.5,0.4,2.1c0.2,0.6,0.6,1.1,1,1.5s0.9,0.8,1.5,1c0.5,0.2,1.2,0.4,2.1,0.4s1.2,0.1,3.5,0.1s2.6,0,3.5-0.1
		s1.5-0.2,2.1-0.4c1.2-0.4,2.1-1.4,2.5-2.5c0.2-0.5,0.4-1.2,0.4-2.1s0.1-1.2,0.1-3.5s0-2.6-0.1-3.5c0-0.9-0.2-1.5-0.4-2.1
		c-0.2-0.6-0.6-1.1-1-1.5c-0.4-0.4-0.9-0.8-1.5-1c-0.5-0.2-1.2-0.4-2.1-0.4C107.6,6.4,107.3,6.4,105,6.4L105,6.4L105,6.4z"/>
	<path class="st4" d="M105,10.6c-2.4,0-4.4,2-4.4,4.4s2,4.4,4.4,4.4s4.4-2,4.4-4.4S107.4,10.6,105,10.6L105,10.6z M105,17.9
		c-1.6,0-2.9-1.3-2.9-2.9s1.3-2.9,2.9-2.9s2.9,1.3,2.9,2.9S106.6,17.9,105,17.9L105,17.9z"/>
	<circle class="st4" cx="109.6" cy="10.4" r="1"/>
</g>
<path class="st4" d="M51.2,8.5c0,0-1-0.3-3.3,1.2c-1-0.3-2-0.4-3-0.4s-2.1,0.1-3,0.4c-2.3-1.6-3.3-1.2-3.3-1.2
	c-0.7,1.7-0.2,2.9-0.1,3.2c-0.8,0.8-1.2,1.9-1.2,3.2c0,4.6,2.8,5.7,5.5,6c-0.3,0.3-0.7,0.8-0.8,1.6c-0.7,0.3-2.4,0.8-3.5-1
	c0,0-0.6-1.2-1.9-1.2c0,0-1.2,0-0.1,0.7c0,0,0.8,0.4,1.3,1.8c0,0,0.7,2.2,4.1,1.4c0,1,0,2,0,2.2c0,1.3-1.4,2.1-2.4,2.5
	C41.2,29.6,43,30,45,30c1.7,0,3.3-0.3,4.8-0.8c-0.8-0.4-1.8-1.3-1.9-2.7c0-0.4,0-1.7,0-3.3c0-1.1-0.4-1.9-0.8-2.2
	c2.7-0.3,5.5-1.3,5.5-6c0-1.3-0.5-2.4-1.2-3.2C51.4,11.4,51.9,10.2,51.2,8.5z"/>
</svg>
